<svg width="128" height="288" viewBox="0 0 128 288" fill="none" xmlns="http://www.w3.org/2000/svg">
<rect x="49" y="136" width="32" height="24" fill="#E2A56B"/>
<path d="M81 149.446C76.3165 151.723 71.0574 153 65.5 153H63.5C58.3348 153 53.4272 151.897 49 149.913V141H81V149.446Z" fill="#9D6445"/>
<path fill-rule="evenodd" clip-rule="evenodd" d="M28 59.5C28 39.8939 43.8939 24 63.5 24H65.5C85.1061 24 101 39.8939 101 59.5V84C106.523 84 111 88.4771 111 94C111 99.5229 106.523 104 101 104V111.5C101 131.106 85.1061 147 65.5 147H63.5C43.8939 147 28 131.106 28 111.5V104C22.4772 104 18 99.5229 18 94C18 88.4771 22.4772 84 28 84V59.5Z" fill="#E2A56B"/>
<path d="M61 100C61.0003 102.762 63.2387 105 66 105C68.7614 105 71 102.761 71 100V86C71 84.8742 70.6279 83.8353 70 82.9995C70 82.9994 70 82.9997 70 82.9995V97C70 99.7614 67.7614 102 65 102C63.3644 102 61.9122 101.215 61 100Z" fill="#CA5D22"/>
<path d="M35.8976 10.802C40.9312 6.69549 48.2486 10.5576 51.2781 13.002C54.7736 15.9352 63.3029 21.8018 69.4551 21.8018C77.1453 21.8018 96.7204 15.2019 105.809 21.8018C114.897 28.4016 110.004 40.8679 108.605 46.7345C107.207 52.601 113.499 57.0009 114.897 64.334C116.296 71.6671 103.012 82.6669 99.5169 87.8001C100.915 77.5337 98.1186 54.8009 95.3222 52.601C92.5257 50.401 83.4373 57.7342 73.6497 58.4675C63.8622 59.2008 48.4819 41.0145 35.8977 48.9344C30.3048 52.4543 28.4405 77.7781 28.2075 90C27.9744 88.2889 26.8094 81.2002 24.7119 78.267C20.8445 72.8584 9.33139 65.8006 10.0305 58.4675C10.8388 49.9887 17.7207 55.5342 17.0216 46.7345C16.3225 37.9347 17.0216 35.7347 21.2163 33.5348C25.4109 31.3348 30.3047 35.0014 33.1012 31.3348C35.3383 28.4016 34.0333 25.7128 33.1012 24.735C31.936 21.8018 30.864 14.9086 35.8976 10.802Z" fill="#4F4C4C"/>
<path d="M52 86.5C52 88.433 50.433 90 48.5 90C46.567 90 45 88.433 45 86.5C45 84.567 46.567 83 48.5 83C50.433 83 52 84.567 52 86.5Z" fill="#333333"/>
<path d="M85 86.5C85 88.433 83.433 90 81.5 90C79.567 90 78 88.433 78 86.5C78 84.567 79.567 83 81.5 83C83.433 83 85 84.567 85 86.5Z" fill="#333333"/>
<path d="M82 121H64.9327C58.9835 121 53.684 124.76 51.7187 130.375L51.5 131H78.5L82 121Z" fill="#333333"/>
<path d="M56.5 72H42.3361L40.5 77H54.6639L56.5 72Z" fill="#333333"/>
<path d="M91.5 72H77.3361L75.5 77H89.6639L91.5 72Z" fill="#333333"/>
<g clip-path="url(#clip0_13_5430)">
<path d="M7 178.286C7 168.187 15.0589 160 25 160H103C112.941 160 121 168.187 121 178.286V268.698C121 278.797 112.941 286.984 103 286.984H25C15.0589 286.984 7 278.797 7 268.698V178.286Z" fill="#65C3C9"/>
<ellipse cx="64.5" cy="236.698" rx="33.5" ry="34.0317" fill="white"/>
<path fill-rule="evenodd" clip-rule="evenodd" d="M51.8464 257.721C51.8846 257.721 51.9227 257.72 51.9605 257.716C52.5677 257.656 53.0362 257.132 53.0362 256.512C53.0362 256.185 52.9058 255.872 52.6745 255.644L51.7302 254.682L57.787 248.529L60.5155 251.303C60.7399 251.537 61.0477 251.669 61.3694 251.669L61.3795 251.669C62.0327 251.669 62.57 251.123 62.57 250.46C62.57 250.131 62.438 249.816 62.2045 249.588L61.2601 248.628L77.6842 231.941C78.1433 231.472 78.1433 230.703 77.6842 230.235L74.951 227.458L81.1919 221.119C82.4892 219.985 80.6285 218.095 79.5124 219.412L73.2718 225.752L70.5386 222.974C70.0773 222.507 69.3207 222.507 68.8591 222.974L52.4325 239.661L51.4859 238.701C51.2638 238.486 50.9682 238.365 50.661 238.365C50.0062 238.365 49.4674 238.912 49.4674 239.578C49.4674 239.89 49.5865 240.191 49.7995 240.417L52.5327 243.193L46.4711 249.342L45.5264 248.382C45.3005 248.117 44.9712 247.964 44.6255 247.964C43.9723 247.964 43.4348 248.51 43.4348 249.173C43.4348 249.525 43.5854 249.859 43.8472 250.089L50.995 257.35C51.2178 257.585 51.525 257.719 51.8464 257.721ZM50.0462 252.974L48.155 251.053L54.2119 244.899L56.1031 246.821L50.0462 252.974ZM54.1167 241.372L59.5806 246.922L61.927 244.538L59.5704 242.144L60.4125 241.289L62.7691 243.683L64.4534 241.972L62.0967 239.578L62.9389 238.722L65.2955 241.117L66.9797 239.406L64.6231 237.012L65.4652 236.156L67.8219 238.55L69.5061 236.839L67.1495 234.445L67.9916 233.59L70.3482 235.984L72.0325 234.273L69.6758 231.879L70.5179 231.023L72.8746 233.417L75.1627 231.093L69.6941 225.537L54.1167 241.372Z" fill="#5C5C5C"/>
<path fill-rule="evenodd" clip-rule="evenodd" d="M96.1389 236.698C96.1389 254.449 81.9736 268.84 64.5 268.84C47.0263 268.84 32.8611 254.449 32.8611 236.698C32.8611 218.947 47.0263 204.557 64.5 204.557C81.9736 204.557 96.1389 218.947 96.1389 236.698ZM89.7711 236.698C89.7711 222.52 78.4568 211.026 64.5 211.026C58.5698 211.026 53.1167 213.101 48.8058 216.576L84.894 251.862C87.9603 247.613 89.7711 242.371 89.7711 236.698ZM64.5 262.371C50.5431 262.371 39.2289 250.877 39.2289 236.698C39.2289 231.162 40.9542 226.034 43.8886 221.841L79.9015 257.054C75.6377 260.388 70.2968 262.371 64.5 262.371Z" fill="#C64875"/>
<path d="M65 181.333C76.598 181.333 86 171.782 86 160H44C44 171.782 53.402 181.333 65 181.333Z" fill="#E2A56B"/>
</g>
<defs>
<clipPath id="clip0_13_5430">
<rect width="114" height="126.984" fill="white" transform="translate(7 160)"/>
</clipPath>
</defs>
</svg>
