<svg width="128" height="288" viewBox="0 0 128 288" fill="none" xmlns="http://www.w3.org/2000/svg">
<rect x="49" y="136" width="32" height="24" fill="#F6C09D"/>
<path d="M81 149.446C76.3165 151.723 71.0574 153 65.5 153H63.5C58.3348 153 53.4272 151.897 49 149.913V141H81V149.446Z" fill="#D88E8D"/>
<path fill-rule="evenodd" clip-rule="evenodd" d="M28 59.5C28 39.8939 43.8939 24 63.5 24H65.5C85.1061 24 101 39.8939 101 59.5V84C106.523 84 111 88.4771 111 94C111 99.5229 106.523 104 101 104V111.5C101 131.106 85.1061 147 65.5 147H63.5C43.8939 147 28 131.106 28 111.5V104C22.4772 104 18 99.5229 18 94C18 88.4771 22.4772 84 28 84V59.5Z" fill="#F6C09D"/>
<circle cx="48.5" cy="87.5" r="3.5" fill="#66CDD9"/>
<circle cx="81.5" cy="87.5" r="3.5" fill="#66CDD9"/>
<path d="M61 101C61.0003 103.762 63.2387 106 66 106C68.7614 106 71 103.761 71 101V87C71 85.8742 70.6279 84.8353 70 83.9995C70 83.9994 70 83.9997 70 83.9995V98C70 100.761 67.7614 103 65 103C63.3644 103 61.9122 102.215 61 101Z" fill="#D88E8D"/>
<path d="M18.6469 75.8519C17.0032 69.6835 25.6323 51.1783 28.3032 44.8109C29.9469 42.0251 34.1792 36.8118 37.9596 38.2445C41.7399 39.6771 37.9596 44.8109 35.4941 48.3925C32.2069 55.0783 36.042 62.5865 38.3704 65.5049C37.4117 66.4335 35.0832 68.9672 33.4396 71.6733C31.796 74.3795 31.796 82.352 32.0014 86H23.3723C22.3451 84.6735 19.9618 80.7867 18.6469 75.8519Z" fill="#7B7B7B"/>
<path d="M43.0138 75.0956C40.0232 74.4785 37.7585 76.9984 37 78.3355C37.596 78.3355 39.0479 78.5207 40.0882 79.2612C41.3884 80.1869 41.5588 81.6111 44.6391 82.6554C46.9146 83.4268 51.7907 81.884 53.9036 81.884C55.594 81.884 57.4252 83.3239 58.1296 84.0439C58.3463 83.8382 58.7302 83.581 58.9902 82.3468C59.3153 80.804 51.4176 79.724 49.5152 78.9526C47.521 78.144 46.7521 75.867 43.0138 75.0956Z" fill="#7B7B7B"/>
<path d="M56.1791 88.6723C55.0414 90.1122 52.1158 92.9921 49.5152 92.9921C46.2645 92.9921 43.6639 93.3007 40.0882 90.0608M37 78.3355C37.7585 76.9984 40.0232 74.4785 43.0138 75.0956C46.7521 75.867 47.521 78.144 49.5152 78.9526C51.4176 79.724 59.3153 80.804 58.9902 82.3468C58.7302 83.581 58.3463 83.8382 58.1296 84.0439C57.4252 83.3239 55.594 81.884 53.9036 81.884C51.7907 81.884 46.9146 83.4268 44.6391 82.6554C41.5588 81.6111 41.3884 80.1869 40.0882 79.2612C39.0479 78.5207 37.596 78.3355 37 78.3355Z" stroke="#7B7B7B"/>
<path d="M86.9862 75.0956C89.9768 74.4785 92.2415 76.9984 93 78.3355C92.404 78.3355 90.9521 78.5207 89.9118 79.2612C88.6116 80.1869 88.4412 81.6111 85.3609 82.6554C83.0854 83.4268 78.2093 81.884 76.0964 81.884C74.406 81.884 72.5748 83.3239 71.8704 84.0439C71.6537 83.8382 71.2698 83.581 71.0098 82.3468C70.6847 80.804 78.5824 79.724 80.4848 78.9526C82.479 78.144 83.2479 75.867 86.9862 75.0956Z" fill="#7B7B7B"/>
<path d="M73.8209 88.6723C74.9586 90.1122 77.8842 92.9921 80.4848 92.9921C83.7355 92.9921 86.3361 93.3007 89.9118 90.0608M93 78.3355C92.2415 76.9984 89.9768 74.4785 86.9862 75.0956C83.2479 75.867 82.479 78.144 80.4848 78.9526C78.5824 79.724 70.6847 80.804 71.0098 82.3468C71.2698 83.581 71.6537 83.8382 71.8704 84.0439C72.5748 83.3239 74.406 81.884 76.0964 81.884C78.2093 81.884 83.0854 83.4268 85.3609 82.6554C88.4412 81.6111 88.6116 80.1869 89.9118 79.2612C90.9521 78.5207 92.404 78.3355 93 78.3355Z" stroke="#7B7B7B"/>
<path d="M112.785 75.4291C114.497 69.0037 105.508 49.7274 102.726 43.0946C101.014 40.1928 96.6054 34.7623 92.6676 36.2547C88.7297 37.747 92.6676 43.0946 95.2357 46.8255C98.6599 53.7899 94.6651 61.611 92.2396 64.651C93.2383 65.6182 95.6638 68.2575 97.3759 71.0764C99.088 73.8953 99.088 82.2 98.874 86H107.863C108.933 84.6182 111.415 80.5695 112.785 75.4291Z" fill="#7B7B7B"/>
<path d="M48 121C49.0171 120.037 51.3564 118.022 52.5769 117.667C54.1026 117.222 59.9872 117 61.2949 117C62.6026 117 63.0385 117.667 65 117.667C66.9615 117.667 67.3974 117 68.7051 117C70.0128 117 75.8974 117.222 77.4231 117.667C78.6436 118.022 80.9829 120.037 82 121" stroke="#7B7B7B"/>
<path d="M65.3269 52.5914C59.1043 53.3588 57.927 44.7263 49.0135 41.8489C42.0231 39.5922 36.7343 46.2908 34.3819 49.5221C33.6074 49.5861 31.2874 48.8699 31.0183 45.4937C30.682 41.2734 35.0546 38.7796 37.9136 35.5184C40.7727 32.2573 59.777 27.2697 67.0087 26.886C74.2405 26.5023 99.2992 39.9305 101.654 44.3427C104.008 48.7548 106.531 57.3872 103.84 52.5914C101.697 48.7714 98.0416 49.262 96.1287 49.5188L96.1039 49.5221C93.8054 50.8649 90.2176 50.8649 85.6767 49.5221C79.8477 47.7984 71.5496 51.8241 65.3269 52.5914Z" fill="#555555"/>
<path d="M65.7957 50.0122C59.7675 50.7547 58.6271 42.4008 49.9921 39.6161C43.2201 37.4323 38.0966 43.9147 35.8177 47.0419C35.0674 47.1037 32.8199 46.4107 32.5592 43.1434C32.2334 39.0592 36.4694 33.5335 39.2391 30.3776C42.0088 27.2216 57.9865 23 64.9999 23C81.5748 23 98.7064 35.3463 100.987 39.6161C103.268 43.8859 105.712 54.6532 103.105 50.0122C101.029 46.3153 97.4881 46.7901 95.6349 47.0386L95.6109 47.0419C93.3842 48.3414 89.9085 48.3414 85.5096 47.0419C79.8627 45.3737 71.8239 49.2696 65.7957 50.0122Z" fill="#7B7B7B"/>
<path d="M7 178C7 168.059 15.0589 160 25 160H103C112.941 160 121 168.059 121 178V270C121 279.941 112.941 288 103 288H25C15.0589 288 7 279.941 7 270V178Z" fill="#59A6EA"/>
<path d="M7 178.432C7 168.252 15.0589 160 25 160H103C112.941 160 121 168.252 121 178.432V269.568C121 279.748 112.941 288 103 288H25C15.0589 288 7 279.748 7 269.568V178.432Z" fill="#59A6EA"/>
<path d="M64 257.28L41.5 160H85.5L64 257.28Z" fill="#E3E3E3"/>
<path d="M57 160L60 170.24L58 206.592H69L67 170.24L70 160H57Z" fill="#66CDD9"/>
<path d="M34 160H44L93.5 288H83.5L34 160Z" fill="#F2CF21"/>
<path d="M25 160H34L83.5 288H74.5L25 160Z" fill="#3C8519"/>
<path d="M44 160H53L102.5 288H93.5L44 160Z" fill="#3C8519"/>
</svg>
