<svg width="128" height="288" viewBox="0 0 128 288" fill="none" xmlns="http://www.w3.org/2000/svg">
<rect x="49" y="136" width="32" height="24" fill="#F6C09D"/>
<path d="M81 148.446C76.3165 150.723 71.0574 152 65.5 152H63.5C58.3348 152 53.4272 150.897 49 148.913L49 140H81V148.446Z" fill="#D88E8D"/>
<path d="M27.5483 59.8889C27.5483 40.2828 43.4422 24.3889 63.0483 24.3889H65.0483C84.6544 24.3889 100.548 40.2828 100.548 59.8889V84.3889C106.071 84.3889 110.548 88.866 110.548 94.3889C110.548 99.9117 106.071 104.389 100.548 104.389V111.889C100.548 131.495 84.6544 147.389 65.0483 147.389H63.0483C43.4422 147.389 27.5483 131.495 27.5483 111.889V104.389C22.0255 104.389 17.5483 99.9117 17.5483 94.3889C17.5483 88.866 22.0255 84.3889 27.5483 84.3889V59.8889Z" fill="#F6C09D"/>
<circle cx="48.0483" cy="87.8889" r="3.5" fill="#4C150E"/>
<circle cx="81.0483" cy="87.8889" r="3.5" fill="#4C150E"/>
<path d="M60.5483 101.389C60.5486 104.151 62.7871 106.389 65.5483 106.389C68.3098 106.389 70.5483 104.15 70.5483 101.389V87.3889C70.5483 86.2631 70.1763 85.2241 69.5483 84.3884C69.5483 84.3882 69.5483 84.3886 69.5483 84.3884V98.3889C69.5483 101.15 67.3098 103.389 64.5483 103.389C62.9127 103.389 61.4606 102.604 60.5483 101.389Z" fill="#D88E8D"/>
<path d="M27.5482 87.3889C27.5482 87.3889 19.0482 79.8889 17.5482 74.8889C16.0482 69.8889 18.0482 56.3889 18.5482 51.8889C19.0482 47.3889 24.5482 30.8889 29.0482 25.8889C33.5482 20.8889 45.0482 16.8889 45.0482 16.8889C45.0482 16.8889 87.5482 14.8889 91.5482 16.8889C95.5482 18.8889 96.0482 23.8889 96.0482 23.8889C96.0482 23.8889 104.048 41.8889 105.048 46.8889C106.048 51.8889 106.548 70.3889 105.048 74.8889C103.548 79.3889 100.548 87.3889 100.548 87.3889C100.548 87.3889 101.048 70.3889 100.548 65.8889C100.048 61.3889 97.0482 53.3889 96.0482 50.8889C95.0482 48.3889 88.0482 41.3889 88.0482 41.3889C88.0482 41.3889 54.0482 33.8889 45.0482 34.8889C36.0482 35.8889 33.5482 43.3889 32.0482 46.8889C30.5482 50.3889 27.5482 60.8889 27.5482 65.8889V87.3889Z" fill="#41030A"/>
<path d="M87.5483 77.3889C84.0483 77.3889 76.5483 80.8889 76.5483 80.8889H87.0483H92.5483H95.0483C95.0483 80.8889 89.5483 77.3889 87.5483 77.3889Z" fill="#41030A"/>
<path d="M49.0483 77.3889C46.0483 77.3889 38.5483 80.8889 38.5483 80.8889H49.0483H54.5483H57.0483C57.0483 80.8889 52.0483 77.3889 49.0483 77.3889Z" fill="#41030A"/>
<path d="M70.0483 120.889H59.5483L51.0483 124.889H78.5483L70.0483 120.889Z" fill="#41030A"/>
<path d="M6.99997 178.432C6.99997 168.252 15.0589 160 25 160H103C112.941 160 121 168.252 121 178.432V269.568C121 279.748 112.941 288 103 288H25C15.0589 288 6.99997 279.748 6.99997 269.568V178.432Z" fill="#59A6EA"/>
<path d="M64.9932 181.504C76.5911 181.504 85.9932 171.876 85.9932 160H43.9932C43.9932 171.876 53.3952 181.504 64.9932 181.504Z" fill="#F6C09D"/>
</svg>
