<svg width="128" height="288" viewBox="0 0 128 288" fill="none" xmlns="http://www.w3.org/2000/svg">
<path d="M49 136H81V160H49V136Z" fill="#F6C09D"/>
<path d="M81 148C76.3165 150.277 71.0574 153 65.5 153H63.5C58.3348 153 53.4272 149.984 49 148V141H81V148Z" fill="#C99281"/>
<path d="M28 59.5C28 39.8939 43.8939 24 63.5 24H65.5C85.1061 24 101 39.8939 101 59.5V84C106.523 84 111 88.4771 111 94C111 99.5229 106.523 104 101 104V111.5C101 120.512 95.0331 127.74 89.5 134C82.9955 141.359 76.0941 147 65.5 147H63.5C54.3395 147 47.8521 140.752 42 135C33.7976 126.938 28 117.92 28 111.5V104C22.4772 104 18 99.5229 18 94C18 88.4771 22.4772 84 28 84V59.5Z" fill="#F6C09D"/>
<path d="M34.2088 88.5L28.7088 83C27.0421 76.1667 18.5722 68.5 20.2088 50.5C22.1636 29 31.2088 18 63.7088 18C96.2088 18 105.209 27.5 108.209 49.5C110.118 63.5 102.709 76 100.709 83L95.7088 87.5C96.2088 81.5 97.2088 66.8 97.2088 60C97.2088 39.5 72.7088 45 63.7088 45C54.7088 45 31.7088 40.5 30.7088 60C30.1865 70.1847 32.5421 83.8333 34.2088 88.5Z" fill="#4C150E"/>
<path d="M58.2085 28.5C64.7085 33.5004 64.2085 39.5 63.2085 44.9997L61.8706 44.9462C61.5648 43.0691 61.0438 40.4495 60.1949 36.8841C59.1532 32.5092 55.7438 28.9604 51.9967 26.3164C48.2394 23.6652 44.0657 21.869 41.3576 21.0227L41.2826 21.2626C40.8844 21.1295 40.5253 21.043 40.2085 20.9998C45.5418 19.9998 53.1956 24.6437 58.2085 28.5Z" fill="#663E3E"/>
<path d="M46.1397 24.0338C47.8612 24.8738 49.6874 25.9108 51.4202 27.1335C55.0899 29.7229 58.2637 33.0907 59.2221 37.1158C60.0372 40.5391 60.5455 43.0739 60.8505 44.9054L57.6094 44.7758C56.7939 39.914 53.5885 36.2279 49.9254 33.594C46.6343 31.2276 42.9303 29.6772 40.1225 28.8572C45.0416 27.7265 48.9847 28.1822 52.1327 29.5724C49.9444 27.1921 47.9204 25.3727 46.1397 24.0338Z" fill="#663E3E"/>
<path d="M38.6533 29.2345L38.594 29.4867C41.3755 30.1411 45.6374 31.7425 49.3416 34.4059C52.0987 36.3883 54.5143 38.9342 55.8077 42.0884C52.6002 37.5324 47.9846 34.8794 43.4886 33.412C39.1409 31.9931 34.8684 31.6698 32.0076 31.8156C34.3907 30.6614 36.602 29.8151 38.6533 29.2345Z" fill="#663E3E"/>
<path d="M30.2435 32.7101L30.2907 32.993C32.7093 32.5899 37.878 32.6328 43.1784 34.3627C48.1815 35.9955 53.2503 39.1129 56.2586 44.7217L50.7085 44.4997C50.2085 41.833 43.2085 29.5 23.2085 36.9997C25.6983 35.2962 28.0405 33.8764 30.2435 32.7101Z" fill="#663E3E"/>
<path d="M90.0966 29.3931C72.5883 24.2651 65.0743 37.1367 63.2085 44.9997L64.0608 44.9507L63.7341 44.8418C65.2669 40.2435 71.1831 30.7319 82.6552 29.5027C85.3727 29.2116 87.8576 29.2053 90.0966 29.3931Z" fill="#663E3E"/>
<path d="M95.0019 31.2018C91.7747 30.3985 87.6702 29.9712 82.7617 30.4971C72.0352 31.6463 66.3613 40.424 64.7682 44.91L75.7085 44.2803C76.2085 41.6136 85.2085 29.5003 105.208 37C101.522 34.478 98.1264 32.5777 95.0019 31.2018Z" fill="#663E3E"/>
<path d="M52 86.5C52 88.433 50.433 90 48.5 90C46.567 90 45 88.433 45 86.5C45 84.567 46.567 83 48.5 83C50.433 83 52 84.567 52 86.5Z" fill="#4C150E"/>
<path d="M85 86.5C85 88.433 83.433 90 81.5 90C79.567 90 78 88.433 78 86.5C78 84.567 79.567 83 81.5 83C83.433 83 85 84.567 85 86.5Z" fill="#4C150E"/>
<path d="M85.5 116C69.9 119.2 53.3333 114.667 47 112C54.7836 122.675 55.5 127 65 127.826C77.0467 128.873 76.6164 123.218 85.5 116Z" fill="#4C150E"/>
<path d="M44 75.7338C39.6 74.9338 37.5 78.0672 37 79.7338C37.1667 78.7338 37.9472 73.5847 42 72.2338C45 71.2339 55.5 73.7339 56.5 74.234C57.5119 74.74 56.8333 77.2339 56.5 78.7339C55.5 79.234 48.4 76.5338 44 75.7338Z" fill="#4C150E"/>
<path d="M87.0333 75.7338C91.4333 74.9338 93.5333 78.0672 94.0333 79.7338C93.8667 78.7338 93.0861 73.5847 89.0333 72.2338C86.0333 71.2339 75.5333 73.7339 74.5333 74.234C73.5214 74.74 74.2 77.2339 74.5333 78.7339C75.5333 79.234 82.6333 76.5338 87.0333 75.7338Z" fill="#4C150E"/>
<path d="M47 112C53.3333 114.667 69.9 119.2 85.5 116C82.5082 118.431 83.2114 117.12 81.5 119C69 125 57 121 50.5 116.5C49.2265 114.63 48.869 114.563 47 112Z" fill="white"/>
<path d="M54.6764 122.834C57.2188 125.866 59.7869 127.373 65 127.826C70.3432 128.29 73.6645 126.724 76 125C65.9327 126.288 59 125 54.6764 122.834Z" fill="white"/>
<path d="M61 100C61.0003 102.762 63.2388 105 66 105C68.7614 105 71 102.761 71 100V86C71 84.8742 70.6279 83.8353 70 82.9995V97C70 99.7614 67.7614 102 65 102C63.3644 102 61.9123 101.215 61 100Z" fill="#C99281"/>
<path fill-rule="evenodd" clip-rule="evenodd" d="M38.3945 86.8663C37.6847 86.5916 36.947 86.5 36.5 86.5L36.5 85.5C37.053 85.5 37.9153 85.6085 38.7555 85.9338C39.5936 86.2582 40.4706 86.8232 40.9472 87.7764L41.4044 88.6908L40.402 88.4904C38.5959 88.1291 37.6343 88.95 37.416 89.2774L36.584 88.7227C36.9415 88.1864 37.886 87.4553 39.3662 87.4034C39.0817 87.1805 38.7492 87.0036 38.3945 86.8663ZM91.7445 85.9338C92.5847 85.6085 93.447 85.5 94 85.5L94 86.5C93.553 86.5 92.8153 86.5916 92.1055 86.8663C91.7509 87.0036 91.4183 87.1805 91.1338 87.4034C92.614 87.4553 93.5585 88.1864 93.916 88.7227L93.084 89.2774C92.8657 88.95 91.9042 88.1291 90.0981 88.4904L89.0956 88.6908L89.5528 87.7764C90.0295 86.8232 90.9065 86.2582 91.7445 85.9338ZM54.7096 91.954C49.3232 94.44 45.1466 92.6677 43.6708 91.3763L44.3293 90.6237C45.5201 91.6657 49.2768 93.36 54.2905 91.046L54.7096 91.954ZM76.2096 91.046C81.2232 93.36 84.98 91.6657 86.1708 90.6237L86.8293 91.3763C85.3534 92.6677 81.1768 94.44 75.7905 91.954L76.2096 91.046ZM40.5257 117.158C38.8681 112.185 40.5129 108.15 41.6 106.7L42.4 107.3C41.4872 108.517 39.9319 112.215 41.4744 116.842L40.5257 117.158ZM43.4134 109.594C43.7933 108.913 44.3179 108.387 44.7 108.1L45.3 108.9C45.0155 109.113 44.5901 109.537 44.2867 110.081C43.9854 110.621 43.8252 111.239 43.9851 111.879L43.0149 112.121C42.7748 111.161 43.0313 110.279 43.4134 109.594ZM89.5334 119.821C91.4673 114.792 90.0151 110.805 89.5405 109.697L90.4596 109.303C90.9849 110.529 92.5328 114.808 90.4667 120.179L89.5334 119.821ZM86.3619 114.164C86.187 114.031 86.062 114 86 114V113C86.3547 113 86.6881 113.156 86.9663 113.367C87.2496 113.582 87.5119 113.88 87.7349 114.232C88.1814 114.937 88.5 115.905 88.5 117H87.5C87.5 116.095 87.2353 115.313 86.8901 114.768C86.7173 114.495 86.5317 114.293 86.3619 114.164Z" fill="#C99281"/>
<path fill-rule="evenodd" clip-rule="evenodd" d="M47.0573 111.503L45.9236 111.372L46.596 112.295C47.9432 114.142 49.0784 115.8 50.0863 117.284L50.0879 117.287C50.1165 117.329 50.1453 117.371 50.1743 117.414C50.7033 118.203 51.2409 119.302 51.8707 120.59C51.9516 120.755 52.0341 120.924 52.1182 121.095C52.8484 122.582 53.6922 124.252 54.7419 125.842C56.8421 129.024 59.8102 131.952 64.4416 132.497C72.8695 133.488 76.7186 126.951 78.4407 124.026C78.6137 123.732 78.7654 123.475 78.8979 123.265C79.2012 122.936 79.5085 122.596 79.8248 122.246C81.3779 120.527 83.1487 118.567 85.7204 116.465C85.7488 116.451 85.7814 116.431 85.8142 116.405C85.8892 116.345 86.0105 116.207 86.0043 115.994C85.9989 115.806 85.8949 115.688 85.8535 115.646L85.6632 115.456L85.3995 115.51L85.273 115.536C85.174 115.529 84.9792 115.493 84.6559 115.409C84.3061 115.318 83.8625 115.187 83.3264 115.029L83.293 115.019C82.2308 114.705 80.8409 114.295 79.2274 113.914C75.9974 113.153 71.8448 112.505 67.5523 112.991C63.7607 111.746 59.9869 111.534 56.5015 111.551C55.4194 111.556 54.3724 111.583 53.3627 111.609C51.057 111.667 48.9464 111.721 47.0573 111.503ZM51.313 117.312L51.0041 116.856C50.9737 116.811 50.9433 116.766 50.9129 116.722C50.1603 115.613 49.3339 114.404 48.3997 113.089C55.3642 115.673 69.7524 119.166 83.7474 116.834C81.8073 118.559 80.3482 120.174 79.0716 121.587C78.7485 121.945 78.437 122.29 78.1324 122.62C76.5421 124.345 75.1521 125.661 73.2416 126.484C71.3325 127.307 68.8482 127.658 65.0433 127.328C61.212 126.995 58.901 126.09 56.9661 124.46C55.0821 122.872 53.5284 120.58 51.313 117.312Z" fill="#C99281"/>
<rect x="25" y="160" width="77" height="113" fill="white"/>
<path d="M56.75 172.698L50 160H78.25L70.5 172.698L75.25 243.81L65.25 266.667L54.25 241.778L56.75 172.698Z" fill="#30333A"/>
<circle cx="63.3921" cy="169.21" r="8.71046" fill="#D6DBE0" stroke="#AAB3BC"/>
<path d="M72.8054 170.4C72.8478 170.036 72.8697 169.666 72.8697 169.29C72.8697 168.482 72.7686 167.698 72.5784 166.95C70.7937 166.376 67.4303 165.635 63.6519 165.811C59.4296 166.007 55.571 167.921 53.9189 169.007C53.9162 169.101 53.9148 169.195 53.9148 169.29C53.9148 170.274 54.0648 171.223 54.3432 172.116C56.1729 171.01 59.7577 169.368 63.6519 169.187C67.5971 169.003 71.0897 169.819 72.8054 170.4Z" fill="#AAB3BC"/>
<path fill-rule="evenodd" clip-rule="evenodd" d="M68.5314 169.426C70.3527 169.682 71.8529 170.077 72.8054 170.4C72.8478 170.036 72.8697 169.665 72.8697 169.29C72.8697 168.482 72.7686 167.698 72.5784 166.949C71.6089 166.638 70.1736 166.277 68.4589 166.041C68.5899 166.888 68.6903 168.096 68.5314 169.426ZM58.2972 166.903C56.3801 167.575 54.8208 168.414 53.9189 169.007C53.9162 169.101 53.9148 169.195 53.9148 169.29C53.9148 170.274 54.0648 171.223 54.3432 172.116C55.3328 171.517 56.8359 170.762 58.6237 170.166C58.3112 168.824 58.2832 167.568 58.2972 166.903Z" fill="#7B7B7B"/>
<path d="M60.7225 182.426L59.2542 177.487C61.7103 178.234 65.261 178.421 67.5302 177.353L66.1954 182.426C64.5935 183.494 61.5234 183.227 60.7225 182.426Z" fill="#D6DBE0" stroke="#AAB3BC"/>
<path d="M61.1245 205.186L59.4336 179.986H67.2542L65.5633 205.186H61.1245Z" fill="#D6DBE0" stroke="#AAB3BC"/>
<path d="M67.6959 186.906C67.6959 186.906 63.8649 189.242 59.4865 187.086L59.4581 186.906L46.1892 187.445L44 182.234L58.323 179.719L58.2095 179C62.8797 180.15 67.3311 179.479 68.973 179L68.8569 179.719L83 182.234L81.5405 187.445L67.754 186.547L67.6959 186.906Z" fill="#D6DBE0"/>
<path d="M58.323 179.719L58.2095 179C62.8797 180.15 67.3311 179.479 68.973 179L68.8569 179.719M58.323 179.719L44 182.234L46.1892 187.445L59.4581 186.906M58.323 179.719L59.4581 186.906M59.4581 186.906L59.4865 187.086C63.8649 189.242 67.6959 186.906 67.6959 186.906L67.754 186.547M68.8569 179.719L83 182.234L81.5405 187.445L67.754 186.547M68.8569 179.719L67.754 186.547" stroke="#AAB3BC"/>
<path d="M25 160C15.0589 160 7 168.059 7 178V270C7 279.941 15.0589 288 25 288H103C112.941 288 121 279.941 121 270V178C121 168.059 112.941 160 103 160H84.5L65.5 267.52L44 160H25Z" fill="#EEC750"/>
<path d="M96.4671 199.401L89.9616 218.687L108.007 215.769L103.029 202.392L96.4671 199.401Z" fill="white"/>
<path d="M87 219.165L111.186 215.255" stroke="#1C4D69"/>
<path d="M87.9575 225.088L112.143 221.178" stroke="#1C4D69"/>
</svg>
