<svg width="128" height="288" viewBox="0 0 128 288" fill="none" xmlns="http://www.w3.org/2000/svg">
<rect x="48" y="136" width="32" height="24" fill="#F6C09D"/>
<path d="M80 144.12V132H64H48V144.803C53.8491 148.705 59.7839 151 63.5 151C67.4281 151 73.8354 148.436 80 144.12Z" fill="#D88E8D"/>
<path fill-rule="evenodd" clip-rule="evenodd" d="M63.5 39.9999C44.9985 39.9999 30 54.9983 30 73.4999V85.9999C24.4772 85.9999 20 90.477 20 95.9999C20 101.523 24.4772 106 30 106V111.5C30 130.001 54 145 63.5 145C73 145 97 130.001 97 111.5V106C102.523 106 107 101.523 107 95.9999C107 90.477 102.523 85.9999 97 85.9999V73.4999C97 54.9983 82.0015 39.9999 63.5 39.9999Z" fill="#F6C09D"/>
<circle cx="47.5" cy="95.4999" r="3.5" fill="#4C150E"/>
<circle cx="80.5" cy="95.4999" r="3.5" fill="#4C150E"/>
<path d="M60 109C60.0003 111.762 62.2387 114 65 114C67.7614 114 70 111.761 70 109V94.9999C70 93.8741 69.6279 92.8352 69 91.9994C69 91.9993 69 91.9996 69 91.9994V106C69 108.761 66.7614 111 64 111C62.3644 111 60.9122 110.215 60 109Z" fill="#D88E8D"/>
<path d="M49.0215 23.6484C30.7841 26.651 30.6411 44.229 32.8838 53.0082C36.5047 49.6495 40.8839 42.5082 53.384 40.5081C63.4146 38.9031 72.884 41.0081 80.384 44.0082C79.9166 32.7018 71.987 19.8673 49.0215 23.6484Z" fill="#071F2D"/>
<path d="M78.1175 65.4055C71.817 72.7559 62.5326 80.0931 50.0268 81.4999C27.2998 84.0564 28.3255 95.9999 27.3109 95.9999C26.8036 80.5543 23.2726 40.9998 61.3366 40.9999C78.5605 40.9999 85.3389 47.5587 87.1679 49.8265C89.2288 50.3765 91.4626 51.2706 93.806 52.7175C100.707 56.9783 100.909 81.1231 98.879 89.9999C97.3571 85.9166 92.2841 76.8978 84.1674 73.4891C81.042 72.1766 79.1702 69.0584 78.1175 65.4055Z" fill="#071F2D"/>
<path d="M49.0215 21.6484C30.7841 24.651 30.6411 42.229 32.8838 51.0082C36.5047 47.6495 40.8839 40.5082 53.384 38.5081C63.4146 36.9031 72.884 39.0081 80.384 42.0082C79.9166 30.7018 71.987 17.8673 49.0215 21.6484Z" fill="#7B7B7B"/>
<path d="M77.8178 63.8493C71.4309 71.3333 62.0194 78.804 49.3422 80.2363C26.3039 82.8393 27.3436 94.9999 26.3151 94.9999C25.8009 79.2735 22.2215 38.9999 60.807 38.9999C78.2668 39 85.1381 45.6781 86.9921 47.9871C89.0812 48.547 91.3457 49.4574 93.7212 50.9306C100.717 55.2689 100.921 79.8527 98.8637 88.8908C97.3209 84.7333 92.1784 75.5505 83.9505 72.0799C80.7823 70.7435 78.8849 67.5686 77.8178 63.8493Z" fill="#7B7B7B"/>
<path d="M54 121C57.6667 123.833 67 127.8 75 121" stroke="#D88E8D"/>
<path d="M41 102C49 103.2 53.6667 99.8332 55 97.9999C54.3333 99.9999 52.5 104.1 50.5 104.5" stroke="#D88E8D"/>
<path d="M88 102C80 103.2 75.3333 99.8332 74 97.9999C74.5 99.6666 75.6 103 76 103" stroke="#D88E8D"/>
<g clip-path="url(#clip0_13_4659)">
<path d="M7 178.432C7 168.252 15.0589 160 25 160H103C112.941 160 121 168.252 121 178.432V269.568C121 279.748 112.941 288 103 288H25C15.0589 288 7 279.748 7 269.568V178.432Z" fill="#EEC750"/>
<path d="M43 160C43 160 43 160 43 160C43 171.876 52.402 181.504 64 181.504C75.598 181.504 85 171.876 85 160H43Z" fill="#F6C09D"/>
<path d="M64 181.465C49.7575 180.238 44.8008 166.133 43.579 160C34.6771 167.666 36.2478 176.865 39.9134 181.465C43.579 186.065 57.7163 192.709 64 181.465Z" fill="white"/>
<path d="M64 181.465C78.2425 180.238 83.1992 166.133 84.421 160C93.3229 167.666 91.7522 176.865 88.0866 181.465C84.421 186.065 70.2837 192.709 64 181.465Z" fill="white"/>
</g>
<defs>
<clipPath id="clip0_13_4659">
<rect width="114" height="128" fill="white" transform="translate(7 160)"/>
</clipPath>
</defs>
</svg>
