<svg width="128" height="288" viewBox="0 0 128 288" fill="none" xmlns="http://www.w3.org/2000/svg">
<rect x="49" y="136" width="32" height="24" fill="#E2A56B"/>
<path d="M80.5961 149.776C75.8825 152.09 70.5807 153.389 64.9756 153.389H63.4157C58.2011 153.389 53.2492 152.264 48.7891 150.245V141.389H80.5961V149.776Z" fill="#9D6445"/>
<path fill-rule="evenodd" clip-rule="evenodd" d="M27.9155 59.8886C27.9155 40.2824 43.8094 24.3885 63.4155 24.3885H64.9754C84.5816 24.3885 100.475 40.2824 100.475 59.8885V84.3885C105.965 84.3885 110.415 88.8657 110.415 94.3885C110.415 99.9114 105.965 104.389 100.475 104.389V111.889C100.475 131.495 84.5816 147.389 64.9755 147.389H63.4155C43.8094 147.389 27.9155 131.495 27.9155 111.889L27.9155 104.389C22.426 104.389 17.9758 99.9114 17.9758 94.3885C17.9758 88.8657 22.426 84.3885 27.9155 84.3885L27.9155 59.8886Z" fill="#E2A56B"/>
<ellipse cx="48.2921" cy="86.8885" rx="3.4789" ry="3.5" fill="#071F2D"/>
<ellipse cx="81.0932" cy="86.8885" rx="3.4789" ry="3.5" fill="#071F2D"/>
<path d="M39.7706 77.2506C38.4324 79.2037 38.8413 83.4897 39.213 85.3885C39.9565 84.2131 42.1125 81.3738 44.7889 79.4207C47.4654 77.4676 55.1974 81.3195 58.7288 83.4897V78.0643C56.5913 77.341 51.4801 75.6772 48.1345 74.8092C43.9525 73.7241 41.4434 74.8092 39.7706 77.2506Z" fill="#9D6445"/>
<path d="M94.6654 65.0996C93.9353 62.4065 95.9835 59.081 97.0989 57.7548L104.704 54.3884C103.791 57.9588 101.966 66.691 101.966 73.0565C101.966 81.0134 104.704 87.4401 101.966 88.9703C101.479 87.2565 98.5184 87.2361 97.0989 87.4401C97.5045 84.9919 98.3765 79.4833 98.6198 77.035C98.924 73.9746 95.5779 68.466 94.6654 65.0996Z" fill="#F99723"/>
<path d="M19.4753 57.0211C18.9886 47.4728 26.1675 45.2898 29.8178 45.3918L53.5446 57.9392C49.1846 58.1432 39.8561 59.4082 37.4226 62.8358C34.9891 66.2633 35.5975 71.2007 36.2058 73.2409C35.2933 73.955 33.0423 76.3625 31.3388 80.2797C29.6353 84.197 30.629 90.8889 31.3388 93.7452H27.0801C27.0801 93.1332 26.8368 91.3582 25.8634 89.1547C24.89 86.9513 17.5489 87.2165 14 87.6245C16.2307 85.6863 20.753 80.5245 20.9964 75.3832C21.3005 68.9564 20.0837 68.9564 19.4753 57.0211Z" fill="#CA5D22"/>
<path d="M19.4753 56.0211C18.9886 46.4728 26.1675 44.2898 29.8178 44.3918L53.5446 56.9392C49.1846 57.1432 39.8561 58.4082 37.4226 61.8358C34.9891 65.2633 35.5975 70.2007 36.2058 72.2409C35.2933 72.955 33.0423 75.3625 31.3388 79.2797C29.6353 83.197 30.629 89.8889 31.3388 92.7452H27.0801C27.0801 92.1332 26.8368 90.3582 25.8634 88.1547C24.89 85.9513 17.5489 86.2165 14 86.6245C16.2307 84.6863 20.753 79.5245 20.9964 74.3832C21.3005 67.9564 20.0837 67.9564 19.4753 56.0211Z" fill="#F99723"/>
<path d="M15.9753 45.5715C12.6067 38.5343 19.1463 38.6282 22.8372 39.5548C21.9268 36.0377 19.6121 28.8115 17.6361 28.0433C22.9337 25.1548 29.2229 27.2667 31.7053 28.6837C31.7386 26.1689 31.4813 20.4628 30.1857 17.7562C35.3281 15.9004 39.4083 19.9014 44.1082 24.2281C60.0247 14.191 68.1477 20.8229 70.3124 21.7916C72.0441 22.5666 93.5677 26.9779 104.113 29.0866C108.538 30.7929 117.198 36.1987 116.437 44.1725C115.487 54.1398 97.0818 62.5315 79.0726 63.0281C61.0633 63.5247 20.1861 54.3681 15.9753 45.5715Z" fill="#CA5D22"/>
<path d="M15.8391 43.1993C12.6634 36.0718 19.198 36.346 22.8623 37.374C22.048 33.8331 19.9309 26.5457 17.9766 25.7234C23.3509 22.982 29.5802 25.2665 32.0231 26.7513C32.1248 24.2385 32.0231 18.5274 30.8016 15.786C35.9927 14.0727 39.9623 18.1847 44.5427 22.6394C60.7266 13.0447 68.6659 19.898 70.8034 20.926C72.5134 21.7484 93.9087 26.7513 104.393 29.15C108.769 30.9775 117.279 36.6201 116.302 44.5699C115.08 54.5072 96.4533 62.3885 78.4373 62.3885C60.4212 62.3885 19.8087 52.1086 15.8391 43.1993Z" fill="#F9B023"/>
<path d="M38.7765 76.2506C37.4383 78.2037 37.8472 82.4897 38.2189 84.3885C38.9623 83.2131 41.1183 80.3738 43.7948 78.4207C46.4712 76.4676 54.2032 80.3195 57.7347 82.4897V77.0643C55.5972 76.341 50.4859 74.6772 47.1404 73.8092C42.9584 72.7241 40.4493 73.8092 38.7765 76.2506Z" fill="#F9B023"/>
<path d="M89.6144 77.2506C90.9526 79.2037 90.5437 83.4897 90.172 85.3885C89.4285 84.2131 87.2725 81.3738 84.5961 79.4207C81.9196 77.4676 74.1877 81.3195 70.6562 83.4897V78.0643C72.7937 77.341 77.9049 75.6772 81.2505 74.8092C85.4325 73.7241 87.9416 74.8092 89.6144 77.2506Z" fill="#9D6445"/>
<path d="M90.6085 76.2506C91.9468 78.2037 91.5378 82.4897 91.1661 84.3885C90.4227 83.2131 88.2667 80.3738 85.5902 78.4207C82.9138 76.4676 75.1818 80.3195 71.6504 82.4897V77.0643C73.7878 76.341 78.8991 74.6772 82.2447 73.8092C86.4266 72.7241 88.9357 73.8092 90.6085 76.2506Z" fill="#F9B023"/>
<path d="M60.7168 100.401V100.419C60.7168 103.163 62.9418 105.388 65.6866 105.388C68.4314 105.388 70.6565 103.163 70.6565 100.419V86.3583C70.6565 85.2393 70.2866 84.2066 69.6625 83.3759V97.4186C69.6625 100.163 67.4374 102.388 64.6926 102.388C63.0669 102.388 61.6235 101.608 60.7168 100.401Z" fill="#9D6445"/>
<path fill-rule="evenodd" clip-rule="evenodd" d="M47.9894 94.8755C45.1135 94.9826 42.3536 94.4092 40.6772 93.8427L40.9974 92.8953C42.5772 93.4292 45.2156 93.9781 47.9522 93.8762C50.6931 93.7741 53.4578 93.0232 55.3886 91.0397L56.1052 91.7372C53.923 93.9789 50.861 94.7685 47.9894 94.8755Z" fill="#9D6445"/>
<path fill-rule="evenodd" clip-rule="evenodd" d="M81.6231 95.4126C84.4471 95.5774 87.147 94.6961 88.7819 93.8304L88.314 92.9466C86.8013 93.7476 84.2829 94.5662 81.6814 94.4143C79.1053 94.264 76.4495 93.1661 74.5601 90.1246L73.7106 90.6523C75.7971 94.0109 78.7738 95.2463 81.6231 95.4126Z" fill="#9D6445"/>
<path fill-rule="evenodd" clip-rule="evenodd" d="M52.2699 112.818C53.0853 107.076 57.0032 101.585 58.8562 99.5517L59.5954 100.225C57.8038 102.191 54.035 107.501 53.26 112.959L52.2699 112.818ZM77.6162 113.459C76.8413 108.001 73.0724 102.691 71.2808 100.725L72.02 100.052C73.873 102.085 77.7909 107.576 78.6063 113.318L77.6162 113.459ZM76.9193 122.348C65.9792 117.631 56.423 121.375 53.0568 123.795L52.4732 122.982C56.0648 120.401 65.9903 116.546 77.3152 121.429L76.9193 122.348Z" fill="#9D6445"/>
<path fill-rule="evenodd" clip-rule="evenodd" d="M48.0264 93.8748C45.0112 93.9871 42.1299 93.3892 40.3569 92.7901L41.3173 89.948C42.8005 90.4492 45.3174 90.9736 47.9148 90.8768C50.5251 90.7796 52.9924 90.0675 54.6719 88.3422L56.8215 90.4347C54.3881 92.9346 51.0286 93.7629 48.0264 93.8748Z" fill="#F6C09D"/>
<path fill-rule="evenodd" clip-rule="evenodd" d="M82.0616 94.4109C85.108 94.5887 87.9894 93.6445 89.7466 92.7141L88.3427 90.0628C86.9523 90.7991 84.6154 91.5549 82.2364 91.416C79.9336 91.2816 77.5987 90.3213 75.9062 87.5969L73.3579 89.18C75.6413 92.8556 78.9389 94.2287 82.0616 94.4109Z" fill="#F6C09D"/>
<path d="M7 178C7 168.059 15.0589 160 25 160H103C112.941 160 121 168.059 121 178V270C121 279.941 112.941 288 103 288H25C15.0589 288 7 279.941 7 270V178Z" fill="#FD86B1"/>
<path d="M7 178.432C7 168.252 15.0589 160 25 160H103C112.941 160 121 168.252 121 178.432V269.568C121 279.748 112.941 288 103 288H25C15.0589 288 7 279.748 7 269.568V178.432Z" fill="#FD86B1"/>
<path d="M64 255.232L41.5 160H84L64 255.232Z" fill="#E3E3E3"/>
<path d="M60 170.24L57 160H70L67 170.24H60Z" fill="#2C51BF"/>
<path d="M55 217.344L64 255.232L72 217.344L67 170.24H60L55 217.344Z" fill="#2C51BF"/>
</svg>
