<svg width="128" height="288" viewBox="0 0 128 288" fill="none" xmlns="http://www.w3.org/2000/svg">
<path d="M49 136H80V160H49V136Z" fill="#C46C4E"/>
<path d="M80.113 145.12V133H64.5001H48.8872V145.803C54.5948 149.705 60.386 152 64.0122 152C67.8453 152 74.0976 149.436 80.113 145.12Z" fill="#8B3923"/>
<path d="M64.012 40C45.9581 40 31.3225 54.9985 31.3225 73.5L31.3225 86C25.9333 86 21.5645 90.4772 21.5645 96C21.5645 101.523 25.9333 106 31.3225 106L31.3225 111.5C31.3225 130.002 54.7419 145 64.012 145C73.2822 145 96.7016 130.002 96.7016 111.5V106C102.091 106 106.46 101.523 106.46 96C106.46 90.4772 102.091 86 96.7016 86V73.5C96.7016 54.9985 82.066 40 64.012 40Z" fill="#C46C4E"/>
<ellipse cx="48.3992" cy="95.5" rx="3.41532" ry="3.5" fill="#252C4A"/>
<ellipse cx="80.6009" cy="95.5" rx="3.41533" ry="3.5" fill="#252C4A"/>
<path d="M60.9758 111.049V111.121C60.9758 113.816 63.1602 116 65.8549 116C68.5495 116 70.7339 113.816 70.7339 111.121V96.879C70.7339 95.7804 70.3708 94.7666 69.7581 93.9511V108.121C69.7581 110.816 67.5736 113 64.879 113C63.283 113 61.866 112.234 60.9758 111.049Z" fill="#4C150E"/>
<path d="M78 125H53L54.4138 126.939C59.4692 133.871 67.0211 134.975 72.8936 129.639L78 125Z" fill="#4C150E"/>
<path d="M6.11755 107.505C1.33851 97.1394 5.23538 90.6567 11.9626 79.4655C15.497 73.5857 19.8128 66.4061 24.062 56.6807C33.9239 34.1096 54.0838 28.8252 63.4412 29.0048H65.1235C74.4696 28.8166 95.0685 34.092 104.938 56.6807C109.187 66.4061 113.503 73.5857 117.037 79.4656C123.765 90.6567 127.661 97.1394 122.882 107.505C117.05 120.155 104.751 127.459 99.3302 129.529C101.199 127.27 104.938 121.849 104.938 118.235C98.3637 126.059 91.9487 131.157 84.9293 134.213C91.4463 128.243 96.7016 120.264 96.7016 111.5V106C102.091 106 106.46 101.523 106.46 96C106.46 90.4771 102.091 86 96.7016 86V81.9808C85.4083 82.5038 67.7764 72.2746 52.7712 61.4215C47.1412 71.5007 38.7146 84.0118 31.3226 85.7926V86C25.9333 86 21.5645 90.4771 21.5645 96C21.5645 101.523 25.9333 106 31.3226 106V111.5C31.3226 119.83 36.0703 127.451 42.1366 133.311C35.8625 130.19 30.0279 125.335 24.062 118.235C24.062 121.849 27.8006 127.27 29.6698 129.529C24.249 127.459 11.9495 120.155 6.11755 107.505Z" fill="#4C150E"/>
<path d="M7 178.432C7 168.252 15.0589 160 25 160H103C112.941 160 121 168.252 121 178.432V269.568C121 279.748 112.941 288 103 288H25C15.0589 288 7 279.748 7 269.568V178.432Z" fill="#F5A35A"/>
<path d="M65 181.504C76.598 181.504 86 171.876 86 160H44C44 171.876 53.402 181.504 65 181.504Z" fill="#C46C4E"/>
<path d="M104 194C92.2823 199.709 57.6787 205.937 71.0075 228.151C71.0551 228.168 71.103 228.186 71.1511 228.203C74.1563 217.736 77.1592 212.165 104 194Z" fill="#219653"/>
<path d="M71.1511 228.203C74.1563 217.736 77.1592 212.165 104 194C100.756 225.769 81.4412 231.83 71.1511 228.203Z" fill="#219653"/>
<path d="M71.0075 228.151L70.15 228.666L70.3323 228.969L70.6652 229.091L71.0075 228.151ZM104 194L104.995 194.102L105.177 192.314L103.562 193.101L104 194ZM69.7672 235.179C69.8658 235.722 70.3862 236.083 70.9297 235.984C71.4731 235.885 71.8337 235.365 71.7351 234.821L69.7672 235.179ZM71.865 227.637C68.6496 222.278 68.4136 218.057 69.8173 214.625C71.2484 211.125 74.4689 208.227 78.6241 205.744C82.7641 203.271 87.6971 201.29 92.3743 199.558C97.0007 197.846 101.449 196.355 104.438 194.899L103.562 193.101C100.692 194.499 96.4209 195.928 91.68 197.683C86.99 199.419 81.908 201.453 77.5985 204.027C73.3042 206.593 69.6405 209.773 67.9661 213.868C66.2641 218.029 66.7009 222.917 70.15 228.666L71.865 227.637ZM70.6652 229.091C70.7161 229.109 70.7673 229.128 70.8186 229.146L71.4836 227.259C71.4387 227.244 71.3941 227.228 71.3498 227.212L70.6652 229.091ZM72.1122 228.479C73.5931 223.321 75.04 219.472 79.38 214.657C83.7729 209.784 91.1437 203.908 104.56 194.828L103.44 193.172C90.0155 202.257 82.4645 208.248 77.8944 213.318C73.2715 218.447 71.7143 222.617 70.1899 227.927L72.1122 228.479ZM71.7351 234.821C71.3539 232.721 71.498 230.618 72.1122 228.479L70.1899 227.927C69.4998 230.33 69.3257 232.745 69.7672 235.179L71.7351 234.821ZM103.005 193.898C101.403 209.593 95.8521 218.763 89.6069 223.583C83.3466 228.416 76.299 228.957 71.4835 227.259L70.8186 229.146C76.2932 231.076 84.0482 230.4 90.8289 225.167C97.6246 219.921 103.353 210.176 104.995 194.102L103.005 193.898Z" fill="#52803C"/>
</svg>
