<svg width="66" height="95" viewBox="0 0 66 95" fill="none" xmlns="http://www.w3.org/2000/svg">
<rect x="24.625" y="80" width="20" height="15" fill="#E2A56B"/>
<path d="M44.625 88.404C41.6978 89.8269 38.4109 90.625 34.9375 90.625H33.6875C30.4592 90.625 27.392 89.9355 24.625 88.6958V83.125H44.625V88.404Z" fill="#9D6445"/>
<path fill-rule="evenodd" clip-rule="evenodd" d="M11.5 32.8125C11.5 20.2135 21.7135 10 34.3125 10C46.9115 10 57.125 20.2135 57.125 32.8125V47.5C60.5768 47.5 63.375 50.2982 63.375 53.75C63.375 57.2018 60.5768 60 57.125 60V64.0625C57.125 76.6615 46.9115 86.875 34.3125 86.875C21.7135 86.875 11.5 76.6615 11.5 64.0625V60C8.04822 60 5.25 57.2018 5.25 53.75C5.25 50.2982 8.04822 47.5 11.5 47.5V32.8125Z" fill="#E2A56B"/>
<path d="M32.125 57.5001C32.1252 59.2259 33.5242 60.6248 35.25 60.6248C36.9759 60.6248 38.375 59.2257 38.375 57.4998V48.7498C38.375 48.0462 38.1424 47.3969 37.75 46.8745C37.75 46.8744 37.75 46.8746 37.75 46.8745V55.6248C37.75 57.3507 36.3509 58.7498 34.625 58.7498C33.6027 58.7498 32.6951 58.259 32.125 57.5001Z" fill="#CA5D22"/>
<path d="M16.436 1.75128C19.582 -0.815319 24.1554 1.59851 26.0488 3.12625C28.2335 4.95953 33.5643 8.6261 37.4094 8.6261C42.2158 8.6261 54.4503 4.50121 60.1305 8.6261C65.8108 12.751 62.7522 20.5425 61.8783 24.209C61.0044 27.8756 64.9369 30.6255 65.8108 35.2087C66.6847 39.792 58.3828 46.6668 56.198 49.875C57.0719 43.4585 55.3241 29.2506 53.5764 27.8756C51.8286 26.5006 46.1483 31.0839 40.0311 31.5422C33.9139 32.0005 24.3012 20.6341 16.4361 25.584C12.9405 27.7839 11.7753 43.6113 11.6297 51.25C11.484 50.1806 10.7559 45.7501 9.44495 43.9169C7.02779 40.5365 -0.167883 36.1254 0.269062 31.5422C0.774268 26.243 5.07544 29.7089 4.6385 24.209C4.20155 18.7092 4.6385 17.3342 7.26016 15.9592C9.88183 14.5843 12.9404 16.8759 14.6882 14.5843C16.0864 12.751 15.2708 11.0705 14.6882 10.4594C13.96 8.6261 13.29 4.31788 16.436 1.75128Z" fill="#4F4C4C"/>
<path d="M26.5 49.0625C26.5 50.2706 25.5206 51.25 24.3125 51.25C23.1044 51.25 22.125 50.2706 22.125 49.0625C22.125 47.8544 23.1044 46.875 24.3125 46.875C25.5206 46.875 26.5 47.8544 26.5 49.0625Z" fill="#333333"/>
<path d="M47.125 49.0625C47.125 50.2706 46.1456 51.25 44.9375 51.25C43.7294 51.25 42.75 50.2706 42.75 49.0625C42.75 47.8544 43.7294 46.875 44.9375 46.875C46.1456 46.875 47.125 47.8544 47.125 49.0625Z" fill="#333333"/>
<path d="M45.25 70.625H34.583C30.8647 70.625 27.5525 72.9749 26.3242 76.4844L26.1875 76.875H43.0625L45.25 70.625Z" fill="#333333"/>
<path d="M29.3125 40H20.46L19.3125 43.125H28.165L29.3125 40Z" fill="#333333"/>
<path d="M51.1875 40H42.335L41.1875 43.125H50.04L51.1875 40Z" fill="#333333"/>
</svg>
