<svg width="128" height="288" viewBox="0 0 128 288" fill="none" xmlns="http://www.w3.org/2000/svg">
<path d="M49 140H81V160H49V140Z" fill="#E2A56B"/>
<path d="M81 151.879C76.3165 154.155 71.0574 155.432 65.5 155.432H63.5C58.3348 155.432 53.4272 154.329 49 152.346V143.432H81V151.879Z" fill="#9D6445"/>
<path fill-rule="evenodd" clip-rule="evenodd" d="M28 71.9324C28 52.3263 43.8939 36.4324 63.5 36.4324H65.5C85.1061 36.4324 101 52.3263 101 71.9324V87.8928C105.043 85.1564 109.572 84.6231 112.34 86.9258C115.988 89.9598 115.198 96.768 110.577 102.132C107.769 105.392 104.193 107.368 101 107.737V113.932C101 133.538 85.1061 149.432 65.5 149.432H63.5C43.8939 149.432 28 133.538 28 113.932V107.814C24.9079 107.336 21.5048 105.39 18.8098 102.262C14.1884 96.8972 13.3989 90.089 17.0464 87.0551C19.727 84.8254 24.0579 85.2547 28 87.7681V71.9324Z" fill="#E2A56B"/>
<path d="M54 120.432C58.2593 121.596 67.8222 123.226 76 120.432C69.3741 125.174 63 128.5 54 120.432Z" fill="#252C4A"/>
<circle cx="48.5" cy="88.9324" r="3.5" fill="#252C4A"/>
<circle cx="81.5" cy="88.9324" r="3.5" fill="#252C4A"/>
<path d="M58 102.001C58.0003 104.762 60.6119 107 63.8333 107H66.1667C69.3883 107 72 104.761 72 102V88.0005C72 86.8747 71.5659 85.8358 70.8333 85C70.8333 84.9999 70.8333 85.0002 70.8333 85V99.0002C70.8333 101.762 68.2217 104 65 104H62.6667C60.7585 104 59.0643 103.215 58 102.001Z" fill="#9D6445"/>
<path d="M44.5001 81.4324C40.9001 81.8324 40.3334 83.9324 40.5001 84.9324H40C39.6667 84.5991 39.4311 82.2858 41 79.9324C44.0001 75.4324 49.1668 78.7657 55.0001 78.9324L57 82.9324C54 82.2657 48.1001 81.0324 44.5001 81.4324Z" fill="#C4C4C4"/>
<path d="M85.4999 81.4324C89.0999 81.8324 89.6666 83.9324 89.4999 84.9324H90C90.3333 84.5991 90.5689 82.2858 89 79.9324C85.9999 75.4324 80.8332 78.7657 74.9999 78.9324L73 82.9324C76 82.2657 81.8999 81.0324 85.4999 81.4324Z" fill="#C4C4C4"/>
<path d="M55 91.4324C55 92.7657 52.8 95.4324 44 95.4324" stroke="#9D6445"/>
<path d="M75 91.4324C75 92.7657 77.2 95.4324 86 95.4324" stroke="#9D6445"/>
<path d="M31.0267 104.531H28.5491C27.6995 100.526 27.2542 83.9051 26.4385 75.4945C25.4189 64.9811 27.8139 59.9496 37.5 46.4324C47.1861 32.9153 76.2747 36.2358 88 43.4324C96.1567 48.4388 105.457 61.4767 105.966 68.4856C106.374 74.0927 102.979 99.515 101.959 106.023C100.94 109.194 98.9007 106.023 98.9007 106.023C98.9007 106.023 99.339 86.0078 95.2607 78.9989C91.1823 71.9901 88.6334 58.9735 86.5942 51.9646C50.9086 59.9748 47.3401 50.9633 40.7127 51.9646C42.2421 61.4767 36.1246 77.497 33.0658 86.0078C30.6188 92.8164 30.6868 101.194 31.0267 104.531Z" fill="#4F4F4F"/>
<path d="M30.0895 104.492L29.0001 106.932C28.1399 102.872 21.056 85.0898 23 74.4324C24.9214 63.899 26.6929 60.1347 36.5 46.4324C46.3072 32.7301 74.4798 34.1373 86.3516 41.4325C94.6102 46.5074 103.69 57.9324 105.966 67.952C110 85.7143 102.032 103.335 101 109.932C99.9678 113.147 98.8119 106.004 98.8119 106.004C98.8119 106.004 99.2557 85.7143 95.1264 78.6094C90.9971 71.5045 88.4162 58.3096 86.3516 51.2047C50.2199 59.3246 46.6068 50.1897 39.8966 51.2047C41.4451 60.8471 35.2511 77.0869 32.1541 85.7143C29.6765 92.6162 29.7453 101.108 30.0895 104.492Z" fill="#C4C4C4"/>
<path d="M64.1205 127.696C40.0222 128.074 30.4563 108.011 29.5 97.4324C29.5 99.9587 26.9998 106.432 28.26 120.117C29.7601 136.406 46.8412 150.432 64.1205 150.432C90.5 150.432 100.449 132.895 100.937 121.064C101.417 109.432 99.9563 106.985 99 98.9324C98.2031 107.932 88.2187 127.317 64.1205 127.696Z" fill="#E0E0E0"/>
<path d="M43 116.932C46.6 112.532 57.8333 109.432 65 109.432C72.1666 109.432 84.4 112.532 88 116.932C91.6 121.332 89.5 122.432 88 122.932C84.0001 120.099 76.2 116.932 65 116.932C53.7999 116.932 46.9999 121.099 43 123.932C41.5 123.432 39.4 121.332 43 116.932Z" fill="#E0E0E0"/>
<path d="M37.8906 113.278C37.5262 115.751 37.2598 121.676 39.1095 125.587" stroke="#9D6445" stroke-linecap="round"/>
<path d="M91.1221 113.279C91.4814 115.753 91.7355 121.678 89.8778 125.586" stroke="#9D6445" stroke-linecap="round"/>
<path d="M7 178.432C7 168.252 15.0589 160 25 160H103C112.941 160 121 168.252 121 178.432V269.568C121 279.748 112.941 288 103 288H25C15.0589 288 7 279.748 7 269.568V178.432Z" fill="#DF6664"/>
<path d="M86 188L92.0619 207.002H111.679L95.8083 218.746L101.87 237.748L86 226.004L70.1298 237.748L76.1917 218.746L60.3215 207.002H79.9381L86 188Z" fill="#F3F6F8"/>
<path d="M65 181.504C76.598 181.504 86 171.876 86 160H44C44 171.876 53.402 181.504 65 181.504Z" fill="#E2A56B"/>
</svg>
