<svg width="128" height="288" viewBox="0 0 128 288" fill="none" xmlns="http://www.w3.org/2000/svg">
<path d="M49 139.803V160H81V139.12C74.8354 143.436 68.4281 146 64.5 146C60.7839 146 54.8491 143.705 49 139.803Z" fill="#E2A56B"/>
<path d="M49 132.803C54.8491 136.705 60.7839 139 64.5 139C68.4281 139 74.8354 136.436 81 132.12V139.12C74.8354 143.436 68.4281 146 64.5 146C60.7839 146 54.8491 143.705 49 139.803V132.803Z" fill="#65353A"/>
<path d="M64.5 34C45.9985 34 31 48.9985 31 67.5V80C25.4772 80 21 84.4772 21 90C21 95.5228 25.4772 100 31 100V105.5C31 124.002 55 139 64.5 139C74 139 98 124.002 98 105.5V100C103.523 100 108 95.5228 108 90C108 84.4772 103.523 80 98 80V67.5C98 48.9985 83.0015 34 64.5 34Z" fill="#E2A56B"/>
<path d="M61 103.001C61.0003 105.762 63.2387 108 66 108C68.7614 108 71 105.761 71 103V89C71 87.8742 70.6279 86.8353 70 85.9996C70 85.9994 70 85.9997 70 85.9996V100C70 102.761 67.7614 105 65 105C63.3644 105 61.9122 104.215 61 103.001Z" fill="#65353A"/>
<circle cx="48.5" cy="89.5" r="3.5" fill="#30333A"/>
<circle cx="81.5" cy="89.5" r="3.5" fill="#30333A"/>
<path d="M33.318 101.549C33.318 97.5487 30.4702 91.9912 29.4702 89.4912C19.1223 70.9337 28.9702 64.9908 24.9702 45.9912C24.1598 42.1418 17.5109 25.9915 21.0105 20.4912C26.0108 14.4915 24.2351 21.0261 29.4702 22.4912C49.1225 27.9913 65.0059 14.7699 98.9702 34.4912C114.47 43.4912 107.47 83.9912 103.47 87.4912C99.4702 90.9912 101.97 100.049 95.8181 100.049C95.8181 89.5484 98.8177 78.0484 97.3177 74.5484C94.3177 69.0484 91.8181 67.0486 89.3181 56.5486C79.8181 64.5486 50.3179 58.5484 38.8179 55.0484C39.8179 73.0484 34.318 73.5487 33.318 78.5487C32.518 82.5487 34.9847 95.5487 36.318 101.549H33.318Z" fill="#4C150E"/>
<path d="M46 109C53 111.5 69.8 115 81 109C73 126.5 62.5 134 46 109Z" fill="#F3F6F8"/>
<path d="M6.99997 178.432C6.99997 168.252 15.0589 160 25 160H103C112.941 160 121 168.252 121 178.432V269.568C121 279.748 112.941 288 103 288H25C15.0589 288 6.99997 279.748 6.99997 269.568V178.432Z" fill="#464C50"/>
<path d="M64.9932 181.504C76.5911 181.504 85.9932 171.876 85.9932 160H43.9932C43.9932 171.876 53.3952 181.504 64.9932 181.504Z" fill="#E2A56B"/>
</svg>
