<svg width="61" height="87" viewBox="0 0 61 87" fill="none" xmlns="http://www.w3.org/2000/svg">
<rect x="20.125" y="71.8496" width="20" height="15.15" fill="#F6C09D"/>
<path d="M40.125 80.3377C37.1978 81.7747 33.9109 82.5809 30.4375 82.5809H29.1875C25.9592 82.5809 22.892 81.8845 20.125 80.6324V75.0059H40.125V80.3377Z" fill="#D88E8D"/>
<path fill-rule="evenodd" clip-rule="evenodd" d="M7 23.9624C7 11.3634 17.2135 1.1499 29.8125 1.1499C42.4115 1.1499 52.625 11.3634 52.625 23.9624V39.0249C56.0768 39.0249 58.875 41.8511 58.875 45.3374C58.875 48.8237 56.0768 51.6499 52.625 51.6499V55.9812C52.625 68.5802 42.4115 78.7936 29.8125 78.7936C17.2135 78.7936 7 68.5801 7 55.9811V51.6499C3.54822 51.6499 0.75 48.8237 0.75 45.3374C0.75 41.8511 3.54822 39.0249 7 39.0249V23.9624Z" fill="#F6C09D"/>
<ellipse cx="19.8125" cy="41.2343" rx="2.1875" ry="2.20938" fill="#66CDD9"/>
<ellipse cx="40.4375" cy="41.2343" rx="2.1875" ry="2.20938" fill="#66CDD9"/>
<path d="M27.625 49.7563C27.6252 51.4993 29.0242 52.9123 30.75 52.9123C32.4759 52.9123 33.875 51.4992 33.875 49.756V40.9185C33.875 40.2078 33.6424 39.552 33.25 39.0244C33.25 39.0243 33.25 39.0245 33.25 39.0244V47.8623C33.25 49.6054 31.8509 51.0185 30.125 51.0185C29.1028 51.0185 28.1951 50.5228 27.625 49.7563Z" fill="#D88E8D"/>
<path d="M1.15418 33.8813C0.126908 29.9875 5.52008 18.3061 7.18939 14.2867C8.21667 12.5282 10.8619 9.23725 13.2246 10.1416C15.5873 11.046 13.2246 14.2867 11.6837 16.5476C9.62918 20.768 12.0261 25.5075 13.4814 27.3498C12.8822 27.936 11.4269 29.5353 10.3996 31.2436C9.37235 32.9519 9.37235 37.9845 9.50076 40.2873H4.10759C3.46554 39.4499 1.976 36.9964 1.15418 33.8813Z" fill="#7B7B7B"/>
<path d="M16.3836 33.4041C14.5145 33.0146 13.0991 34.6053 12.625 35.4493C12.9975 35.4493 13.905 35.5662 14.5551 36.0336C15.3678 36.618 15.4742 37.517 17.3995 38.1762C18.8217 38.6631 21.8692 37.6892 23.1898 37.6892C24.2463 37.6892 25.3908 38.5982 25.831 39.0527C25.9664 38.9228 26.2064 38.7605 26.3689 37.9814C26.5721 37.0075 21.636 36.3258 20.447 35.8389C19.2007 35.3284 18.7201 33.8911 16.3836 33.4041Z" fill="#7B7B7B"/>
<path d="M24.612 41.9744C23.9009 42.8833 22.0724 44.7013 20.447 44.7013C18.4153 44.7013 16.79 44.896 14.5551 42.8509M12.625 35.4493C13.0991 34.6053 14.5145 33.0146 16.3836 33.4041C18.7201 33.8911 19.2007 35.3284 20.447 35.8389C21.636 36.3258 26.5721 37.0075 26.3689 37.9814C26.2064 38.7605 25.9664 38.9228 25.831 39.0527C25.3908 38.5982 24.2463 37.6892 23.1898 37.6892C21.8692 37.6892 18.8217 38.6631 17.3995 38.1762C15.4742 37.517 15.3678 36.618 14.5551 36.0336C13.905 35.5662 12.9975 35.4493 12.625 35.4493Z" stroke="#7B7B7B"/>
<path d="M43.8664 33.4041C45.7355 33.0146 47.1509 34.6053 47.625 35.4493C47.2525 35.4493 46.345 35.5662 45.6949 36.0336C44.8822 36.618 44.7758 37.517 42.8505 38.1762C41.4283 38.6631 38.3808 37.6892 37.0602 37.6892C36.0037 37.6892 34.8592 38.5982 34.419 39.0527C34.2836 38.9228 34.0436 38.7605 33.8811 37.9814C33.6779 37.0075 38.614 36.3258 39.803 35.8389C41.0493 35.3284 41.5299 33.8911 43.8664 33.4041Z" fill="#7B7B7B"/>
<path d="M35.638 41.9744C36.3491 42.8833 38.1776 44.7013 39.803 44.7013C41.8347 44.7013 43.46 44.896 45.6949 42.8509M47.625 35.4493C47.1509 34.6053 45.7355 33.0146 43.8664 33.4041C41.5299 33.8911 41.0493 35.3284 39.803 35.8389C38.614 36.3258 33.6779 37.0075 33.8811 37.9814C34.0436 38.7605 34.2836 38.9228 34.419 39.0527C34.8592 38.5982 36.0037 37.6892 37.0602 37.6892C38.3808 37.6892 41.4283 38.6631 42.8505 38.1762C44.7758 37.517 44.8822 36.618 45.6949 36.0336C46.345 35.5662 47.2525 35.4493 47.625 35.4493Z" stroke="#7B7B7B"/>
<path d="M59.9906 33.6142C61.0607 29.5582 55.4428 17.39 53.7039 13.2031C52.6338 11.3713 49.8784 7.94331 47.4172 8.88536C44.956 9.82741 47.4172 13.2031 49.0223 15.5582C51.1625 19.9545 48.6657 24.8915 47.1497 26.8105C47.7739 27.4211 49.2899 29.0872 50.3599 30.8666C51.43 32.646 51.43 37.8884 51.2962 40.2871H56.9141C57.5829 39.4148 59.1345 36.8591 59.9906 33.6142Z" fill="#7B7B7B"/>
<path d="M19.5 62.381C20.1357 61.7731 21.5978 60.5012 22.3606 60.2768C23.3141 59.9962 26.992 59.856 27.8093 59.856C28.6266 59.856 28.899 60.2768 30.125 60.2768C31.351 60.2768 31.6234 59.856 32.4407 59.856C33.258 59.856 36.9359 59.9962 37.8894 60.2768C38.6522 60.5012 40.1143 61.7731 40.75 62.381" stroke="#7B7B7B"/>
<path d="M30.3293 19.1979C26.4402 19.6823 25.7044 14.2331 20.1334 12.4167C15.7644 10.9922 12.4589 15.2206 10.9887 17.2605C10.5046 17.3008 9.05463 16.8487 8.88645 14.7175C8.67622 12.0534 11.4091 10.4792 13.196 8.42061C14.9829 6.36202 26.8606 3.21358 31.3805 2.97139C35.9003 2.72921 51.562 11.2058 53.0336 13.9909C54.5052 16.7761 56.0819 22.2253 54.4001 19.1979C53.0604 16.7865 50.776 17.0963 49.5804 17.2583L49.5649 17.2605C48.1284 18.1081 45.886 18.1081 43.0479 17.2605C39.4048 16.1723 34.2185 18.7136 30.3293 19.1979Z" fill="#555555"/>
<path d="M30.6225 17.57C26.8549 18.0387 26.1421 12.7653 20.7452 11.0075C16.5128 9.62892 13.3106 13.721 11.8862 15.695C11.4173 15.734 10.0126 15.2965 9.84971 13.234C9.64606 10.6559 12.2935 7.16783 14.0246 5.17564C15.7557 3.18345 25.7417 0.518555 30.1251 0.518555C40.4844 0.518555 51.1917 8.31218 52.6173 11.0075C54.0429 13.7028 55.5703 20.4997 53.941 17.57C52.6433 15.2364 50.4302 15.5361 49.272 15.6929L49.257 15.695C47.8653 16.5153 45.693 16.5153 42.9437 15.695C39.4144 14.642 34.3901 17.1012 30.6225 17.57Z" fill="#7B7B7B"/>
</svg>
