<svg width="602" height="351" viewBox="0 0 602 351" fill="none" xmlns="http://www.w3.org/2000/svg">
<g clip-path="url(#clip0_10:11234)">
<path d="M112.782 24.8404C114.052 19.0928 119.156 15 125.053 15H467.947C473.844 15 478.948 19.0928 480.218 24.8404L510.7 162.757C511.92 168.277 509.31 173.594 504.847 176.247L473.803 178H113.237L88.83 176.622C83.9586 174.12 81.0194 168.551 82.3 162.757L112.782 24.8404Z" fill="#F3F6F8"/>
<g filter="url(#filter0_d_10:11234)">
<path d="M140.146 106.952H163.098V121.231H140.146V106.952Z" fill="#E2A56B"/>
<path d="M163.098 115.433C159.739 117.058 155.967 117.97 151.981 117.97H150.546C146.841 117.97 143.321 117.182 140.146 115.766V109.402H163.098V115.433Z" fill="#9D6445"/>
<path fill-rule="evenodd" clip-rule="evenodd" d="M125.083 59.1908C125.083 44.732 136.805 33.0107 151.263 33.0107C165.722 33.0107 177.444 44.732 177.444 59.1908V69.7504C180.343 67.7968 183.592 67.4161 185.577 69.0601C188.193 71.2262 187.627 76.0868 184.312 79.9167C182.299 82.2436 179.733 83.6546 177.444 83.9179V87.506C177.444 101.965 165.722 113.686 151.263 113.686C136.805 113.686 125.083 101.965 125.083 87.5061V83.973C122.866 83.6321 120.425 82.2424 118.492 80.0089C115.177 76.1791 114.611 71.3184 117.227 69.1524C119.149 67.5605 122.256 67.867 125.083 69.6614V59.1908Z" fill="#E2A56B"/>
<path d="M143.732 92.9817C146.787 93.8127 153.646 94.976 159.512 92.9817C154.759 96.3673 150.188 98.7415 143.732 92.9817Z" fill="#252C4A"/>
<ellipse cx="139.787" cy="70.4927" rx="2.51042" ry="2.49879" fill="#252C4A"/>
<ellipse cx="163.457" cy="70.4927" rx="2.51042" ry="2.49879" fill="#252C4A"/>
<path d="M146.601 79.8225C146.602 81.7938 148.475 83.3918 150.785 83.3918H152.459C154.77 83.3918 156.643 81.7936 156.643 79.8221V69.8272C156.643 69.0235 156.332 68.2817 155.806 67.6851C155.806 67.685 155.806 67.6852 155.806 67.6851V77.6804C155.806 79.6518 153.933 81.25 151.622 81.25H149.949C148.58 81.25 147.365 80.6893 146.601 79.8225Z" fill="#9D6445"/>
<path d="M136.918 65.138C134.336 65.4235 133.93 66.9228 134.049 67.6367H133.691C133.451 67.3988 133.282 65.7472 134.408 64.067C136.56 60.8543 140.265 63.2341 144.45 63.3531L145.884 66.2089C143.732 65.7329 139.5 64.8524 136.918 65.138Z" fill="#C4C4C4"/>
<path d="M166.326 65.138C168.908 65.4235 169.314 66.9228 169.195 67.6367H169.554C169.793 67.3988 169.962 65.7472 168.836 64.067C166.685 60.8543 162.979 63.2341 158.795 63.3531L157.36 66.2089C159.512 65.7329 163.744 64.8524 166.326 65.138Z" fill="#C4C4C4"/>
<path d="M144.449 72.2773C144.449 73.2293 142.871 75.1331 136.56 75.1331" stroke="#9D6445"/>
<path d="M158.795 72.2773C158.795 73.2293 160.373 75.1331 166.685 75.1331" stroke="#9D6445"/>
<path d="M127.254 81.6293H125.477C124.868 78.7699 124.548 66.9034 123.963 60.8987C123.232 53.3928 124.95 49.8005 131.897 40.1501C138.845 30.4996 159.709 32.8703 168.119 38.0083C173.97 41.5825 180.64 50.8908 181.006 55.8948C181.298 59.8979 178.863 78.0479 178.132 82.6944C177.4 84.9581 175.938 82.6944 175.938 82.6944C175.938 82.6944 176.252 68.4046 173.327 63.4007C170.402 58.3968 168.573 49.1037 167.111 44.0998C141.515 49.8185 138.955 43.3849 134.202 44.0998C135.299 50.8908 130.911 62.3284 128.717 68.4046C126.962 73.2656 127.011 79.2464 127.254 81.6293Z" fill="#4F4F4F"/>
<path d="M126.582 81.6008L125.801 83.3435C125.184 80.4449 120.103 67.7491 121.497 60.1404C122.875 52.6202 124.146 49.9327 131.18 40.15C138.214 30.3674 158.421 31.372 166.937 36.5804C172.86 40.2036 179.373 48.3604 181.005 55.5138C183.899 68.195 178.184 80.7751 177.444 85.4853C176.703 87.78 175.874 82.6806 175.874 82.6806C175.874 82.6806 176.192 68.195 173.231 63.1225C170.269 58.05 168.418 48.6297 166.937 43.5572C141.021 49.3543 138.429 42.8326 133.616 43.5572C134.727 50.4413 130.284 62.0355 128.063 68.195C126.286 73.1225 126.335 79.1853 126.582 81.6008Z" fill="#C4C4C4"/>
<path d="M150.991 98.1672C133.706 98.4377 126.845 84.1138 126.159 76.561C126.159 78.3647 124.366 82.9865 125.27 92.7562C126.346 104.386 138.597 114.4 150.991 114.4C169.912 114.4 177.048 101.879 177.398 93.4326C177.743 85.1283 176.695 83.3811 176.009 77.6319C175.437 84.0574 168.276 97.8966 150.991 98.1672Z" fill="#E0E0E0"/>
<path d="M135.842 90.483C138.424 87.3416 146.482 85.1284 151.622 85.1284C156.762 85.1284 165.537 87.3416 168.119 90.483C170.701 93.6243 169.195 94.4097 168.119 94.7666C165.25 92.7438 159.655 90.483 151.622 90.483C143.589 90.483 138.711 93.4577 135.842 95.4806C134.766 95.1236 133.26 93.6243 135.842 90.483Z" fill="#E0E0E0"/>
<path d="M132.177 87.8738C131.916 89.6396 131.725 93.8693 133.052 96.6618" stroke="#9D6445" stroke-linecap="round"/>
<path d="M170.358 87.8748C170.616 89.6411 170.798 93.8712 169.466 96.6609" stroke="#9D6445" stroke-linecap="round"/>
<g clip-path="url(#clip1_10:11234)">
<path d="M110.021 134.39C110.021 127.122 115.801 121.231 122.931 121.231H178.878C186.008 121.231 191.789 127.122 191.789 134.39V199.456C191.789 206.724 186.008 212.615 178.878 212.615H122.931C115.801 212.615 110.021 206.724 110.021 199.456V134.39Z" fill="#FD86B1"/>
<path d="M151.622 136.583C159.941 136.583 166.684 129.71 166.684 121.231H136.559C136.559 129.71 143.303 136.583 151.622 136.583Z" fill="#E2A56B"/>
<path d="M166.684 141.221L171.032 154.787L185.103 154.787L173.72 163.172L178.068 176.738L166.684 168.354L155.301 176.738L159.649 163.172L148.266 154.787L162.336 154.787L166.684 141.221Z" fill="#F2F2F2"/>
</g>
</g>
<g filter="url(#filter1_d_10:11234)">
<path d="M242.242 98.9519H264.955V113.231H242.242V98.9519Z" fill="#E2A56B"/>
<path d="M264.955 107.433C261.631 109.058 257.898 109.97 253.954 109.97H252.534C248.868 109.97 245.385 109.182 242.242 107.766V101.402H264.955V107.433Z" fill="#9D6445"/>
<path fill-rule="evenodd" clip-rule="evenodd" d="M227.337 50.9181C227.337 36.6099 238.936 25.0107 253.244 25.0107C267.552 25.0107 279.151 36.6099 279.151 50.9181V61.7504C282.021 59.7969 285.235 59.4161 287.2 61.0601C289.789 63.2262 289.229 68.0868 285.949 71.9167C283.956 74.2436 281.417 75.6546 279.151 75.918V79.7788C279.151 94.087 267.552 105.686 253.244 105.686C238.936 105.686 227.337 94.087 227.337 79.7788V75.973C225.142 75.6321 222.726 74.2424 220.814 72.009C217.533 68.1791 216.973 63.3184 219.562 61.1524C221.465 59.5605 224.539 59.867 227.337 61.6615V50.9181Z" fill="#E2A56B"/>
<path d="M245.791 84.9817C248.814 85.8127 255.602 86.976 261.407 84.9817C256.704 88.3673 252.179 90.7415 245.791 84.9817Z" fill="#252C4A"/>
<ellipse cx="241.887" cy="62.4924" rx="2.48427" ry="2.49879" fill="#252C4A"/>
<ellipse cx="265.31" cy="62.4924" rx="2.48427" ry="2.49879" fill="#252C4A"/>
<path d="M248.63 71.8225C248.631 73.7938 250.484 75.3918 252.771 75.3918H254.427C256.714 75.3918 258.567 73.7936 258.567 71.8221V61.8272C258.567 61.0235 258.259 60.2817 257.739 59.6851C257.739 59.685 257.739 59.6852 257.739 59.6851V69.6804C257.739 71.6518 255.886 73.25 253.599 73.25H251.943C250.588 73.25 249.386 72.6893 248.63 71.8225Z" fill="#9D6445"/>
<path d="M239.048 57.138C236.493 57.4235 236.091 58.9228 236.209 59.6368H235.854C235.618 59.3988 235.45 57.7472 236.564 56.067C238.693 52.8543 242.361 55.2341 246.501 55.3531L247.921 58.2089C245.791 57.7329 241.604 56.8524 239.048 57.138Z" fill="#C4C4C4"/>
<path d="M268.15 57.138C270.705 57.4235 271.107 58.9228 270.989 59.6368H271.344C271.58 59.3988 271.748 57.7472 270.634 56.067C268.505 52.8543 264.837 55.2341 260.697 55.3531L259.277 58.2089C261.407 57.7329 265.594 56.8524 268.15 57.138Z" fill="#C4C4C4"/>
<path d="M246.501 64.2773C246.501 65.2293 244.94 67.1331 238.693 67.1331" stroke="#9D6445"/>
<path d="M260.697 64.2773C260.697 65.2293 262.258 67.1331 268.505 67.1331" stroke="#9D6445"/>
<path d="M229.485 73.6293H227.726C227.123 70.7699 226.807 58.9034 226.228 52.8987C225.505 45.3928 227.205 41.8005 234.08 32.1501C240.955 22.4996 261.602 24.8703 269.924 30.0083C275.714 33.5825 282.315 42.8908 282.676 47.8948C282.966 51.8979 280.556 70.0479 279.832 74.6944C279.109 76.9581 277.661 74.6944 277.661 74.6944C277.661 74.6944 277.972 60.4046 275.078 55.4007C272.183 50.3968 270.374 41.1037 268.926 36.0998C243.597 41.8185 241.064 35.3849 236.36 36.0998C237.446 42.8908 233.103 54.3284 230.932 60.4046C229.196 65.2656 229.244 71.2464 229.485 73.6293Z" fill="#4F4F4F"/>
<path d="M228.82 73.6008L228.047 75.3435C227.436 72.4449 222.408 59.7491 223.788 52.1404C225.151 44.6202 226.409 41.9327 233.37 32.15C240.331 22.3674 260.328 23.372 268.754 28.5804C274.616 32.2036 281.061 40.3604 282.676 47.5138C285.54 60.195 279.884 72.7751 279.151 77.4853C278.419 79.78 277.598 74.6806 277.598 74.6806C277.598 74.6806 277.913 60.195 274.982 55.1225C272.051 50.05 270.22 40.6297 268.754 35.5572C243.108 41.3543 240.544 34.8326 235.781 35.5572C236.88 42.4413 232.483 54.0355 230.285 60.195C228.527 65.1225 228.575 71.1853 228.82 73.6008Z" fill="#C4C4C4"/>
<path d="M252.975 90.1672C235.87 90.4377 229.08 76.1138 228.401 68.561C228.401 70.3647 226.627 74.9865 227.521 84.7562C228.586 96.3862 240.71 106.4 252.975 106.4C271.699 106.4 278.76 93.8794 279.107 85.4326C279.447 77.1283 278.411 75.3811 277.732 69.6319C277.166 76.0574 270.079 89.8966 252.975 90.1672Z" fill="#E0E0E0"/>
<path d="M237.984 82.483C240.539 79.3416 248.512 77.1284 253.599 77.1284C258.686 77.1284 267.369 79.3416 269.924 82.483C272.48 85.6243 270.989 86.4097 269.924 86.7666C267.085 84.7438 261.549 82.483 253.599 82.483C245.649 82.483 240.823 85.4577 237.984 87.4806C236.919 87.1236 235.428 85.6243 237.984 82.483Z" fill="#E0E0E0"/>
<path d="M234.357 79.8738C234.098 81.6396 233.909 85.8693 235.222 88.6618" stroke="#9D6445" stroke-linecap="round"/>
<path d="M272.14 79.8748C272.395 81.6411 272.576 85.8712 271.257 88.6609" stroke="#9D6445" stroke-linecap="round"/>
<g clip-path="url(#clip2_10:11234)">
<path d="M212.431 126.39C212.431 119.122 218.151 113.231 225.207 113.231H280.571C287.627 113.231 293.347 119.122 293.347 126.39V191.456C293.347 198.724 287.627 204.615 280.571 204.615H225.207C218.151 204.615 212.431 198.724 212.431 191.456V126.39Z" fill="#EEC750"/>
<path d="M253.599 128.583C261.831 128.583 268.505 121.71 268.505 113.231H238.693C238.693 121.71 245.367 128.583 253.599 128.583Z" fill="#E2A56B"/>
<path d="M268.505 133.221L272.807 146.787L286.731 146.787L275.467 155.172L279.769 168.738L268.505 160.354L257.24 168.738L261.543 155.172L250.278 146.787L264.202 146.787L268.505 133.221Z" fill="#F2F2F2"/>
</g>
</g>
<g filter="url(#filter2_d_10:11234)">
<path d="M328.419 98.9519H351.372V113.231H328.419V98.9519Z" fill="#E2A56B"/>
<path d="M351.372 107.433C348.012 109.058 344.24 109.97 340.254 109.97H338.819C335.115 109.97 331.595 109.182 328.419 107.766V101.402H351.372V107.433Z" fill="#9D6445"/>
<path fill-rule="evenodd" clip-rule="evenodd" d="M313.357 51.1908C313.357 36.732 325.078 25.0107 339.537 25.0107C353.996 25.0107 365.717 36.732 365.717 51.1908V61.7504C368.617 59.7969 371.865 59.4161 373.851 61.0601C376.467 63.2262 375.901 68.0868 372.586 71.9167C370.572 74.2436 368.007 75.6546 365.717 75.918V79.506C365.717 93.9649 353.996 105.686 339.537 105.686C325.078 105.686 313.357 93.9649 313.357 79.506V75.973C311.139 75.6321 308.698 74.2424 306.765 72.009C303.45 68.1791 302.884 63.3184 305.5 61.1524C307.423 59.5605 310.529 59.867 313.357 61.6615V51.1908Z" fill="#E2A56B"/>
<path d="M332.006 84.9817C335.061 85.8127 341.92 86.976 347.785 84.9817C343.033 88.3673 338.461 90.7415 332.006 84.9817Z" fill="#252C4A"/>
<ellipse cx="328.061" cy="62.4924" rx="2.51042" ry="2.49879" fill="#252C4A"/>
<ellipse cx="351.73" cy="62.4924" rx="2.51042" ry="2.49879" fill="#252C4A"/>
<path d="M334.875 71.8225C334.875 73.7938 336.748 75.3918 339.059 75.3918H340.732C343.043 75.3918 344.916 73.7936 344.916 71.8221V61.8272C344.916 61.0235 344.605 60.2817 344.08 59.6851C344.08 59.685 344.08 59.6852 344.08 59.6851V69.6804C344.08 71.6518 342.206 73.25 339.896 73.25H338.222C336.853 73.25 335.638 72.6893 334.875 71.8225Z" fill="#9D6445"/>
<path d="M325.192 57.138C322.61 57.4235 322.203 58.9228 322.323 59.6368H321.964C321.725 59.3988 321.556 57.7472 322.681 56.067C324.833 52.8543 328.539 55.2341 332.723 55.3531L334.157 58.2089C332.006 57.7329 327.774 56.8524 325.192 57.138Z" fill="#C4C4C4"/>
<path d="M354.599 57.138C357.181 57.4235 357.588 58.9228 357.468 59.6368H357.827C358.066 59.3988 358.235 57.7472 357.11 56.067C354.958 52.8543 351.252 55.2341 347.068 55.3531L345.634 58.2089C347.785 57.7329 352.017 56.8524 354.599 57.138Z" fill="#C4C4C4"/>
<path d="M332.723 64.2773C332.723 65.2293 331.145 67.1331 324.833 67.1331" stroke="#9D6445"/>
<path d="M347.068 64.2773C347.068 65.2293 348.646 67.1331 354.958 67.1331" stroke="#9D6445"/>
<path d="M315.528 73.6293H313.751C313.141 70.7699 312.822 58.9034 312.237 52.8987C311.506 45.3928 313.223 41.8005 320.171 32.1501C327.118 22.4996 347.982 24.8703 356.393 30.0083C362.243 33.5825 368.913 42.8908 369.279 47.8948C369.572 51.8979 367.136 70.0479 366.405 74.6944C365.674 76.9581 364.211 74.6944 364.211 74.6944C364.211 74.6944 364.526 60.4046 361.6 55.4007C358.675 50.3968 356.847 41.1037 355.384 36.0998C329.788 41.8185 327.229 35.3849 322.475 36.0998C323.572 42.8908 319.184 54.3284 316.99 60.4046C315.235 65.2656 315.284 71.2464 315.528 73.6293Z" fill="#4F4F4F"/>
<path d="M314.855 73.6008L314.074 75.3435C313.457 72.4449 308.376 59.7491 309.77 52.1404C311.149 44.6202 312.419 41.9327 319.453 32.15C326.488 22.3674 346.695 23.372 355.21 28.5804C361.134 32.2036 367.646 40.3604 369.279 47.5138C372.172 60.195 366.457 72.7751 365.717 77.4853C364.977 79.78 364.147 74.6806 364.147 74.6806C364.147 74.6806 364.466 60.195 361.504 55.1225C358.542 50.05 356.691 40.6297 355.21 35.5572C329.294 41.3543 326.703 34.8326 321.89 35.5572C323 42.4413 318.558 54.0355 316.336 60.195C314.559 65.1225 314.609 71.1853 314.855 73.6008Z" fill="#C4C4C4"/>
<path d="M339.265 90.1672C321.98 90.4377 315.118 76.1138 314.433 68.561C314.433 70.3647 312.639 74.9865 313.543 84.7562C314.619 96.3862 326.871 106.4 339.265 106.4C358.186 106.4 365.322 93.8794 365.672 85.4326C366.016 77.1283 364.968 75.3811 364.282 69.6319C363.711 76.0574 356.549 89.8966 339.265 90.1672Z" fill="#E0E0E0"/>
<path d="M324.116 82.483C326.698 79.3416 334.755 77.1284 339.895 77.1284C345.036 77.1284 353.81 79.3416 356.393 82.483C358.975 85.6243 357.468 86.4097 356.393 86.7666C353.523 84.7438 347.929 82.483 339.895 82.483C331.862 82.483 326.985 85.4577 324.116 87.4806C323.04 87.1236 321.534 85.6243 324.116 82.483Z" fill="#E0E0E0"/>
<path d="M320.451 79.8738C320.19 81.6396 319.998 85.8693 321.325 88.6618" stroke="#9D6445" stroke-linecap="round"/>
<path d="M358.632 79.8748C358.89 81.6411 359.072 85.8712 357.739 88.6609" stroke="#9D6445" stroke-linecap="round"/>
<g clip-path="url(#clip3_10:11234)">
<path d="M298.294 126.39C298.294 119.122 304.075 113.231 311.205 113.231H367.151C374.282 113.231 380.062 119.122 380.062 126.39V191.456C380.062 198.724 374.282 204.615 367.151 204.615H311.205C304.075 204.615 298.294 198.724 298.294 191.456V126.39Z" fill="#65C3C9"/>
<path d="M339.895 128.583C348.214 128.583 354.958 121.71 354.958 113.231H324.833C324.833 121.71 331.576 128.583 339.895 128.583Z" fill="#E2A56B"/>
<path d="M354.958 133.221L359.306 146.787L373.376 146.787L361.993 155.172L366.341 168.738L354.958 160.354L343.575 168.738L347.923 155.172L336.54 146.787L350.61 146.787L354.958 133.221Z" fill="#F2F2F2"/>
</g>
</g>
<g filter="url(#filter3_d_10:11234)">
<path d="M278.209 134.337H301.162V148.616H278.209V134.337Z" fill="#E2A56B"/>
<path d="M301.162 142.818C297.803 144.443 294.03 145.355 290.044 145.355H288.61C284.905 145.355 281.385 144.567 278.209 143.151V136.787H301.162V142.818Z" fill="#9D6445"/>
<path fill-rule="evenodd" clip-rule="evenodd" d="M263.147 86.5758C263.147 72.117 274.868 60.3958 289.327 60.3958C303.786 60.3958 315.507 72.117 315.507 86.5758V97.1355C318.407 95.1819 321.655 94.8011 323.641 96.4451C326.257 98.6112 325.691 103.472 322.376 107.302C320.362 109.629 317.797 111.04 315.507 111.303V114.891C315.507 129.35 303.786 141.071 289.327 141.071C274.868 141.071 263.147 129.35 263.147 114.891V111.358C260.929 111.017 258.488 109.627 256.555 107.394C253.241 103.564 252.674 98.7034 255.291 96.5374C257.213 94.9455 260.32 95.252 263.147 97.0465V86.5758Z" fill="#E2A56B"/>
<path d="M281.796 120.367C284.851 121.198 291.71 122.361 297.576 120.367C292.823 123.752 288.251 126.126 281.796 120.367Z" fill="#252C4A"/>
<ellipse cx="277.851" cy="97.8775" rx="2.51042" ry="2.49879" fill="#252C4A"/>
<ellipse cx="301.521" cy="97.8775" rx="2.51042" ry="2.49879" fill="#252C4A"/>
<path d="M284.665 107.208C284.665 109.179 286.538 110.777 288.849 110.777H290.523C292.833 110.777 294.707 109.179 294.707 107.207V97.2122C294.707 96.4085 294.395 95.6668 293.87 95.0701C293.87 95.07 293.87 95.0702 293.87 95.0701V105.065C293.87 107.037 291.997 108.635 289.686 108.635H288.012C286.644 108.635 285.428 108.074 284.665 107.208Z" fill="#9D6445"/>
<path d="M274.982 92.523C272.4 92.8085 271.993 94.3078 272.113 95.0218H271.754C271.515 94.7838 271.346 93.1322 272.471 91.4521C274.623 88.2393 278.329 90.6191 282.513 90.7381L283.948 93.5939C281.796 93.1179 277.564 92.2374 274.982 92.523Z" fill="#C4C4C4"/>
<path d="M304.39 92.523C306.972 92.8085 307.378 94.3078 307.259 95.0218H307.617C307.856 94.7838 308.025 93.1322 306.9 91.4521C304.748 88.2393 301.042 90.6191 296.858 90.7381L295.424 93.5939C297.576 93.1179 301.807 92.2374 304.39 92.523Z" fill="#C4C4C4"/>
<path d="M282.513 99.6624C282.513 100.614 280.935 102.518 274.623 102.518" stroke="#9D6445"/>
<path d="M296.858 99.6624C296.858 100.614 298.436 102.518 304.748 102.518" stroke="#9D6445"/>
<path d="M265.318 109.014H263.541C262.932 106.155 262.612 94.2884 262.027 88.2837C261.296 80.7778 263.014 77.1856 269.961 67.5351C276.909 57.8847 297.773 60.2553 306.183 65.3933C312.033 68.9675 318.704 78.2758 319.069 83.2798C319.362 87.2829 316.927 105.433 316.195 110.079C315.464 112.343 314.001 110.079 314.001 110.079C314.001 110.079 314.316 95.7896 311.391 90.7857C308.465 85.7818 306.637 76.4887 305.174 71.4848C279.579 77.2036 277.019 70.7699 272.265 71.4848C273.362 78.2758 268.975 89.7134 266.781 95.7896C265.025 100.651 265.074 106.631 265.318 109.014Z" fill="#4F4F4F"/>
<path d="M264.646 108.986L263.864 110.728C263.247 107.83 258.166 95.1341 259.561 87.5254C260.939 80.0052 262.209 77.3177 269.244 67.5351C276.278 57.7524 296.485 58.757 305 63.9654C310.924 67.5886 317.437 75.7454 319.069 82.8988C321.963 95.58 316.248 108.16 315.507 112.87C314.767 115.165 313.938 110.066 313.938 110.066C313.938 110.066 314.256 95.58 311.294 90.5075C308.332 85.435 306.481 76.0147 305 70.9422C279.085 76.7393 276.493 70.2176 271.68 70.9422C272.791 77.8263 268.348 89.4205 266.127 95.58C264.35 100.508 264.399 106.57 264.646 108.986Z" fill="#C4C4C4"/>
<path d="M289.055 125.552C271.77 125.823 264.909 111.499 264.223 103.946C264.223 105.75 262.43 110.372 263.333 120.141C264.409 131.771 276.661 141.785 289.055 141.785C307.976 141.785 315.112 129.264 315.462 120.818C315.806 112.513 314.758 110.766 314.073 105.017C313.501 111.442 306.34 125.282 289.055 125.552Z" fill="#E0E0E0"/>
<path d="M273.906 117.868C276.488 114.727 284.545 112.513 289.686 112.513C294.826 112.513 303.601 114.727 306.183 117.868C308.765 121.009 307.259 121.795 306.183 122.152C303.314 120.129 297.719 117.868 289.686 117.868C281.652 117.868 276.775 120.843 273.906 122.866C272.83 122.509 271.324 121.009 273.906 117.868Z" fill="#E0E0E0"/>
<path d="M270.241 115.259C269.98 117.025 269.789 121.254 271.115 124.047" stroke="#9D6445" stroke-linecap="round"/>
<path d="M308.422 115.26C308.68 117.026 308.862 121.256 307.53 124.046" stroke="#9D6445" stroke-linecap="round"/>
<g clip-path="url(#clip4_10:11234)">
<path d="M248.084 161.775C248.084 154.507 253.865 148.616 260.995 148.616H316.942C324.072 148.616 329.852 154.507 329.852 161.775V226.841C329.852 234.109 324.072 240 316.942 240H260.995C253.865 240 248.084 234.109 248.084 226.841V161.775Z" fill="#41CA7B"/>
<path d="M289.686 163.968C298.004 163.968 304.748 157.095 304.748 148.616H274.623C274.623 157.095 281.367 163.968 289.686 163.968Z" fill="#E2A56B"/>
<path d="M304.748 168.606L309.096 182.172L323.166 182.172L311.783 190.557L316.131 204.123L304.748 195.739L293.365 204.123L297.713 190.557L286.33 182.172L300.4 182.172L304.748 168.606Z" fill="#F2F2F2"/>
</g>
</g>
<g filter="url(#filter4_d_10:11234)">
<path d="M185.685 133.354H208.398V147.766H185.685V133.354Z" fill="#E2A56B"/>
<path d="M208.398 141.914C205.074 143.554 201.341 144.474 197.396 144.474H195.977C192.31 144.474 188.827 143.679 185.685 142.25V135.827H208.398V141.914Z" fill="#9D6445"/>
<path fill-rule="evenodd" clip-rule="evenodd" d="M170.779 84.6322C170.779 70.324 182.378 58.7249 196.686 58.7249C210.995 58.7249 222.594 70.324 222.594 84.6322V95.8063C225.463 93.8345 228.678 93.4502 230.643 95.1095C233.232 97.2958 232.671 102.202 229.391 106.067C227.398 108.416 224.86 109.84 222.594 110.106V114.243C222.594 128.552 210.995 140.151 196.686 140.151C182.378 140.151 170.779 128.552 170.779 114.243V110.161C168.584 109.817 166.169 108.415 164.256 106.16C160.976 102.295 160.415 97.3889 163.004 95.2027C164.907 93.596 167.981 93.9053 170.779 95.7165V84.6322Z" fill="#E2A56B"/>
<path d="M189.234 119.254C192.257 120.093 199.045 121.267 204.849 119.254C200.146 122.671 195.622 125.067 189.234 119.254Z" fill="#252C4A"/>
<ellipse cx="185.33" cy="96.5555" rx="2.48427" ry="2.52204" fill="#252C4A"/>
<ellipse cx="208.753" cy="96.5555" rx="2.48427" ry="2.52204" fill="#252C4A"/>
<path d="M192.073 105.972C192.073 107.962 193.927 109.575 196.213 109.575H197.869C200.156 109.575 202.01 107.962 202.01 105.972V95.884C202.01 95.0728 201.702 94.3242 201.182 93.722C201.182 93.7218 201.182 93.7221 201.182 93.722V103.81C201.182 105.8 199.328 107.413 197.041 107.413H195.385C194.031 107.413 192.828 106.847 192.073 105.972Z" fill="#9D6445"/>
<path d="M182.491 91.1513C179.935 91.4395 179.533 92.9527 179.652 93.6733H179.297C179.06 93.4331 178.893 91.7662 180.006 90.0704C182.136 86.8278 185.803 89.2297 189.944 89.3498L191.363 92.2321C189.234 91.7518 185.046 90.863 182.491 91.1513Z" fill="#C4C4C4"/>
<path d="M211.592 91.1513C214.147 91.4395 214.55 92.9527 214.431 93.6733H214.786C215.023 93.4331 215.19 91.7662 214.076 90.0704C211.947 86.8278 208.28 89.2297 204.139 89.3498L202.72 92.2321C204.849 91.7518 209.037 90.863 211.592 91.1513Z" fill="#C4C4C4"/>
<path d="M189.943 98.3569C189.943 99.3177 188.382 101.239 182.136 101.239" stroke="#9D6445"/>
<path d="M204.139 98.3569C204.139 99.3177 205.701 101.239 211.947 101.239" stroke="#9D6445"/>
<path d="M172.927 107.796H171.169C170.566 104.91 170.25 92.9328 169.671 86.8723C168.947 79.2965 170.647 75.6709 177.522 65.9306C184.397 56.1904 205.044 58.5831 213.367 63.7689C219.156 67.3764 225.757 76.7713 226.119 81.8218C226.408 85.8622 223.998 104.181 223.275 108.871C222.551 111.155 221.104 108.871 221.104 108.871C221.104 108.871 221.415 94.448 218.52 89.3975C215.625 84.347 213.816 74.9675 212.369 69.917C187.039 75.689 184.506 69.1955 179.802 69.917C180.888 76.7713 176.546 88.3152 174.375 94.448C172.638 99.3542 172.686 105.391 172.927 107.796Z" fill="#4F4F4F"/>
<path d="M172.262 107.767L171.489 109.526C170.878 106.6 165.85 93.7866 167.23 86.1071C168.594 78.5169 169.851 75.8044 176.812 65.9308C183.773 56.0571 203.77 57.0711 212.196 62.3279C218.058 65.9848 224.503 74.2175 226.118 81.4374C228.982 94.2366 223.327 106.934 222.594 111.688C221.861 114.004 221.041 108.857 221.041 108.857C221.041 108.857 221.356 94.2366 218.425 89.1169C215.494 83.9973 213.662 74.4893 212.196 69.3696C186.551 75.2206 183.986 68.6382 179.223 69.3696C180.322 76.3177 175.926 88.0198 173.728 94.2366C171.969 99.21 172.018 105.329 172.262 107.767Z" fill="#C4C4C4"/>
<path d="M196.417 124.488C179.312 124.761 172.523 110.303 171.844 102.68C171.844 104.501 170.069 109.166 170.964 119.026C172.028 130.764 184.152 140.871 196.417 140.871C215.141 140.871 222.203 128.234 222.549 119.709C222.89 111.327 221.853 109.564 221.174 103.761C220.609 110.247 213.522 124.214 196.417 124.488Z" fill="#E0E0E0"/>
<path d="M181.426 116.732C183.981 113.561 191.955 111.327 197.041 111.327C202.128 111.327 210.811 113.561 213.367 116.732C215.922 119.902 214.431 120.695 213.367 121.055C210.528 119.014 204.991 116.732 197.041 116.732C189.092 116.732 184.265 119.734 181.426 121.776C180.361 121.416 178.871 119.902 181.426 116.732Z" fill="#E0E0E0"/>
<path d="M177.799 114.098C177.541 115.881 177.352 120.15 178.664 122.968" stroke="#9D6445" stroke-linecap="round"/>
<path d="M215.583 114.099C215.838 115.882 216.018 120.152 214.699 122.967" stroke="#9D6445" stroke-linecap="round"/>
<g clip-path="url(#clip5_10:11234)">
<path d="M155.874 161.047C155.874 153.712 161.594 147.766 168.65 147.766H224.013C231.07 147.766 236.79 153.712 236.79 161.047V226.718C236.79 234.054 231.07 240 224.013 240H168.65C161.594 240 155.874 234.054 155.874 226.718V161.047Z" fill="#F5A35A"/>
<path d="M197.041 163.261C205.273 163.261 211.947 156.324 211.947 147.766H182.136C182.136 156.324 188.809 163.261 197.041 163.261Z" fill="#E2A56B"/>
<path d="M211.947 167.942L216.25 181.634H230.173L218.909 190.097L223.212 203.789L211.947 195.327L200.683 203.789L204.985 190.097L193.721 181.634H207.644L211.947 167.942Z" fill="#F2F2F2"/>
</g>
</g>
<g filter="url(#filter5_d_10:11234)">
<path d="M430.776 107.882H453.49V122.293H430.776V107.882Z" fill="#E2A56B"/>
<path d="M453.49 116.441C450.165 118.082 446.433 119.002 442.488 119.002H441.068C437.402 119.002 433.919 118.207 430.776 116.778V110.355H453.49V116.441Z" fill="#9D6445"/>
<path fill-rule="evenodd" clip-rule="evenodd" d="M415.871 59.1598C415.871 44.8516 427.47 33.2524 441.778 33.2524C456.087 33.2524 467.686 44.8516 467.686 59.1598V70.3339C470.555 68.3621 473.77 67.9778 475.735 69.6371C478.324 71.8234 477.763 76.7292 474.483 80.5947C472.49 82.9433 469.952 84.3674 467.686 84.6332V88.7709C467.686 103.079 456.087 114.678 441.778 114.678C427.47 114.678 415.871 103.079 415.871 88.7709V84.6888C413.676 84.3447 411.261 82.9421 409.348 80.6879C406.068 76.8224 405.507 71.9165 408.096 69.7303C409.999 68.1236 413.073 68.4329 415.871 70.2441V59.1598Z" fill="#E2A56B"/>
<path d="M434.325 93.7815C437.349 94.6202 444.136 95.7944 449.941 93.7815C445.238 97.1986 440.714 99.5948 434.325 93.7815Z" fill="#252C4A"/>
<ellipse cx="430.422" cy="71.0831" rx="2.48427" ry="2.52204" fill="#252C4A"/>
<ellipse cx="453.845" cy="71.0831" rx="2.48427" ry="2.52204" fill="#252C4A"/>
<path d="M437.165 80.4999C437.165 82.4895 439.018 84.1023 441.305 84.1023H442.961C445.248 84.1023 447.102 82.4893 447.102 80.4995V70.4116C447.102 69.6004 446.793 68.8518 446.274 68.2495C446.274 68.2494 446.274 68.2497 446.274 68.2495V78.3378C446.274 80.3276 444.42 81.9406 442.133 81.9406H440.477C439.122 81.9406 437.92 81.3747 437.165 80.4999Z" fill="#9D6445"/>
<path d="M427.583 65.6789C425.027 65.9671 424.625 67.4803 424.743 68.2009H424.388C424.152 67.9607 423.985 66.2938 425.098 64.598C427.228 61.3554 430.895 63.7573 435.035 63.8774L436.455 66.7597C434.325 66.2793 430.138 65.3906 427.583 65.6789Z" fill="#C4C4C4"/>
<path d="M456.684 65.6789C459.239 65.9671 459.641 67.4803 459.523 68.2009H459.878C460.115 67.9607 460.282 66.2938 459.168 64.598C457.039 61.3554 453.371 63.7573 449.231 63.8774L447.812 66.7597C449.941 66.2793 454.129 65.3906 456.684 65.6789Z" fill="#C4C4C4"/>
<path d="M435.035 72.8845C435.035 73.8453 433.474 75.7669 427.228 75.7669" stroke="#9D6445"/>
<path d="M449.231 72.8845C449.231 73.8453 450.793 75.7669 457.039 75.7669" stroke="#9D6445"/>
<path d="M418.019 82.3232H416.261C415.658 79.4373 415.342 67.4604 414.763 61.3998C414.039 53.8241 415.739 50.1985 422.614 40.4582C429.489 30.718 450.136 33.1107 458.458 38.2965C464.248 41.904 470.849 51.2989 471.211 56.3494C471.5 60.3898 469.09 78.7086 468.367 83.3983C467.643 85.6831 466.196 83.3983 466.196 83.3983C466.196 83.3983 466.507 68.9756 463.612 63.9251C460.717 58.8746 458.908 49.4951 457.46 44.4446C432.131 50.2166 429.598 43.7231 424.894 44.4446C425.98 51.2989 421.638 62.8428 419.467 68.9756C417.73 73.8817 417.778 79.9183 418.019 82.3232Z" fill="#4F4F4F"/>
<path d="M417.354 82.2947L416.581 84.0536C415.97 81.128 410.942 68.3142 412.322 60.6347C413.686 53.0445 414.943 50.332 421.904 40.4583C428.865 30.5847 448.862 31.5987 457.288 36.8555C463.15 40.5123 469.595 48.745 471.21 55.965C474.074 68.7642 468.418 81.4613 467.686 86.2153C466.953 88.5314 466.132 83.3845 466.132 83.3845C466.132 83.3845 466.447 68.7642 463.517 63.6445C460.586 58.5248 458.754 49.0169 457.288 43.8972C431.642 49.7482 429.078 43.1658 424.315 43.8972C425.414 50.8453 421.018 62.5474 418.819 68.7642C417.061 73.7375 417.11 79.8568 417.354 82.2947Z" fill="#C4C4C4"/>
<path d="M441.509 99.0151C424.404 99.2882 417.614 84.831 416.936 77.208C416.936 79.0284 415.161 83.6933 416.055 93.5539C417.12 105.292 429.244 115.399 441.509 115.399C460.233 115.399 467.295 102.762 467.641 94.2365C467.982 85.855 466.945 84.0915 466.266 78.2889C465.7 84.7741 458.614 98.7421 441.509 99.0151Z" fill="#E0E0E0"/>
<path d="M426.518 91.2594C429.073 88.0888 437.046 85.855 442.133 85.855C447.22 85.855 455.903 88.0888 458.458 91.2594C461.014 94.4299 459.523 95.2226 458.458 95.5829C455.619 93.5412 450.083 91.2594 442.133 91.2594C434.184 91.2594 429.357 94.2618 426.518 96.3034C425.453 95.9431 423.963 94.4299 426.518 91.2594Z" fill="#E0E0E0"/>
<path d="M422.891 88.626C422.632 90.4082 422.443 94.6772 423.756 97.4957" stroke="#9D6445" stroke-linecap="round"/>
<path d="M460.674 88.627C460.929 90.4097 461.11 94.6792 459.791 97.4949" stroke="#9D6445" stroke-linecap="round"/>
<g clip-path="url(#clip6_10:11234)">
<path d="M400.965 135.575C400.965 128.24 406.685 122.293 413.742 122.293H469.105C476.161 122.293 481.881 128.24 481.881 135.575V201.246C481.881 208.581 476.161 214.528 469.105 214.528H413.742C406.685 214.528 400.965 208.581 400.965 201.246V135.575Z" fill="#59A6EA"/>
<path d="M442.133 137.789C450.365 137.789 457.039 130.851 457.039 122.293H427.228C427.228 130.851 433.901 137.789 442.133 137.789Z" fill="#E2A56B"/>
<path d="M457.039 142.469L461.342 156.162H475.265L464.001 164.624L468.303 178.317L457.039 169.855L445.774 178.317L450.077 164.624L438.812 156.162H452.736L457.039 142.469Z" fill="#F2F2F2"/>
</g>
</g>
<g filter="url(#filter6_d_10:11234)">
<path d="M378.688 126.241V140H400.688V125.775C396.449 128.716 392.044 130.463 389.344 130.463C386.789 130.463 382.709 128.899 378.688 126.241Z" fill="#9E5D56"/>
<path d="M378.688 121.472C382.709 124.13 386.789 125.694 389.344 125.694C392.044 125.694 396.449 123.947 400.688 121.007V125.775C396.449 128.716 392.044 130.463 389.344 130.463C386.789 130.463 382.709 128.899 378.688 126.241V121.472Z" fill="#65353A"/>
<path d="M389.344 54.1626C376.624 54.1626 366.312 64.3803 366.312 76.9845V85.5001C362.516 85.5001 359.438 88.5502 359.438 92.3126C359.438 96.075 362.516 99.1251 366.312 99.1251V102.872C366.312 115.476 382.812 125.694 389.344 125.694C395.875 125.694 412.375 115.476 412.375 102.872V99.1251C416.172 99.1251 419.25 96.075 419.25 92.3126C419.25 88.5502 416.172 85.5001 412.375 85.5001V76.9845C412.375 64.3803 402.064 54.1626 389.344 54.1626Z" fill="#9E5D56"/>
<path d="M386.938 101.169C386.938 103.05 388.477 104.575 390.375 104.575C392.273 104.575 393.812 103.05 393.812 101.169V91.6313C393.812 90.8643 393.557 90.1565 393.125 89.5872C393.125 89.5871 393.125 89.5873 393.125 89.5872V99.125C393.125 101.006 391.586 102.531 389.687 102.531C388.563 102.531 387.565 101.996 386.938 101.169Z" fill="#65353A"/>
<ellipse cx="378.344" cy="91.972" rx="2.40625" ry="2.38437" fill="#30333A"/>
<ellipse cx="401.031" cy="91.972" rx="2.40625" ry="2.38437" fill="#30333A"/>
<path d="M376.701 48.3333C374.752 48.7457 371.706 49.39 367.901 53.4738C364.814 56.7862 362.493 67.5893 361.733 74.9334C359.447 76.8852 357.431 80.2823 358.029 84.4512C355.371 84.4512 351.658 86.2508 351.658 95.5487C349.456 96.1485 345.189 99.2678 345.735 106.946C346.574 118.73 362.459 121.332 372.616 121.943C374.627 122.063 376.652 122.163 378.688 122.24V120.953C372.429 116.82 366.36 110.103 366.36 102.437L366.313 99.0555C362.516 99.0555 359.438 96.0085 359.438 92.2499C359.438 88.4913 362.516 85.4444 366.313 85.4444C366.313 82.1524 366.175 82.9493 366.313 79.6596C367.998 79.057 371.795 78.4989 373.531 76.9374C377.431 73.4296 379.849 68.6069 380.063 66.3531L379.93 65.1739C381.74 67.9477 383.653 71.5162 387.625 73.5346C395.463 77.5173 406.795 77.4487 412.031 78.9791C412.362 82.6172 412.375 81.797 412.375 85.4444C416.172 85.4444 419.202 88.4188 419.202 92.1774C419.202 95.936 416.172 99.0555 412.375 99.0555V102.372C412.375 109.757 406.699 116.322 400.688 120.488V122.239C402.716 122.162 404.735 122.063 406.739 121.943C416.896 121.332 432.781 118.73 433.62 106.946C434.167 99.2678 431.274 96.1485 429.072 95.5487C429.072 86.2508 423.984 84.4512 421.327 84.4512C421.902 80.4364 420.054 77.1375 417.875 75.1558C417.839 62.4446 413.475 55.0126 408.303 51.8296C400.534 47.0488 385.675 46.435 376.701 48.3333Z" fill="#4C150E"/>
<path d="M381.438 108.583C383.765 111.304 390.994 108.583 399.079 108.583C390.258 118.378 390.626 120.011 381.438 108.583Z" fill="#ACACAC" stroke="#ACACAC"/>
<path d="M349.812 152.433C349.812 145.505 355.353 139.889 362.187 139.889H415.812C422.647 139.889 428.187 145.505 428.187 152.433V214.456C428.187 221.384 422.647 227 415.812 227H362.187C355.353 227 349.812 221.384 349.812 214.456V152.433Z" fill="#F3F6F8"/>
<path d="M389.683 154.524C397.656 154.524 404.12 147.971 404.12 139.889H375.245C375.245 147.971 381.709 154.524 389.683 154.524Z" fill="#9E5D56"/>
</g>
</g>
<g style="mix-blend-mode:multiply" opacity="0.25">
<path fill-rule="evenodd" clip-rule="evenodd" d="M76.8813 158.5L106.973 22.0765C109.753 9.4741 120.922 0.5 133.828 0.5H474.9C487.805 0.5 498.974 9.4741 501.754 22.0765L531.846 158.5H536.299L536.453 158.671C536.157 157.497 536 156.267 536 155V137C536 128.716 542.716 122 551 122H575C588.255 122 599 132.745 599 146V159C599 165.075 594.075 170 588 170H551C549.16 170 547.398 169.669 545.769 169.063L549.299 173L574.799 197.5C574.799 213.765 574.43 233.925 574.058 254.255V254.264L574.058 254.27C573.68 274.941 573.299 295.787 573.299 312.892C573.299 345.14 400.601 351.675 301.399 350.948C202.198 351.675 29.5 345.14 29.5 312.892C29.5 295.783 29.1186 274.931 28.7405 254.256C28.3687 233.925 28 213.765 28 197.5L53.5 173L56.1907 169.999C56.1272 170 56.0637 170 56 170H19C12.9249 170 8 165.075 8 159V146C8 132.745 18.7452 122 32 122H56C64.2843 122 71 128.716 71 137V155C71 156.205 70.8579 157.377 70.5895 158.5H76.8813ZM121.621 25.3075C122.885 19.5791 127.962 15.5 133.828 15.5H474.9C480.766 15.5 485.843 19.5791 487.106 25.3075L517.426 162.763C518.639 168.266 516.043 173.564 511.604 176.209L480.725 177.956H452.477C449.71 172.595 445.95 167.655 441.305 163.377C430.616 153.531 416.117 148 401 148C385.883 148 371.384 153.531 360.695 163.377C356.05 167.655 352.29 172.595 349.523 177.956H122.074L97.7968 176.582C92.9513 174.089 90.0276 168.539 91.3015 162.763L121.621 25.3075ZM374.309 177.956H427.691C427.339 177.602 426.978 177.255 426.608 176.914C419.816 170.659 410.605 167.144 401 167.144C391.395 167.144 382.184 170.659 375.392 176.914C375.022 177.255 374.661 177.602 374.309 177.956Z" fill="#30333A"/>
</g>
<path fill-rule="evenodd" clip-rule="evenodd" d="M68.8813 158.5L98.9732 22.0765C101.753 9.4741 112.922 0.5 125.828 0.5H466.9C479.805 0.5 490.974 9.4741 493.754 22.0765L523.846 158.5H528.299L528.453 158.671C528.157 157.497 528 156.267 528 155V137C528 128.716 534.716 122 543 122H567C580.255 122 591 132.745 591 146V159C591 165.075 586.075 170 580 170H543C541.16 170 539.398 169.669 537.769 169.063L541.299 173L566.799 197.5C566.799 213.765 566.43 233.925 566.058 254.255V254.264L566.058 254.27C565.68 274.941 565.299 295.787 565.299 312.892C565.299 345.14 392.601 351.675 293.399 350.948C194.198 351.675 21.5 345.14 21.5 312.892C21.5 295.783 21.1186 274.931 20.7405 254.256C20.3687 233.925 20 213.765 20 197.5L45.5 173L48.1907 169.999C48.1272 170 48.0637 170 48 170H11C4.92487 170 0 165.075 0 159V146C0 132.745 10.7452 122 24 122H48C56.2843 122 63 128.716 63 137V155C63 156.205 62.8579 157.377 62.5895 158.5H68.8813ZM113.621 25.3075C114.885 19.5791 119.962 15.5 125.828 15.5H466.9C472.766 15.5 477.843 19.5791 479.106 25.3075L509.426 162.763C510.639 168.266 508.043 173.564 503.604 176.209L472.725 177.956H444.477C441.71 172.595 437.95 167.655 433.305 163.377C422.616 153.531 408.117 148 393 148C377.883 148 363.384 153.531 352.695 163.377C348.05 167.655 344.29 172.595 341.523 177.956H114.074L89.7968 176.582C84.9513 174.089 82.0276 168.539 83.3015 162.763L113.621 25.3075ZM366.309 177.956H419.691C419.339 177.602 418.978 177.255 418.608 176.914C411.816 170.659 402.605 167.144 393 167.144C383.395 167.144 374.184 170.659 367.392 176.914C367.022 177.255 366.661 177.602 366.309 177.956Z" fill="#464C50"/>
<circle cx="496" cy="236" r="35" fill="#F9B023"/>
<circle cx="496" cy="236" r="27" fill="#F2C94C"/>
<g style="mix-blend-mode:multiply" opacity="0.25">
<path d="M496.501 270.996C515.6 270.729 531 255.163 531 236C531 216.837 515.6 201.271 496.501 201.004C496.666 201.001 496.833 201 497 201C526.5 201 539 216.67 539 236C539 255.33 526.5 271 497 271C496.833 271 496.666 270.999 496.501 270.996Z" fill="#30333A"/>
<path d="M500 262.706C513.015 260.773 523 249.553 523 236C523 222.447 513.015 211.227 500 209.294C501.305 209.1 502.641 209 504 209C518.912 209 531 221.088 531 236C531 250.912 518.912 263 504 263C502.641 263 501.305 262.9 500 262.706Z" fill="#30333A"/>
</g>
<circle cx="89" cy="236" r="35" fill="#F9B023"/>
<circle cx="89" cy="236" r="27" fill="#F2C94C"/>
<g style="mix-blend-mode:multiply" opacity="0.25">
<path d="M89.5007 270.996C108.6 270.729 124 255.163 124 236C124 216.837 108.6 201.271 89.5007 201.004C89.6663 201.001 89.8327 201 90 201C119.5 201 132 216.67 132 236C132 255.33 119.5 271 90 271C89.8327 271 89.6663 270.999 89.5007 270.996Z" fill="#30333A"/>
<path d="M93 262.706C106.015 260.773 116 249.553 116 236C116 222.447 106.015 211.227 93 209.294C94.3052 209.1 95.6409 209 97 209C111.912 209 124 221.088 124 236C124 250.912 111.912 263 97 263C95.6409 263 94.3052 262.9 93 262.706Z" fill="#30333A"/>
</g>
<g style="mix-blend-mode:multiply" opacity="0.25">
<path fill-rule="evenodd" clip-rule="evenodd" d="M157.556 345.5C157.556 345.5 135.256 274.7 144.056 259.5C155.056 240.5 170.558 234 300.557 236V236C430.557 234 446.558 240.887 457.558 259.887C466.358 275.087 444.057 345.887 444.057 345.887C421.573 350.883 300.75 351 300.558 351C300.558 351 300.558 351 300.557 351C300.366 350.999 180.04 350.496 157.556 345.5Z" fill="#30333A"/>
</g>
<path fill-rule="evenodd" clip-rule="evenodd" d="M149.556 345.5C149.556 345.5 127.256 274.7 136.056 259.5C147.056 240.5 162.558 234 292.557 236V236C422.557 234 438.558 240.887 449.558 259.887C458.358 275.087 436.057 345.887 436.057 345.887C413.573 350.883 292.75 351 292.558 351C292.558 351 292.558 351 292.557 351C292.366 350.999 172.04 350.496 149.556 345.5Z" fill="#828282"/>
<g style="mix-blend-mode:multiply" opacity="0.25">
<path d="M420 274H428C430.761 274 433 271.761 433 269V268C433 265.239 430.761 263 428 263H420C422.761 263 425 265.239 425 268V269C425 271.761 422.761 274 420 274Z" fill="#30333A"/>
<path d="M420 298H428C430.761 298 433 295.761 433 293V292C433 289.239 430.761 287 428 287H420C422.761 287 425 289.239 425 292V293C425 295.761 422.761 298 420 298Z" fill="#30333A"/>
<path d="M420 322H428C430.761 322 433 319.761 433 317V316C433 313.239 430.761 311 428 311H420C422.761 311 425 313.239 425 316V317C425 319.761 422.761 322 420 322Z" fill="#30333A"/>
</g>
<path d="M164 268C164 265.239 166.205 263 168.925 263H420.075C422.795 263 425 265.239 425 268V269C425 271.761 422.795 274 420.075 274H168.925C166.205 274 164 271.761 164 269V268Z" fill="#C4C4C4"/>
<path d="M164 292C164 289.239 166.205 287 168.925 287H420.075C422.795 287 425 289.239 425 292V293C425 295.761 422.795 298 420.075 298H168.925C166.205 298 164 295.761 164 293V292Z" fill="#C4C4C4"/>
<path d="M168.925 311C166.205 311 164 313.239 164 316V317C164 319.761 166.205 322 168.925 322H420.075C422.795 322 425 319.761 425 317V316C425 313.239 422.795 311 420.075 311H168.925Z" fill="#C4C4C4"/>
<defs>
<filter id="filter0_d_10:11234" x="101" y="7" width="99.8096" height="213.615" filterUnits="userSpaceOnUse" color-interpolation-filters="sRGB">
<feFlood flood-opacity="0" result="BackgroundImageFix"/>
<feColorMatrix in="SourceAlpha" type="matrix" values="0 0 0 0 0 0 0 0 0 0 0 0 0 0 0 0 0 0 127 0" result="hardAlpha"/>
<feOffset dy="4"/>
<feGaussianBlur stdDeviation="2"/>
<feComposite in2="hardAlpha" operator="out"/>
<feColorMatrix type="matrix" values="0 0 0 0 0 0 0 0 0 0 0 0 0 0 0 0 0 0 0.25 0"/>
<feBlend mode="normal" in2="BackgroundImageFix" result="effect1_dropShadow_10:11234"/>
<feBlend mode="normal" in="SourceGraphic" in2="effect1_dropShadow_10:11234" result="shape"/>
</filter>
<filter id="filter1_d_10:11234" x="203.463" y="-1" width="98.8533" height="213.615" filterUnits="userSpaceOnUse" color-interpolation-filters="sRGB">
<feFlood flood-opacity="0" result="BackgroundImageFix"/>
<feColorMatrix in="SourceAlpha" type="matrix" values="0 0 0 0 0 0 0 0 0 0 0 0 0 0 0 0 0 0 127 0" result="hardAlpha"/>
<feOffset dy="4"/>
<feGaussianBlur stdDeviation="2"/>
<feComposite in2="hardAlpha" operator="out"/>
<feColorMatrix type="matrix" values="0 0 0 0 0 0 0 0 0 0 0 0 0 0 0 0 0 0 0.25 0"/>
<feBlend mode="normal" in2="BackgroundImageFix" result="effect1_dropShadow_10:11234"/>
<feBlend mode="normal" in="SourceGraphic" in2="effect1_dropShadow_10:11234" result="shape"/>
</filter>
<filter id="filter2_d_10:11234" x="289.273" y="-1" width="99.8096" height="213.615" filterUnits="userSpaceOnUse" color-interpolation-filters="sRGB">
<feFlood flood-opacity="0" result="BackgroundImageFix"/>
<feColorMatrix in="SourceAlpha" type="matrix" values="0 0 0 0 0 0 0 0 0 0 0 0 0 0 0 0 0 0 127 0" result="hardAlpha"/>
<feOffset dy="4"/>
<feGaussianBlur stdDeviation="2"/>
<feComposite in2="hardAlpha" operator="out"/>
<feColorMatrix type="matrix" values="0 0 0 0 0 0 0 0 0 0 0 0 0 0 0 0 0 0 0.25 0"/>
<feBlend mode="normal" in2="BackgroundImageFix" result="effect1_dropShadow_10:11234"/>
<feBlend mode="normal" in="SourceGraphic" in2="effect1_dropShadow_10:11234" result="shape"/>
</filter>
<filter id="filter3_d_10:11234" x="239.064" y="34.385" width="99.8096" height="213.615" filterUnits="userSpaceOnUse" color-interpolation-filters="sRGB">
<feFlood flood-opacity="0" result="BackgroundImageFix"/>
<feColorMatrix in="SourceAlpha" type="matrix" values="0 0 0 0 0 0 0 0 0 0 0 0 0 0 0 0 0 0 127 0" result="hardAlpha"/>
<feOffset dy="4"/>
<feGaussianBlur stdDeviation="2"/>
<feComposite in2="hardAlpha" operator="out"/>
<feColorMatrix type="matrix" values="0 0 0 0 0 0 0 0 0 0 0 0 0 0 0 0 0 0 0.25 0"/>
<feBlend mode="normal" in2="BackgroundImageFix" result="effect1_dropShadow_10:11234"/>
<feBlend mode="normal" in="SourceGraphic" in2="effect1_dropShadow_10:11234" result="shape"/>
</filter>
<filter id="filter4_d_10:11234" x="146.905" y="32.4724" width="98.8533" height="215.528" filterUnits="userSpaceOnUse" color-interpolation-filters="sRGB">
<feFlood flood-opacity="0" result="BackgroundImageFix"/>
<feColorMatrix in="SourceAlpha" type="matrix" values="0 0 0 0 0 0 0 0 0 0 0 0 0 0 0 0 0 0 127 0" result="hardAlpha"/>
<feOffset dy="4"/>
<feGaussianBlur stdDeviation="2"/>
<feComposite in2="hardAlpha" operator="out"/>
<feColorMatrix type="matrix" values="0 0 0 0 0 0 0 0 0 0 0 0 0 0 0 0 0 0 0.25 0"/>
<feBlend mode="normal" in2="BackgroundImageFix" result="effect1_dropShadow_10:11234"/>
<feBlend mode="normal" in="SourceGraphic" in2="effect1_dropShadow_10:11234" result="shape"/>
</filter>
<filter id="filter5_d_10:11234" x="391.997" y="7" width="98.8533" height="215.528" filterUnits="userSpaceOnUse" color-interpolation-filters="sRGB">
<feFlood flood-opacity="0" result="BackgroundImageFix"/>
<feColorMatrix in="SourceAlpha" type="matrix" values="0 0 0 0 0 0 0 0 0 0 0 0 0 0 0 0 0 0 127 0" result="hardAlpha"/>
<feOffset dy="4"/>
<feGaussianBlur stdDeviation="2"/>
<feComposite in2="hardAlpha" operator="out"/>
<feColorMatrix type="matrix" values="0 0 0 0 0 0 0 0 0 0 0 0 0 0 0 0 0 0 0.25 0"/>
<feBlend mode="normal" in2="BackgroundImageFix" result="effect1_dropShadow_10:11234"/>
<feBlend mode="normal" in="SourceGraphic" in2="effect1_dropShadow_10:11234" result="shape"/>
</filter>
<filter id="filter6_d_10:11234" x="341" y="31" width="96.6875" height="204" filterUnits="userSpaceOnUse" color-interpolation-filters="sRGB">
<feFlood flood-opacity="0" result="BackgroundImageFix"/>
<feColorMatrix in="SourceAlpha" type="matrix" values="0 0 0 0 0 0 0 0 0 0 0 0 0 0 0 0 0 0 127 0" result="hardAlpha"/>
<feOffset dy="4"/>
<feGaussianBlur stdDeviation="2"/>
<feComposite in2="hardAlpha" operator="out"/>
<feColorMatrix type="matrix" values="0 0 0 0 0 0 0 0 0 0 0 0 0 0 0 0 0 0 0.25 0"/>
<feBlend mode="normal" in2="BackgroundImageFix" result="effect1_dropShadow_10:11234"/>
<feBlend mode="normal" in="SourceGraphic" in2="effect1_dropShadow_10:11234" result="shape"/>
</filter>
<clipPath id="clip0_10:11234">
<rect width="429" height="163" fill="white" transform="translate(82 15)"/>
</clipPath>
<clipPath id="clip1_10:11234">
<rect width="81.7679" height="91.3845" fill="white" transform="translate(110.021 121.231)"/>
</clipPath>
<clipPath id="clip2_10:11234">
<rect width="80.9161" height="91.3845" fill="white" transform="translate(212.431 113.231)"/>
</clipPath>
<clipPath id="clip3_10:11234">
<rect width="81.7679" height="91.3845" fill="white" transform="translate(298.294 113.231)"/>
</clipPath>
<clipPath id="clip4_10:11234">
<rect width="81.7679" height="91.3845" fill="white" transform="translate(248.084 148.616)"/>
</clipPath>
<clipPath id="clip5_10:11234">
<rect width="80.9161" height="92.2346" fill="white" transform="translate(155.874 147.766)"/>
</clipPath>
<clipPath id="clip6_10:11234">
<rect width="80.9161" height="92.2346" fill="white" transform="translate(400.965 122.293)"/>
</clipPath>
</defs>
</svg>
