<svg width="628" height="417" viewBox="0 0 628 417" fill="none" xmlns="http://www.w3.org/2000/svg">
<g filter="url(#filter0_d_10:11233)">
<path d="M309.539 131.746V145H330.789V131.297C326.695 134.13 322.441 135.813 319.832 135.813C317.364 135.813 313.423 134.307 309.539 131.746Z" fill="#9E5D56"/>
<path d="M309.539 127.152C313.423 129.713 317.364 131.219 319.832 131.219C322.441 131.219 326.695 129.536 330.789 126.704V131.297C326.695 134.13 322.441 135.813 319.832 135.813C317.364 135.813 313.423 134.307 309.539 131.746V127.152Z" fill="#65353A"/>
<path d="M319.832 62.3125C307.546 62.3125 297.586 72.1552 297.586 84.2969V92.5C293.918 92.5 290.945 95.4381 290.945 99.0625C290.945 102.687 293.918 105.625 297.586 105.625V109.234C297.586 121.376 313.523 131.219 319.832 131.219C326.141 131.219 342.078 121.376 342.078 109.234V105.625C345.746 105.625 348.719 102.687 348.719 99.0625C348.719 95.4381 345.746 92.5 342.078 92.5V84.2969C342.078 72.1552 332.118 62.3125 319.832 62.3125Z" fill="#9E5D56"/>
<path d="M317.508 107.594C317.508 109.406 318.994 110.875 320.828 110.875C322.662 110.875 324.148 109.406 324.148 107.594V98.4064C324.148 97.6675 323.901 96.9857 323.484 96.4373C323.484 96.4372 323.484 96.4374 323.484 96.4373V105.625C323.484 107.437 321.998 108.906 320.164 108.906C319.078 108.906 318.114 108.391 317.508 107.594Z" fill="#65353A"/>
<ellipse cx="309.207" cy="98.7344" rx="2.32422" ry="2.29687" fill="#30333A"/>
<ellipse cx="331.121" cy="98.7344" rx="2.32422" ry="2.29687" fill="#30333A"/>
<path d="M307.621 56.7143C305.738 57.112 302.796 57.7333 299.12 61.6712C296.139 64.8654 293.897 75.2826 293.163 82.3645C290.954 84.2465 289.007 87.5223 289.585 91.5424C287.018 91.5424 283.431 93.2777 283.431 102.243C281.304 102.822 277.182 105.83 277.71 113.234C278.521 124.597 293.864 127.106 303.675 127.695C305.617 127.811 307.573 127.907 309.539 127.982V126.741C303.494 122.755 297.632 116.278 297.632 108.886L297.586 105.625C293.918 105.625 290.945 102.687 290.945 99.0625C290.945 95.4381 293.918 92.5 297.586 92.5C297.586 89.3256 297.453 90.0941 297.586 86.9219C299.214 86.3407 302.882 85.8026 304.559 84.2969C308.325 80.9143 310.661 76.2639 310.867 74.0905L310.739 72.9535C312.487 75.6283 314.335 79.0693 318.172 81.0156C325.743 84.8561 336.688 84.7899 341.746 86.2656C342.065 89.7738 342.078 88.9829 342.078 92.5C345.746 92.5 348.672 95.3682 348.672 98.9925C348.672 102.617 345.746 105.625 342.078 105.625V108.823C342.078 115.944 336.596 122.275 330.789 126.292V127.981C332.748 127.906 334.699 127.811 336.634 127.695C346.445 127.106 361.788 124.597 362.599 113.234C363.127 105.83 360.333 102.822 358.206 102.243C358.206 93.2777 353.292 91.5424 350.724 91.5424C351.281 87.6709 349.495 84.4898 347.39 82.5789C347.356 70.3216 343.141 63.1551 338.145 60.0858C330.641 55.4757 316.288 54.8839 307.621 56.7143Z" fill="#4C150E"/>
<path d="M312.195 114.812C314.444 117.436 321.426 114.812 329.236 114.812C320.716 124.258 321.071 125.832 312.195 114.812Z" fill="#ACACAC" stroke="#ACACAC"/>
<g clip-path="url(#clip0_10:11233)">
<path d="M281.648 157.096C281.648 150.416 287 145 293.602 145H345.398C352 145 357.352 150.416 357.352 157.096V216.904C357.352 223.584 352 229 345.398 229H293.602C287 229 281.648 223.584 281.648 216.904V157.096Z" fill="#464C50"/>
<path d="M320.159 159.112C327.861 159.112 334.105 152.794 334.105 145H306.214C306.214 152.794 312.458 159.112 320.159 159.112Z" fill="#9E5D56"/>
</g>
</g>
<g filter="url(#filter1_d_10:11233)">
<path d="M165.922 124.667H187.422V140.667H165.922V124.667Z" fill="#F6C09D"/>
<path d="M187.422 132.667C184.275 134.184 180.742 136 177.008 136H175.664C172.194 136 168.896 133.989 165.922 132.667V128H187.422V132.667Z" fill="#C99281"/>
<path d="M151.812 73.6667C151.812 60.5959 162.491 50 175.664 50H177.008C190.181 50 200.859 60.5959 200.859 73.6667V90C204.57 90 207.578 92.9848 207.578 96.6667C207.578 100.349 204.57 103.333 200.859 103.333V108.333C200.859 114.341 196.85 119.16 193.133 123.333C188.763 128.24 184.126 132 177.008 132H175.664C169.509 132 165.151 127.835 161.219 124C155.708 118.625 151.812 112.613 151.812 108.333V103.333C148.102 103.333 145.094 100.349 145.094 96.6667C145.094 92.9848 148.102 90 151.812 90V73.6667Z" fill="#F6C09D"/>
<path d="M155.984 93L152.289 89.3333C151.169 84.7778 145.478 79.6667 146.578 67.6667C147.891 53.3333 153.968 46 175.804 46C197.64 46 203.687 52.3333 205.703 67C206.985 76.3333 202.007 84.6667 200.664 89.3333L197.304 92.3333C197.64 88.3333 198.312 78.5333 198.312 74C198.312 60.3333 181.851 64 175.804 64C169.757 64 154.304 61 153.632 74C153.282 80.7898 154.864 89.8889 155.984 93Z" fill="#4C150E"/>
<path d="M172.109 52.9999C176.476 56.3335 176.14 60.3333 175.468 63.9997L174.569 63.9641C174.364 62.7126 174.014 60.9663 173.443 58.5893C172.744 55.6727 170.453 53.3068 167.935 51.5442C165.411 49.7767 162.607 48.5792 160.787 48.0151L160.737 48.175C160.469 48.0863 160.228 48.0286 160.015 47.9998C163.598 47.3331 168.741 50.429 172.109 52.9999Z" fill="#663E3E"/>
<path d="M164 50.0224C165.157 50.5825 166.384 51.2738 167.548 52.0889C170.014 53.8152 172.146 56.0604 172.79 58.7438C173.338 61.026 173.679 62.7158 173.884 63.9369L171.706 63.8504C171.158 60.6092 169.005 58.1518 166.544 56.3959C164.332 54.8183 161.844 53.7847 159.957 53.2381C163.262 52.4843 165.912 52.7881 168.027 53.7149C166.556 52.128 165.197 50.915 164 50.0224Z" fill="#663E3E"/>
<path d="M158.97 53.4896L158.93 53.6577C160.799 54.094 163.663 55.1616 166.151 56.9372C168.004 58.2588 169.627 59.956 170.496 62.0588C168.341 59.0215 165.24 57.2528 162.219 56.2746C159.298 55.3286 156.427 55.1131 154.505 55.2103C156.106 54.4408 157.592 53.8766 158.97 53.4896Z" fill="#663E3E"/>
<path d="M153.32 55.8067L153.352 55.9952C154.977 55.7265 158.449 55.7551 162.011 56.9084C165.372 57.9969 168.778 60.0752 170.799 63.8144L167.07 63.6664C166.734 61.8886 162.031 53.6666 148.593 58.6664C150.266 57.5307 151.84 56.5842 153.32 55.8067Z" fill="#663E3E"/>
<path d="M193.534 53.5953C181.77 50.1767 176.722 58.7577 175.468 63.9997L176.041 63.967L175.821 63.8944C176.851 60.8289 180.826 54.4879 188.534 53.6684C190.36 53.4743 192.029 53.4701 193.534 53.5953Z" fill="#663E3E"/>
<path d="M196.829 54.8011C194.661 54.2656 191.903 53.9807 188.606 54.3313C181.399 55.0975 177.587 60.9493 176.516 63.9399L183.867 63.5201C184.203 61.7423 190.25 53.6668 203.687 58.6666C201.21 56.9853 198.929 55.7184 196.829 54.8011Z" fill="#663E3E"/>
<path d="M167.938 91.6667C167.938 92.9553 166.885 94 165.586 94C164.287 94 163.234 92.9553 163.234 91.6667C163.234 90.378 164.287 89.3333 165.586 89.3333C166.885 89.3333 167.938 90.378 167.938 91.6667Z" fill="#4C150E"/>
<path d="M190.109 91.6667C190.109 92.9553 189.057 94 187.758 94C186.459 94 185.406 92.9553 185.406 91.6667C185.406 90.378 186.459 89.3333 187.758 89.3333C189.057 89.3333 190.109 90.378 190.109 91.6667Z" fill="#4C150E"/>
<path d="M190.445 111.333C179.964 113.467 168.833 110.444 164.578 108.667C169.808 115.783 170.289 118.667 176.672 119.217C184.766 119.915 184.477 116.145 190.445 111.333Z" fill="#4C150E"/>
<path d="M162.562 84.4892C159.606 83.9559 158.195 86.0448 157.859 87.1559C157.971 86.4892 158.496 83.0565 161.219 82.1559C163.234 81.4893 170.289 83.1559 170.961 83.4893C171.641 83.8266 171.185 85.4892 170.961 86.4892C170.289 86.8226 165.519 85.0226 162.562 84.4892Z" fill="#4C150E"/>
<path d="M191.476 84.4892C194.432 83.9559 195.843 86.0448 196.179 87.1559C196.067 86.4892 195.542 83.0565 192.819 82.1559C190.804 81.4893 183.749 83.1559 183.077 83.4893C182.397 83.8266 182.853 85.4892 183.077 86.4892C183.749 86.8226 188.519 85.0226 191.476 84.4892Z" fill="#4C150E"/>
<path d="M164.578 108.667C168.833 110.445 179.964 113.467 190.445 111.333C188.435 112.954 188.908 112.08 187.758 113.333C179.359 117.333 171.297 114.667 166.93 111.667C166.074 110.42 165.834 110.376 164.578 108.667Z" fill="white"/>
<path d="M169.736 115.889C171.444 117.911 173.169 118.915 176.672 119.217C180.262 119.527 182.493 118.483 184.062 117.333C177.299 118.192 172.641 117.333 169.736 115.889Z" fill="white"/>
<path d="M173.984 100.667C173.985 102.508 175.489 104 177.344 104C179.199 104 180.703 102.508 180.703 100.667V91.3333C180.703 90.5828 180.453 89.8902 180.031 89.333V98.6667C180.031 100.508 178.527 102 176.672 102C175.573 102 174.597 101.476 173.984 100.667Z" fill="#C99281"/>
<path fill-rule="evenodd" clip-rule="evenodd" d="M158.796 91.9109C158.319 91.7277 157.824 91.6667 157.523 91.6667L157.523 91C157.895 91 158.474 91.0724 159.039 91.2892C159.602 91.5055 160.191 91.8821 160.511 92.5176L160.819 93.1272L160.145 92.9936C158.932 92.7528 158.286 93.3 158.139 93.5183L157.58 93.1485C157.82 92.791 158.455 92.3035 159.449 92.2689C159.258 92.1203 159.035 92.0024 158.796 91.9109ZM194.641 91.2892C195.205 91.0724 195.785 91 196.156 91L196.156 91.6667C195.856 91.6667 195.36 91.7277 194.883 91.9109C194.645 92.0024 194.422 92.1203 194.231 92.2689C195.225 92.3035 195.86 92.791 196.1 93.1485L195.541 93.5183C195.394 93.3 194.748 92.7528 193.535 92.9936L192.861 93.1272L193.168 92.5176C193.489 91.8821 194.078 91.5055 194.641 91.2892ZM169.758 95.3026C166.139 96.96 163.333 95.7784 162.341 94.9175L162.784 94.4158C163.584 95.1104 166.108 96.24 169.476 94.6973L169.758 95.3026ZM184.203 94.6973C187.572 96.24 190.096 95.1104 190.896 94.4158L191.338 94.9175C190.347 95.7784 187.541 96.96 183.922 95.3026L184.203 94.6973ZM160.228 112.105C159.115 108.79 160.22 106.1 160.95 105.133L161.488 105.533C160.874 106.345 159.829 108.81 160.866 111.895L160.228 112.105ZM162.168 107.063C162.424 106.609 162.776 106.258 163.033 106.067L163.436 106.6C163.245 106.742 162.959 107.025 162.755 107.387C162.553 107.747 162.445 108.159 162.552 108.586L161.901 108.748C161.739 108.107 161.912 107.519 162.168 107.063ZM193.155 113.88C194.455 110.528 193.479 107.87 193.16 107.131L193.778 106.869C194.13 107.686 195.17 110.538 193.782 114.12L193.155 113.88ZM191.024 110.109C190.907 110.021 190.823 110 190.781 110V109.333C191.02 109.333 191.244 109.437 191.43 109.578C191.621 109.721 191.797 109.92 191.947 110.155C192.247 110.625 192.461 111.27 192.461 112H191.789C191.789 111.397 191.611 110.875 191.379 110.512C191.263 110.33 191.138 110.195 191.024 110.109Z" fill="#C99281"/>
<path fill-rule="evenodd" clip-rule="evenodd" d="M164.617 108.336L163.855 108.248L164.307 108.863C165.212 110.095 165.975 111.2 166.652 112.19L166.653 112.191C166.672 112.219 166.691 112.247 166.711 112.276C167.066 112.802 167.427 113.535 167.851 114.393C167.905 114.503 167.96 114.616 168.017 114.73C168.508 115.721 169.074 116.835 169.78 117.895C171.191 120.016 173.185 121.968 176.297 122.331C181.959 122.992 184.545 118.634 185.702 116.684C185.819 116.488 185.92 116.316 186.01 116.177C186.213 115.957 186.42 115.73 186.632 115.497C187.676 114.351 188.866 113.045 190.593 111.644C190.612 111.634 190.634 111.621 190.656 111.603C190.707 111.563 190.788 111.471 190.784 111.329C190.781 111.204 190.711 111.125 190.683 111.098L190.555 110.971L190.378 111.007L190.293 111.024C190.226 111.019 190.095 110.995 189.878 110.939C189.643 110.879 189.345 110.791 188.985 110.686L188.963 110.679C188.249 110.47 187.315 110.196 186.231 109.943C184.061 109.435 181.271 109.003 178.387 109.327C175.839 108.497 173.304 108.356 170.962 108.367C170.235 108.371 169.531 108.389 168.853 108.406C167.304 108.445 165.886 108.481 164.617 108.336ZM167.476 112.208L167.268 111.904C167.248 111.874 167.228 111.844 167.207 111.814C166.701 111.075 166.146 110.269 165.519 109.393C170.198 111.115 179.865 113.444 189.268 111.889C187.964 113.039 186.984 114.116 186.126 115.058C185.909 115.297 185.7 115.527 185.495 115.747C184.427 116.896 183.493 117.774 182.209 118.323C180.927 118.871 179.257 119.106 176.701 118.885C174.127 118.663 172.574 118.06 171.274 116.973C170.008 115.915 168.964 114.387 167.476 112.208Z" fill="#C99281"/>
<g clip-path="url(#clip1_10:11233)">
<rect x="149.797" y="140.667" width="51.7344" height="75.3333" fill="white"/>
<path d="M171.129 149.132L166.594 140.667H185.574L180.367 149.132L183.559 196.54L176.84 211.778L169.449 195.185L171.129 149.132Z" fill="#41CA7B"/>
<path d="M181.28 146.807C181.28 149.918 178.737 152.447 175.592 152.447C172.446 152.447 169.903 149.918 169.903 146.807C169.903 143.696 172.446 141.167 175.592 141.167C178.737 141.167 181.28 143.696 181.28 146.807Z" fill="#D6DBE0" stroke="#AAB3BC"/>
<path d="M181.916 147.6C181.945 147.357 181.959 147.11 181.959 146.86C181.959 146.322 181.891 145.799 181.764 145.3C180.564 144.918 178.305 144.424 175.766 144.541C172.929 144.672 170.337 145.947 169.227 146.671C169.225 146.734 169.224 146.797 169.224 146.86C169.224 147.516 169.325 148.149 169.512 148.744C170.741 148.006 173.15 146.912 175.766 146.791C178.417 146.669 180.763 147.213 181.916 147.6Z" fill="#AAB3BC"/>
<path fill-rule="evenodd" clip-rule="evenodd" d="M179.044 146.951C180.268 147.122 181.276 147.385 181.916 147.6C181.945 147.357 181.959 147.11 181.959 146.86C181.959 146.322 181.891 145.799 181.764 145.3C181.112 145.092 180.148 144.852 178.996 144.694C179.084 145.259 179.151 146.064 179.044 146.951ZM172.168 145.269C170.88 145.717 169.833 146.276 169.227 146.671C169.225 146.734 169.224 146.797 169.224 146.86C169.224 147.516 169.325 148.149 169.512 148.744C170.177 148.345 171.187 147.842 172.388 147.444C172.178 146.55 172.159 145.712 172.168 145.269Z" fill="#727E86"/>
<path d="M173.798 155.617L172.811 152.325C174.461 152.823 176.847 152.948 178.372 152.236L177.475 155.617C176.399 156.329 174.336 156.151 173.798 155.617Z" fill="#D6DBE0" stroke="#AAB3BC"/>
<path d="M174.068 170.791L172.932 153.991H178.186L177.05 170.791H174.068Z" fill="#D6DBE0" stroke="#AAB3BC"/>
<path d="M178.483 158.604C178.483 158.604 175.909 160.162 172.967 158.724L172.948 158.604L164.033 158.964L162.562 155.49L172.186 153.813L172.109 153.333C175.247 154.1 178.238 153.653 179.341 153.333L179.263 153.813L188.766 155.49L187.785 158.964L178.522 158.365L178.483 158.604Z" fill="#D6DBE0"/>
<path d="M172.186 153.813L172.109 153.333C175.247 154.1 178.238 153.653 179.341 153.333L179.263 153.813M172.186 153.813L162.562 155.49L164.033 158.964L172.948 158.604M172.186 153.813L172.948 158.604M172.948 158.604L172.967 158.724C175.909 160.162 178.483 158.604 178.483 158.604L178.522 158.365M179.263 153.813L188.766 155.49L187.785 158.964L178.522 158.365M179.263 153.813L178.522 158.365" stroke="#AAB3BC"/>
<path d="M149.797 140.667C143.118 140.667 137.703 146.039 137.703 152.667V214C137.703 220.627 143.118 226 149.797 226H202.203C208.882 226 214.297 220.627 214.297 214V152.667C214.297 146.039 208.882 140.667 202.203 140.667H189.773L177.008 212.347L162.562 140.667H149.797Z" fill="#464C50"/>
<path d="M197.814 166.934L193.443 179.791L205.567 177.846L202.222 168.928L197.814 166.934Z" fill="white"/>
<path d="M191.453 180.11L207.703 177.503" stroke="#464C50"/>
<path d="M192.096 184.059L208.346 181.452" stroke="#464C50"/>
</g>
</g>
<g style="mix-blend-mode:multiply" opacity="0.25">
<path fill-rule="evenodd" clip-rule="evenodd" d="M138.245 42.1008C139.401 30.4588 127.169 21.0806 120.908 17.8467C119.223 16.9227 116.863 13.6888 120.908 8.14502C124.954 2.60122 289.216 -3.63588 410.571 2.60122C413.22 3.98717 418.661 7.86783 419.239 12.3029C419.817 16.7379 416.591 19.6946 414.905 20.6186C410.089 23.8525 399.447 31.2904 395.402 35.1711C391.356 39.0517 393.716 46.4896 395.402 49.7235L445.244 143.968L477.027 164.757C512.182 166.374 584.369 169.608 591.881 169.608C599.393 169.608 603.198 173.766 604.161 175.845C612.107 184.854 627.999 213.127 627.999 254.151C627.999 295.175 609.217 328.993 599.827 340.773H564.432C564.672 314.671 548.684 262.467 482.806 262.467C416.928 262.467 398.05 318.829 396.846 347.01H223.482C223.482 329.685 210.48 261.774 137.522 261.774C79.1563 261.774 57.8231 313.516 54.4522 339.387H31.337C24.595 324.142 10.9667 284.781 10.3888 249.3C9.80088 213.203 20.6976 195.927 27.4998 185.143C29.0549 182.677 30.3961 180.551 31.337 178.617C35.3822 170.301 48.4326 169.146 54.4522 169.608C55.8969 168.915 62.687 165.728 78.2898 158.521C93.8926 151.314 102.849 138.655 103.572 132.187L129.577 75.3636C131.985 69.1268 137.089 53.7428 138.245 42.1008ZM230.706 147.433C230.706 159.629 217.703 163.14 211.202 163.371L105.739 166.143L159.193 42.7937C178.696 41.1767 219.003 38.0814 224.204 38.6358C229.405 39.1902 230.706 43.9487 230.706 46.2586V147.433ZM246.597 37.2499L248.764 142.582L263.933 163.371H430.796L375.897 41.4078C352.782 39.3521 294.561 35.6426 246.597 37.2499Z" fill="#30333A"/>
<path d="M214.815 343.545C214.815 384.113 180.533 417 138.245 417C95.9574 417 61.6762 384.113 61.6762 343.545C61.6762 302.976 95.9574 270.089 138.245 270.089C180.533 270.089 214.815 302.976 214.815 343.545Z" fill="#30333A"/>
<path d="M558.654 343.545C558.654 384.113 524.373 417 482.085 417C439.797 417 405.515 384.113 405.515 343.545C405.515 302.976 439.797 270.089 482.085 270.089C524.373 270.089 558.654 302.976 558.654 343.545Z" fill="#30333A"/>
</g>
<path fill-rule="evenodd" clip-rule="evenodd" d="M130.245 42.1008C131.401 30.4588 119.169 21.0806 112.908 17.8467C111.223 16.9227 108.863 13.6888 112.908 8.14502C116.954 2.60122 281.216 -3.63588 402.571 2.60122C405.22 3.98717 410.661 7.86783 411.239 12.3029C411.817 16.7379 408.591 19.6946 406.905 20.6186C402.089 23.8525 391.447 31.2904 387.402 35.1711C383.356 39.0517 385.716 46.4896 387.402 49.7235L437.244 143.968L469.027 164.757C504.182 166.374 576.369 169.608 583.881 169.608C591.393 169.608 595.198 173.766 596.161 175.845C604.107 184.854 619.999 213.127 619.999 254.151C619.999 295.175 601.217 328.993 591.827 340.773H556.432C556.672 314.671 540.684 262.467 474.806 262.467C408.928 262.467 390.05 318.829 388.846 347.01H215.482C215.482 329.685 202.48 261.774 129.522 261.774C71.1563 261.774 49.8231 313.516 46.4522 339.387H23.337C16.595 324.142 2.96669 284.781 2.38881 249.3C1.80088 213.203 12.6976 195.927 19.4998 185.143C21.0549 182.677 22.3961 180.551 23.337 178.617C27.3822 170.301 40.4326 169.146 46.4522 169.608C47.8969 168.915 54.687 165.728 70.2898 158.521C85.8926 151.314 94.8495 138.655 95.5718 132.187L121.577 75.3636C123.985 69.1268 129.089 53.7428 130.245 42.1008ZM222.706 147.433C222.706 159.629 209.703 163.14 203.202 163.371L97.7389 166.143L151.193 42.7937C170.696 41.1767 211.003 38.0814 216.204 38.6358C221.405 39.1902 222.706 43.9487 222.706 46.2586V147.433ZM238.597 37.2499L240.764 142.582L255.933 163.371H422.796L367.897 41.4078C344.782 39.3521 286.561 35.6426 238.597 37.2499Z" fill="#464C50"/>
<path d="M206.815 343.545C206.815 384.113 172.533 417 130.245 417C87.9574 417 53.6762 384.113 53.6762 343.545C53.6762 302.976 87.9574 270.089 130.245 270.089C172.533 270.089 206.815 302.976 206.815 343.545Z" fill="#464C50"/>
<path d="M550.654 343.545C550.654 384.113 516.373 417 474.085 417C431.797 417 397.515 384.113 397.515 343.545C397.515 302.976 431.797 270.089 474.085 270.089C516.373 270.089 550.654 302.976 550.654 343.545Z" fill="#464C50"/>
<path d="M183.7 343.545C183.7 371.866 159.768 394.825 130.246 394.825C100.724 394.825 76.7922 371.866 76.7922 343.545C76.7922 315.224 100.724 292.265 130.246 292.265C159.768 292.265 183.7 315.224 183.7 343.545Z" fill="#C8C8C8"/>
<path d="M527.538 343.545C527.538 371.866 503.606 394.825 474.084 394.825C444.562 394.825 420.63 371.866 420.63 343.545C420.63 315.224 444.562 292.265 474.084 292.265C503.606 292.265 527.538 315.224 527.538 343.545Z" fill="#C8C8C8"/>
<path d="M593.995 180.002C587.638 171.687 587.494 179.309 588.216 184.16C591.828 229.896 612.054 232.668 614.221 231.975C615.954 231.421 614.943 227.587 614.221 225.739C610.128 213.958 600.352 188.318 593.995 180.002Z" fill="#F99723"/>
<path d="M26.2271 181.388C33.7396 184.16 33.6914 190.397 32.7283 193.169L21.893 225.046C20.2075 227.587 14.814 231.975 6.72366 229.204C-1.36667 226.432 -0.499845 219.271 0.944856 216.037L12.5025 184.16C13.9472 182.081 18.7147 178.616 26.2271 181.388Z" fill="#F99723"/>
<g style="mix-blend-mode:multiply" opacity="0.25">
<path d="M163.139 343.545C163.139 358.853 150.203 371.264 134.245 371.264C118.287 371.264 105.351 358.853 105.351 343.545C105.351 328.236 118.287 315.826 134.245 315.826C150.203 315.826 163.139 328.236 163.139 343.545Z" fill="#30333A"/>
<path d="M506.978 343.545C506.978 358.853 494.042 371.264 478.084 371.264C462.127 371.264 449.19 358.853 449.19 343.545C449.19 328.236 462.127 315.826 478.084 315.826C494.042 315.826 506.978 328.236 506.978 343.545Z" fill="#30333A"/>
<path d="M610.275 310.282H575.602C572.231 311.206 565.489 315.687 565.489 326.22C565.489 336.754 572.231 340.311 575.602 340.773H614.609C617.739 340.773 624 337.862 624 326.22C624 314.578 614.85 310.744 610.275 310.282Z" fill="#30333A"/>
<path d="M4.94507 324.834C4.94507 314.301 11.2054 311.206 14.3356 310.975H39.6179C42.2665 312.361 47.5638 317.35 47.5638 326.22C47.5638 335.09 42.2665 338.694 39.6179 339.387H12.8909C10.2423 338.925 4.94507 335.368 4.94507 324.834Z" fill="#30333A"/>
</g>
<path d="M47.6733 332.457H54.5428C60.115 297.15 91.8861 270.089 130.245 270.089C168.605 270.089 200.376 297.15 205.948 332.457H213.749C208.371 306.317 188.609 261.774 129.522 261.774C75.9995 261.774 53.6185 305.285 47.6733 332.457Z" fill="#7B7B7B"/>
<path d="M390.733 332.457C396.898 302.955 418.97 262.467 474.806 262.467C534.254 262.467 553.076 304.978 556.007 332.457H549.787C544.215 297.15 512.444 270.089 474.085 270.089C435.725 270.089 403.954 297.15 398.382 332.457H390.733Z" fill="#7B7B7B"/>
<path d="M159.139 343.545C159.139 358.853 146.203 371.264 130.245 371.264C114.287 371.264 101.351 358.853 101.351 343.545C101.351 328.236 114.287 315.826 130.245 315.826C146.203 315.826 159.139 328.236 159.139 343.545Z" fill="#7B7B7B"/>
<path d="M502.978 343.545C502.978 358.853 490.042 371.264 474.084 371.264C458.127 371.264 445.19 358.853 445.19 343.545C445.19 328.236 458.127 315.826 474.084 315.826C490.042 315.826 502.978 328.236 502.978 343.545Z" fill="#7B7B7B"/>
<path d="M606.275 310.282H571.602C568.231 311.206 561.489 315.687 561.489 326.22C561.489 336.754 568.231 340.311 571.602 340.773H610.609C613.739 340.773 620 337.862 620 326.22C620 314.578 610.85 310.744 606.275 310.282Z" fill="#7B7B7B"/>
<path d="M0.945068 324.834C0.945068 314.301 7.20544 311.206 10.3356 310.975H35.6179C38.2665 312.361 43.5638 317.35 43.5638 326.22C43.5638 335.09 38.2665 338.694 35.6179 339.387H8.89093C6.24231 338.925 0.945068 335.368 0.945068 324.834Z" fill="#7B7B7B"/>
<path fill-rule="evenodd" clip-rule="evenodd" d="M231.303 160.679L236.295 160.391L245.602 321.507H363.724V326.507H240.883L231.303 160.679Z" fill="#7B7B7B"/>
<defs>
<filter id="filter0_d_10:11233" x="273" y="40" width="93.6641" height="197" filterUnits="userSpaceOnUse" color-interpolation-filters="sRGB">
<feFlood flood-opacity="0" result="BackgroundImageFix"/>
<feColorMatrix in="SourceAlpha" type="matrix" values="0 0 0 0 0 0 0 0 0 0 0 0 0 0 0 0 0 0 127 0" result="hardAlpha"/>
<feOffset dy="4"/>
<feGaussianBlur stdDeviation="2"/>
<feComposite in2="hardAlpha" operator="out"/>
<feColorMatrix type="matrix" values="0 0 0 0 0 0 0 0 0 0 0 0 0 0 0 0 0 0 0.25 0"/>
<feBlend mode="normal" in2="BackgroundImageFix" result="effect1_dropShadow_10:11233"/>
<feBlend mode="normal" in="SourceGraphic" in2="effect1_dropShadow_10:11233" result="shape"/>
</filter>
<filter id="filter1_d_10:11233" x="129" y="34" width="94" height="200" filterUnits="userSpaceOnUse" color-interpolation-filters="sRGB">
<feFlood flood-opacity="0" result="BackgroundImageFix"/>
<feColorMatrix in="SourceAlpha" type="matrix" values="0 0 0 0 0 0 0 0 0 0 0 0 0 0 0 0 0 0 127 0" result="hardAlpha"/>
<feOffset dy="4"/>
<feGaussianBlur stdDeviation="2"/>
<feComposite in2="hardAlpha" operator="out"/>
<feColorMatrix type="matrix" values="0 0 0 0 0 0 0 0 0 0 0 0 0 0 0 0 0 0 0.25 0"/>
<feBlend mode="normal" in2="BackgroundImageFix" result="effect1_dropShadow_10:11233"/>
<feBlend mode="normal" in="SourceGraphic" in2="effect1_dropShadow_10:11233" result="shape"/>
</filter>
<clipPath id="clip0_10:11233">
<rect width="75.7031" height="84" fill="white" transform="translate(281.648 145)"/>
</clipPath>
<clipPath id="clip1_10:11233">
<rect width="86" height="85.3333" fill="white" transform="translate(133 140.667)"/>
</clipPath>
</defs>
</svg>
