<svg width="591" height="351" viewBox="0 0 591 351" fill="none" xmlns="http://www.w3.org/2000/svg">
<path fill-rule="evenodd" clip-rule="evenodd" d="M68.8813 158.5L98.9732 22.0765C101.753 9.4741 112.922 0.5 125.828 0.5H466.9C479.805 0.5 490.974 9.4741 493.754 22.0765L523.846 158.5H528.299L528.453 158.671C528.157 157.497 528 156.267 528 155V137C528 128.716 534.716 122 543 122H567C580.255 122 591 132.745 591 146V159C591 165.075 586.075 170 580 170H543C541.16 170 539.398 169.669 537.769 169.063L541.299 173L566.799 197.5C566.799 213.765 566.43 233.925 566.058 254.255V254.264L566.058 254.27C565.68 274.941 565.299 295.787 565.299 312.892C565.299 345.14 392.601 351.675 293.399 350.948C194.198 351.675 21.5 345.14 21.5 312.892C21.5 295.783 21.1186 274.931 20.7405 254.256C20.3687 233.925 20 213.765 20 197.5L45.5 173L48.1907 169.999C48.1272 170 48.0637 170 48 170H11C4.92487 170 0 165.075 0 159V146C0 132.745 10.7452 122 24 122H48C56.2843 122 63 128.716 63 137V155C63 156.205 62.8579 157.377 62.5895 158.5H68.8813ZM113.621 25.3075C114.885 19.5791 119.962 15.5 125.828 15.5H466.9C472.766 15.5 477.843 19.5791 479.106 25.3075L509.426 162.763C510.639 168.266 508.043 173.564 503.604 176.209L472.725 177.956H444.477C441.71 172.595 437.95 167.655 433.305 163.377C422.616 153.531 408.117 148 393 148C377.883 148 363.384 153.531 352.695 163.377C348.05 167.655 344.29 172.595 341.523 177.956H114.074L89.7968 176.582C84.9513 174.089 82.0276 168.539 83.3015 162.763L113.621 25.3075ZM366.309 177.956H419.691C419.339 177.602 418.978 177.255 418.608 176.914C411.816 170.659 402.605 167.144 393 167.144C383.395 167.144 374.184 170.659 367.392 176.914C367.022 177.255 366.661 177.602 366.309 177.956Z" fill="#464C50"/>
<circle cx="496" cy="236" r="35" fill="#F9B023"/>
<circle cx="496" cy="236" r="27" fill="#F2C94C"/>
<g style="mix-blend-mode:multiply" opacity="0.25">
<path d="M496.501 270.996C515.6 270.729 531 255.163 531 236C531 216.837 515.6 201.271 496.501 201.004C496.666 201.001 496.833 201 497 201C526.5 201 539 216.67 539 236C539 255.33 526.5 271 497 271C496.833 271 496.666 270.999 496.501 270.996Z" fill="#30333A"/>
<path d="M500 262.706C513.015 260.773 523 249.553 523 236C523 222.447 513.015 211.227 500 209.294C501.305 209.1 502.641 209 504 209C518.912 209 531 221.088 531 236C531 250.912 518.912 263 504 263C502.641 263 501.305 262.9 500 262.706Z" fill="#30333A"/>
</g>
<circle cx="89" cy="236" r="35" fill="#F9B023"/>
<circle cx="89" cy="236" r="27" fill="#F2C94C"/>
<g style="mix-blend-mode:multiply" opacity="0.25">
<path d="M89.5007 270.996C108.6 270.729 124 255.163 124 236C124 216.837 108.6 201.271 89.5007 201.004C89.6663 201.001 89.8327 201 90 201C119.5 201 132 216.67 132 236C132 255.33 119.5 271 90 271C89.8327 271 89.6663 270.999 89.5007 270.996Z" fill="#30333A"/>
<path d="M93 262.706C106.015 260.773 116 249.553 116 236C116 222.447 106.015 211.227 93 209.294C94.3052 209.1 95.6409 209 97 209C111.912 209 124 221.088 124 236C124 250.912 111.912 263 97 263C95.6409 263 94.3052 262.9 93 262.706Z" fill="#30333A"/>
</g>
<g style="mix-blend-mode:multiply" opacity="0.25">
<path fill-rule="evenodd" clip-rule="evenodd" d="M157.556 345.5C157.556 345.5 135.256 274.7 144.056 259.5C155.056 240.5 170.558 234 300.557 236V236C430.557 234 446.558 240.887 457.558 259.887C466.358 275.087 444.057 345.887 444.057 345.887C421.573 350.883 300.75 351 300.558 351C300.558 351 300.558 351 300.557 351C300.366 350.999 180.04 350.496 157.556 345.5Z" fill="#30333A"/>
</g>
<path fill-rule="evenodd" clip-rule="evenodd" d="M149.556 345.5C149.556 345.5 127.256 274.7 136.056 259.5C147.056 240.5 162.558 234 292.557 236V236C422.557 234 438.558 240.887 449.558 259.887C458.358 275.087 436.057 345.887 436.057 345.887C413.573 350.883 292.75 351 292.558 351C292.558 351 292.558 351 292.557 351C292.366 350.999 172.04 350.496 149.556 345.5Z" fill="#828282"/>
<g style="mix-blend-mode:multiply" opacity="0.25">
<path d="M420 274H428C430.761 274 433 271.761 433 269V268C433 265.239 430.761 263 428 263H420C422.761 263 425 265.239 425 268V269C425 271.761 422.761 274 420 274Z" fill="#30333A"/>
<path d="M420 298H428C430.761 298 433 295.761 433 293V292C433 289.239 430.761 287 428 287H420C422.761 287 425 289.239 425 292V293C425 295.761 422.761 298 420 298Z" fill="#30333A"/>
<path d="M420 322H428C430.761 322 433 319.761 433 317V316C433 313.239 430.761 311 428 311H420C422.761 311 425 313.239 425 316V317C425 319.761 422.761 322 420 322Z" fill="#30333A"/>
</g>
<path d="M164 268C164 265.239 166.205 263 168.925 263H420.075C422.795 263 425 265.239 425 268V269C425 271.761 422.795 274 420.075 274H168.925C166.205 274 164 271.761 164 269V268Z" fill="#C4C4C4"/>
<path d="M164 292C164 289.239 166.205 287 168.925 287H420.075C422.795 287 425 289.239 425 292V293C425 295.761 422.795 298 420.075 298H168.925C166.205 298 164 295.761 164 293V292Z" fill="#C4C4C4"/>
<path d="M168.925 311C166.205 311 164 313.239 164 316V317C164 319.761 166.205 322 168.925 322H420.075C422.795 322 425 319.761 425 317V316C425 313.239 422.795 311 420.075 311H168.925Z" fill="#C4C4C4"/>
</svg>
