<svg width="628" height="417" viewBox="0 0 628 417" fill="none" xmlns="http://www.w3.org/2000/svg">
<g filter="url(#filter0_d_1122_27912)">
<path d="M309.539 131.746V145H330.789V131.297C326.695 134.13 322.441 135.813 319.832 135.813C317.364 135.813 313.423 134.307 309.539 131.746Z" fill="#9E5D56"/>
<path d="M309.539 127.152C313.423 129.713 317.364 131.219 319.832 131.219C322.441 131.219 326.695 129.536 330.789 126.704V131.297C326.695 134.13 322.441 135.813 319.832 135.813C317.364 135.813 313.423 134.307 309.539 131.746V127.152Z" fill="#65353A"/>
<path d="M319.832 62.3125C307.546 62.3125 297.586 72.1552 297.586 84.2969V92.5C293.918 92.5 290.945 95.4381 290.945 99.0625C290.945 102.687 293.918 105.625 297.586 105.625V109.234C297.586 121.376 313.523 131.219 319.832 131.219C326.141 131.219 342.078 121.376 342.078 109.234V105.625C345.746 105.625 348.719 102.687 348.719 99.0625C348.719 95.4381 345.746 92.5 342.078 92.5V84.2969C342.078 72.1552 332.118 62.3125 319.832 62.3125Z" fill="#9E5D56"/>
<path d="M317.508 107.594C317.508 109.406 318.994 110.875 320.828 110.875C322.662 110.875 324.148 109.406 324.148 107.594V98.4064C324.148 97.6675 323.901 96.9857 323.484 96.4373C323.484 96.4372 323.484 96.4374 323.484 96.4373V105.625C323.484 107.437 321.998 108.906 320.164 108.906C319.078 108.906 318.114 108.391 317.508 107.594Z" fill="#65353A"/>
<ellipse cx="309.207" cy="98.7344" rx="2.32422" ry="2.29687" fill="#30333A"/>
<ellipse cx="331.121" cy="98.7344" rx="2.32422" ry="2.29687" fill="#30333A"/>
<path d="M307.621 56.7143C305.738 57.112 302.796 57.7333 299.12 61.6712C296.139 64.8654 293.897 75.2826 293.163 82.3645C290.954 84.2465 289.007 87.5223 289.585 91.5424C287.018 91.5424 283.431 93.2777 283.431 102.243C281.304 102.822 277.182 105.83 277.71 113.234C278.521 124.597 293.864 127.106 303.675 127.695C305.617 127.811 307.573 127.907 309.539 127.982V126.741C303.494 122.755 297.632 116.278 297.632 108.886L297.586 105.625C293.918 105.625 290.945 102.687 290.945 99.0625C290.945 95.4381 293.918 92.5 297.586 92.5C297.586 89.3256 297.453 90.0941 297.586 86.9219C299.214 86.3407 302.882 85.8026 304.559 84.2969C308.325 80.9143 310.661 76.2639 310.867 74.0905L310.739 72.9535C312.487 75.6283 314.335 79.0693 318.172 81.0156C325.743 84.8561 336.688 84.7899 341.746 86.2656C342.065 89.7738 342.078 88.9829 342.078 92.5C345.746 92.5 348.672 95.3682 348.672 98.9925C348.672 102.617 345.746 105.625 342.078 105.625V108.823C342.078 115.944 336.596 122.275 330.789 126.292V127.981C332.748 127.906 334.699 127.811 336.634 127.695C346.445 127.106 361.788 124.597 362.599 113.234C363.127 105.83 360.333 102.822 358.206 102.243C358.206 93.2777 353.292 91.5424 350.724 91.5424C351.281 87.6709 349.495 84.4898 347.39 82.5789C347.356 70.3216 343.141 63.1551 338.145 60.0858C330.641 55.4757 316.288 54.8839 307.621 56.7143Z" fill="#4C150E"/>
<path d="M312.195 114.812C314.444 117.436 321.426 114.812 329.236 114.812C320.716 124.258 321.071 125.832 312.195 114.812Z" fill="#ACACAC" stroke="#ACACAC"/>
<g clip-path="url(#clip0_1122_27912)">
<path d="M281.648 157.096C281.648 150.416 287 145 293.602 145H345.398C352 145 357.352 150.416 357.352 157.096V216.904C357.352 223.584 352 229 345.398 229H293.602C287 229 281.648 223.584 281.648 216.904V157.096Z" fill="#464C50"/>
<path d="M320.16 159.112C327.861 159.112 334.105 152.794 334.105 145H306.214C306.214 152.794 312.458 159.112 320.16 159.112Z" fill="#9E5D56"/>
</g>
</g>
<g style="mix-blend-mode:multiply" opacity="0.25">
<path fill-rule="evenodd" clip-rule="evenodd" d="M138.245 42.1008C139.401 30.4588 127.169 21.0806 120.908 17.8467C119.223 16.9227 116.863 13.6888 120.908 8.14502C124.954 2.60122 289.216 -3.63588 410.571 2.60122C413.22 3.98717 418.661 7.86783 419.239 12.3029C419.817 16.7379 416.591 19.6946 414.905 20.6186C410.089 23.8525 399.447 31.2904 395.402 35.1711C391.356 39.0517 393.716 46.4896 395.402 49.7235L445.244 143.968L477.027 164.757C512.182 166.374 584.369 169.608 591.881 169.608C599.393 169.608 603.198 173.766 604.161 175.845C612.107 184.854 627.999 213.127 627.999 254.151C627.999 295.175 609.217 328.993 599.827 340.773H564.432C564.672 314.671 548.684 262.467 482.806 262.467C416.928 262.467 398.05 318.829 396.846 347.01H223.482C223.482 329.685 210.48 261.774 137.522 261.774C79.1563 261.774 57.8231 313.516 54.4522 339.387H31.337C24.595 324.142 10.9667 284.781 10.3888 249.3C9.80088 213.203 20.6976 195.927 27.4998 185.143C29.0549 182.677 30.3961 180.551 31.337 178.617C35.3822 170.301 48.4326 169.146 54.4522 169.608C55.8969 168.915 62.687 165.728 78.2898 158.521C93.8926 151.314 102.849 138.655 103.572 132.187L129.577 75.3636C131.985 69.1268 137.089 53.7428 138.245 42.1008ZM230.706 147.433C230.706 159.629 217.703 163.14 211.202 163.371L105.739 166.143L159.193 42.7937C178.696 41.1767 219.003 38.0814 224.204 38.6358C229.405 39.1902 230.706 43.9487 230.706 46.2586V147.433ZM246.597 37.2499L248.764 142.582L263.933 163.371H430.796L375.897 41.4078C352.782 39.3521 294.561 35.6426 246.597 37.2499Z" fill="#30333A"/>
<path d="M214.815 343.545C214.815 384.113 180.533 417 138.245 417C95.9574 417 61.6762 384.113 61.6762 343.545C61.6762 302.976 95.9574 270.089 138.245 270.089C180.533 270.089 214.815 302.976 214.815 343.545Z" fill="#30333A"/>
<path d="M558.654 343.545C558.654 384.113 524.373 417 482.085 417C439.797 417 405.515 384.113 405.515 343.545C405.515 302.976 439.797 270.089 482.085 270.089C524.373 270.089 558.654 302.976 558.654 343.545Z" fill="#30333A"/>
</g>
<path fill-rule="evenodd" clip-rule="evenodd" d="M130.245 42.1008C131.401 30.4588 119.169 21.0806 112.908 17.8467C111.223 16.9227 108.863 13.6888 112.908 8.14502C116.954 2.60122 281.216 -3.63588 402.571 2.60122C405.22 3.98717 410.661 7.86783 411.239 12.3029C411.817 16.7379 408.591 19.6946 406.905 20.6186C402.089 23.8525 391.447 31.2904 387.402 35.1711C383.356 39.0517 385.716 46.4896 387.402 49.7235L437.244 143.968L469.027 164.757C504.182 166.374 576.369 169.608 583.881 169.608C591.393 169.608 595.198 173.766 596.161 175.845C604.107 184.854 619.999 213.127 619.999 254.151C619.999 295.175 601.217 328.993 591.827 340.773H556.432C556.672 314.671 540.684 262.467 474.806 262.467C408.928 262.467 390.05 318.829 388.846 347.01H215.482C215.482 329.685 202.48 261.774 129.522 261.774C71.1563 261.774 49.8231 313.516 46.4522 339.387H23.337C16.595 324.142 2.96669 284.781 2.38881 249.3C1.80088 213.203 12.6976 195.927 19.4998 185.143C21.0549 182.677 22.3961 180.551 23.337 178.617C27.3822 170.301 40.4326 169.146 46.4522 169.608C47.8969 168.915 54.687 165.728 70.2898 158.521C85.8926 151.314 94.8495 138.655 95.5718 132.187L121.577 75.3636C123.985 69.1268 129.089 53.7428 130.245 42.1008ZM222.706 147.433C222.706 159.629 209.703 163.14 203.202 163.371L97.7389 166.143L151.193 42.7937C170.696 41.1767 211.003 38.0814 216.204 38.6358C221.405 39.1902 222.706 43.9487 222.706 46.2586V147.433ZM238.597 37.2499L240.764 142.582L255.933 163.371H422.796L367.897 41.4078C344.782 39.3521 286.561 35.6426 238.597 37.2499Z" fill="#464C50"/>
<path d="M206.815 343.545C206.815 384.113 172.533 417 130.245 417C87.9574 417 53.6762 384.113 53.6762 343.545C53.6762 302.976 87.9574 270.089 130.245 270.089C172.533 270.089 206.815 302.976 206.815 343.545Z" fill="#464C50"/>
<path d="M550.654 343.545C550.654 384.113 516.373 417 474.085 417C431.797 417 397.515 384.113 397.515 343.545C397.515 302.976 431.797 270.089 474.085 270.089C516.373 270.089 550.654 302.976 550.654 343.545Z" fill="#464C50"/>
<path d="M183.7 343.545C183.7 371.866 159.768 394.825 130.246 394.825C100.724 394.825 76.7922 371.866 76.7922 343.545C76.7922 315.224 100.724 292.265 130.246 292.265C159.768 292.265 183.7 315.224 183.7 343.545Z" fill="#C8C8C8"/>
<path d="M527.538 343.545C527.538 371.866 503.606 394.825 474.084 394.825C444.562 394.825 420.63 371.866 420.63 343.545C420.63 315.224 444.562 292.265 474.084 292.265C503.606 292.265 527.538 315.224 527.538 343.545Z" fill="#C8C8C8"/>
<path d="M593.995 180.002C587.638 171.687 587.494 179.309 588.216 184.16C591.828 229.896 612.054 232.668 614.221 231.975C615.954 231.421 614.943 227.587 614.221 225.739C610.127 213.958 600.352 188.318 593.995 180.002Z" fill="#F99723"/>
<path d="M26.2271 181.388C33.7396 184.16 33.6914 190.397 32.7283 193.169L21.8929 225.046C20.2075 227.587 14.814 231.975 6.72363 229.204C-1.3667 226.432 -0.499876 219.271 0.944826 216.037L12.5024 184.16C13.9471 182.081 18.7147 178.616 26.2271 181.388Z" fill="#F99723"/>
<g style="mix-blend-mode:multiply" opacity="0.25">
<path d="M163.139 343.545C163.139 358.853 150.203 371.264 134.245 371.264C118.287 371.264 105.351 358.853 105.351 343.545C105.351 328.236 118.287 315.826 134.245 315.826C150.203 315.826 163.139 328.236 163.139 343.545Z" fill="#30333A"/>
<path d="M506.978 343.545C506.978 358.853 494.042 371.264 478.084 371.264C462.127 371.264 449.19 358.853 449.19 343.545C449.19 328.236 462.127 315.826 478.084 315.826C494.042 315.826 506.978 328.236 506.978 343.545Z" fill="#30333A"/>
<path d="M610.275 310.282H575.602C572.231 311.206 565.489 315.687 565.489 326.22C565.489 336.754 572.231 340.311 575.602 340.773H614.609C617.739 340.773 624 337.862 624 326.22C624 314.578 614.85 310.744 610.275 310.282Z" fill="#30333A"/>
<path d="M4.94507 324.834C4.94507 314.301 11.2054 311.206 14.3356 310.975H39.6179C42.2665 312.361 47.5638 317.35 47.5638 326.22C47.5638 335.09 42.2665 338.694 39.6179 339.387H12.8909C10.2423 338.925 4.94507 335.368 4.94507 324.834Z" fill="#30333A"/>
</g>
<path d="M47.6733 332.457H54.5428C60.115 297.15 91.8861 270.089 130.245 270.089C168.605 270.089 200.376 297.15 205.948 332.457H213.749C208.371 306.317 188.609 261.774 129.522 261.774C75.9994 261.774 53.6185 305.285 47.6733 332.457Z" fill="#7B7B7B"/>
<path d="M390.733 332.457C396.898 302.955 418.97 262.467 474.806 262.467C534.254 262.467 553.076 304.978 556.007 332.457H549.787C544.215 297.15 512.444 270.089 474.085 270.089C435.725 270.089 403.954 297.15 398.382 332.457H390.733Z" fill="#7B7B7B"/>
<path d="M159.139 343.545C159.139 358.853 146.203 371.264 130.245 371.264C114.287 371.264 101.351 358.853 101.351 343.545C101.351 328.236 114.287 315.826 130.245 315.826C146.203 315.826 159.139 328.236 159.139 343.545Z" fill="#7B7B7B"/>
<path d="M502.978 343.545C502.978 358.853 490.042 371.264 474.084 371.264C458.127 371.264 445.19 358.853 445.19 343.545C445.19 328.236 458.127 315.826 474.084 315.826C490.042 315.826 502.978 328.236 502.978 343.545Z" fill="#7B7B7B"/>
<path d="M606.275 310.282H571.602C568.231 311.206 561.489 315.687 561.489 326.22C561.489 336.754 568.231 340.311 571.602 340.773H610.609C613.739 340.773 620 337.862 620 326.22C620 314.578 610.85 310.744 606.275 310.282Z" fill="#7B7B7B"/>
<path d="M0.945038 324.834C0.945038 314.301 7.20541 311.206 10.3356 310.975H35.6179C38.2665 312.361 43.5637 317.35 43.5637 326.22C43.5637 335.09 38.2665 338.694 35.6179 339.387H8.8909C6.24228 338.925 0.945038 335.368 0.945038 324.834Z" fill="#7B7B7B"/>
<path fill-rule="evenodd" clip-rule="evenodd" d="M231.303 160.679L236.295 160.391L245.602 321.507H363.724V326.507H240.883L231.303 160.679Z" fill="#7B7B7B"/>
<defs>
<filter id="filter0_d_1122_27912" x="273" y="40" width="93.6641" height="197" filterUnits="userSpaceOnUse" color-interpolation-filters="sRGB">
<feFlood flood-opacity="0" result="BackgroundImageFix"/>
<feColorMatrix in="SourceAlpha" type="matrix" values="0 0 0 0 0 0 0 0 0 0 0 0 0 0 0 0 0 0 127 0" result="hardAlpha"/>
<feOffset dy="4"/>
<feGaussianBlur stdDeviation="2"/>
<feComposite in2="hardAlpha" operator="out"/>
<feColorMatrix type="matrix" values="0 0 0 0 0 0 0 0 0 0 0 0 0 0 0 0 0 0 0.25 0"/>
<feBlend mode="normal" in2="BackgroundImageFix" result="effect1_dropShadow_1122_27912"/>
<feBlend mode="normal" in="SourceGraphic" in2="effect1_dropShadow_1122_27912" result="shape"/>
</filter>
<clipPath id="clip0_1122_27912">
<rect width="75.7031" height="84" fill="white" transform="translate(281.648 145)"/>
</clipPath>
</defs>
</svg>
