<svg width="60" height="91" viewBox="0 0 60 91" fill="none" xmlns="http://www.w3.org/2000/svg">
<rect x="20.625" y="75.8501" width="20" height="15.15" fill="#F6C09D"/>
<path d="M40.625 83.7068C37.6978 85.1439 34.4109 85.95 30.9375 85.95H29.6875C26.4592 85.95 23.392 85.2536 20.625 84.0016L20.625 78.375H40.625V83.7068Z" fill="#D88E8D"/>
<path d="M7.21753 27.8049C7.21753 15.4285 17.1512 5.39551 29.405 5.39551H30.655C42.9088 5.39551 52.8425 15.4285 52.8425 27.8049V43.2705C56.2943 43.2705 59.0925 46.0967 59.0925 49.583C59.0925 53.0693 56.2943 55.8955 52.8425 55.8955V60.6299C52.8425 73.0062 42.9088 83.0393 30.655 83.0393H29.405C17.1512 83.0393 7.21753 73.0062 7.21753 60.6299V55.8955C3.76575 55.8955 0.967529 53.0693 0.967529 49.583C0.967529 46.0967 3.76575 43.2705 7.21753 43.2705V27.8049Z" fill="#F6C09D"/>
<ellipse cx="20.03" cy="45.4799" rx="2.1875" ry="2.20938" fill="#4C150E"/>
<ellipse cx="40.655" cy="45.4799" rx="2.1875" ry="2.20938" fill="#4C150E"/>
<path d="M27.8425 54.0019C27.8427 55.7449 29.2417 57.1579 30.9675 57.1579C32.6934 57.1579 34.0925 55.7448 34.0925 54.0016V45.1641C34.0925 44.4534 33.86 43.7976 33.4675 43.27C33.4675 43.2699 33.4675 43.2702 33.4675 43.27V52.1079C33.4675 53.851 32.0684 55.2641 30.3425 55.2641C29.3203 55.2641 28.4127 54.7684 27.8425 54.0019Z" fill="#D88E8D"/>
<path d="M7.21762 45.1643C7.21762 45.1643 1.90512 40.43 0.967619 37.2737C0.0301192 34.1174 1.28012 25.5956 1.59262 22.755C1.90512 19.9143 5.34262 9.49871 8.15512 6.34246C10.9676 3.18621 18.1551 0.661209 18.1551 0.661209C18.1551 0.661209 44.7176 -0.601291 47.2176 0.661209C49.7176 1.92371 50.0301 5.07996 50.0301 5.07996C50.0301 5.07996 55.0301 16.4424 55.6551 19.5987C56.2801 22.755 56.5926 34.4331 55.6551 37.2737C54.7176 40.1143 52.8426 45.1643 52.8426 45.1643C52.8426 45.1643 53.1551 34.4331 52.8426 31.5925C52.5301 28.7518 50.6551 23.7018 50.0301 22.1237C49.4051 20.5456 45.0301 16.1268 45.0301 16.1268C45.0301 16.1268 23.7801 11.3925 18.1551 12.0237C12.5301 12.655 10.9676 17.3893 10.0301 19.5987C9.09262 21.8081 7.21762 28.4362 7.21762 31.5925V45.1643Z" fill="#41030A"/>
<path d="M44.7175 38.8521C42.53 38.8521 37.8425 41.0614 37.8425 41.0614H44.405H47.8425H49.405C49.405 41.0614 45.9675 38.8521 44.7175 38.8521Z" fill="#41030A"/>
<path d="M20.655 38.8521C18.78 38.8521 14.0925 41.0614 14.0925 41.0614H20.655H24.0925H25.655C25.655 41.0614 22.53 38.8521 20.655 38.8521Z" fill="#41030A"/>
<path d="M33.78 66.311H27.2175L21.905 68.836H39.0925L33.78 66.311Z" fill="#41030A"/>
</svg>
