<svg width="64" height="48" viewBox="0 0 64 48" fill="none" xmlns="http://www.w3.org/2000/svg">
<rect y="4" width="64" height="44" rx="8" fill="#4EA968"/>
<path d="M31.4843 8.44838L3.16078 25.4977C2.51883 25.8841 2.51419 26.8132 3.15225 27.206L31.4757 44.6428C31.7972 44.8407 32.2028 44.8407 32.5242 44.6428L60.8477 27.206C61.4858 26.8132 61.4812 25.8841 60.8392 25.4977L32.5157 8.44838C32.1984 8.25739 31.8016 8.25739 31.4843 8.44838Z" fill="#FBEF63"/>
<path d="M45.0891 26.3448C45.0891 32.8979 39.4527 38.2586 32.4384 38.2586C25.4241 38.2586 19.7877 32.8979 19.7877 26.3448C19.7877 19.7918 25.4241 14.431 32.4384 14.431C39.4527 14.431 45.0891 19.7918 45.0891 26.3448Z" fill="#576CAC" stroke="#576CAC"/>
<path d="M20.5508 23.4495C27.4296 23.4949 37.2701 24.7744 43.9035 30.49C44.1324 29.9263 44.3159 29.3414 44.4499 28.7393C37.5493 23.2106 27.9111 21.911 21.1442 21.801C20.9045 22.3314 20.7054 22.882 20.5508 23.4495Z" fill="white"/>
<path d="M20.1644 21.8788C20.1761 21.8502 20.1879 21.8216 20.1998 21.7931C20.188 21.7931 20.1762 21.7931 20.1644 21.7931L20.1644 21.8788Z" fill="white"/>
<path d="M45.1973 29.3644C45.1706 29.4651 45.1427 29.5654 45.1134 29.6651L45.312 29.4652C45.2739 29.4314 45.2356 29.3978 45.1973 29.3644Z" fill="white"/>
</svg>
