<svg width="64" height="48" viewBox="0 0 64 48" fill="none" xmlns="http://www.w3.org/2000/svg">
<path d="M0 12C0 7.58172 3.58172 4 8 4H56C60.4183 4 64 7.58172 64 12V40C64 44.4183 60.4183 48 56 48H8C3.58172 48 0 44.4183 0 40V12Z" fill="#8FBCE4"/>
<path d="M0 18.8966H64V33.7932H0V18.8966Z" fill="white"/>
<path d="M31.5 20L32.019 24.1165L34.1584 20.5682L32.9674 24.541L36.357 22.1744L33.662 25.3167L37.7159 24.541L33.9828 26.3094L38 27.2587L33.8743 27.3475L37.1602 29.8577L33.3552 28.2515L35.3416 31.8885L32.5154 28.865L32.8589 33L31.5 29.082L30.1411 33L30.4846 28.865L27.6584 31.8885L29.6448 28.2515L25.8398 29.8577L29.1257 27.3475L25 27.2587L29.0172 26.3094L25.2841 24.541L29.338 25.3167L26.643 22.1744L30.0326 24.541L28.8416 20.5682L30.981 24.1165L31.5 20Z" fill="#FFC962"/>
</svg>
