<svg width="429" height="163" viewBox="0 0 429 163" fill="none" xmlns="http://www.w3.org/2000/svg">
<g clip-path="url(#clip0_13_9797)">
<path d="M30.7816 9.84036C32.0519 4.0928 37.1559 0 43.0533 0H385.947C391.844 0 396.948 4.0928 398.218 9.84036L428.7 147.757C429.92 153.277 427.31 158.594 422.847 161.247L391.803 163H31.2367L6.83 161.622C1.95858 159.12 -0.980645 153.551 0.30003 147.757L30.7816 9.84036Z" fill="#F3F6F8"/>
<g filter="url(#filter0_d_13_9797)">
<path d="M58.1458 89.0959H81.0981V106.231H58.1458V89.0959Z" fill="#F6C09D"/>
<path d="M81.0981 97.6631C77.7389 99.2885 73.9667 101.233 69.9806 101.233H68.5461C64.8412 101.233 61.3212 99.0792 58.1458 97.6631V92.6655H81.0981V97.6631Z" fill="#C99281"/>
<path d="M43.0833 34.4794C43.0833 20.4818 54.4834 9.13452 68.5461 9.13452H69.9806C84.0433 9.13452 95.4434 20.4818 95.4434 34.4794V51.971C99.4047 51.971 102.616 55.1674 102.616 59.1104C102.616 63.0534 99.4047 66.2498 95.4434 66.2498V71.6044C95.4434 78.0384 91.1636 83.1986 87.1949 87.6681C82.5295 92.9222 77.5793 96.9493 69.9806 96.9493H68.5461C61.9756 96.9493 57.3224 92.4888 53.1249 88.382C47.2417 82.6259 43.0833 76.1877 43.0833 71.6044V66.2498C39.1219 66.2498 35.9106 63.0534 35.9106 59.1104C35.9106 55.1674 39.1219 51.971 43.0833 51.971V34.4794Z" fill="#F6C09D"/>
<path d="M47.5366 55.1837L43.5917 51.257C42.3962 46.3784 36.3211 40.9049 37.495 28.0539C38.8971 12.7042 45.3849 4.85083 68.6959 4.85083C92.0069 4.85083 98.4623 11.6333 100.614 27.34C101.983 37.3352 96.6691 46.2594 95.2346 51.257L91.6482 54.4698C92.0069 50.1861 92.7241 39.6912 92.7241 34.8364C92.7241 20.2006 75.1513 24.1272 68.6959 24.1272C62.2405 24.1272 45.7435 20.9145 45.0262 34.8364C44.6516 42.1076 46.3412 51.852 47.5366 55.1837Z" fill="#4C150E"/>
<path d="M64.7509 12.3473C69.4131 15.9173 69.0545 20.2007 68.3372 24.1272L67.3776 24.089C67.1582 22.7488 66.7845 20.8786 66.1757 18.3331C65.4285 15.2096 62.983 12.676 60.2954 10.7884C57.6004 8.89553 54.6068 7.61318 52.6644 7.00898L52.6106 7.18025C52.325 7.08523 52.0674 7.02347 51.8402 6.99262C55.6656 6.27868 61.1554 9.59414 64.7509 12.3473Z" fill="#663E3E"/>
<path d="M56.0944 9.15869C57.3291 9.75846 58.6391 10.4988 59.8819 11.3717C62.514 13.2204 64.7905 15.6248 65.4779 18.4985C66.0625 20.9426 66.4272 22.7522 66.6459 24.0598L64.3212 23.9673C63.7362 20.4962 61.4372 17.8646 58.8097 15.9841C56.4492 14.2947 53.7924 13.1878 51.7785 12.6024C55.3068 11.7951 58.135 12.1205 60.393 13.113C58.8234 11.4135 57.3717 10.1146 56.0944 9.15869Z" fill="#663E3E"/>
<path d="M50.7247 12.8717L50.6821 13.0517C52.6772 13.519 55.7341 14.6623 58.391 16.5638C60.3686 17.9791 62.1012 19.7967 63.0289 22.0486C60.7283 18.7959 57.4177 16.9018 54.1929 15.8542C51.0744 14.8412 48.0099 14.6104 45.958 14.7145C47.6673 13.8904 49.2534 13.2862 50.7247 12.8717Z" fill="#663E3E"/>
<path d="M44.6927 15.3531L44.7265 15.555C46.4613 15.2673 50.1686 15.2979 53.9703 16.5329C57.5589 17.6987 61.1946 19.9243 63.3523 23.9287L59.3714 23.7702C59.0128 21.8663 53.992 13.0613 39.6467 18.4156C41.4326 17.1994 43.1126 16.1857 44.6927 15.3531Z" fill="#663E3E"/>
<path d="M87.623 12.9849C75.065 9.32388 69.6755 18.5134 68.3372 24.1272L68.9486 24.0921L68.7142 24.0144C69.8136 20.7315 74.0571 13.9408 82.2856 13.0632C84.2347 12.8554 86.0171 12.8509 87.623 12.9849Z" fill="#663E3E"/>
<path d="M91.1414 14.2762C88.8266 13.7027 85.8827 13.3976 82.362 13.7731C74.6683 14.5936 70.5986 20.8604 69.456 24.0631L77.303 23.6135C77.6616 21.7097 84.117 13.0614 98.4622 18.4158C95.8184 16.6153 93.3825 15.2586 91.1414 14.2762Z" fill="#663E3E"/>
<path d="M60.2975 53.7557C60.2975 55.1358 59.1736 56.2545 57.7871 56.2545C56.4006 56.2545 55.2767 55.1358 55.2767 53.7557C55.2767 52.3757 56.4006 51.2569 57.7871 51.2569C59.1736 51.2569 60.2975 52.3757 60.2975 53.7557Z" fill="#4C150E"/>
<path d="M83.9671 53.7557C83.9671 55.1358 82.8432 56.2545 81.4567 56.2545C80.0703 56.2545 78.9463 55.1358 78.9463 53.7557C78.9463 52.3757 80.0703 51.2569 81.4567 51.2569C82.8432 51.2569 83.9671 52.3757 83.9671 53.7557Z" fill="#4C150E"/>
<path d="M84.3258 74.817C73.1365 77.1016 61.2539 73.8651 56.7112 71.9612C62.2941 79.5823 62.8079 82.6703 69.6219 83.2599C78.2626 84.0075 77.9539 79.9701 84.3258 74.817Z" fill="#4C150E"/>
<path d="M54.5594 46.0693C51.4035 45.4982 49.8972 47.7352 49.5386 48.9251C49.6581 48.2111 50.218 44.5349 53.1249 43.5705C55.2767 42.8566 62.8079 44.6415 63.5252 44.9985C64.251 45.3597 63.7643 47.1402 63.5252 48.2111C62.8079 48.5682 57.7154 46.6405 54.5594 46.0693Z" fill="#4C150E"/>
<path d="M85.4256 46.0693C88.5815 45.4982 90.0878 47.7352 90.4464 48.9251C90.3269 48.2111 89.767 44.5349 86.8601 43.5705C84.7083 42.8566 77.1771 44.6415 76.4598 44.9985C75.734 45.3597 76.2207 47.1402 76.4598 48.2111C77.1771 48.5682 82.2696 46.6405 85.4256 46.0693Z" fill="#4C150E"/>
<path d="M56.7112 71.9614C61.2538 73.8653 73.1365 77.1018 84.3258 74.8172C82.1799 76.5527 82.6842 75.6168 81.4567 76.959C72.4909 81.2427 63.8838 78.3869 59.2216 75.1742C58.3082 73.8388 58.0517 73.7914 56.7112 71.9614Z" fill="white"/>
<path d="M62.2172 79.6963C64.0407 81.8607 65.8828 82.9366 69.6219 83.2601C73.4544 83.5917 75.8366 82.4736 77.5118 81.2427C70.2909 82.1622 65.3183 81.2427 62.2172 79.6963Z" fill="white"/>
<path d="M66.7529 63.3943C66.7531 65.3656 68.3586 66.9636 70.3392 66.9636C72.3198 66.9636 73.9255 65.3654 73.9255 63.3939V53.3988C73.9255 52.595 73.6586 51.8533 73.2082 51.2566V61.2521C73.2082 63.2236 71.6026 64.8218 69.6219 64.8218C68.4488 64.8218 67.4072 64.2611 66.7529 63.3943Z" fill="#C99281"/>
<path fill-rule="evenodd" clip-rule="evenodd" d="M50.5388 54.0173C50.0297 53.8211 49.5006 53.7557 49.1799 53.7557L49.18 53.0418C49.5766 53.0418 50.1951 53.1193 50.7977 53.3515C51.3988 53.5831 52.0279 53.9865 52.3698 54.667L52.6977 55.3199L51.9787 55.1767C50.6832 54.9188 49.9935 55.5049 49.837 55.7386L49.2402 55.3426C49.4966 54.9598 50.1741 54.4378 51.2357 54.4007C51.0317 54.2416 50.7932 54.1153 50.5388 54.0173ZM88.8047 53.3515C89.4074 53.1193 90.0259 53.0418 90.4225 53.0418L90.4225 53.7557C90.1019 53.7557 89.5728 53.8211 89.0637 54.0173C88.8093 54.1153 88.5707 54.2416 88.3667 54.4007C89.4284 54.4378 90.1058 54.9598 90.3623 55.3426L89.7655 55.7386C89.6089 55.5049 88.9192 54.9188 87.6238 55.1767L86.9048 55.3199L87.2327 54.667C87.5746 53.9865 88.2036 53.5831 88.8047 53.3515ZM62.241 57.6495C58.3775 59.4244 55.3818 58.1591 54.3233 57.2371L54.7956 56.6998C55.6497 57.4437 58.3443 58.6534 61.9404 57.0013L62.241 57.6495ZM77.6621 57.0013C81.2582 58.6534 83.9528 57.4437 84.8069 56.6998L85.2792 57.2371C84.2206 58.1591 81.2249 59.4244 77.3615 57.6495L77.6621 57.0013ZM52.0674 75.6438C50.8785 72.0936 52.0582 69.2122 52.838 68.1773L53.4118 68.6057C52.757 69.4747 51.6415 72.1144 52.7479 75.418L52.0674 75.6438ZM54.1386 70.2434C54.4111 69.7572 54.7874 69.3815 55.0615 69.1769L55.4918 69.748C55.2877 69.9004 54.9826 70.2029 54.765 70.5912C54.5489 70.9768 54.434 71.418 54.5487 71.8747L53.8528 72.0478C53.6806 71.3621 53.8646 70.7324 54.1386 70.2434ZM87.2187 77.5446C88.6059 73.9547 87.5643 71.1077 87.2238 70.317L87.8831 70.0358C88.2599 70.9109 89.3701 73.9658 87.8882 77.8009L87.2187 77.5446ZM84.944 73.5062C84.8185 73.4114 84.7288 73.3891 84.6844 73.3891V72.6752C84.9388 72.6752 85.1779 72.7867 85.3775 72.9374C85.5807 73.0909 85.7688 73.3037 85.9288 73.5551C86.249 74.0584 86.4776 74.7493 86.4776 75.5309H85.7603C85.7603 74.8847 85.5704 74.3262 85.3228 73.9371C85.1989 73.7422 85.0657 73.5981 84.944 73.5062Z" fill="#C99281"/>
<path fill-rule="evenodd" clip-rule="evenodd" d="M56.7523 71.6066L55.9391 71.5132L56.4214 72.1716C57.3877 73.4906 58.2019 74.6739 58.9248 75.734L58.926 75.7357C58.9465 75.7655 58.9672 75.7958 58.988 75.8266C59.3674 76.3898 59.753 77.1744 60.2048 78.0937C60.2628 78.2117 60.322 78.3322 60.3823 78.4544C60.906 79.5163 61.5112 80.7083 62.2641 81.8436C63.7705 84.1152 65.8994 86.2056 69.2213 86.5946C75.2664 87.3025 78.0272 82.6353 79.2624 80.5472C79.3865 80.3373 79.4953 80.1535 79.5904 80.0038C79.8078 79.7688 80.0283 79.526 80.2552 79.276C81.3692 78.049 82.6393 76.65 84.4839 75.1492C84.5042 75.139 84.5276 75.1251 84.5512 75.1061C84.6049 75.063 84.6919 74.9648 84.6875 74.8127C84.6836 74.6783 84.609 74.5942 84.5793 74.5646L84.4428 74.4287L84.2537 74.4673L84.163 74.4857C84.092 74.4808 83.9522 74.4549 83.7203 74.3949C83.4694 74.33 83.1512 74.2366 82.7667 74.1236L82.7428 74.1165C81.9809 73.8925 80.984 73.5994 79.8267 73.3278C77.5099 72.7841 74.5314 72.3217 71.4525 72.6685C68.733 71.7799 66.0262 71.6286 63.5263 71.6406C62.7501 71.6444 61.9991 71.6635 61.2749 71.6818C59.6211 71.7238 58.1072 71.7622 56.7523 71.6066ZM59.8047 75.7534L59.5832 75.4282C59.5614 75.3958 59.5396 75.3638 59.5178 75.3323C58.978 74.5407 58.3852 73.6774 57.7151 72.7387C62.7105 74.5836 73.0306 77.0775 83.0687 75.4123C81.6772 76.644 80.6306 77.7972 79.7149 78.806C79.4832 79.0614 79.2597 79.3076 79.0413 79.5434C77.9006 80.7746 76.9036 81.7145 75.5333 82.3021C74.164 82.8892 72.3821 83.1404 69.6529 82.9043C66.9049 82.6665 65.2473 82.0208 63.8595 80.8566C62.5082 79.7231 61.3937 78.0867 59.8047 75.7534Z" fill="#C99281"/>
<g clip-path="url(#clip1_13_9797)">
<g clip-path="url(#clip2_13_9797)">
<rect x="40.9314" y="106.231" width="55.2292" height="80.6754" fill="white"/>
<path d="M63.7046 115.297L58.863 106.231H79.1257L73.5669 115.297L76.9739 166.066L69.8013 182.384L61.9114 164.615L63.7046 115.297Z" fill="#30333A"/>
<path d="M74.5749 112.806C74.5749 116.16 71.8432 118.882 68.4686 118.882C65.094 118.882 62.3623 116.16 62.3623 112.806C62.3623 109.453 65.094 106.731 68.4686 106.731C71.8432 106.731 74.5749 109.453 74.5749 112.806Z" fill="#D6DBE0" stroke="#AAB3BC"/>
<path d="M75.2204 113.655C75.2508 113.396 75.2665 113.131 75.2665 112.863C75.2665 112.287 75.194 111.727 75.0576 111.192C73.7775 110.783 71.3651 110.254 68.6549 110.379C65.6265 110.52 62.8588 111.886 61.6739 112.661C61.6719 112.728 61.6709 112.796 61.6709 112.863C61.6709 113.566 61.7785 114.243 61.9782 114.881C63.2905 114.091 65.8618 112.919 68.6549 112.789C71.4847 112.658 73.9898 113.241 75.2204 113.655Z" fill="#AAB3BC"/>
<path fill-rule="evenodd" clip-rule="evenodd" d="M72.1548 112.961C73.4612 113.143 74.5372 113.425 75.2204 113.656C75.2508 113.396 75.2665 113.131 75.2665 112.863C75.2665 112.287 75.194 111.727 75.0576 111.192C74.3622 110.97 73.3327 110.712 72.1029 110.543C72.1968 111.148 72.2688 112.011 72.1548 112.961ZM64.8143 111.159C63.4392 111.639 62.3207 112.238 61.6739 112.661C61.6719 112.728 61.6709 112.796 61.6709 112.863C61.6709 113.566 61.7785 114.244 61.9782 114.881C62.688 114.454 63.7661 113.914 65.0484 113.489C64.8243 112.531 64.8042 111.634 64.8143 111.159Z" fill="#7B7B7B"/>
<path d="M66.5537 122.241L65.5005 118.715C67.2622 119.249 69.809 119.382 71.4366 118.62L70.4792 122.241C69.3302 123.004 67.1281 122.813 66.5537 122.241Z" fill="#D6DBE0" stroke="#AAB3BC"/>
<path d="M66.842 138.491L65.6292 120.5H71.2386L70.0257 138.491H66.842Z" fill="#D6DBE0" stroke="#AAB3BC"/>
<path d="M71.5555 125.44C71.5555 125.44 68.8076 127.108 65.6672 125.569L65.6468 125.44L56.1295 125.825L54.5593 122.105L64.8327 120.309L64.7512 119.796C68.101 120.617 71.2938 120.138 72.4715 119.796L72.3882 120.309L82.5325 122.105L81.4857 125.825L71.5972 125.184L71.5555 125.44Z" fill="#D6DBE0"/>
<path d="M64.8327 120.309L64.7512 119.796C68.101 120.617 71.2938 120.138 72.4715 119.796L72.3882 120.309M64.8327 120.309L54.5593 122.105L56.1295 125.825L65.6468 125.44M64.8327 120.309L65.6468 125.44M65.6468 125.44L65.6672 125.569C68.8076 127.108 71.5555 125.44 71.5555 125.44L71.5972 125.184M72.3882 120.309L82.5325 122.105L81.4857 125.825L71.5972 125.184M72.3882 120.309L71.5972 125.184" stroke="#AAB3BC"/>
<path d="M40.9315 106.231C33.8011 106.231 28.0208 111.984 28.0208 119.082V184.764C28.0208 191.862 33.8011 197.615 40.9315 197.615H96.8779C104.008 197.615 109.789 191.862 109.789 184.764V119.082C109.789 111.984 104.008 106.231 96.8779 106.231H83.6086L69.9806 182.994L54.5594 106.231H40.9315Z" fill="#FD86B1"/>
<path d="M92.192 134.361L87.5259 148.129L100.469 146.047L96.8983 136.496L92.192 134.361Z" fill="white"/>
<path d="M85.4016 148.471L102.749 145.68" stroke="#1C4D69"/>
<path d="M86.0884 152.7L103.436 149.908" stroke="#1C4D69"/>
</g>
</g>
</g>
<g filter="url(#filter1_d_13_9797)">
<path d="M160.242 81.0959H182.955V98.2305H160.242V81.0959Z" fill="#F6C09D"/>
<path d="M182.955 89.6631C179.631 91.2885 175.898 93.2328 171.954 93.2328H170.534C166.868 93.2328 163.385 91.0792 160.242 89.6631V84.6655H182.955V89.6631Z" fill="#C99281"/>
<path d="M145.337 26.4794C145.337 12.4818 156.618 1.13452 170.534 1.13452H171.954C185.87 1.13452 197.151 12.4818 197.151 26.4794V43.971C201.071 43.971 204.249 47.1674 204.249 51.1104C204.249 55.0534 201.071 58.2498 197.151 58.2498V63.6044C197.151 70.0384 192.916 75.1986 188.989 79.6681C184.372 84.9222 179.473 88.9493 171.954 88.9493H170.534C164.032 88.9493 159.428 84.4888 155.274 80.382C149.452 74.6259 145.337 68.1877 145.337 63.6044V58.2498C141.417 58.2498 138.239 55.0534 138.239 51.1104C138.239 47.1674 141.417 43.971 145.337 43.971V26.4794Z" fill="#F6C09D"/>
<path d="M149.744 47.1837L145.84 43.257C144.657 38.3784 138.645 32.9049 139.807 20.0539C141.194 4.7042 147.614 -3.14917 170.683 -3.14917C193.751 -3.14917 200.139 3.63327 202.268 19.34C203.623 29.3352 198.364 38.2594 196.945 43.257L193.396 46.4698C193.751 42.1861 194.461 31.6912 194.461 26.8364C194.461 12.2006 177.071 16.1272 170.683 16.1272C164.294 16.1272 147.969 12.9145 147.259 26.8364C146.889 34.1076 148.561 43.852 149.744 47.1837Z" fill="#4C150E"/>
<path d="M166.778 4.34733C171.392 7.91729 171.037 12.2007 170.327 16.1272L169.378 16.089C169.161 14.7488 168.791 12.8786 168.188 10.3331C167.449 7.20964 165.029 4.676 162.369 2.78837C159.702 0.895529 156.74 -0.386823 154.818 -0.991022L154.765 -0.819748C154.482 -0.914772 154.227 -0.976532 154.002 -1.00738C157.788 -1.72132 163.22 1.59414 166.778 4.34733Z" fill="#663E3E"/>
<path d="M158.212 1.15869C159.434 1.75846 160.73 2.49879 161.96 3.37171C164.565 5.22038 166.818 7.62482 167.498 10.4985C168.076 12.9426 168.437 14.7522 168.654 16.0598L166.353 15.9673C165.774 12.4962 163.499 9.86458 160.899 7.98414C158.563 6.29469 155.934 5.18779 153.941 4.60236C157.433 3.79511 160.231 4.12047 162.466 5.11297C160.913 3.41354 159.476 2.11461 158.212 1.15869Z" fill="#663E3E"/>
<path d="M152.898 4.87169L152.856 5.05174C154.831 5.51899 157.856 6.66225 160.485 8.56379C162.442 9.97913 164.156 11.7967 165.074 14.0486C162.798 10.7959 159.522 8.90181 156.33 7.85423C153.244 6.84119 150.212 6.6104 148.181 6.71446C149.873 5.89043 151.442 5.2862 152.898 4.87169Z" fill="#663E3E"/>
<path d="M146.929 7.35312L146.963 7.55505C148.679 7.26725 152.348 7.29792 156.11 8.53294C159.661 9.6987 163.259 11.9243 165.394 15.9287L161.455 15.7702C161.1 13.8663 156.132 5.06127 141.936 10.4156C143.703 9.19943 145.366 8.18573 146.929 7.35312Z" fill="#663E3E"/>
<path d="M189.412 4.98492C176.985 1.32388 171.652 10.5134 170.327 16.1272L170.932 16.0921L170.701 16.0144C171.788 12.7315 175.988 5.94077 184.131 5.06323C186.059 4.85536 187.823 4.85085 189.412 4.98492Z" fill="#663E3E"/>
<path d="M192.894 6.27624C190.603 5.70274 187.69 5.39764 184.206 5.77311C176.593 6.59362 172.565 12.8604 171.435 16.0631L179.2 15.6135C179.555 13.7097 185.943 5.06145 200.139 10.4158C197.522 8.61529 195.112 7.25859 192.894 6.27624Z" fill="#663E3E"/>
<path d="M162.372 45.7557C162.372 47.1358 161.259 48.2545 159.887 48.2545C158.515 48.2545 157.403 47.1358 157.403 45.7557C157.403 44.3757 158.515 43.2569 159.887 43.2569C161.259 43.2569 162.372 44.3757 162.372 45.7557Z" fill="#4C150E"/>
<path d="M185.795 45.7557C185.795 47.1358 184.683 48.2545 183.311 48.2545C181.939 48.2545 180.826 47.1358 180.826 45.7557C180.826 44.3757 181.939 43.2569 183.311 43.2569C184.683 43.2569 185.795 44.3757 185.795 45.7557Z" fill="#4C150E"/>
<path d="M186.15 66.817C175.077 69.1016 163.318 65.8651 158.823 63.9612C164.347 71.5823 164.856 74.6703 171.599 75.2599C180.15 76.0075 179.844 71.9701 186.15 66.817Z" fill="#4C150E"/>
<path d="M156.693 38.0693C153.57 37.4982 152.08 39.7352 151.725 40.9251C151.843 40.2111 152.397 36.5349 155.274 35.5705C157.403 34.8566 164.856 36.6415 165.566 36.9985C166.284 37.3597 165.802 39.1402 165.566 40.2111C164.856 40.5682 159.816 38.6405 156.693 38.0693Z" fill="#4C150E"/>
<path d="M187.238 38.0693C190.361 37.4982 191.852 39.7352 192.207 40.9251C192.088 40.2111 191.534 36.5349 188.658 35.5705C186.528 34.8566 179.075 36.6415 178.366 36.9985C177.647 37.3597 178.129 39.1402 178.366 40.2111C179.075 40.5682 184.115 38.6405 187.238 38.0693Z" fill="#4C150E"/>
<path d="M158.823 63.9614C163.318 65.8653 175.077 69.1018 186.15 66.8172C184.026 68.5527 184.525 67.6168 183.311 68.959C174.438 73.2427 165.921 70.3869 161.307 67.1742C160.403 65.8388 160.149 65.7914 158.823 63.9614Z" fill="white"/>
<path d="M164.271 71.6963C166.076 73.8607 167.899 74.9366 171.599 75.2601C175.392 75.5917 177.749 74.4736 179.407 73.2427C172.261 74.1622 167.34 73.2427 164.271 71.6963Z" fill="white"/>
<path d="M168.76 55.3943C168.76 57.3656 170.349 58.9636 172.309 58.9636C174.269 58.9636 175.858 57.3654 175.858 55.3939V45.3988C175.858 44.595 175.594 43.8533 175.148 43.2566V53.2521C175.148 55.2236 173.559 56.8218 171.599 56.8218C170.438 56.8218 169.407 56.2611 168.76 55.3943Z" fill="#C99281"/>
<path fill-rule="evenodd" clip-rule="evenodd" d="M152.715 46.0173C152.211 45.8211 151.687 45.7557 151.37 45.7557L151.37 45.0418C151.762 45.0418 152.374 45.1193 152.971 45.3515C153.566 45.5831 154.188 45.9865 154.526 46.667L154.851 47.3199L154.139 47.1767C152.857 46.9188 152.175 47.5049 152.02 47.7386L151.429 47.3426C151.683 46.9598 152.354 46.4378 153.404 46.4007C153.202 46.2416 152.966 46.1153 152.715 46.0173ZM190.582 45.3515C191.178 45.1193 191.79 45.0418 192.183 45.0418L192.183 45.7557C191.866 45.7557 191.342 45.8211 190.838 46.0173C190.586 46.1153 190.35 46.2416 190.148 46.4007C191.199 46.4378 191.869 46.9598 192.123 47.3426L191.533 47.7386C191.378 47.5049 190.695 46.9188 189.413 47.1767L188.702 47.3199L189.026 46.667C189.365 45.9865 189.987 45.5831 190.582 45.3515ZM164.295 49.6495C160.472 51.4244 157.507 50.1591 156.46 49.2371L156.927 48.6998C157.772 49.4437 160.439 50.6534 163.997 49.0013L164.295 49.6495ZM179.555 49.0013C183.114 50.6534 185.78 49.4437 186.626 48.6998L187.093 49.2371C186.046 50.1591 183.081 51.4244 179.258 49.6495L179.555 49.0013ZM154.227 67.6438C153.051 64.0936 154.218 61.2122 154.99 60.1773L155.558 60.6057C154.91 61.4747 153.806 64.1144 154.901 67.418L154.227 67.6438ZM156.277 62.2434C156.547 61.7572 156.919 61.3815 157.19 61.1769L157.616 61.748C157.414 61.9004 157.112 62.2029 156.897 62.5912C156.683 62.9768 156.569 63.418 156.683 63.8747L155.994 64.0478C155.824 63.3621 156.006 62.7324 156.277 62.2434ZM189.012 69.5446C190.385 65.9547 189.354 63.1077 189.017 62.317L189.67 62.0358C190.043 62.9109 191.141 65.9658 189.675 69.8009L189.012 69.5446ZM186.761 65.5062C186.637 65.4114 186.548 65.3891 186.505 65.3891V64.6752C186.756 64.6752 186.993 64.7867 187.19 64.9374C187.391 65.0909 187.578 65.3037 187.736 65.5551C188.053 66.0584 188.279 66.7493 188.279 67.5309H187.569C187.569 66.8847 187.381 66.3262 187.136 65.9371C187.014 65.7422 186.882 65.5981 186.761 65.5062Z" fill="#C99281"/>
<path fill-rule="evenodd" clip-rule="evenodd" d="M158.863 63.6066L158.059 63.5132L158.536 64.1716C159.492 65.4906 160.298 66.6739 161.013 67.734L161.014 67.7357C161.035 67.7655 161.055 67.7958 161.076 67.8266C161.451 68.3898 161.833 69.1744 162.28 70.0937C162.337 70.2117 162.396 70.3322 162.456 70.4544C162.974 71.5163 163.573 72.7083 164.318 73.8436C165.808 76.1152 167.915 78.2056 171.203 78.5946C177.185 79.3025 179.917 74.6353 181.139 72.5472C181.262 72.3373 181.369 72.1535 181.464 72.0038C181.679 71.7688 181.897 71.526 182.121 71.276C183.224 70.049 184.481 68.65 186.306 67.1492C186.326 67.139 186.349 67.1251 186.373 67.1061C186.426 67.063 186.512 66.9648 186.508 66.8127C186.504 66.6783 186.43 66.5942 186.401 66.5646L186.265 66.4287L186.078 66.4673L185.988 66.4857C185.918 66.4808 185.78 66.4549 185.55 66.3949C185.302 66.33 184.987 66.2366 184.607 66.1236L184.583 66.1165C183.829 65.8925 182.843 65.5994 181.697 65.3278C179.405 64.7841 176.457 64.3217 173.41 64.6685C170.719 63.7799 168.041 63.6286 165.567 63.6406C164.799 63.6444 164.056 63.6635 163.339 63.6818C161.702 63.7238 160.204 63.7622 158.863 63.6066ZM161.884 67.7534L161.665 67.4282C161.643 67.3958 161.622 67.3638 161.6 67.3323C161.066 66.5407 160.479 65.6774 159.816 64.7387C164.759 66.5836 174.972 69.0775 184.906 67.4123C183.529 68.644 182.493 69.7972 181.587 70.806C181.357 71.0614 181.136 71.3076 180.92 71.5434C179.791 72.7746 178.805 73.7145 177.449 74.3021C176.094 74.8892 174.33 75.1404 171.63 74.9043C168.91 74.6665 167.27 74.0208 165.897 72.8566C164.559 71.7231 163.456 70.0867 161.884 67.7534Z" fill="#C99281"/>
<g clip-path="url(#clip3_13_9797)">
<g clip-path="url(#clip4_13_9797)">
<rect x="143.207" y="98.2307" width="54.6539" height="80.6754" fill="white"/>
<path d="M165.743 107.297L160.952 98.2307H181.004L175.503 107.297L178.874 158.066L171.776 174.384L163.969 156.615L165.743 107.297Z" fill="#30333A"/>
<path d="M176.495 104.806C176.495 108.165 173.789 110.882 170.458 110.882C167.126 110.882 164.42 108.165 164.42 104.806C164.42 101.448 167.126 98.7307 170.458 98.7307C173.789 98.7307 176.495 101.448 176.495 104.806Z" fill="#D6DBE0" stroke="#AAB3BC"/>
<path d="M177.139 105.655C177.169 105.396 177.185 105.131 177.185 104.863C177.185 104.287 177.113 103.727 176.978 103.192C175.711 102.783 173.324 102.254 170.642 102.379C167.645 102.52 164.906 103.886 163.734 104.661C163.732 104.728 163.731 104.796 163.731 104.863C163.731 105.566 163.837 106.243 164.035 106.881C165.333 106.091 167.878 104.919 170.642 104.789C173.442 104.658 175.921 105.241 177.139 105.655Z" fill="#AAB3BC"/>
<path fill-rule="evenodd" clip-rule="evenodd" d="M174.105 104.961C175.398 105.143 176.463 105.425 177.139 105.656C177.169 105.396 177.185 105.131 177.185 104.863C177.185 104.287 177.113 103.727 176.978 103.192C176.29 102.97 175.271 102.712 174.054 102.543C174.147 103.148 174.218 104.011 174.105 104.961ZM166.841 103.159C165.481 103.639 164.374 104.238 163.734 104.661C163.732 104.728 163.731 104.796 163.731 104.863C163.731 105.566 163.837 106.244 164.035 106.881C164.737 106.454 165.804 105.914 167.073 105.489C166.851 104.531 166.831 103.634 166.841 103.159Z" fill="#7B7B7B"/>
<path d="M168.563 114.241L167.521 110.715C169.264 111.249 171.784 111.382 173.395 110.62L172.447 114.241C171.31 115.004 169.131 114.813 168.563 114.241Z" fill="#D6DBE0" stroke="#AAB3BC"/>
<path d="M168.848 130.491L167.648 112.5H173.199L171.999 130.491H168.848Z" fill="#D6DBE0" stroke="#AAB3BC"/>
<path d="M173.513 117.44C173.513 117.44 170.793 119.108 167.686 117.569L167.665 117.44L158.247 117.825L156.693 114.105L166.86 112.309L166.779 111.796C170.094 112.617 173.254 112.138 174.419 111.796L174.337 112.309L184.375 114.105L183.339 117.825L173.554 117.184L173.513 117.44Z" fill="#D6DBE0"/>
<path d="M166.86 112.309L166.779 111.796C170.094 112.617 173.254 112.138 174.419 111.796L174.337 112.309M166.86 112.309L156.693 114.105L158.247 117.825L167.665 117.44M166.86 112.309L167.665 117.44M167.665 117.44L167.686 117.569C170.793 119.108 173.513 117.44 173.513 117.44L173.554 117.184M174.337 112.309L184.375 114.105L183.339 117.825L173.554 117.184M174.337 112.309L173.554 117.184" stroke="#AAB3BC"/>
<path d="M143.207 98.2307C136.151 98.2307 130.431 103.984 130.431 111.082V176.764C130.431 183.862 136.151 189.615 143.207 189.615H198.571C205.627 189.615 211.347 183.862 211.347 176.764V111.082C211.347 103.984 205.627 98.2307 198.571 98.2307H185.44L171.954 174.994L156.693 98.2307H143.207Z" fill="#EEC750"/>
<path d="M193.934 126.361L189.316 140.129L202.125 138.047L198.591 128.496L193.934 126.361Z" fill="white"/>
<path d="M187.214 140.471L204.381 137.68" stroke="#1C4D69"/>
<path d="M187.894 144.7L205.061 141.908" stroke="#1C4D69"/>
</g>
</g>
</g>
<g filter="url(#filter2_d_13_9797)">
<path d="M246.419 81.0959H269.372V98.2305H246.419V81.0959Z" fill="#F6C09D"/>
<path d="M269.372 89.6631C266.012 91.2885 262.24 93.2328 258.254 93.2328H256.819C253.115 93.2328 249.595 91.0792 246.419 89.6631V84.6655H269.372V89.6631Z" fill="#C99281"/>
<path d="M231.357 26.4794C231.357 12.4818 242.757 1.13452 256.82 1.13452H258.254C272.317 1.13452 283.717 12.4818 283.717 26.4794V43.971C287.678 43.971 290.889 47.1674 290.889 51.1104C290.889 55.0534 287.678 58.2498 283.717 58.2498V63.6044C283.717 70.0384 279.437 75.1986 275.468 79.6681C270.803 84.9222 265.853 88.9493 258.254 88.9493H256.82C250.249 88.9493 245.596 84.4888 241.398 80.382C235.515 74.6259 231.357 68.1877 231.357 63.6044V58.2498C227.395 58.2498 224.184 55.0534 224.184 51.1104C224.184 47.1674 227.395 43.971 231.357 43.971V26.4794Z" fill="#F6C09D"/>
<path d="M235.81 47.1837L231.865 43.257C230.67 38.3784 224.595 32.9049 225.768 20.0539C227.17 4.7042 233.658 -3.14917 256.969 -3.14917C280.28 -3.14917 286.736 3.63327 288.887 19.34C290.257 29.3352 284.943 38.2594 283.508 43.257L279.922 46.4698C280.28 42.1861 280.998 31.6912 280.998 26.8364C280.998 12.2006 263.425 16.1272 256.969 16.1272C250.514 16.1272 234.017 12.9145 233.3 26.8364C232.925 34.1076 234.615 43.852 235.81 47.1837Z" fill="#4C150E"/>
<path d="M253.024 4.34733C257.687 7.91729 257.328 12.2007 256.611 16.1272L255.651 16.089C255.432 14.7488 255.058 12.8786 254.449 10.3331C253.702 7.20964 251.256 4.676 248.569 2.78837C245.874 0.895529 242.88 -0.386823 240.938 -0.991022L240.884 -0.819748C240.598 -0.914772 240.341 -0.976532 240.114 -1.00738C243.939 -1.72132 249.429 1.59414 253.024 4.34733Z" fill="#663E3E"/>
<path d="M244.368 1.15869C245.603 1.75846 246.913 2.49879 248.155 3.37171C250.787 5.22038 253.064 7.62482 253.751 10.4985C254.336 12.9426 254.701 14.7522 254.919 16.0598L252.595 15.9673C252.01 12.4962 249.711 9.86458 247.083 7.98414C244.723 6.29469 242.066 5.18779 240.052 4.60236C243.58 3.79511 246.408 4.12047 248.666 5.11297C247.097 3.41354 245.645 2.11461 244.368 1.15869Z" fill="#663E3E"/>
<path d="M238.998 4.87169L238.956 5.05174C240.951 5.51899 244.008 6.66225 246.664 8.56379C248.642 9.97913 250.375 11.7967 251.302 14.0486C249.002 10.7959 245.691 8.90181 242.466 7.85423C239.348 6.84119 236.283 6.6104 234.231 6.71446C235.941 5.89043 237.527 5.2862 238.998 4.87169Z" fill="#663E3E"/>
<path d="M232.966 7.35312L233 7.55505C234.735 7.26725 238.442 7.29792 242.244 8.53294C245.832 9.6987 249.468 11.9243 251.626 15.9287L247.645 15.7702C247.286 13.8663 242.265 5.06127 227.92 10.4156C229.706 9.19943 231.386 8.18573 232.966 7.35312Z" fill="#663E3E"/>
<path d="M275.896 4.98492C263.338 1.32388 257.949 10.5134 256.611 16.1272L257.222 16.0921L256.988 16.0144C258.087 12.7315 262.331 5.94077 270.559 5.06323C272.508 4.85536 274.29 4.85085 275.896 4.98492Z" fill="#663E3E"/>
<path d="M279.415 6.27624C277.1 5.70274 274.156 5.39764 270.635 5.77311C262.942 6.59362 258.872 12.8604 257.729 16.0631L265.576 15.6135C265.935 13.7097 272.39 5.06145 286.736 10.4158C284.092 8.61529 281.656 7.25859 279.415 6.27624Z" fill="#663E3E"/>
<path d="M248.571 45.7557C248.571 47.1358 247.447 48.2545 246.061 48.2545C244.674 48.2545 243.55 47.1358 243.55 45.7557C243.55 44.3757 244.674 43.2569 246.061 43.2569C247.447 43.2569 248.571 44.3757 248.571 45.7557Z" fill="#4C150E"/>
<path d="M272.241 45.7557C272.241 47.1358 271.117 48.2545 269.73 48.2545C268.344 48.2545 267.22 47.1358 267.22 45.7557C267.22 44.3757 268.344 43.2569 269.73 43.2569C271.117 43.2569 272.241 44.3757 272.241 45.7557Z" fill="#4C150E"/>
<path d="M272.599 66.817C261.41 69.1016 249.527 65.8651 244.985 63.9612C250.567 71.5823 251.081 74.6703 257.895 75.2599C266.536 76.0075 266.227 71.9701 272.599 66.817Z" fill="#4C150E"/>
<path d="M242.833 38.0693C239.677 37.4982 238.171 39.7352 237.812 40.9251C237.932 40.2111 238.491 36.5349 241.398 35.5705C243.55 34.8566 251.081 36.6415 251.799 36.9985C252.524 37.3597 252.038 39.1402 251.799 40.2111C251.081 40.5682 245.989 38.6405 242.833 38.0693Z" fill="#4C150E"/>
<path d="M273.699 38.0693C276.855 37.4982 278.361 39.7352 278.72 40.9251C278.6 40.2111 278.04 36.5349 275.134 35.5705C272.982 34.8566 265.451 36.6415 264.733 36.9985C264.007 37.3597 264.494 39.1402 264.733 40.2111C265.451 40.5682 270.543 38.6405 273.699 38.0693Z" fill="#4C150E"/>
<path d="M244.985 63.9614C249.527 65.8653 261.41 69.1018 272.599 66.8172C270.453 68.5527 270.958 67.6168 269.73 68.959C260.764 73.2427 252.157 70.3869 247.495 67.1742C246.582 65.8388 246.325 65.7914 244.985 63.9614Z" fill="white"/>
<path d="M250.491 71.6963C252.314 73.8607 254.156 74.9366 257.895 75.2601C261.728 75.5917 264.11 74.4736 265.785 73.2427C258.564 74.1622 253.592 73.2427 250.491 71.6963Z" fill="white"/>
<path d="M255.026 55.3943C255.026 57.3656 256.632 58.9636 258.613 58.9636C260.593 58.9636 262.199 57.3654 262.199 55.3939V45.3988C262.199 44.595 261.932 43.8533 261.482 43.2566V53.2521C261.482 55.2236 259.876 56.8218 257.895 56.8218C256.722 56.8218 255.681 56.2611 255.026 55.3943Z" fill="#C99281"/>
<path fill-rule="evenodd" clip-rule="evenodd" d="M238.812 46.0173C238.303 45.8211 237.774 45.7557 237.453 45.7557L237.453 45.0418C237.85 45.0418 238.469 45.1193 239.071 45.3515C239.672 45.5831 240.301 45.9865 240.643 46.667L240.971 47.3199L240.252 47.1767C238.957 46.9188 238.267 47.5049 238.11 47.7386L237.514 47.3426C237.77 46.9598 238.448 46.4378 239.509 46.4007C239.305 46.2416 239.067 46.1153 238.812 46.0173ZM277.078 45.3515C277.681 45.1193 278.299 45.0418 278.696 45.0418L278.696 45.7557C278.375 45.7557 277.846 45.8211 277.337 46.0173C277.083 46.1153 276.844 46.2416 276.64 46.4007C277.702 46.4378 278.379 46.9598 278.636 47.3426L278.039 47.7386C277.882 47.5049 277.193 46.9188 275.897 47.1767L275.178 47.3199L275.506 46.667C275.848 45.9865 276.477 45.5831 277.078 45.3515ZM250.514 49.6495C246.651 51.4244 243.655 50.1591 242.597 49.2371L243.069 48.6998C243.923 49.4437 246.618 50.6534 250.214 49.0013L250.514 49.6495ZM265.936 49.0013C269.532 50.6534 272.226 49.4437 273.08 48.6998L273.553 49.2371C272.494 50.1591 269.498 51.4244 265.635 49.6495L265.936 49.0013ZM240.341 67.6438C239.152 64.0936 240.332 61.2122 241.111 60.1773L241.685 60.6057C241.03 61.4747 239.915 64.1144 241.021 67.418L240.341 67.6438ZM242.412 62.2434C242.685 61.7572 243.061 61.3815 243.335 61.1769L243.765 61.748C243.561 61.9004 243.256 62.2029 243.038 62.5912C242.822 62.9768 242.707 63.418 242.822 63.8747L242.126 64.0478C241.954 63.3621 242.138 62.7324 242.412 62.2434ZM275.492 69.5446C276.879 65.9547 275.838 63.1077 275.497 62.317L276.157 62.0358C276.533 62.9109 277.644 65.9658 276.162 69.8009L275.492 69.5446ZM273.217 65.5062C273.092 65.4114 273.002 65.3891 272.958 65.3891V64.6752C273.212 64.6752 273.451 64.7867 273.651 64.9374C273.854 65.0909 274.042 65.3037 274.202 65.5551C274.522 66.0584 274.751 66.7493 274.751 67.5309H274.034C274.034 66.8847 273.844 66.3262 273.596 65.9371C273.472 65.7422 273.339 65.5981 273.217 65.5062Z" fill="#C99281"/>
<path fill-rule="evenodd" clip-rule="evenodd" d="M245.026 63.6066L244.213 63.5132L244.695 64.1716C245.661 65.4906 246.475 66.6739 247.198 67.734L247.199 67.7357C247.22 67.7655 247.241 67.7958 247.261 67.8266C247.641 68.3898 248.026 69.1744 248.478 70.0937C248.536 70.2117 248.595 70.3322 248.656 70.4544C249.179 71.5163 249.785 72.7083 250.538 73.8436C252.044 76.1152 254.173 78.2056 257.495 78.5946C263.54 79.3025 266.301 74.6353 267.536 72.5472C267.66 72.3373 267.769 72.1535 267.864 72.0038C268.081 71.7688 268.302 71.526 268.529 71.276C269.643 70.049 270.913 68.65 272.757 67.1492C272.778 67.139 272.801 67.1251 272.825 67.1061C272.878 67.063 272.965 66.9648 272.961 66.8127C272.957 66.6783 272.882 66.5942 272.853 66.5646L272.716 66.4287L272.527 66.4673L272.436 66.4857C272.365 66.4808 272.226 66.4549 271.994 66.3949C271.743 66.33 271.425 66.2366 271.04 66.1236L271.016 66.1165C270.254 65.8925 269.257 65.5994 268.1 65.3278C265.783 64.7841 262.805 64.3217 259.726 64.6685C257.006 63.7799 254.3 63.6286 251.8 63.6406C251.024 63.6444 250.273 63.6635 249.548 63.6818C247.895 63.7238 246.381 63.7622 245.026 63.6066ZM248.078 67.7534L247.857 67.4282C247.835 67.3958 247.813 67.3638 247.791 67.3323C247.251 66.5407 246.659 65.6774 245.989 64.7387C250.984 66.5836 261.304 69.0775 271.342 67.4123C269.951 68.644 268.904 69.7972 267.988 70.806C267.757 71.0614 267.533 71.3076 267.315 71.5434C266.174 72.7746 265.177 73.7145 263.807 74.3021C262.437 74.8892 260.656 75.1404 257.926 74.9043C255.178 74.6665 253.521 74.0208 252.133 72.8566C250.782 71.7231 249.667 70.0867 248.078 67.7534Z" fill="#C99281"/>
<g clip-path="url(#clip5_13_9797)">
<g clip-path="url(#clip6_13_9797)">
<rect x="229.205" y="98.2307" width="55.2292" height="80.6754" fill="white"/>
<path d="M251.978 107.297L247.136 98.2307H267.399L261.84 107.297L265.247 158.066L258.075 174.384L250.185 156.615L251.978 107.297Z" fill="#30333A"/>
<path d="M262.848 104.806C262.848 108.16 260.117 110.882 256.742 110.882C253.367 110.882 250.636 108.16 250.636 104.806C250.636 101.453 253.367 98.7307 256.742 98.7307C260.117 98.7307 262.848 101.453 262.848 104.806Z" fill="#D6DBE0" stroke="#AAB3BC"/>
<path d="M263.494 105.655C263.524 105.396 263.54 105.131 263.54 104.863C263.54 104.287 263.467 103.727 263.331 103.192C262.051 102.783 259.639 102.254 256.928 102.379C253.9 102.52 251.132 103.886 249.947 104.661C249.945 104.728 249.944 104.796 249.944 104.863C249.944 105.566 250.052 106.243 250.252 106.881C251.564 106.091 254.135 104.919 256.928 104.789C259.758 104.658 262.263 105.241 263.494 105.655Z" fill="#AAB3BC"/>
<path fill-rule="evenodd" clip-rule="evenodd" d="M260.428 104.961C261.735 105.143 262.811 105.425 263.494 105.656C263.524 105.396 263.54 105.131 263.54 104.863C263.54 104.287 263.467 103.727 263.331 103.192C262.636 102.97 261.606 102.712 260.376 102.543C260.47 103.148 260.542 104.011 260.428 104.961ZM253.088 103.159C251.713 103.639 250.594 104.238 249.947 104.661C249.945 104.728 249.944 104.796 249.944 104.863C249.944 105.566 250.052 106.244 250.252 106.881C250.961 106.454 252.04 105.914 253.322 105.489C253.098 104.531 253.078 103.634 253.088 103.159Z" fill="#7B7B7B"/>
<path d="M254.827 114.241L253.774 110.715C255.536 111.249 258.082 111.382 259.71 110.62L258.753 114.241C257.604 115.004 255.402 114.813 254.827 114.241Z" fill="#D6DBE0" stroke="#AAB3BC"/>
<path d="M255.115 130.491L253.903 112.5H259.512L258.299 130.491H255.115Z" fill="#D6DBE0" stroke="#AAB3BC"/>
<path d="M259.829 117.44C259.829 117.44 257.081 119.108 253.941 117.569L253.92 117.44L244.403 117.825L242.833 114.105L253.106 112.309L253.025 111.796C256.374 112.617 259.567 112.138 260.745 111.796L260.662 112.309L270.806 114.105L269.759 117.825L259.871 117.184L259.829 117.44Z" fill="#D6DBE0"/>
<path d="M253.106 112.309L253.025 111.796C256.374 112.617 259.567 112.138 260.745 111.796L260.662 112.309M253.106 112.309L242.833 114.105L244.403 117.825L253.92 117.44M253.106 112.309L253.92 117.44M253.92 117.44L253.941 117.569C257.081 119.108 259.829 117.44 259.829 117.44L259.871 117.184M260.662 112.309L270.806 114.105L269.759 117.825L259.871 117.184M260.662 112.309L259.871 117.184" stroke="#AAB3BC"/>
<path d="M229.205 98.2307C222.075 98.2307 216.294 103.984 216.294 111.082V176.764C216.294 183.862 222.075 189.615 229.205 189.615H285.151C292.282 189.615 298.062 183.862 298.062 176.764V111.082C298.062 103.984 292.282 98.2307 285.151 98.2307H271.882L258.254 174.994L242.833 98.2307H229.205Z" fill="#65C3C9"/>
<path d="M280.465 126.361L275.799 140.129L288.742 138.047L285.172 128.496L280.465 126.361Z" fill="white"/>
<path d="M273.675 140.471L291.023 137.68" stroke="#1C4D69"/>
<path d="M274.362 144.7L291.709 141.908" stroke="#1C4D69"/>
</g>
</g>
</g>
<g filter="url(#filter3_d_13_9797)">
<path d="M196.209 116.481H219.162V133.616H196.209V116.481Z" fill="#F6C09D"/>
<path d="M219.162 125.048C215.803 126.673 212.03 128.618 208.044 128.618H206.61C202.905 128.618 199.385 126.464 196.209 125.048V120.051H219.162V125.048Z" fill="#C99281"/>
<path d="M181.147 61.8645C181.147 47.8668 192.547 36.5195 206.61 36.5195H208.044C222.107 36.5195 233.507 47.8668 233.507 61.8644V79.356C237.468 79.356 240.68 82.5524 240.68 86.4954C240.68 90.4384 237.468 93.6348 233.507 93.6348V98.9894C233.507 105.423 229.227 110.584 225.259 115.053C220.593 120.307 215.643 124.334 208.044 124.334H206.61C200.039 124.334 195.386 119.874 191.189 115.767C185.305 110.011 181.147 103.573 181.147 98.9894V93.6348C177.186 93.6348 173.974 90.4384 173.974 86.4954C173.974 82.5524 177.186 79.356 181.147 79.356V61.8645Z" fill="#F6C09D"/>
<path d="M185.6 82.5687L181.655 78.642C180.46 73.7634 174.385 68.2899 175.559 55.4389C176.961 40.0892 183.449 32.2358 206.76 32.2358C230.071 32.2358 236.526 39.0183 238.678 54.725C240.047 64.7202 234.733 73.6444 233.298 78.642L229.712 81.8548C230.071 77.5711 230.788 67.0762 230.788 62.2214C230.788 47.5856 213.215 51.5123 206.76 51.5123C200.304 51.5123 183.807 48.2995 183.09 62.2214C182.715 69.4926 184.405 79.237 185.6 82.5687Z" fill="#4C150E"/>
<path d="M202.815 39.7323C207.477 43.3023 207.118 47.5857 206.401 51.5122L205.441 51.474C205.222 50.1338 204.848 48.2636 204.239 45.7181C203.492 42.5947 201.047 40.061 198.359 38.1734C195.664 36.2805 192.671 34.9982 190.728 34.394L190.674 34.5653C190.389 34.4702 190.131 34.4085 189.904 34.3776C193.729 33.6637 199.219 36.9791 202.815 39.7323Z" fill="#663E3E"/>
<path d="M194.158 36.5437C195.393 37.1435 196.703 37.8838 197.946 38.7567C200.578 40.6054 202.854 43.0098 203.542 45.8835C204.126 48.3276 204.491 50.1372 204.71 51.4448L202.385 51.3523C201.8 47.8812 199.501 45.2496 196.873 43.3691C194.513 41.6797 191.856 40.5728 189.842 39.9874C193.371 39.1801 196.199 39.5055 198.457 40.498C196.887 38.7986 195.435 37.4996 194.158 36.5437Z" fill="#663E3E"/>
<path d="M188.788 40.2567L188.746 40.4367C190.741 40.904 193.798 42.0473 196.455 43.9488C198.432 45.3641 200.165 47.1817 201.093 49.4336C198.792 46.181 195.481 44.2868 192.257 43.2392C189.138 42.2262 186.074 41.9954 184.022 42.0995C185.731 41.2754 187.317 40.6712 188.788 40.2567Z" fill="#663E3E"/>
<path d="M182.756 42.7381L182.79 42.9401C184.525 42.6523 188.232 42.6829 192.034 43.918C195.623 45.0837 199.258 47.3093 201.416 51.3137L197.435 51.1552C197.077 49.2513 192.056 40.4463 177.71 45.8007C179.496 44.5844 181.176 43.5707 182.756 42.7381Z" fill="#663E3E"/>
<path d="M225.687 40.3699C213.129 36.7089 207.739 45.8984 206.401 51.5122L207.012 51.4772L206.778 51.3994C207.877 48.1165 212.121 41.3258 220.349 40.4482C222.298 40.2404 224.081 40.2359 225.687 40.3699Z" fill="#663E3E"/>
<path d="M229.205 41.6612C226.89 41.0877 223.946 40.7827 220.426 41.1581C212.732 41.9786 208.662 48.2454 207.52 51.4481L215.367 50.9985C215.725 49.0947 222.181 40.4465 236.526 45.8008C233.882 44.0003 231.446 42.6436 229.205 41.6612Z" fill="#663E3E"/>
<path d="M198.361 81.1407C198.361 82.5208 197.237 83.6395 195.851 83.6395C194.464 83.6395 193.34 82.5208 193.34 81.1407C193.34 79.7607 194.464 78.6419 195.851 78.6419C197.237 78.6419 198.361 79.7607 198.361 81.1407Z" fill="#4C150E"/>
<path d="M222.031 81.1407C222.031 82.5208 220.907 83.6395 219.52 83.6395C218.134 83.6395 217.01 82.5208 217.01 81.1407C217.01 79.7607 218.134 78.6419 219.52 78.6419C220.907 78.6419 222.031 79.7607 222.031 81.1407Z" fill="#4C150E"/>
<path d="M222.389 102.202C211.2 104.487 199.318 101.25 194.775 99.3462C200.358 106.967 200.872 110.055 207.686 110.645C216.326 111.393 216.018 107.355 222.389 102.202Z" fill="#4C150E"/>
<path d="M192.623 73.4543C189.467 72.8832 187.961 75.1202 187.602 76.3101C187.722 75.5961 188.282 71.9199 191.189 70.9555C193.34 70.2416 200.872 72.0265 201.589 72.3835C202.315 72.7447 201.828 74.5252 201.589 75.5961C200.872 75.9532 195.779 74.0255 192.623 73.4543Z" fill="#4C150E"/>
<path d="M223.489 73.4543C226.645 72.8832 228.152 75.1202 228.51 76.3101C228.391 75.5961 227.831 71.9199 224.924 70.9555C222.772 70.2416 215.241 72.0265 214.524 72.3835C213.798 72.7447 214.284 74.5252 214.524 75.5961C215.241 75.9532 220.333 74.0255 223.489 73.4543Z" fill="#4C150E"/>
<path d="M194.775 99.3464C199.318 101.25 211.2 104.487 222.389 102.202C220.244 103.938 220.748 103.002 219.52 104.344C210.555 108.628 201.948 105.772 197.285 102.559C196.372 101.224 196.115 101.176 194.775 99.3464Z" fill="white"/>
<path d="M200.281 107.081C202.104 109.246 203.946 110.322 207.686 110.645C211.518 110.977 213.9 109.859 215.575 108.628C208.355 109.547 203.382 108.628 200.281 107.081Z" fill="white"/>
<path d="M204.817 90.7793C204.817 92.7506 206.422 94.3486 208.403 94.3486C210.384 94.3486 211.989 92.7504 211.989 90.7789V80.7838C211.989 79.98 211.722 79.2383 211.272 78.6416V88.6371C211.272 90.6086 209.666 92.2068 207.686 92.2068C206.512 92.2068 205.471 91.6461 204.817 90.7793Z" fill="#C99281"/>
<path fill-rule="evenodd" clip-rule="evenodd" d="M188.603 81.4023C188.093 81.2061 187.564 81.1408 187.244 81.1407L187.244 80.4268C187.64 80.4268 188.259 80.5043 188.861 80.7365C189.463 80.9681 190.092 81.3715 190.433 82.0521L190.761 82.7049L190.042 82.5617C188.747 82.3038 188.057 82.8899 187.901 83.1237L187.304 82.7276C187.56 82.3448 188.238 81.8228 189.299 81.7857C189.095 81.6266 188.857 81.5003 188.603 81.4023ZM226.868 80.7365C227.471 80.5043 228.09 80.4268 228.486 80.4268L228.486 81.1407C228.166 81.1408 227.636 81.2061 227.127 81.4023C226.873 81.5003 226.634 81.6266 226.43 81.7857C227.492 81.8228 228.17 82.3448 228.426 82.7276L227.829 83.1237C227.673 82.8899 226.983 82.3038 225.688 82.5617L224.968 82.7049L225.296 82.0521C225.638 81.3715 226.267 80.9681 226.868 80.7365ZM200.305 85.0346C196.441 86.8094 193.446 85.5441 192.387 84.6221L192.859 84.0848C193.713 84.8287 196.408 86.0384 200.004 84.3863L200.305 85.0346ZM215.726 84.3863C219.322 86.0384 222.016 84.8287 222.871 84.0848L223.343 84.6221C222.284 85.5441 219.289 86.8094 215.425 85.0346L215.726 84.3863ZM190.131 103.029C188.942 99.4786 190.122 96.5972 190.902 95.5624L191.476 95.9907C190.821 96.8597 189.705 99.4995 190.812 102.803L190.131 103.029ZM192.202 97.6284C192.475 97.1422 192.851 96.7665 193.125 96.5619L193.556 97.133C193.351 97.2854 193.046 97.5879 192.829 97.9762C192.613 98.3618 192.498 98.803 192.612 99.2597L191.917 99.4328C191.744 98.7471 191.928 98.1175 192.202 97.6284ZM225.282 104.93C226.67 101.34 225.628 98.4927 225.288 97.702L225.947 97.4208C226.324 98.2959 227.434 101.351 225.952 105.186L225.282 104.93ZM223.008 100.891C222.882 100.796 222.793 100.774 222.748 100.774V100.06C223.003 100.06 223.242 100.172 223.441 100.322C223.644 100.476 223.833 100.689 223.993 100.94C224.313 101.443 224.541 102.134 224.541 102.916H223.824C223.824 102.27 223.634 101.711 223.387 101.322C223.263 101.127 223.129 100.983 223.008 100.891Z" fill="#C99281"/>
<path fill-rule="evenodd" clip-rule="evenodd" d="M194.816 98.9916L194.003 98.8982L194.485 99.5566C195.451 100.876 196.266 102.059 196.989 103.119L196.99 103.121C197.01 103.15 197.031 103.181 197.052 103.212C197.431 103.775 197.817 104.559 198.268 105.479C198.327 105.597 198.386 105.717 198.446 105.839C198.97 106.901 199.575 108.093 200.328 109.229C201.834 111.5 203.963 113.591 207.285 113.98C213.33 114.687 216.091 110.02 217.326 107.932C217.45 107.722 217.559 107.539 217.654 107.389C217.872 107.154 218.092 106.911 218.319 106.661C219.433 105.434 220.703 104.035 222.548 102.534C222.568 102.524 222.591 102.51 222.615 102.491C222.669 102.448 222.756 102.35 222.751 102.198C222.747 102.063 222.673 101.979 222.643 101.95L222.507 101.814L222.317 101.852L222.227 101.871C222.156 101.866 222.016 101.84 221.784 101.78C221.533 101.715 221.215 101.622 220.83 101.509L220.807 101.502C220.045 101.278 219.048 100.984 217.89 100.713C215.574 100.169 212.595 99.7067 209.516 100.054C206.797 99.1649 204.09 99.0136 201.59 99.0257C200.814 99.0294 200.063 99.0485 199.339 99.0668C197.685 99.1088 196.171 99.1472 194.816 98.9916ZM197.868 103.138L197.647 102.813C197.625 102.781 197.603 102.749 197.581 102.717C197.042 101.926 196.449 101.062 195.779 100.124C200.774 101.969 211.094 104.462 221.132 102.797C219.741 104.029 218.694 105.182 217.779 106.191C217.547 106.446 217.323 106.693 217.105 106.928C215.964 108.16 214.967 109.099 213.597 109.687C212.228 110.274 210.446 110.525 207.717 110.289C204.969 110.052 203.311 109.406 201.923 108.242C200.572 107.108 199.457 105.472 197.868 103.138Z" fill="#C99281"/>
<g clip-path="url(#clip7_13_9797)">
<g clip-path="url(#clip8_13_9797)">
<rect x="178.995" y="133.616" width="55.2292" height="80.6754" fill="white"/>
<path d="M201.768 142.682L196.927 133.616H217.189L211.631 142.682L215.038 193.451L207.865 209.769L199.975 192L201.768 142.682Z" fill="#30333A"/>
<path d="M212.639 140.191C212.639 143.545 209.907 146.267 206.532 146.267C203.158 146.267 200.426 143.545 200.426 140.191C200.426 136.838 203.158 134.116 206.532 134.116C209.907 134.116 212.639 136.838 212.639 140.191Z" fill="#D6DBE0" stroke="#AAB3BC"/>
<path d="M213.284 141.041C213.315 140.781 213.33 140.516 213.33 140.248C213.33 139.672 213.258 139.112 213.121 138.577C211.841 138.168 209.429 137.639 206.719 137.764C203.69 137.905 200.923 139.271 199.738 140.046C199.736 140.113 199.735 140.181 199.735 140.248C199.735 140.951 199.842 141.628 200.042 142.266C201.354 141.476 203.926 140.304 206.719 140.174C209.548 140.043 212.054 140.626 213.284 141.041Z" fill="#AAB3BC"/>
<path fill-rule="evenodd" clip-rule="evenodd" d="M210.219 140.346C211.525 140.528 212.601 140.81 213.284 141.041C213.315 140.781 213.33 140.516 213.33 140.248C213.33 139.672 213.258 139.112 213.121 138.577C212.426 138.355 211.396 138.097 210.167 137.928C210.261 138.533 210.333 139.396 210.219 140.346ZM202.878 138.544C201.503 139.024 200.384 139.623 199.738 140.046C199.736 140.113 199.735 140.181 199.735 140.248C199.735 140.951 199.842 141.629 200.042 142.266C200.752 141.839 201.83 141.299 203.112 140.874C202.888 139.916 202.868 139.019 202.878 138.544Z" fill="#7B7B7B"/>
<path d="M204.617 149.626L203.564 146.1C205.326 146.634 207.873 146.767 209.5 146.005L208.543 149.626C207.394 150.389 205.192 150.198 204.617 149.626Z" fill="#D6DBE0" stroke="#AAB3BC"/>
<path d="M204.906 165.876L203.693 147.885H209.302L208.089 165.876H204.906Z" fill="#D6DBE0" stroke="#AAB3BC"/>
<path d="M209.619 152.825C209.619 152.825 206.871 154.493 203.731 152.954L203.711 152.825L194.193 153.21L192.623 149.49L202.896 147.694L202.815 147.181C206.165 148.002 209.358 147.523 210.535 147.181L210.452 147.694L220.596 149.49L219.549 153.21L209.661 152.569L209.619 152.825Z" fill="#D6DBE0"/>
<path d="M202.896 147.694L202.815 147.181C206.165 148.002 209.358 147.523 210.535 147.181L210.452 147.694M202.896 147.694L192.623 149.49L194.193 153.21L203.711 152.825M202.896 147.694L203.711 152.825M203.711 152.825L203.731 152.954C206.871 154.493 209.619 152.825 209.619 152.825L209.661 152.569M210.452 147.694L220.596 149.49L219.549 153.21L209.661 152.569M210.452 147.694L209.661 152.569" stroke="#AAB3BC"/>
<path d="M178.995 133.616C171.865 133.616 166.084 139.369 166.084 146.467V212.149C166.084 219.247 171.865 225 178.995 225H234.942C242.072 225 247.852 219.247 247.852 212.149V146.467C247.852 139.369 242.072 133.616 234.942 133.616H221.672L208.044 210.379L192.623 133.616H178.995Z" fill="#41CA7B"/>
<path d="M230.256 161.746L225.59 175.514L238.532 173.432L234.962 163.881L230.256 161.746Z" fill="white"/>
</g>
</g>
</g>
<g filter="url(#filter4_d_13_9797)">
<path d="M103.685 115.472H126.398V132.766H103.685V115.472Z" fill="#F6C09D"/>
<path d="M126.398 124.119C123.074 125.759 119.341 127.721 115.396 127.721H113.977C110.31 127.721 106.827 125.548 103.685 124.119V119.074H126.398V124.119Z" fill="#C99281"/>
<path d="M88.7791 60.347C88.7791 46.2192 100.06 34.7664 113.977 34.7664H115.396C129.312 34.7664 140.594 46.2192 140.594 60.347V78.0013C144.514 78.0013 147.692 81.2275 147.692 85.2071C147.692 89.1868 144.514 92.413 140.594 92.413V97.8173C140.594 104.311 136.359 109.519 132.431 114.03C127.814 119.333 122.916 123.398 115.396 123.398H113.977C107.475 123.398 102.87 118.896 98.7161 114.751C92.8941 108.941 88.7791 102.443 88.7791 97.8173V92.413C84.859 92.413 81.6812 89.1868 81.6812 85.2071C81.6812 81.2275 84.859 78.0013 88.7791 78.0013V60.347Z" fill="#F6C09D"/>
<path d="M93.1861 81.2439L89.2822 77.2807C88.0992 72.3568 82.0874 66.8323 83.249 53.8618C84.6365 38.3693 91.0567 30.4429 114.125 30.4429C137.193 30.4429 143.581 37.2884 145.711 53.1412C147.066 63.2294 141.807 72.2367 140.387 77.2807L136.838 80.5234C137.193 76.1999 137.903 65.6073 137.903 60.7073C137.903 45.9354 120.513 49.8986 114.125 49.8986C107.737 49.8986 91.4116 46.656 90.7018 60.7073C90.3311 68.0462 92.0031 77.8812 93.1861 81.2439Z" fill="#4C150E"/>
<path d="M110.221 38.0089C114.834 41.6121 114.48 45.9353 113.77 49.8983L112.82 49.8598C112.603 48.5071 112.233 46.6195 111.631 44.0504C110.891 40.8978 108.471 38.3406 105.812 36.4354C103.145 34.525 100.182 33.2307 98.2602 32.6209L98.207 32.7938C97.9244 32.6978 97.6695 32.6355 97.4446 32.6044C101.23 31.8838 106.663 35.2301 110.221 38.0089Z" fill="#663E3E"/>
<path d="M101.655 34.7906C102.876 35.3959 104.173 36.1432 105.403 37.0242C108.007 38.8901 110.26 41.3169 110.94 44.2173C111.519 46.6841 111.88 48.5106 112.096 49.8304L109.796 49.7369C109.217 46.2336 106.942 43.5775 104.342 41.6795C102.006 39.9744 99.3765 38.8572 97.3836 38.2663C100.875 37.4515 103.674 37.7799 105.908 38.7817C104.355 37.0664 102.918 35.7554 101.655 34.7906Z" fill="#663E3E"/>
<path d="M96.3407 38.5381L96.2986 38.7199C98.2729 39.1915 101.298 40.3454 103.927 42.2646C105.884 43.6931 107.599 45.5276 108.517 47.8004C106.24 44.5175 102.964 42.6057 99.7728 41.5484C96.6868 40.526 93.6543 40.293 91.6237 40.398C93.3152 39.5663 94.8848 38.9565 96.3407 38.5381Z" fill="#663E3E"/>
<path d="M90.3716 41.0426L90.405 41.2465C92.1218 40.956 95.7904 40.9869 99.5526 42.2334C103.104 43.41 106.702 45.6563 108.837 49.698L104.897 49.538C104.543 47.6164 99.574 38.7295 85.3782 44.1337C87.1454 42.9061 88.8079 41.883 90.3716 41.0426Z" fill="#663E3E"/>
<path d="M132.855 38.6524C120.428 34.9573 115.094 44.2323 113.77 49.8983L114.375 49.863L114.143 49.7845C115.231 46.4711 119.43 39.6172 127.573 38.7315C129.502 38.5217 131.265 38.5171 132.855 38.6524Z" fill="#663E3E"/>
<path d="M136.336 39.9558C134.046 39.3769 131.132 39.069 127.649 39.4479C120.035 40.2761 116.008 46.6011 114.877 49.8336L122.642 49.3799C122.997 47.4583 129.385 38.7297 143.581 44.1338C140.965 42.3166 138.554 40.9472 136.336 39.9558Z" fill="#663E3E"/>
<path d="M105.814 79.8027C105.814 81.1956 104.702 82.3247 103.33 82.3247C101.958 82.3247 100.846 81.1956 100.846 79.8027C100.846 78.4098 101.958 77.2807 103.33 77.2807C104.702 77.2807 105.814 78.4098 105.814 79.8027Z" fill="#4C150E"/>
<path d="M129.237 79.8027C129.237 81.1956 128.125 82.3247 126.753 82.3247C125.381 82.3247 124.269 81.1956 124.269 79.8027C124.269 78.4098 125.381 77.2807 126.753 77.2807C128.125 77.2807 129.237 78.4098 129.237 79.8027Z" fill="#4C150E"/>
<path d="M129.592 101.06C118.519 103.366 106.76 100.099 102.265 98.1775C107.79 105.869 108.298 108.986 115.041 109.581C123.592 110.336 123.287 106.261 129.592 101.06Z" fill="#4C150E"/>
<path d="M100.136 72.0448C97.0127 71.4683 95.5221 73.7261 95.1672 74.9271C95.2855 74.2065 95.8396 70.4961 98.7162 69.5227C100.846 68.8022 108.298 70.6037 109.008 70.964C109.726 71.3286 109.245 73.1257 109.008 74.2065C108.298 74.5669 103.259 72.6213 100.136 72.0448Z" fill="#4C150E"/>
<path d="M130.68 72.0448C133.804 71.4683 135.294 73.7261 135.649 74.9271C135.531 74.2065 134.977 70.4961 132.1 69.5227C129.971 68.8022 122.518 70.6037 121.808 70.964C121.09 71.3286 121.571 73.1257 121.808 74.2065C122.518 74.5669 127.557 72.6213 130.68 72.0448Z" fill="#4C150E"/>
<path d="M102.265 98.1777C106.76 100.099 118.519 103.366 129.592 101.06C127.469 102.812 127.968 101.867 126.753 103.222C117.881 107.545 109.363 104.663 104.749 101.42C103.846 100.073 103.592 100.025 102.265 98.1777Z" fill="white"/>
<path d="M107.714 105.985C109.518 108.169 111.341 109.255 115.041 109.582C118.834 109.916 121.191 108.788 122.849 107.545C115.703 108.473 110.783 107.545 107.714 105.985Z" fill="white"/>
<path d="M112.202 89.5311C112.202 91.5208 113.791 93.1337 115.751 93.1337C117.711 93.1337 119.3 91.5206 119.3 89.5308V79.4426C119.3 78.6314 119.036 77.8827 118.59 77.2805V87.369C118.59 89.3589 117.001 90.9719 115.041 90.9719C113.88 90.9719 112.85 90.406 112.202 89.5311Z" fill="#C99281"/>
<path fill-rule="evenodd" clip-rule="evenodd" d="M96.157 80.0669C95.6531 79.8689 95.1295 79.8029 94.8123 79.8029L94.8123 79.0823C95.2048 79.0823 95.8169 79.1605 96.4132 79.3949C97.008 79.6287 97.6305 80.0358 97.9689 80.7227L98.2934 81.3816L97.5818 81.2371C96.2999 80.9768 95.6174 81.5683 95.4625 81.8043L94.8719 81.4046C95.1256 81.0181 95.796 80.4913 96.8467 80.4539C96.6448 80.2933 96.4087 80.1658 96.157 80.0669ZM134.024 79.3949C134.621 79.1605 135.233 79.0823 135.625 79.0823L135.625 79.8029C135.308 79.8029 134.784 79.8689 134.281 80.0669C134.029 80.1658 133.793 80.2933 133.591 80.4539C134.641 80.4913 135.312 81.0181 135.566 81.4046L134.975 81.8043C134.82 81.5683 134.138 80.9768 132.856 81.2371L132.144 81.3816L132.469 80.7227C132.807 80.0358 133.429 79.6287 134.024 79.3949ZM107.737 83.7329C103.914 85.5243 100.95 84.2472 99.902 83.3167L100.369 82.7744C101.215 83.5252 103.881 84.7461 107.44 83.0787L107.737 83.7329ZM122.998 83.0787C126.556 84.7461 129.223 83.5252 130.068 82.7744L130.535 83.3167C129.488 84.2472 126.523 85.5243 122.7 83.7329L122.998 83.0787ZM97.6696 101.895C96.4931 98.3113 97.6606 95.4032 98.4322 94.3587L99 94.791C98.3521 95.6681 97.2482 98.3324 98.343 101.667L97.6696 101.895ZM99.7193 96.444C99.9889 95.9532 100.361 95.574 100.633 95.3675L101.058 95.944C100.856 96.0977 100.555 96.403 100.339 96.795C100.125 97.1842 100.012 97.6295 100.125 98.0904L99.4365 98.2651C99.2661 97.5731 99.4481 96.9375 99.7193 96.444ZM132.455 103.813C133.828 100.19 132.797 97.3163 132.46 96.5182L133.112 96.2344C133.485 97.1176 134.584 100.201 133.117 104.072L132.455 103.813ZM130.204 99.7371C130.08 99.6415 129.991 99.6189 129.947 99.6189V98.8983C130.199 98.8983 130.435 99.0109 130.633 99.163C130.834 99.3179 131.02 99.5327 131.178 99.7864C131.495 100.294 131.721 100.992 131.721 101.781H131.012C131.012 101.128 130.824 100.565 130.579 100.172C130.456 99.9753 130.324 99.8299 130.204 99.7371Z" fill="#C99281"/>
<path fill-rule="evenodd" clip-rule="evenodd" d="M102.306 97.8198L101.501 97.7256L101.978 98.39C102.935 99.7214 103.74 100.916 104.456 101.986L104.457 101.987C104.477 102.017 104.498 102.048 104.518 102.079C104.894 102.648 105.275 103.439 105.722 104.367C105.78 104.486 105.838 104.608 105.898 104.731C106.416 105.803 107.015 107.006 107.76 108.152C109.251 110.445 111.358 112.555 114.645 112.947C120.627 113.662 123.359 108.951 124.581 106.844C124.704 106.632 124.812 106.446 124.906 106.295C125.121 106.058 125.339 105.813 125.564 105.561C126.666 104.322 127.923 102.91 129.748 101.395C129.769 101.385 129.792 101.371 129.815 101.352C129.868 101.308 129.954 101.209 129.95 101.056C129.946 100.92 129.872 100.835 129.843 100.805L129.708 100.668L129.521 100.707L129.431 100.726C129.361 100.721 129.222 100.695 128.993 100.634C128.745 100.569 128.43 100.474 128.049 100.36L128.026 100.353C127.272 100.127 126.285 99.8312 125.14 99.5571C122.847 99.0083 119.9 98.5416 116.853 98.8916C114.162 97.9947 111.483 97.842 109.009 97.8542C108.241 97.858 107.498 97.8772 106.781 97.8958C105.145 97.9381 103.647 97.9769 102.306 97.8198ZM105.326 102.005L105.107 101.677C105.086 101.644 105.064 101.612 105.042 101.58C104.508 100.781 103.922 99.9099 103.259 98.9625C108.202 100.825 118.414 103.342 128.348 101.661C126.971 102.904 125.935 104.068 125.029 105.086C124.8 105.344 124.579 105.592 124.363 105.83C123.234 107.073 122.247 108.022 120.891 108.615C119.536 109.207 117.773 109.461 115.072 109.223C112.353 108.983 110.712 108.331 109.339 107.156C108.002 106.012 106.899 104.36 105.326 102.005Z" fill="#C99281"/>
<g clip-path="url(#clip9_13_9797)">
<g clip-path="url(#clip10_13_9797)">
<rect x="86.6497" y="132.766" width="54.6539" height="81.4258" fill="white"/>
<path d="M109.186 141.916L104.395 132.766H124.446L118.945 141.916L122.317 193.157L115.219 209.628L107.411 191.693L109.186 141.916Z" fill="#30333A"/>
<path d="M119.938 139.403C119.938 142.799 117.227 145.539 113.9 145.539C110.573 145.539 107.863 142.799 107.863 139.403C107.863 136.006 110.573 133.266 113.9 133.266C117.227 133.266 119.938 136.006 119.938 139.403Z" fill="#D6DBE0" stroke="#AAB3BC"/>
<path d="M120.581 140.26C120.612 139.997 120.627 139.731 120.627 139.46C120.627 138.878 120.555 138.313 120.42 137.773C119.154 137.36 116.766 136.826 114.084 136.953C111.087 137.095 108.349 138.474 107.176 139.256C107.174 139.324 107.173 139.392 107.173 139.46C107.173 140.169 107.28 140.853 107.477 141.496C108.776 140.699 111.32 139.516 114.084 139.385C116.885 139.253 119.364 139.841 120.581 140.26Z" fill="#AAB3BC"/>
<path fill-rule="evenodd" clip-rule="evenodd" d="M117.548 139.558C118.841 139.743 119.905 140.027 120.581 140.259C120.612 139.997 120.627 139.73 120.627 139.46C120.627 138.878 120.555 138.313 120.42 137.773C119.732 137.549 118.713 137.289 117.496 137.118C117.589 137.729 117.661 138.6 117.548 139.558ZM110.284 137.74C108.923 138.224 107.816 138.829 107.176 139.256C107.174 139.324 107.173 139.392 107.173 139.46C107.173 140.169 107.28 140.853 107.477 141.496C108.18 141.065 109.246 140.521 110.515 140.091C110.294 139.124 110.274 138.219 110.284 137.74Z" fill="#7B7B7B"/>
<path d="M112.005 148.925L110.963 145.366C112.706 145.905 115.226 146.04 116.837 145.27L115.89 148.925C114.753 149.695 112.574 149.502 112.005 148.925Z" fill="#D6DBE0" stroke="#AAB3BC"/>
<path d="M112.291 165.326L111.09 147.167H116.641L115.441 165.326H112.291Z" fill="#D6DBE0" stroke="#AAB3BC"/>
<path d="M116.955 152.154C116.955 152.154 114.236 153.837 111.128 152.283L111.108 152.154L101.69 152.542L100.136 148.787L110.302 146.975L110.221 146.457C113.536 147.285 116.696 146.802 117.861 146.457L117.779 146.975L127.818 148.787L126.782 152.542L116.996 151.895L116.955 152.154Z" fill="#D6DBE0"/>
<path d="M110.302 146.975L110.221 146.457C113.536 147.285 116.696 146.802 117.861 146.457L117.779 146.975M110.302 146.975L100.136 148.787L101.69 152.542L111.108 152.154M110.302 146.975L111.108 152.154M111.108 152.154L111.128 152.283C114.236 153.837 116.955 152.154 116.955 152.154L116.996 151.895M117.779 146.975L127.818 148.787L126.782 152.542L116.996 151.895M117.779 146.975L116.996 151.895" stroke="#AAB3BC"/>
<path d="M86.6498 132.766C79.5936 132.766 73.8735 138.573 73.8735 145.736V212.03C73.8735 219.193 79.5936 225 86.6498 225H142.013C149.07 225 154.79 219.193 154.79 212.03V145.736C154.79 138.573 149.07 132.766 142.013 132.766H128.882L115.396 210.243L100.136 132.766H86.6498Z" fill="#F5A35A"/>
<path d="M137.376 161.157L132.759 175.054L145.567 172.952L142.034 163.313L137.376 161.157Z" fill="white"/>
</g>
</g>
</g>
<g filter="url(#filter5_d_13_9797)">
<path d="M348.776 89.9993H371.49V107.293H348.776V89.9993Z" fill="#F6C09D"/>
<path d="M371.49 98.6461C368.165 100.287 364.433 102.249 360.488 102.249H359.068C355.402 102.249 351.919 100.075 348.776 98.6461V93.6021H371.49V98.6461Z" fill="#C99281"/>
<path d="M333.871 34.8746C333.871 20.7468 345.152 9.29395 359.068 9.29395H360.488C374.404 9.29395 385.686 20.7468 385.686 34.8746V52.5289C389.606 52.5289 392.783 55.7551 392.783 59.7347C392.783 63.7144 389.606 66.9405 385.686 66.9405V72.3449C385.686 78.8388 381.45 84.0469 377.523 88.558C372.906 93.8611 368.008 97.9256 360.488 97.9256H359.068C352.566 97.9256 347.962 93.4236 343.808 89.2786C337.986 83.469 333.871 76.9709 333.871 72.3449V66.9405C329.951 66.9405 326.773 63.7144 326.773 59.7347C326.773 55.7551 329.951 52.5289 333.871 52.5289V34.8746Z" fill="#F6C09D"/>
<path d="M338.278 55.7715L334.374 51.8083C333.191 46.8843 327.179 41.3599 328.341 28.3894C329.728 12.8969 336.149 4.97046 359.217 4.97046C382.285 4.97046 388.673 11.816 390.802 27.6688C392.157 37.757 386.899 46.7643 385.479 51.8083L381.93 55.0509C382.285 50.7275 382.995 40.1349 382.995 35.2349C382.995 20.463 365.605 24.4262 359.217 24.4262C352.829 24.4262 336.503 21.1836 335.794 35.2349C335.423 42.5738 337.095 52.4088 338.278 55.7715Z" fill="#4C150E"/>
<path d="M355.313 12.5365C359.926 16.1397 359.571 20.4629 358.862 24.4259L357.912 24.3873C357.695 23.0347 357.325 21.1471 356.723 18.5779C355.983 15.4254 353.563 12.8682 350.904 10.963C348.237 9.05257 345.274 7.75829 343.352 7.14847L343.299 7.32134C343.016 7.22543 342.761 7.1631 342.536 7.13197C346.322 6.41138 351.755 9.75768 355.313 12.5365Z" fill="#663E3E"/>
<path d="M346.746 9.31818C347.968 9.92353 349.264 10.6708 350.494 11.5518C353.099 13.4177 355.352 15.8445 356.032 18.7448C356.611 21.2117 356.971 23.0382 357.188 24.3579L354.887 24.2645C354.309 20.7612 352.033 18.1051 349.433 16.2071C347.097 14.502 344.468 13.3848 342.475 12.7939C345.967 11.9791 348.766 12.3075 351 13.3092C349.447 11.594 348.01 10.283 346.746 9.31818Z" fill="#663E3E"/>
<path d="M341.433 13.0657L341.39 13.2474C343.365 13.719 346.39 14.8729 349.019 16.7922C350.976 18.2207 352.691 20.0552 353.609 22.328C351.332 19.0451 348.056 17.1333 344.865 16.076C341.779 15.0535 338.746 14.8206 336.715 14.9256C338.407 14.0939 339.977 13.4841 341.433 13.0657Z" fill="#663E3E"/>
<path d="M335.463 15.5702L335.497 15.774C337.214 15.4836 340.882 15.5145 344.644 16.761C348.196 17.9376 351.793 20.1839 353.929 24.2256L349.989 24.0656C349.634 22.144 344.666 13.2571 330.47 18.6612C332.237 17.4337 333.9 16.4106 335.463 15.5702Z" fill="#663E3E"/>
<path d="M377.946 13.18C365.519 9.4849 360.186 18.7599 358.862 24.4259L359.467 24.3906L359.235 24.3121C360.323 20.9987 364.522 14.1447 372.665 13.259C374.594 13.0492 376.357 13.0447 377.946 13.18Z" fill="#663E3E"/>
<path d="M381.428 14.4833C379.138 13.9045 376.224 13.5966 372.74 13.9755C365.127 14.8037 361.099 21.1287 359.969 24.3612L367.734 23.9075C368.089 21.9859 374.477 13.2572 388.673 18.6614C386.056 16.8441 383.646 15.4748 381.428 14.4833Z" fill="#663E3E"/>
<path d="M350.906 54.3303C350.906 55.7232 349.794 56.8523 348.422 56.8523C347.05 56.8523 345.937 55.7232 345.937 54.3303C345.937 52.9374 347.05 51.8082 348.422 51.8082C349.794 51.8082 350.906 52.9374 350.906 54.3303Z" fill="#4C150E"/>
<path d="M374.329 54.3303C374.329 55.7232 373.217 56.8523 371.845 56.8523C370.473 56.8523 369.36 55.7232 369.36 54.3303C369.36 52.9374 370.473 51.8082 371.845 51.8082C373.217 51.8082 374.329 52.9374 374.329 54.3303Z" fill="#4C150E"/>
<path d="M374.684 75.5875C363.611 77.8933 351.852 74.6267 347.357 72.7051C352.882 80.3971 353.39 83.5139 360.133 84.1089C368.684 84.8635 368.378 80.7886 374.684 75.5875Z" fill="#4C150E"/>
<path d="M345.228 46.5724C342.104 45.9959 340.614 48.2537 340.259 49.4547C340.377 48.7341 340.931 45.0237 343.808 44.0503C345.937 43.3298 353.39 45.1313 354.1 45.4916C354.818 45.8562 354.337 47.6533 354.1 48.7341C353.39 49.0945 348.351 47.1488 345.228 46.5724Z" fill="#4C150E"/>
<path d="M375.772 46.5724C378.895 45.9959 380.386 48.2537 380.741 49.4547C380.622 48.7341 380.068 45.0237 377.192 44.0503C375.062 43.3298 367.61 45.1313 366.9 45.4916C366.182 45.8562 366.663 47.6533 366.9 48.7341C367.61 49.0945 372.649 47.1488 375.772 46.5724Z" fill="#4C150E"/>
<path d="M347.357 72.7053C351.852 74.6269 363.611 77.8935 374.684 75.5877C372.56 77.3393 373.059 76.3947 371.845 77.7494C362.972 82.0729 354.455 79.1906 349.841 75.9479C348.937 74.6001 348.683 74.5523 347.357 72.7053Z" fill="white"/>
<path d="M352.806 80.5122C354.61 82.6967 356.433 83.7826 360.133 84.1091C363.926 84.4438 366.283 83.3153 367.941 82.0729C360.795 83.001 355.874 82.0729 352.806 80.5122Z" fill="white"/>
<path d="M357.294 64.0587C357.294 66.0484 358.883 67.6613 360.843 67.6613C362.803 67.6613 364.392 66.0482 364.392 64.0584V53.9702C364.392 53.159 364.128 52.4103 363.682 51.8081V61.8966C363.682 63.8864 362.093 65.4995 360.133 65.4995C358.972 65.4995 357.941 64.9336 357.294 64.0587Z" fill="#C99281"/>
<path fill-rule="evenodd" clip-rule="evenodd" d="M341.249 54.5945C340.745 54.3965 340.221 54.3305 339.904 54.3305L339.904 53.6099C340.297 53.6099 340.909 53.6881 341.505 53.9225C342.1 54.1563 342.722 54.5634 343.061 55.2503L343.385 55.9092L342.674 55.7647C341.392 55.5044 340.709 56.0959 340.554 56.3319L339.964 55.9321C340.217 55.5457 340.888 55.0189 341.938 54.9814C341.737 54.8208 341.5 54.6934 341.249 54.5945ZM379.116 53.9225C379.712 53.6881 380.325 53.6099 380.717 53.6099L380.717 54.3305C380.4 54.3305 379.876 54.3965 379.372 54.5945C379.121 54.6934 378.885 54.8208 378.683 54.9814C379.733 55.0189 380.404 55.5457 380.657 55.9321L380.067 56.3319C379.912 56.0959 379.229 55.5044 377.947 55.7647L377.236 55.9092L377.56 55.2503C377.899 54.5634 378.521 54.1563 379.116 53.9225ZM352.829 58.2605C349.006 60.0519 346.041 58.7748 344.994 57.8443L345.461 57.302C346.306 58.0528 348.973 59.2737 352.532 57.6063L352.829 58.2605ZM368.09 57.6063C371.648 59.2737 374.315 58.0528 375.16 57.302L375.627 57.8443C374.58 58.7748 371.615 60.0519 367.792 58.2605L368.09 57.6063ZM342.761 76.4222C341.585 72.8389 342.752 69.9307 343.524 68.8863L344.092 69.3186C343.444 70.1957 342.34 72.86 343.435 76.1943L342.761 76.4222ZM344.811 70.9716C345.081 70.4808 345.453 70.1016 345.724 69.8951L346.15 70.4715C345.948 70.6253 345.646 70.9306 345.431 71.3226C345.217 71.7118 345.103 72.1571 345.217 72.618L344.528 72.7927C344.358 72.1007 344.54 71.4651 344.811 70.9716ZM377.547 78.3407C378.919 74.7174 377.889 71.8439 377.552 71.0458L378.204 70.762C378.577 71.6452 379.676 74.7285 378.209 78.5993L377.547 78.3407ZM375.296 74.2647C375.171 74.169 375.083 74.1465 375.039 74.1465V73.4259C375.29 73.4259 375.527 73.5385 375.725 73.6906C375.926 73.8455 376.112 74.0603 376.27 74.314C376.587 74.822 376.813 75.5194 376.813 76.3083H376.103C376.103 75.656 375.915 75.0923 375.67 74.6996C375.548 74.5029 375.416 74.3575 375.296 74.2647Z" fill="#C99281"/>
<path fill-rule="evenodd" clip-rule="evenodd" d="M347.398 72.3474L346.593 72.2532L347.07 72.9176C348.026 74.249 348.832 75.4432 349.547 76.5132L349.549 76.5149C349.569 76.545 349.589 76.5756 349.61 76.6067C349.985 77.1751 350.367 77.967 350.814 78.8948C350.871 79.014 350.93 79.1355 350.99 79.259C351.508 80.3307 352.107 81.5338 352.852 82.6797C354.343 84.9724 356.449 87.0822 359.737 87.4748C365.719 88.1893 368.451 83.4787 369.673 81.3712C369.796 81.1594 369.904 80.9738 369.998 80.8227C370.213 80.5855 370.431 80.3405 370.656 80.0882C371.758 78.8497 373.015 77.4377 374.84 75.923C374.86 75.9127 374.883 75.8986 374.907 75.8795C374.96 75.8359 375.046 75.7368 375.042 75.5833C375.038 75.4477 374.964 75.3628 374.935 75.3329L374.8 75.1958L374.612 75.2347L374.523 75.2533C374.452 75.2483 374.314 75.2222 374.085 75.1616C373.836 75.0961 373.521 75.0019 373.141 74.8878L373.117 74.8807C372.363 74.6546 371.377 74.3588 370.232 74.0847C367.939 73.5359 364.991 73.0692 361.945 73.4192C359.253 72.5223 356.575 72.3696 354.101 72.3818C353.333 72.3856 352.59 72.4048 351.873 72.4233C350.236 72.4657 348.738 72.5045 347.398 72.3474ZM350.418 76.5328L350.199 76.2046C350.177 76.1719 350.156 76.1396 350.134 76.1077C349.6 75.3088 349.013 74.4374 348.35 73.4901C353.294 75.3522 363.506 77.8692 373.44 76.1885C372.063 77.4317 371.027 78.5956 370.121 79.6138C369.892 79.8715 369.671 80.12 369.454 80.358C368.326 81.6007 367.339 82.5493 365.983 83.1424C364.628 83.735 362.865 83.9885 360.164 83.7502C357.444 83.5102 355.804 82.8585 354.431 81.6835C353.093 80.5394 351.991 78.8878 350.418 76.5328Z" fill="#C99281"/>
<g clip-path="url(#clip11_13_9797)">
<g clip-path="url(#clip12_13_9797)">
<rect x="331.741" y="107.293" width="54.6539" height="81.4258" fill="white"/>
<path d="M354.277 116.443L349.486 107.293H369.538L364.037 116.443L367.409 167.685L360.311 184.155L352.503 166.221L354.277 116.443Z" fill="#30333A"/>
<path d="M365.029 113.93C365.029 117.327 362.319 120.067 358.992 120.067C355.665 120.067 352.954 117.327 352.954 113.93C352.954 110.534 355.665 107.793 358.992 107.793C362.319 107.793 365.029 110.534 365.029 113.93Z" fill="#D6DBE0" stroke="#AAB3BC"/>
<path d="M365.673 114.787C365.703 114.525 365.719 114.258 365.719 113.988C365.719 113.406 365.647 112.84 365.512 112.301C364.245 111.888 361.858 111.354 359.176 111.481C356.179 111.622 353.44 113.001 352.268 113.784C352.266 113.851 352.265 113.919 352.265 113.988C352.265 114.697 352.371 115.381 352.569 116.024C353.868 115.227 356.412 114.043 359.176 113.913C361.976 113.781 364.455 114.369 365.673 114.787Z" fill="#AAB3BC"/>
<path fill-rule="evenodd" clip-rule="evenodd" d="M362.64 114.086C363.932 114.27 364.997 114.555 365.673 114.787C365.703 114.525 365.719 114.258 365.719 113.987C365.719 113.405 365.647 112.84 365.512 112.301C364.824 112.077 363.805 111.816 362.588 111.646C362.681 112.256 362.752 113.127 362.64 114.086ZM355.376 112.267C354.015 112.751 352.908 113.356 352.268 113.784C352.266 113.851 352.265 113.919 352.265 113.987C352.265 114.697 352.371 115.38 352.569 116.024C353.271 115.592 354.338 115.048 355.607 114.619C355.385 113.652 355.366 112.747 355.376 112.267Z" fill="#7B7B7B"/>
<path d="M357.097 123.453L356.055 119.894C357.798 120.432 360.318 120.567 361.929 119.798L360.981 123.453C359.845 124.222 357.665 124.03 357.097 123.453Z" fill="#D6DBE0" stroke="#AAB3BC"/>
<path d="M357.382 139.853L356.182 121.695H361.733L360.533 139.853H357.382Z" fill="#D6DBE0" stroke="#AAB3BC"/>
<path d="M362.047 126.682C362.047 126.682 359.327 128.365 356.22 126.811L356.2 126.682L346.781 127.07L345.228 123.315L355.394 121.502L355.313 120.984C358.628 121.813 361.788 121.33 362.953 120.984L362.871 121.502L372.909 123.315L371.873 127.07L362.088 126.423L362.047 126.682Z" fill="#D6DBE0"/>
<path d="M355.394 121.502L355.313 120.984C358.628 121.813 361.788 121.33 362.953 120.984L362.871 121.502M355.394 121.502L345.228 123.315L346.781 127.07L356.2 126.682M355.394 121.502L356.2 126.682M356.2 126.682L356.22 126.811C359.327 128.365 362.047 126.682 362.047 126.682L362.088 126.423M362.871 121.502L372.909 123.315L371.873 127.07L362.088 126.423M362.871 121.502L362.088 126.423" stroke="#AAB3BC"/>
<path d="M331.742 107.293C324.685 107.293 318.965 113.1 318.965 120.264V186.557C318.965 193.721 324.685 199.528 331.742 199.528H387.105C394.161 199.528 399.881 193.721 399.881 186.557V120.264C399.881 113.1 394.161 107.293 387.105 107.293H373.974L360.488 184.77L345.228 107.293H331.742Z" fill="#59A6EA"/>
<path d="M382.468 135.685L377.851 149.582L390.659 147.479L387.125 137.84L382.468 135.685Z" fill="white"/>
<path d="M375.749 149.927L392.915 147.109" stroke="#1C4D69"/>
<path d="M376.428 154.195L393.595 151.377" stroke="#1C4D69"/>
</g>
</g>
</g>
<g filter="url(#filter6_d_13_9797)">
<path d="M296.688 111.241V125H318.688V110.775C314.449 113.716 310.044 115.463 307.344 115.463C304.789 115.463 300.709 113.899 296.688 111.241Z" fill="#9E5D56"/>
<path d="M296.688 106.472C300.709 109.13 304.789 110.694 307.344 110.694C310.044 110.694 314.449 108.947 318.688 106.007V110.775C314.449 113.716 310.044 115.463 307.344 115.463C304.789 115.463 300.709 113.899 296.688 111.241V106.472Z" fill="#65353A"/>
<path d="M307.344 39.1626C294.624 39.1626 284.312 49.3803 284.312 61.9845V70.5001C280.516 70.5001 277.438 73.5502 277.438 77.3126C277.438 81.075 280.516 84.1251 284.312 84.1251V87.872C284.312 100.476 300.812 110.694 307.344 110.694C313.875 110.694 330.375 100.476 330.375 87.872V84.1251C334.172 84.1251 337.25 81.075 337.25 77.3126C337.25 73.5502 334.172 70.5001 330.375 70.5001V61.9845C330.375 49.3803 320.064 39.1626 307.344 39.1626Z" fill="#9E5D56"/>
<path d="M304.938 86.1691C304.938 88.0502 306.477 89.575 308.375 89.575C310.273 89.575 311.812 88.05 311.812 86.1688V76.6313C311.812 75.8643 311.557 75.1565 311.125 74.5872C311.125 74.5871 311.125 74.5873 311.125 74.5872V84.125C311.125 86.0062 309.586 87.5313 307.687 87.5313C306.563 87.5313 305.565 86.9963 304.938 86.1691Z" fill="#65353A"/>
<ellipse cx="296.344" cy="76.972" rx="2.40625" ry="2.38437" fill="#30333A"/>
<ellipse cx="319.031" cy="76.972" rx="2.40625" ry="2.38437" fill="#30333A"/>
<path d="M294.701 33.3333C292.752 33.7457 289.706 34.39 285.901 38.4738C282.814 41.7862 280.493 52.5893 279.733 59.9334C277.447 61.8852 275.431 65.2823 276.029 69.4512C273.371 69.4512 269.658 71.2508 269.658 80.5487C267.456 81.1485 263.189 84.2678 263.735 91.946C264.574 103.73 280.459 106.332 290.616 106.943C292.627 107.063 294.652 107.163 296.688 107.24V105.953C290.429 101.82 284.36 95.1035 284.36 87.4375L284.313 84.0555C280.516 84.0555 277.438 81.0085 277.438 77.2499C277.438 73.4913 280.516 70.4444 284.313 70.4444C284.313 67.1524 284.175 67.9493 284.313 64.6596C285.998 64.057 289.795 63.4989 291.531 61.9374C295.431 58.4296 297.849 53.6069 298.063 51.3531L297.93 50.1739C299.74 52.9477 301.653 56.5162 305.625 58.5346C313.463 62.5173 324.795 62.4487 330.031 63.9791C330.362 67.6172 330.375 66.797 330.375 70.4444C334.172 70.4444 337.202 73.4188 337.202 77.1774C337.202 80.936 334.172 84.0555 330.375 84.0555V87.3719C330.375 94.7568 324.699 101.322 318.688 105.488V107.239C320.716 107.162 322.735 107.063 324.739 106.943C334.896 106.332 350.781 103.73 351.62 91.946C352.167 84.2678 349.274 81.1485 347.072 80.5487C347.072 71.2508 341.984 69.4512 339.327 69.4512C339.902 65.4364 338.054 62.1375 335.875 60.1558C335.839 47.4446 331.475 40.0126 326.303 36.8296C318.534 32.0488 303.675 31.435 294.701 33.3333Z" fill="#4C150E"/>
<path d="M299.438 93.5833C301.765 96.3041 308.994 93.5833 317.079 93.5833C308.258 103.378 308.626 105.011 299.438 93.5833Z" fill="#ACACAC" stroke="#ACACAC"/>
<path d="M267.812 137.433C267.812 130.505 273.353 124.889 280.187 124.889H333.812C340.647 124.889 346.187 130.505 346.187 137.433V199.456C346.187 206.384 340.647 212 333.812 212H280.187C273.353 212 267.812 206.384 267.812 199.456V137.433Z" fill="#F3F6F8"/>
<path d="M307.683 139.524C315.656 139.524 322.12 132.971 322.12 124.889H293.245C293.245 132.971 299.709 139.524 307.683 139.524Z" fill="#9E5D56"/>
</g>
</g>
<defs>
<filter id="filter0_d_13_9797" x="19" y="-8" width="99.8096" height="213.615" filterUnits="userSpaceOnUse" color-interpolation-filters="sRGB">
<feFlood flood-opacity="0" result="BackgroundImageFix"/>
<feColorMatrix in="SourceAlpha" type="matrix" values="0 0 0 0 0 0 0 0 0 0 0 0 0 0 0 0 0 0 127 0" result="hardAlpha"/>
<feOffset dy="4"/>
<feGaussianBlur stdDeviation="2"/>
<feComposite in2="hardAlpha" operator="out"/>
<feColorMatrix type="matrix" values="0 0 0 0 0 0 0 0 0 0 0 0 0 0 0 0 0 0 0.25 0"/>
<feBlend mode="normal" in2="BackgroundImageFix" result="effect1_dropShadow_13_9797"/>
<feBlend mode="normal" in="SourceGraphic" in2="effect1_dropShadow_13_9797" result="shape"/>
</filter>
<filter id="filter1_d_13_9797" x="121.463" y="-16" width="98.8533" height="213.615" filterUnits="userSpaceOnUse" color-interpolation-filters="sRGB">
<feFlood flood-opacity="0" result="BackgroundImageFix"/>
<feColorMatrix in="SourceAlpha" type="matrix" values="0 0 0 0 0 0 0 0 0 0 0 0 0 0 0 0 0 0 127 0" result="hardAlpha"/>
<feOffset dy="4"/>
<feGaussianBlur stdDeviation="2"/>
<feComposite in2="hardAlpha" operator="out"/>
<feColorMatrix type="matrix" values="0 0 0 0 0 0 0 0 0 0 0 0 0 0 0 0 0 0 0.25 0"/>
<feBlend mode="normal" in2="BackgroundImageFix" result="effect1_dropShadow_13_9797"/>
<feBlend mode="normal" in="SourceGraphic" in2="effect1_dropShadow_13_9797" result="shape"/>
</filter>
<filter id="filter2_d_13_9797" x="207.273" y="-16" width="99.8096" height="213.615" filterUnits="userSpaceOnUse" color-interpolation-filters="sRGB">
<feFlood flood-opacity="0" result="BackgroundImageFix"/>
<feColorMatrix in="SourceAlpha" type="matrix" values="0 0 0 0 0 0 0 0 0 0 0 0 0 0 0 0 0 0 127 0" result="hardAlpha"/>
<feOffset dy="4"/>
<feGaussianBlur stdDeviation="2"/>
<feComposite in2="hardAlpha" operator="out"/>
<feColorMatrix type="matrix" values="0 0 0 0 0 0 0 0 0 0 0 0 0 0 0 0 0 0 0.25 0"/>
<feBlend mode="normal" in2="BackgroundImageFix" result="effect1_dropShadow_13_9797"/>
<feBlend mode="normal" in="SourceGraphic" in2="effect1_dropShadow_13_9797" result="shape"/>
</filter>
<filter id="filter3_d_13_9797" x="157.064" y="19.385" width="99.8096" height="213.615" filterUnits="userSpaceOnUse" color-interpolation-filters="sRGB">
<feFlood flood-opacity="0" result="BackgroundImageFix"/>
<feColorMatrix in="SourceAlpha" type="matrix" values="0 0 0 0 0 0 0 0 0 0 0 0 0 0 0 0 0 0 127 0" result="hardAlpha"/>
<feOffset dy="4"/>
<feGaussianBlur stdDeviation="2"/>
<feComposite in2="hardAlpha" operator="out"/>
<feColorMatrix type="matrix" values="0 0 0 0 0 0 0 0 0 0 0 0 0 0 0 0 0 0 0.25 0"/>
<feBlend mode="normal" in2="BackgroundImageFix" result="effect1_dropShadow_13_9797"/>
<feBlend mode="normal" in="SourceGraphic" in2="effect1_dropShadow_13_9797" result="shape"/>
</filter>
<filter id="filter4_d_13_9797" x="64.905" y="17.4724" width="98.8533" height="215.528" filterUnits="userSpaceOnUse" color-interpolation-filters="sRGB">
<feFlood flood-opacity="0" result="BackgroundImageFix"/>
<feColorMatrix in="SourceAlpha" type="matrix" values="0 0 0 0 0 0 0 0 0 0 0 0 0 0 0 0 0 0 127 0" result="hardAlpha"/>
<feOffset dy="4"/>
<feGaussianBlur stdDeviation="2"/>
<feComposite in2="hardAlpha" operator="out"/>
<feColorMatrix type="matrix" values="0 0 0 0 0 0 0 0 0 0 0 0 0 0 0 0 0 0 0.25 0"/>
<feBlend mode="normal" in2="BackgroundImageFix" result="effect1_dropShadow_13_9797"/>
<feBlend mode="normal" in="SourceGraphic" in2="effect1_dropShadow_13_9797" result="shape"/>
</filter>
<filter id="filter5_d_13_9797" x="309.997" y="-8" width="98.8533" height="215.528" filterUnits="userSpaceOnUse" color-interpolation-filters="sRGB">
<feFlood flood-opacity="0" result="BackgroundImageFix"/>
<feColorMatrix in="SourceAlpha" type="matrix" values="0 0 0 0 0 0 0 0 0 0 0 0 0 0 0 0 0 0 127 0" result="hardAlpha"/>
<feOffset dy="4"/>
<feGaussianBlur stdDeviation="2"/>
<feComposite in2="hardAlpha" operator="out"/>
<feColorMatrix type="matrix" values="0 0 0 0 0 0 0 0 0 0 0 0 0 0 0 0 0 0 0.25 0"/>
<feBlend mode="normal" in2="BackgroundImageFix" result="effect1_dropShadow_13_9797"/>
<feBlend mode="normal" in="SourceGraphic" in2="effect1_dropShadow_13_9797" result="shape"/>
</filter>
<filter id="filter6_d_13_9797" x="259" y="16" width="96.6875" height="204" filterUnits="userSpaceOnUse" color-interpolation-filters="sRGB">
<feFlood flood-opacity="0" result="BackgroundImageFix"/>
<feColorMatrix in="SourceAlpha" type="matrix" values="0 0 0 0 0 0 0 0 0 0 0 0 0 0 0 0 0 0 127 0" result="hardAlpha"/>
<feOffset dy="4"/>
<feGaussianBlur stdDeviation="2"/>
<feComposite in2="hardAlpha" operator="out"/>
<feColorMatrix type="matrix" values="0 0 0 0 0 0 0 0 0 0 0 0 0 0 0 0 0 0 0.25 0"/>
<feBlend mode="normal" in2="BackgroundImageFix" result="effect1_dropShadow_13_9797"/>
<feBlend mode="normal" in="SourceGraphic" in2="effect1_dropShadow_13_9797" result="shape"/>
</filter>
<clipPath id="clip0_13_9797">
<rect width="429" height="163" fill="white"/>
</clipPath>
<clipPath id="clip1_13_9797">
<rect width="91.8095" height="91.3845" fill="white" transform="translate(23 106.231)"/>
</clipPath>
<clipPath id="clip2_13_9797">
<rect width="81.7679" height="91.3845" fill="white" transform="translate(28.0208 106.231)"/>
</clipPath>
<clipPath id="clip3_13_9797">
<rect width="90.8532" height="91.3845" fill="white" transform="translate(125.463 98.2307)"/>
</clipPath>
<clipPath id="clip4_13_9797">
<rect width="80.9161" height="91.3845" fill="white" transform="translate(130.431 98.2307)"/>
</clipPath>
<clipPath id="clip5_13_9797">
<rect width="91.8095" height="91.3845" fill="white" transform="translate(211.273 98.2307)"/>
</clipPath>
<clipPath id="clip6_13_9797">
<rect width="81.7679" height="91.3845" fill="white" transform="translate(216.294 98.2307)"/>
</clipPath>
<clipPath id="clip7_13_9797">
<rect width="91.8095" height="91.3845" fill="white" transform="translate(161.064 133.616)"/>
</clipPath>
<clipPath id="clip8_13_9797">
<rect width="81.7679" height="91.3845" fill="white" transform="translate(166.084 133.616)"/>
</clipPath>
<clipPath id="clip9_13_9797">
<rect width="90.8532" height="92.2346" fill="white" transform="translate(68.905 132.766)"/>
</clipPath>
<clipPath id="clip10_13_9797">
<rect width="80.9161" height="92.2346" fill="white" transform="translate(73.8735 132.766)"/>
</clipPath>
<clipPath id="clip11_13_9797">
<rect width="90.8532" height="92.2346" fill="white" transform="translate(313.997 107.293)"/>
</clipPath>
<clipPath id="clip12_13_9797">
<rect width="80.9161" height="92.2346" fill="white" transform="translate(318.965 107.293)"/>
</clipPath>
</defs>
</svg>
