<svg width="429" height="163" viewBox="0 0 429 163" fill="none" xmlns="http://www.w3.org/2000/svg">
<g clip-path="url(#clip0_13_9791)">
<path d="M30.7816 9.84036C32.0519 4.0928 37.1559 0 43.0533 0H385.947C391.844 0 396.948 4.0928 398.218 9.84036L428.7 147.757C429.92 153.277 427.31 158.594 422.847 161.247L391.803 163H31.2367L6.83 161.622C1.95858 159.12 -0.980645 153.551 0.30003 147.757L30.7816 9.84036Z" fill="#F3F6F8"/>
<g filter="url(#filter0_d_13_9791)">
<rect x="58.146" y="89.0962" width="22.9524" height="17.1346" fill="#E2A56B"/>
<path d="M80.8086 98.9313C77.4277 100.583 73.625 101.51 69.6046 101.51H68.4857C64.7456 101.51 61.1937 100.708 57.9946 99.266V92.9431H80.8086V98.9313Z" fill="#9D6445"/>
<path fill-rule="evenodd" clip-rule="evenodd" d="M43.0229 35.4344C43.0229 21.0627 54.6735 9.41211 69.0452 9.41211C83.4168 9.41211 95.0674 21.0627 95.0674 35.4343V52.2486C99.0048 52.2486 102.197 55.445 102.197 59.388C102.197 63.331 99.0048 66.5274 95.0674 66.5274V71.2046C95.0674 85.5763 83.4168 97.2269 69.0452 97.2269C54.6735 97.2269 43.0229 85.5763 43.0229 71.2047L43.0229 66.5274C39.0855 66.5274 35.8936 63.331 35.8936 59.388C35.8936 55.445 39.0855 52.2486 43.0229 52.2486L43.0229 35.4344Z" fill="#E2A56B"/>
<ellipse cx="57.6381" cy="54.0335" rx="2.49528" ry="2.4988" fill="#071F2D"/>
<ellipse cx="81.165" cy="54.0335" rx="2.49528" ry="2.4988" fill="#071F2D"/>
<path d="M51.526 47.1524C50.5662 48.5468 50.8595 51.6068 51.1261 52.9625C51.6593 52.1233 53.2057 50.0962 55.1255 48.7018C57.0452 47.3074 62.591 50.0575 65.124 51.6068V47.7334C63.5909 47.217 59.9248 46.0292 57.5251 45.4094C54.5255 44.6347 52.7258 45.4094 51.526 47.1524Z" fill="#9D6445"/>
<path d="M90.9 38.4775C90.3764 36.5548 91.8455 34.1805 92.6455 33.2337L98.1001 30.8303C97.4455 33.3794 96.1364 39.6136 96.1364 44.1583C96.1364 49.839 98.1001 54.4273 96.1364 55.5198C95.7873 54.2962 93.6637 54.2816 92.6455 54.4273C92.9364 52.6794 93.5618 48.7466 93.7364 46.9986C93.9546 44.8137 91.5546 40.8809 90.9 38.4775Z" fill="#F99723"/>
<path d="M36.969 32.7098C36.6199 25.8929 41.769 24.3344 44.3872 24.4072L61.4056 33.3653C58.2783 33.511 51.5874 34.4141 49.8419 36.8612C48.0964 39.3082 48.5328 42.8332 48.9691 44.2898C48.3146 44.7996 46.7 46.5184 45.4782 49.3151C44.2564 52.1118 44.9691 56.8895 45.4782 58.9287H42.4236C42.4236 58.4917 42.2491 57.2245 41.5509 55.6513C40.8527 54.0782 35.5872 54.2676 33.0417 54.5589C34.6418 53.1751 37.8854 49.4899 38.06 45.8193C38.2782 41.231 37.4054 41.231 36.969 32.7098Z" fill="#CA5D22"/>
<path d="M36.969 31.996C36.6199 25.1791 41.769 23.6205 44.3872 23.6933L61.4056 32.6514C58.2783 32.7971 51.5874 33.7002 49.8419 36.1473C48.0964 38.5944 48.5328 42.1194 48.9691 43.576C48.3146 44.0858 46.7 45.8046 45.4782 48.6012C44.2564 51.3979 44.9691 56.1756 45.4782 58.2148H42.4236C42.4236 57.7779 42.2491 56.5106 41.5509 54.9375C40.8527 53.3643 35.5872 53.5537 33.0417 53.845C34.6418 52.4613 37.8854 48.776 38.06 45.1054C38.2782 40.5171 37.4054 40.5171 36.969 31.996Z" fill="#F99723"/>
<path d="M34.4585 24.5355C32.0424 19.5113 36.733 19.5784 39.3803 20.2399C38.7274 17.7289 37.0671 12.5698 35.6498 12.0213C39.4496 9.95915 43.9605 11.4669 45.7411 12.4786C45.765 10.6832 45.5804 6.60931 44.6511 4.67694C48.3396 3.35203 51.2661 6.20853 54.6372 9.29755C66.0536 2.13164 71.8798 6.86642 73.4325 7.55801C74.6746 8.11128 90.1126 11.2607 97.6764 12.7662C100.85 13.9844 107.061 17.8439 106.516 23.5367C105.835 30.6527 92.6332 36.6439 79.7158 36.9985C66.7985 37.353 37.4788 30.8157 34.4585 24.5355Z" fill="#CA5D22"/>
<path d="M34.3609 22.8418C32.083 17.7532 36.7701 17.9489 39.3983 18.6829C38.8143 16.1549 37.2958 10.9522 35.894 10.365C39.7488 8.40787 44.2168 10.0388 45.969 11.0989C46.042 9.30489 45.969 5.2275 45.0929 3.27035C48.8163 2.04714 51.6635 4.98286 54.9489 8.16322C66.557 1.31322 72.2515 6.20608 73.7846 6.94001C75.0112 7.52715 90.3572 11.0989 97.8769 12.8114C101.016 14.1162 107.12 18.1447 106.419 23.8204C105.543 30.915 92.1824 36.5418 79.2602 36.5418C66.3379 36.5418 37.2081 29.2025 34.3609 22.8418Z" fill="#F9B023"/>
<path d="M50.8131 46.4386C49.8533 47.833 50.1466 50.8929 50.4132 52.2486C50.9464 51.4094 52.4928 49.3823 54.4126 47.9879C56.3323 46.5935 61.8781 49.3436 64.4111 50.8929V47.0196C62.878 46.5031 59.2119 45.3153 56.8122 44.6955C53.8126 43.9209 52.013 44.6955 50.8131 46.4386Z" fill="#F9B023"/>
<path d="M87.2772 47.1524C88.2371 48.5468 87.9438 51.6068 87.6771 52.9625C87.1439 52.1233 85.5975 50.0962 83.6778 48.7018C81.7581 47.3074 76.2122 50.0575 73.6792 51.6068V47.7334C75.2123 47.217 78.8785 46.0292 81.2781 45.4094C84.2777 44.6347 86.0774 45.4094 87.2772 47.1524Z" fill="#9D6445"/>
<path d="M87.9901 46.4386C88.95 47.833 88.6567 50.8929 88.39 52.2486C87.8568 51.4094 86.3104 49.3823 84.3907 47.9879C82.4709 46.5935 76.9251 49.3436 74.3921 50.8929V47.0196C75.9252 46.5031 79.5914 45.3153 81.991 44.6955C84.9906 43.9209 86.7903 44.6955 87.9901 46.4386Z" fill="#F9B023"/>
<path d="M66.5499 63.6806V63.6932C66.5499 65.6528 68.1458 67.2413 70.1145 67.2413C72.0833 67.2413 73.6792 65.6528 73.6792 63.6932V53.6549C73.6792 52.856 73.4139 52.1187 72.9663 51.5256V61.5513C72.9663 63.5109 71.3703 65.0995 69.4016 65.0995C68.2355 65.0995 67.2002 64.5422 66.5499 63.6806Z" fill="#9D6445"/>
<path fill-rule="evenodd" clip-rule="evenodd" d="M57.421 59.7357C55.3582 59.8122 53.3786 59.4028 52.1763 58.9984L52.4059 58.322C53.539 58.7031 55.4314 59.095 57.3943 59.0222C59.3603 58.9493 61.3433 58.4133 62.7282 56.9972L63.2421 57.4952C61.677 59.0956 59.4807 59.6593 57.421 59.7357Z" fill="#9D6445"/>
<path fill-rule="evenodd" clip-rule="evenodd" d="M81.5452 60.1192C83.5707 60.2369 85.5073 59.6076 86.6799 58.9895L86.3443 58.3586C85.2593 58.9304 83.4529 59.5149 81.587 59.4065C79.7393 59.2991 77.8344 58.5153 76.4791 56.3439L75.8699 56.7206C77.3664 59.1184 79.5015 60.0004 81.5452 60.1192Z" fill="#9D6445"/>
<path fill-rule="evenodd" clip-rule="evenodd" d="M60.4913 72.5457C61.0761 68.4459 63.8862 64.5262 65.2153 63.0743L65.7455 63.5551C64.4605 64.9589 61.7572 68.7497 61.2014 72.6461L60.4913 72.5457ZM78.6712 73.0031C78.1153 69.1067 75.4121 65.3159 74.1271 63.9121L74.6572 63.4312C75.9863 64.8832 78.7965 68.8029 79.3813 72.9027L78.6712 73.0031ZM78.1713 79.3492C70.3244 75.9815 63.4701 78.6551 61.0556 80.3822L60.6371 79.8024C63.2132 77.9597 70.3324 75.2074 78.4553 78.6936L78.1713 79.3492Z" fill="#9D6445"/>
<path fill-rule="evenodd" clip-rule="evenodd" d="M57.4476 59.0212C55.2849 59.1014 53.2182 58.6746 51.9465 58.2468L52.6354 56.2177C53.6992 56.5756 55.5045 56.95 57.3675 56.8809C59.2398 56.8115 61.0094 56.3031 62.2141 55.0713L63.756 56.5653C62.0105 58.35 59.6009 58.9414 57.4476 59.0212Z" fill="#F6C09D"/>
<path fill-rule="evenodd" clip-rule="evenodd" d="M81.8599 59.4041C84.045 59.5311 86.1117 58.8569 87.3721 58.1927L86.3651 56.2998C85.3678 56.8255 83.6917 57.3651 81.9853 57.2659C80.3336 57.17 78.6589 56.4844 77.4449 54.5393L75.6171 55.6695C77.2549 58.2937 79.6202 59.274 81.8599 59.4041Z" fill="#F6C09D"/>
<g clip-path="url(#clip1_13_9791)">
<path d="M28.0208 124.231C28.0208 114.29 36.0796 106.231 46.0208 106.231H91.7886C101.73 106.231 109.789 114.29 109.789 124.231V179.615C109.789 189.556 101.73 197.615 91.7886 197.615H46.0208C36.0796 197.615 28.0208 189.556 28.0208 179.615V124.231Z" fill="#FD86B1"/>
<path d="M28.0208 119.39C28.0208 112.122 33.8011 106.231 40.9315 106.231H96.8779C104.008 106.231 109.789 112.122 109.789 119.39V184.456C109.789 191.724 104.008 197.615 96.8779 197.615H40.9315C33.8011 197.615 28.0208 191.724 28.0208 184.456V119.39Z" fill="#FD86B1"/>
<path d="M68.9048 174.221L52.7664 106.231H83.25L68.9048 174.221Z" fill="#E3E3E3"/>
<path d="M66.0356 113.541L63.8838 106.231H73.2082L71.0564 113.541H66.0356Z" fill="#2C51BF"/>
<path d="M62.4492 147.171L68.9046 174.221L74.6427 147.171L71.0564 113.542H66.0355L62.4492 147.171Z" fill="#2C51BF"/>
</g>
</g>
<g filter="url(#filter1_d_13_9791)">
<rect x="160.242" y="81.0962" width="22.7133" height="17.1346" fill="#E2A56B"/>
<path d="M182.669 90.9313C179.323 92.583 175.56 93.5104 171.582 93.5104H170.474C166.773 93.5104 163.258 92.7077 160.093 91.266V84.9431H182.669V90.9313Z" fill="#9D6445"/>
<path fill-rule="evenodd" clip-rule="evenodd" d="M145.277 27.1633C145.277 12.9413 156.806 1.41211 171.028 1.41211C185.25 1.41211 196.779 12.9413 196.779 27.1633V44.2486C200.676 44.2486 203.834 47.445 203.834 51.388C203.834 55.331 200.676 58.5274 196.779 58.5274V63.4757C196.779 77.6977 185.25 89.2269 171.028 89.2269C156.806 89.2269 145.277 77.6977 145.277 63.4757L145.277 58.5274C141.38 58.5274 138.222 55.331 138.222 51.388C138.222 47.445 141.38 44.2486 145.277 44.2486L145.277 27.1633Z" fill="#E2A56B"/>
<ellipse cx="159.74" cy="46.0335" rx="2.46929" ry="2.4988" fill="#071F2D"/>
<ellipse cx="183.022" cy="46.0335" rx="2.46929" ry="2.4988" fill="#071F2D"/>
<path d="M153.691 39.1524C152.741 40.5468 153.032 43.6068 153.295 44.9625C153.823 44.1233 155.353 42.0962 157.253 40.7018C159.153 39.3074 164.641 42.0575 167.148 43.6068V39.7334C165.63 39.217 162.003 38.0292 159.628 37.4094C156.66 36.6347 154.879 37.4094 153.691 39.1524Z" fill="#9D6445"/>
<path d="M192.655 30.4775C192.137 28.5548 193.591 26.1805 194.382 25.2337L199.78 22.8303C199.133 25.3794 197.837 31.6136 197.837 36.1583C197.837 41.839 199.78 46.4273 197.837 47.5198C197.492 46.2962 195.39 46.2816 194.382 46.4273C194.67 44.6794 195.289 40.7466 195.462 38.9986C195.678 36.8137 193.303 32.8809 192.655 30.4775Z" fill="#F99723"/>
<path d="M139.286 24.7098C138.941 17.8929 144.036 16.3344 146.627 16.4072L163.468 25.3653C160.373 25.511 153.752 26.4141 152.025 28.8612C150.298 31.3082 150.729 34.8332 151.161 36.2898C150.513 36.7996 148.916 38.5184 147.707 41.3151C146.497 44.1118 147.203 48.8895 147.707 50.9287H144.684C144.684 50.4917 144.511 49.2245 143.82 47.6513C143.129 46.0782 137.919 46.2676 135.4 46.5589C136.983 45.1751 140.193 41.4899 140.366 37.8193C140.582 33.231 139.718 33.231 139.286 24.7098Z" fill="#CA5D22"/>
<path d="M139.286 23.996C138.941 17.1791 144.036 15.6205 146.627 15.6933L163.468 24.6514C160.373 24.7971 153.752 25.7002 152.025 28.1473C150.298 30.5944 150.729 34.1194 151.161 35.576C150.513 36.0858 148.916 37.8046 147.707 40.6012C146.497 43.3979 147.203 48.1756 147.707 50.2148H144.684C144.684 49.7779 144.511 48.5106 143.82 46.9375C143.129 45.3643 137.919 45.5537 135.4 45.845C136.983 44.4613 140.193 40.776 140.366 37.1054C140.582 32.5171 139.718 32.5171 139.286 23.996Z" fill="#F99723"/>
<path d="M136.802 16.5355C134.411 11.5113 139.053 11.5784 141.672 12.2399C141.026 9.7289 139.383 4.56978 137.981 4.02132C141.741 1.95915 146.205 3.4669 147.967 4.47855C147.99 2.68317 147.808 -1.39069 146.888 -3.32306C150.538 -4.64797 153.434 -1.79147 156.77 1.29755C168.068 -5.86836 173.833 -1.13358 175.37 -0.441991C176.599 0.11128 191.876 3.26068 199.361 4.76623C202.502 5.98437 208.648 9.84386 208.109 15.5367C207.434 22.6527 194.37 28.6439 181.588 28.9985C168.805 29.353 139.791 22.8157 136.802 16.5355Z" fill="#CA5D22"/>
<path d="M136.705 14.8418C134.451 9.75322 139.089 9.94893 141.69 10.6829C141.112 8.15489 139.609 2.95216 138.222 2.36501C142.037 0.407874 146.458 2.03883 148.192 3.09894C148.265 1.30489 148.192 -2.7725 147.325 -4.72965C151.01 -5.95286 153.828 -3.01714 157.079 0.163221C168.566 -6.68678 174.201 -1.79392 175.718 -1.05999C176.932 -0.47285 192.118 3.09894 199.56 4.81144C202.666 6.1162 208.706 10.1447 208.012 15.8204C207.145 22.915 193.924 28.5418 181.137 28.5418C168.349 28.5418 139.523 21.2025 136.705 14.8418Z" fill="#F9B023"/>
<path d="M152.986 38.4386C152.036 39.833 152.326 42.8929 152.59 44.2486C153.118 43.4094 154.648 41.3823 156.548 39.9879C158.448 38.5935 163.936 41.3436 166.442 42.8929V39.0196C164.925 38.5031 161.297 37.3153 158.923 36.6955C155.954 35.9209 154.173 36.6955 152.986 38.4386Z" fill="#F9B023"/>
<path d="M189.07 39.1524C190.02 40.5468 189.73 43.6068 189.466 44.9625C188.938 44.1233 187.408 42.0962 185.508 40.7018C183.609 39.3074 178.12 42.0575 175.614 43.6068V39.7334C177.131 39.217 180.759 38.0292 183.134 37.4094C186.102 36.6347 187.883 37.4094 189.07 39.1524Z" fill="#9D6445"/>
<path d="M189.776 38.4386C190.725 39.833 190.435 42.8929 190.171 44.2486C189.644 43.4094 188.113 41.3823 186.214 39.9879C184.314 38.5935 178.826 41.3436 176.319 42.8929V39.0196C177.836 38.5031 181.464 37.3153 183.839 36.6955C186.807 35.9209 188.588 36.6955 189.776 38.4386Z" fill="#F9B023"/>
<path d="M168.559 55.6806V55.6932C168.559 57.6528 170.138 59.2413 172.086 59.2413C174.035 59.2413 175.614 57.6528 175.614 55.6932V45.6549C175.614 44.856 175.351 44.1187 174.908 43.5256V53.5513C174.908 55.5109 173.329 57.0995 171.381 57.0995C170.227 57.0995 169.202 56.5422 168.559 55.6806Z" fill="#9D6445"/>
<path fill-rule="evenodd" clip-rule="evenodd" d="M159.525 51.7357C157.484 51.8122 155.525 51.4028 154.335 50.9984L154.562 50.322C155.683 50.7031 157.556 51.095 159.499 51.0222C161.444 50.9493 163.406 50.4133 164.777 48.9972L165.286 49.4952C163.737 51.0956 161.563 51.6593 159.525 51.7357Z" fill="#9D6445"/>
<path fill-rule="evenodd" clip-rule="evenodd" d="M183.398 52.1192C185.402 52.2369 187.319 51.6076 188.479 50.9895L188.147 50.3586C187.073 50.9304 185.286 51.5149 183.439 51.4065C181.611 51.2991 179.726 50.5153 178.385 48.3439L177.782 48.7206C179.263 51.1184 181.376 52.0004 183.398 52.1192Z" fill="#9D6445"/>
<path fill-rule="evenodd" clip-rule="evenodd" d="M162.563 64.5457C163.142 60.4459 165.923 56.5262 167.238 55.0743L167.763 55.5551C166.491 56.9589 163.816 60.7497 163.266 64.6461L162.563 64.5457ZM180.554 65.0031C180.004 61.1067 177.329 57.3159 176.057 55.9121L176.582 55.4312C177.897 56.8832 180.678 60.8029 181.257 64.9027L180.554 65.0031ZM180.059 71.3492C172.294 67.9815 165.511 70.6551 163.122 72.3822L162.708 71.8024C165.257 69.9597 172.302 67.2074 180.34 70.6936L180.059 71.3492Z" fill="#9D6445"/>
<path fill-rule="evenodd" clip-rule="evenodd" d="M159.551 51.0212C157.411 51.1014 155.366 50.6746 154.108 50.2468L154.789 48.2177C155.842 48.5756 157.629 48.95 159.472 48.8809C161.325 48.8115 163.076 48.3031 164.268 47.0713L165.794 48.5653C164.067 50.35 161.682 50.9414 159.551 51.0212Z" fill="#F6C09D"/>
<path fill-rule="evenodd" clip-rule="evenodd" d="M183.709 51.4041C185.872 51.5311 187.917 50.8569 189.164 50.1927L188.168 48.2998C187.181 48.8255 185.522 49.3651 183.833 49.2659C182.199 49.17 180.542 48.4844 179.34 46.5393L177.532 47.6695C179.152 50.2937 181.493 51.274 183.709 51.4041Z" fill="#F6C09D"/>
<g clip-path="url(#clip2_13_9791)">
<path d="M130.431 116.231C130.431 106.29 138.49 98.2307 148.431 98.2307H193.347C203.288 98.2307 211.347 106.29 211.347 116.231V171.615C211.347 181.556 203.288 189.615 193.347 189.615H148.431C138.49 189.615 130.431 181.556 130.431 171.615V116.231Z" fill="#EEC750"/>
<path d="M130.431 111.39C130.431 104.122 136.151 98.2307 143.207 98.2307H198.571C205.627 98.2307 211.347 104.122 211.347 111.39V176.456C211.347 183.724 205.627 189.615 198.571 189.615H143.207C136.151 189.615 130.431 183.724 130.431 176.456V111.39Z" fill="#EEC750"/>
<path d="M170.889 166.221L154.919 98.2307H185.085L170.889 166.221Z" fill="#E3E3E3"/>
<path d="M168.05 105.541L165.921 98.2307H175.148L173.019 105.541H168.05Z" fill="#2C51BF"/>
<path d="M164.501 139.171L170.889 166.221L176.567 139.171L173.018 105.542H168.05L164.501 139.171Z" fill="#2C51BF"/>
</g>
</g>
<g filter="url(#filter2_d_13_9791)">
<rect x="246.419" y="81.0962" width="22.9524" height="17.1346" fill="#E2A56B"/>
<path d="M269.082 90.9313C265.701 92.583 261.898 93.5104 257.878 93.5104H256.759C253.019 93.5104 249.467 92.7077 246.268 91.266V84.9431H269.082V90.9313Z" fill="#9D6445"/>
<path fill-rule="evenodd" clip-rule="evenodd" d="M231.296 27.4344C231.296 13.0627 242.947 1.41211 257.318 1.41211C271.69 1.41211 283.341 13.0627 283.341 27.4343V44.2486C287.278 44.2486 290.47 47.445 290.47 51.388C290.47 55.331 287.278 58.5274 283.341 58.5274V63.2046C283.341 77.5763 271.69 89.2269 257.318 89.2269C242.947 89.2269 231.296 77.5763 231.296 63.2047L231.296 58.5274C227.359 58.5274 224.167 55.331 224.167 51.388C224.167 47.445 227.359 44.2486 231.296 44.2486L231.296 27.4344Z" fill="#E2A56B"/>
<ellipse cx="245.911" cy="46.0335" rx="2.49528" ry="2.4988" fill="#071F2D"/>
<ellipse cx="269.438" cy="46.0335" rx="2.49528" ry="2.4988" fill="#071F2D"/>
<path d="M239.799 39.1524C238.839 40.5468 239.133 43.6068 239.399 44.9625C239.933 44.1233 241.479 42.0962 243.399 40.7018C245.318 39.3074 250.864 42.0575 253.397 43.6068V39.7334C251.864 39.217 248.198 38.0292 245.798 37.4094C242.799 36.6347 240.999 37.4094 239.799 39.1524Z" fill="#9D6445"/>
<path d="M279.173 30.4775C278.649 28.5548 280.119 26.1805 280.919 25.2337L286.373 22.8303C285.719 25.3794 284.409 31.6136 284.409 36.1583C284.409 41.839 286.373 46.4273 284.409 47.5198C284.06 46.2962 281.937 46.2816 280.919 46.4273C281.209 44.6794 281.835 40.7466 282.009 38.9986C282.228 36.8137 279.828 32.8809 279.173 30.4775Z" fill="#F99723"/>
<path d="M225.242 24.7098C224.893 17.8929 230.042 16.3344 232.66 16.4072L249.679 25.3653C246.552 25.511 239.861 26.4141 238.115 28.8612C236.37 31.3082 236.806 34.8332 237.242 36.2898C236.588 36.7996 234.973 38.5184 233.751 41.3151C232.53 44.1118 233.242 48.8895 233.751 50.9287H230.697C230.697 50.4917 230.522 49.2245 229.824 47.6513C229.126 46.0782 223.86 46.2676 221.315 46.5589C222.915 45.1751 226.159 41.4899 226.333 37.8193C226.551 33.231 225.679 33.231 225.242 24.7098Z" fill="#CA5D22"/>
<path d="M225.242 23.996C224.893 17.1791 230.042 15.6205 232.66 15.6933L249.679 24.6514C246.552 24.7971 239.861 25.7002 238.115 28.1473C236.37 30.5944 236.806 34.1194 237.242 35.576C236.588 36.0858 234.973 37.8046 233.751 40.6012C232.53 43.3979 233.242 48.1756 233.751 50.2148H230.697C230.697 49.7779 230.522 48.5106 229.824 46.9375C229.126 45.3643 223.86 45.5537 221.315 45.845C222.915 44.4613 226.159 40.776 226.333 37.1054C226.551 32.5171 225.679 32.5171 225.242 23.996Z" fill="#F99723"/>
<path d="M222.732 16.5355C220.316 11.5113 225.006 11.5784 227.654 12.2399C227.001 9.7289 225.34 4.56978 223.923 4.02132C227.723 1.95915 232.234 3.4669 234.014 4.47855C234.038 2.68317 233.854 -1.39069 232.924 -3.32306C236.613 -4.64797 239.539 -1.79147 242.91 1.29755C254.327 -5.86836 260.153 -1.13358 261.706 -0.441991C262.948 0.111281 278.386 3.26068 285.95 4.76623C289.123 5.98437 295.335 9.84385 294.789 15.5367C294.108 22.6527 280.906 28.6439 267.989 28.9985C255.072 29.353 225.752 22.8157 222.732 16.5355Z" fill="#CA5D22"/>
<path d="M222.634 14.8418C220.356 9.75322 225.043 9.94893 227.672 10.6829C227.087 8.15489 225.569 2.95216 224.167 2.36501C228.022 0.407874 232.49 2.03883 234.242 3.09894C234.315 1.30489 234.242 -2.7725 233.366 -4.72965C237.089 -5.95286 239.937 -3.01714 243.222 0.163221C254.83 -6.68678 260.525 -1.79392 262.058 -1.05999C263.284 -0.47285 278.63 3.09894 286.15 4.81144C289.289 6.1162 295.393 10.1447 294.692 15.8204C293.816 22.915 280.456 28.5418 267.533 28.5418C254.611 28.5418 225.481 21.2025 222.634 14.8418Z" fill="#F9B023"/>
<path d="M239.086 38.4386C238.126 39.833 238.42 42.8929 238.686 44.2486C239.22 43.4094 240.766 41.3823 242.686 39.9879C244.605 38.5935 250.151 41.3436 252.684 42.8929V39.0196C251.151 38.5031 247.485 37.3153 245.085 36.6955C242.086 35.9209 240.286 36.6955 239.086 38.4386Z" fill="#F9B023"/>
<path d="M275.55 39.1524C276.51 40.5468 276.217 43.6068 275.95 44.9625C275.417 44.1233 273.871 42.0962 271.951 40.7018C270.031 39.3074 264.485 42.0575 261.952 43.6068V39.7334C263.486 39.217 267.152 38.0292 269.551 37.4094C272.551 36.6347 274.351 37.4094 275.55 39.1524Z" fill="#9D6445"/>
<path d="M276.263 38.4386C277.223 39.833 276.93 42.8929 276.663 44.2486C276.13 43.4094 274.584 41.3823 272.664 39.9879C270.744 38.5935 265.198 41.3436 262.665 42.8929V39.0196C264.198 38.5031 267.865 37.3153 270.264 36.6955C273.264 35.9209 275.063 36.6955 276.263 38.4386Z" fill="#F9B023"/>
<path d="M254.823 55.6806V55.6932C254.823 57.6528 256.419 59.2413 258.388 59.2413C260.356 59.2413 261.952 57.6528 261.952 55.6932V45.6549C261.952 44.856 261.687 44.1187 261.239 43.5256V53.5513C261.239 55.5109 259.643 57.0995 257.675 57.0995C256.509 57.0995 255.473 56.5422 254.823 55.6806Z" fill="#9D6445"/>
<path fill-rule="evenodd" clip-rule="evenodd" d="M245.694 51.7357C243.631 51.8122 241.652 51.4028 240.449 50.9984L240.679 50.322C241.812 50.7031 243.705 51.095 245.667 51.0222C247.633 50.9493 249.616 50.4133 251.001 48.9972L251.515 49.4952C249.95 51.0956 247.754 51.6593 245.694 51.7357Z" fill="#9D6445"/>
<path fill-rule="evenodd" clip-rule="evenodd" d="M269.818 52.1192C271.844 52.2369 273.78 51.6076 274.953 50.9895L274.617 50.3586C273.533 50.9304 271.726 51.5149 269.86 51.4065C268.012 51.2991 266.108 50.5153 264.752 48.3439L264.143 48.7206C265.64 51.1184 267.775 52.0004 269.818 52.1192Z" fill="#9D6445"/>
<path fill-rule="evenodd" clip-rule="evenodd" d="M248.764 64.5457C249.349 60.4459 252.159 56.5262 253.489 55.0743L254.019 55.5551C252.734 56.9589 250.03 60.7497 249.475 64.6461L248.764 64.5457ZM266.944 65.0031C266.389 61.1067 263.685 57.3159 262.4 55.9121L262.93 55.4312C264.26 56.8832 267.07 60.8029 267.655 64.9027L266.944 65.0031ZM266.445 71.3492C258.598 67.9815 251.743 70.6551 249.329 72.3822L248.91 71.8024C251.486 69.9597 258.606 67.2074 266.729 70.6936L266.445 71.3492Z" fill="#9D6445"/>
<path fill-rule="evenodd" clip-rule="evenodd" d="M245.721 51.0212C243.558 51.1014 241.491 50.6746 240.22 50.2468L240.909 48.2177C241.973 48.5756 243.778 48.95 245.641 48.8809C247.513 48.8115 249.283 48.3031 250.487 47.0713L252.029 48.5653C250.284 50.35 247.874 50.9414 245.721 51.0212Z" fill="#F6C09D"/>
<path fill-rule="evenodd" clip-rule="evenodd" d="M270.133 51.4041C272.318 51.5311 274.385 50.8569 275.645 50.1927L274.638 48.2998C273.641 48.8255 271.965 49.3651 270.258 49.2659C268.607 49.17 266.932 48.4844 265.718 46.5393L263.89 47.6695C265.528 50.2937 267.893 51.274 270.133 51.4041Z" fill="#F6C09D"/>
<g clip-path="url(#clip3_13_9791)">
<path d="M216.294 116.231C216.294 106.29 224.353 98.2307 234.294 98.2307H280.062C290.003 98.2307 298.062 106.29 298.062 116.231V171.615C298.062 181.556 290.003 189.615 280.062 189.615H234.294C224.353 189.615 216.294 181.556 216.294 171.615V116.231Z" fill="#65C3C9"/>
<path d="M216.294 111.39C216.294 104.122 222.075 98.2307 229.205 98.2307H285.151C292.282 98.2307 298.062 104.122 298.062 111.39V176.456C298.062 183.724 292.282 189.615 285.151 189.615H229.205C222.075 189.615 216.294 183.724 216.294 176.456V111.39Z" fill="#65C3C9"/>
<path d="M257.178 166.221L241.04 98.2307H271.523L257.178 166.221Z" fill="#E3E3E3"/>
<path d="M254.309 105.541L252.157 98.2307H261.482L259.33 105.541H254.309Z" fill="#2C51BF"/>
<path d="M250.723 139.171L257.178 166.221L262.916 139.171L259.33 105.542H254.309L250.723 139.171Z" fill="#2C51BF"/>
</g>
</g>
<g filter="url(#filter3_d_13_9791)">
<rect x="196.21" y="116.481" width="22.9524" height="17.1346" fill="#E2A56B"/>
<path d="M218.872 126.316C215.491 127.968 211.689 128.895 207.668 128.895H206.549C202.809 128.895 199.257 128.093 196.058 126.651V120.328H218.872V126.316Z" fill="#9D6445"/>
<path fill-rule="evenodd" clip-rule="evenodd" d="M181.087 62.8194C181.087 48.4477 192.737 36.7971 207.109 36.7971C221.481 36.7971 233.131 48.4477 233.131 62.8193V79.6336C237.069 79.6336 240.26 82.83 240.26 86.773C240.26 90.716 237.069 93.9124 233.131 93.9124V98.5896C233.131 112.961 221.481 124.612 207.109 124.612C192.737 124.612 181.087 112.961 181.087 98.5897L181.087 93.9124C177.149 93.9124 173.957 90.716 173.957 86.773C173.957 82.83 177.149 79.6336 181.087 79.6336L181.087 62.8194Z" fill="#E2A56B"/>
<ellipse cx="195.702" cy="81.4185" rx="2.49528" ry="2.4988" fill="#071F2D"/>
<ellipse cx="219.229" cy="81.4185" rx="2.49528" ry="2.4988" fill="#071F2D"/>
<path d="M189.59 74.5374C188.63 75.9319 188.923 78.9918 189.19 80.3475C189.723 79.5083 191.269 77.4812 193.189 76.0868C195.109 74.6924 200.655 77.4425 203.188 78.9918V75.1184C201.655 74.602 197.988 73.4142 195.589 72.7944C192.589 72.0198 190.79 72.7944 189.59 74.5374Z" fill="#9D6445"/>
<path d="M228.964 65.8625C228.44 63.9398 229.909 61.5655 230.709 60.6187L236.164 58.2153C235.509 60.7644 234.2 66.9987 234.2 71.5433C234.2 77.224 236.164 81.8123 234.2 82.9048C233.851 81.6812 231.727 81.6667 230.709 81.8123C231 80.0644 231.625 76.1316 231.8 74.3836C232.018 72.1987 229.618 68.2659 228.964 65.8625Z" fill="#F99723"/>
<path d="M175.033 60.0948C174.684 53.2779 179.833 51.7194 182.451 51.7922L199.469 60.7503C196.342 60.896 189.651 61.7991 187.906 64.2462C186.16 66.6933 186.597 70.2182 187.033 71.6748C186.378 72.1847 184.764 73.9034 183.542 76.7001C182.32 79.4968 183.033 84.2745 183.542 86.3137H180.487C180.487 85.8767 180.313 84.6095 179.615 83.0364C178.916 81.4632 173.651 81.6526 171.105 81.9439C172.705 80.5601 175.949 76.8749 176.124 73.2043C176.342 68.616 175.469 68.616 175.033 60.0948Z" fill="#CA5D22"/>
<path d="M175.033 59.381C174.684 52.5641 179.833 51.0055 182.451 51.0783L199.469 60.0364C196.342 60.1821 189.651 61.0852 187.906 63.5323C186.16 65.9794 186.597 69.5044 187.033 70.961C186.378 71.4708 184.764 73.1896 183.542 75.9863C182.32 78.7829 183.033 83.5606 183.542 85.5998H180.487C180.487 85.1629 180.313 83.8956 179.615 82.3225C178.916 80.7494 173.651 80.9387 171.105 81.23C172.705 79.8463 175.949 76.1611 176.124 72.4904C176.342 67.9021 175.469 67.9021 175.033 59.381Z" fill="#F99723"/>
<path d="M172.522 51.9205C170.106 46.8963 174.797 46.9634 177.444 47.6249C176.791 45.1139 175.131 39.9548 173.714 39.4063C177.513 37.3442 182.024 38.8519 183.805 39.8636C183.829 38.0682 183.644 33.9943 182.715 32.0619C186.403 30.737 189.33 33.5935 192.701 36.6826C204.117 29.5166 209.944 34.2514 211.496 34.943C212.738 35.4963 228.176 38.6457 235.74 40.1512C238.914 41.3694 245.125 45.2289 244.58 50.9217C243.898 58.0377 230.697 64.0289 217.78 64.3835C204.862 64.738 175.542 58.2007 172.522 51.9205Z" fill="#CA5D22"/>
<path d="M172.425 50.2268C170.147 45.1382 174.834 45.3339 177.462 46.0679C176.878 43.5399 175.36 38.3372 173.958 37.75C177.813 35.7929 182.281 37.4238 184.033 38.484C184.106 36.6899 184.033 32.6125 183.157 30.6554C186.88 29.4321 189.727 32.3679 193.013 35.5482C204.621 28.6982 210.315 33.5911 211.848 34.325C213.075 34.9122 228.421 38.4839 235.941 40.1964C239.08 41.5012 245.183 45.5297 244.482 51.2054C243.606 58.3 230.246 63.9268 217.324 63.9268C204.402 63.9268 175.272 56.5875 172.425 50.2268Z" fill="#F9B023"/>
<path d="M188.877 73.8236C187.917 75.218 188.21 78.2779 188.477 79.6336C189.01 78.7944 190.557 76.7673 192.476 75.3729C194.396 73.9785 199.942 76.7286 202.475 78.2779V74.4046C200.942 73.8881 197.276 72.7003 194.876 72.0806C191.876 71.3059 190.077 72.0806 188.877 73.8236Z" fill="#F9B023"/>
<path d="M225.341 74.5374C226.301 75.9319 226.007 78.9918 225.741 80.3475C225.208 79.5083 223.661 77.4812 221.741 76.0868C219.822 74.6924 214.276 77.4425 211.743 78.9918V75.1184C213.276 74.602 216.942 73.4142 219.342 72.7944C222.341 72.0198 224.141 72.7944 225.341 74.5374Z" fill="#9D6445"/>
<path d="M226.054 73.8236C227.014 75.218 226.72 78.2779 226.454 79.6336C225.921 78.7944 224.374 76.7673 222.454 75.3729C220.535 73.9785 214.989 76.7286 212.456 78.2779V74.4046C213.989 73.8881 217.655 72.7003 220.055 72.0806C223.054 71.3059 224.854 72.0806 226.054 73.8236Z" fill="#F9B023"/>
<path d="M204.614 91.0656V91.0782C204.614 93.0378 206.21 94.6263 208.178 94.6263C210.147 94.6263 211.743 93.0378 211.743 91.0782V81.0399C211.743 80.241 211.478 79.5037 211.03 78.9106V88.9363C211.03 90.8959 209.434 92.4845 207.465 92.4845C206.299 92.4845 205.264 91.9272 204.614 91.0656Z" fill="#9D6445"/>
<path fill-rule="evenodd" clip-rule="evenodd" d="M195.485 87.1207C193.422 87.1972 191.442 86.7878 190.24 86.3834L190.47 85.707C191.603 86.0881 193.495 86.48 195.458 86.4072C197.424 86.3344 199.407 85.7983 200.792 84.3822L201.306 84.8802C199.741 86.4806 197.544 87.0443 195.485 87.1207Z" fill="#9D6445"/>
<path fill-rule="evenodd" clip-rule="evenodd" d="M219.609 87.5042C221.634 87.6219 223.571 86.9926 224.744 86.3745L224.408 85.7436C223.323 86.3154 221.517 86.8999 219.651 86.7915C217.803 86.6841 215.898 85.9003 214.543 83.7289L213.934 84.1056C215.43 86.5034 217.565 87.3855 219.609 87.5042Z" fill="#9D6445"/>
<path fill-rule="evenodd" clip-rule="evenodd" d="M198.555 99.9307C199.14 95.8309 201.95 91.9112 203.279 90.4593L203.809 90.9401C202.524 92.3439 199.821 96.1348 199.265 100.031L198.555 99.9307ZM216.735 100.388C216.179 96.4917 213.476 92.7009 212.191 91.2971L212.721 90.8162C214.05 92.2682 216.86 96.1879 217.445 100.288L216.735 100.388ZM216.235 106.734C208.388 103.367 201.534 106.04 199.119 107.767L198.701 107.187C201.277 105.345 208.396 102.592 216.519 106.079L216.235 106.734Z" fill="#9D6445"/>
<path fill-rule="evenodd" clip-rule="evenodd" d="M195.511 86.4062C193.349 86.4864 191.282 86.0596 190.01 85.6318L190.699 83.6027C191.763 83.9606 193.568 84.335 195.431 84.2659C197.303 84.1965 199.073 83.6881 200.278 82.4563L201.82 83.9503C200.074 85.735 197.665 86.3264 195.511 86.4062Z" fill="#F6C09D"/>
<path fill-rule="evenodd" clip-rule="evenodd" d="M219.924 86.7891C222.109 86.9161 224.175 86.242 225.436 85.5777L224.429 83.6848C223.432 84.2105 221.755 84.7501 220.049 84.6509C218.397 84.555 216.723 83.8694 215.509 81.9243L213.681 83.0545C215.319 85.6787 217.684 86.659 219.924 86.7891Z" fill="#F6C09D"/>
<g clip-path="url(#clip4_13_9791)">
<path d="M166.084 151.616C166.084 141.675 174.143 133.616 184.084 133.616H229.852C239.793 133.616 247.852 141.675 247.852 151.616V207C247.852 216.941 239.793 225 229.852 225H184.084C174.143 225 166.084 216.941 166.084 207V151.616Z" fill="#41CA7B"/>
<path d="M166.084 146.775C166.084 139.507 171.865 133.616 178.995 133.616H234.942C242.072 133.616 247.852 139.507 247.852 146.775V211.841C247.852 219.109 242.072 225 234.942 225H178.995C171.865 225 166.084 219.109 166.084 211.841V146.775Z" fill="#41CA7B"/>
<path d="M206.968 201.606L190.83 133.616H221.314L206.968 201.606Z" fill="#E3E3E3"/>
<path d="M204.099 140.926L201.948 133.616H211.272L209.12 140.926H204.099Z" fill="#2C51BF"/>
<path d="M200.513 174.556L206.968 201.606L212.706 174.556L209.12 140.927H204.099L200.513 174.556Z" fill="#2C51BF"/>
</g>
</g>
<g filter="url(#filter4_d_13_9791)">
<rect x="103.685" y="115.472" width="22.7133" height="17.294" fill="#E2A56B"/>
<path d="M126.111 125.398C122.766 127.065 119.002 128.001 115.024 128.001H113.917C110.216 128.001 106.701 127.191 103.535 125.736V119.354H126.111V125.398Z" fill="#9D6445"/>
<path fill-rule="evenodd" clip-rule="evenodd" d="M88.7192 60.7976C88.7192 46.5756 100.248 35.0464 114.47 35.0464C128.692 35.0464 140.222 46.5756 140.222 60.7975V78.2813C144.118 78.2813 147.277 81.5075 147.277 85.4872C147.277 89.4668 144.118 92.693 140.222 92.693V97.9269C140.222 112.149 128.692 123.678 114.47 123.678C100.248 123.678 88.7192 112.149 88.7192 97.9269L88.7192 92.693C84.8227 92.693 81.6641 89.4668 81.6641 85.4872C81.6641 81.5075 84.8227 78.2813 88.7192 78.2813L88.7192 60.7976Z" fill="#E2A56B"/>
<ellipse cx="103.182" cy="80.0828" rx="2.46929" ry="2.52204" fill="#071F2D"/>
<ellipse cx="126.464" cy="80.0828" rx="2.46929" ry="2.52204" fill="#071F2D"/>
<path d="M97.1336 73.138C96.1838 74.5454 96.474 77.6338 96.7379 79.0021C97.2656 78.1551 98.7959 76.1091 100.696 74.7018C102.595 73.2944 108.083 76.07 110.59 77.6338V73.7244C109.073 73.2031 105.445 72.0043 103.07 71.3788C100.102 70.5969 98.321 71.3788 97.1336 73.138Z" fill="#9D6445"/>
<path d="M136.098 64.3821C135.579 62.4415 137.033 60.0452 137.825 59.0896L143.223 56.6638C142.575 59.2366 141.279 65.5288 141.279 70.1157C141.279 75.8493 143.223 80.4803 141.279 81.5829C140.934 80.348 138.832 80.3333 137.825 80.4803C138.113 78.7161 138.732 74.7467 138.904 72.9825C139.12 70.7773 136.745 66.8079 136.098 64.3821Z" fill="#F99723"/>
<path d="M82.7284 58.561C82.3829 51.6807 87.4784 50.1076 90.0694 50.1811L106.91 59.2226C103.816 59.3696 97.1945 60.2811 95.4672 62.751C93.7399 65.2208 94.1717 68.7786 94.6035 70.2487C93.9558 70.7633 92.3581 72.4981 91.149 75.3208C89.9399 78.1435 90.6452 82.9656 91.149 85.0238H88.1262C88.1262 84.5827 87.9535 83.3037 87.2626 81.7159C86.5716 80.1282 81.361 80.3193 78.842 80.6133C80.4254 79.2167 83.6353 75.4972 83.808 71.7924C84.0239 67.1614 83.1602 67.1614 82.7284 58.561Z" fill="#CA5D22"/>
<path d="M82.7284 57.8403C82.3829 50.96 87.4784 49.3869 90.0694 49.4604L106.91 58.5019C103.816 58.6489 97.1945 59.5604 95.4672 62.0302C93.7399 64.5001 94.1717 68.0579 94.6035 69.528C93.9558 70.0426 92.3581 71.7774 91.149 74.6001C89.9399 77.4228 90.6452 82.2449 91.149 84.3031H88.1262C88.1262 83.862 87.9535 82.583 87.2626 80.9952C86.5716 79.4075 81.361 79.5986 78.842 79.8926C80.4254 78.496 83.6353 74.7765 83.808 71.0717C84.0239 66.4407 83.1602 66.4407 82.7284 57.8403Z" fill="#F99723"/>
<path d="M80.2442 50.3105C77.8532 45.2396 82.4949 45.3073 85.1147 45.975C84.4685 43.4406 82.8255 38.2335 81.423 37.68C85.1832 35.5986 89.6472 37.1204 91.4092 38.1414C91.4328 36.3294 91.2502 32.2176 90.3306 30.2673C93.9806 28.93 96.8767 31.8131 100.213 34.9309C111.51 27.6983 117.276 32.4771 118.812 33.1751C120.041 33.7335 135.319 36.9122 142.803 38.4318C145.944 39.6613 152.091 43.5567 151.551 49.3024C150.877 56.4846 137.813 62.5316 125.03 62.8895C112.247 63.2473 83.2329 56.6492 80.2442 50.3105Z" fill="#CA5D22"/>
<path d="M80.1475 48.6012C77.8934 43.4653 82.5316 43.6628 85.1325 44.4036C84.5546 41.8521 83.0519 36.601 81.6647 36.0084C85.4793 34.033 89.9008 35.6791 91.6347 36.7491C91.707 34.9384 91.6347 30.8231 90.7678 28.8477C94.4524 27.6131 97.27 30.5761 100.521 33.7861C112.008 26.8724 117.643 31.8107 119.161 32.5515C120.374 33.1441 135.561 36.7491 143.002 38.4775C146.109 39.7944 152.148 43.8604 151.455 49.5889C150.588 56.7495 137.367 62.4287 124.579 62.4287C111.791 62.4287 82.9651 55.0211 80.1475 48.6012Z" fill="#F9B023"/>
<path d="M96.4283 72.4173C95.4785 73.8247 95.7687 76.9131 96.0325 78.2814C96.5602 77.4344 98.0905 75.3884 99.9903 73.981C101.89 72.5737 107.378 75.3493 109.885 76.9131V73.0037C108.368 72.4824 104.74 71.2836 102.365 70.6581C99.3966 69.8762 97.6156 70.6581 96.4283 72.4173Z" fill="#F9B023"/>
<path d="M132.513 73.138C133.462 74.5454 133.172 77.6338 132.908 79.0021C132.381 78.1551 130.85 76.1091 128.951 74.7018C127.051 73.2944 121.563 76.07 119.056 77.6338V73.7244C120.573 73.2031 124.201 72.0043 126.576 71.3788C129.544 70.5969 131.325 71.3788 132.513 73.138Z" fill="#9D6445"/>
<path d="M133.218 72.4173C134.168 73.8247 133.878 76.9131 133.614 78.2814C133.086 77.4344 131.556 75.3884 129.656 73.981C127.756 72.5737 122.268 75.3493 119.762 76.9131V73.0037C121.279 72.4824 124.907 71.2836 127.281 70.6581C130.25 69.8762 132.031 70.6581 133.218 72.4173Z" fill="#F9B023"/>
<path d="M112.001 89.8198V89.8325C112.001 91.8103 113.581 93.4137 115.529 93.4137C117.477 93.4137 119.056 91.8103 119.056 89.8325V79.7009C119.056 78.8945 118.794 78.1504 118.351 77.5518V87.6707C118.351 89.6486 116.771 91.2519 114.823 91.2519C113.669 91.2519 112.645 90.6894 112.001 89.8198Z" fill="#9D6445"/>
<path fill-rule="evenodd" clip-rule="evenodd" d="M102.967 85.8382C100.926 85.9154 98.9672 85.5022 97.7773 85.094L98.0046 84.4113C99.1259 84.796 100.999 85.1915 102.941 85.1181C104.887 85.0445 106.849 84.5035 108.219 83.0742L108.728 83.5768C107.179 85.1921 105.006 85.7611 102.967 85.8382Z" fill="#9D6445"/>
<path fill-rule="evenodd" clip-rule="evenodd" d="M126.84 86.2252C128.845 86.344 130.761 85.7089 131.922 85.0851L131.589 84.4483C130.516 85.0254 128.728 85.6153 126.882 85.5059C125.053 85.3975 123.168 84.6064 121.827 82.4148L121.224 82.7951C122.705 85.2152 124.818 86.1054 126.84 86.2252Z" fill="#9D6445"/>
<path fill-rule="evenodd" clip-rule="evenodd" d="M106.006 98.7674C106.584 94.6294 109.365 90.6733 110.681 89.2078L111.205 89.6931C109.934 91.11 107.259 94.9361 106.708 98.8687L106.006 98.7674ZM123.996 99.229C123.446 95.2964 120.771 91.4703 119.499 90.0534L120.024 89.5681C121.339 91.0336 124.12 94.9897 124.699 99.1277L123.996 99.229ZM123.502 105.634C115.736 102.235 108.954 104.934 106.564 106.677L106.15 106.092C108.699 104.232 115.744 101.454 123.783 104.972L123.502 105.634Z" fill="#9D6445"/>
<path fill-rule="evenodd" clip-rule="evenodd" d="M102.994 85.1171C100.854 85.198 98.8085 84.7672 97.55 84.3355L98.2317 82.2875C99.2845 82.6486 101.071 83.0265 102.915 82.9568C104.767 82.8868 106.519 82.3736 107.711 81.1304L109.236 82.6383C107.509 84.4396 105.125 85.0365 102.994 85.1171Z" fill="#F6C09D"/>
<path fill-rule="evenodd" clip-rule="evenodd" d="M127.152 85.5033C129.314 85.6314 131.359 84.9511 132.606 84.2806L131.61 82.3702C130.623 82.9007 128.964 83.4453 127.276 83.3452C125.641 83.2484 123.984 82.5564 122.783 80.5933L120.974 81.734C122.595 84.3826 124.935 85.372 127.152 85.5033Z" fill="#F6C09D"/>
<g clip-path="url(#clip5_13_9791)">
<path d="M73.8735 150.766C73.8735 140.824 81.9324 132.766 91.8735 132.766H136.79C146.731 132.766 154.79 140.825 154.79 150.766V207C154.79 216.941 146.731 225 136.79 225H91.8736C81.9324 225 73.8735 216.941 73.8735 207V150.766Z" fill="#F5A35A"/>
<path d="M73.8735 146.047C73.8735 138.712 79.5936 132.766 86.6498 132.766H142.013C149.07 132.766 154.79 138.712 154.79 146.047V211.718C154.79 219.054 149.07 225 142.013 225H86.6498C79.5936 225 73.8735 219.054 73.8735 211.718V146.047Z" fill="#F5A35A"/>
<path d="M114.332 201.388L98.3613 132.766H128.527L114.332 201.388Z" fill="#E3E3E3"/>
<path d="M111.492 140.144L109.363 132.766H118.59L116.461 140.144H111.492Z" fill="#2C51BF"/>
<path d="M107.943 174.087L114.331 201.388L120.01 174.087L116.461 140.144H111.492L107.943 174.087Z" fill="#2C51BF"/>
</g>
</g>
<g filter="url(#filter5_d_13_9791)">
<rect x="348.776" y="89.9993" width="22.7133" height="17.294" fill="#E2A56B"/>
<path d="M371.203 99.926C367.857 101.593 364.094 102.529 360.116 102.529H359.009C355.307 102.529 351.792 101.719 348.627 100.264V93.8821H371.203V99.926Z" fill="#9D6445"/>
<path fill-rule="evenodd" clip-rule="evenodd" d="M333.811 35.3252C333.811 21.1032 345.34 9.57397 359.562 9.57397C373.784 9.57397 385.313 21.1032 385.313 35.3251V52.8089C389.21 52.8089 392.368 56.0351 392.368 60.0148C392.368 63.9944 389.21 67.2206 385.313 67.2206V72.4545C385.313 86.6764 373.784 98.2056 359.562 98.2056C345.34 98.2056 333.811 86.6764 333.811 72.4545L333.811 67.2206C329.915 67.2206 326.756 63.9944 326.756 60.0148C326.756 56.0351 329.915 52.8089 333.811 52.8089L333.811 35.3252Z" fill="#E2A56B"/>
<ellipse cx="348.274" cy="54.6104" rx="2.46929" ry="2.52204" fill="#071F2D"/>
<ellipse cx="371.556" cy="54.6104" rx="2.46929" ry="2.52204" fill="#071F2D"/>
<path d="M342.226 47.6656C341.276 49.073 341.566 52.1614 341.83 53.5297C342.357 52.6826 343.888 50.6367 345.787 49.2293C347.687 47.822 353.175 50.5976 355.682 52.1614V48.252C354.165 47.7307 350.537 46.5319 348.162 45.9064C345.194 45.1245 343.413 45.9064 342.226 47.6656Z" fill="#9D6445"/>
<path d="M381.189 38.9097C380.671 36.9691 382.125 34.5728 382.917 33.6172L388.314 31.1914C387.667 33.7642 386.371 40.0564 386.371 44.6433C386.371 50.3769 388.314 55.0079 386.371 56.1105C386.026 54.8756 383.924 54.8609 382.917 55.0079C383.205 53.2437 383.823 49.2743 383.996 47.5101C384.212 45.3049 381.837 41.3355 381.189 38.9097Z" fill="#F99723"/>
<path d="M327.82 33.0886C327.475 26.2083 332.57 24.6352 335.161 24.7087L352.002 33.7502C348.908 33.8972 342.286 34.8087 340.559 37.2785C338.832 39.7484 339.264 43.3062 339.695 44.7763C339.048 45.2909 337.45 47.0257 336.241 49.8484C335.032 52.6711 335.737 57.4932 336.241 59.5514H333.218C333.218 59.1103 333.045 57.8313 332.354 56.2435C331.663 54.6558 326.453 54.8469 323.934 55.1409C325.517 53.7443 328.727 50.0248 328.9 46.32C329.116 41.689 328.252 41.689 327.82 33.0886Z" fill="#CA5D22"/>
<path d="M327.82 32.3679C327.475 25.4876 332.57 23.9145 335.161 23.988L352.002 33.0295C348.908 33.1765 342.286 34.088 340.559 36.5578C338.832 39.0277 339.264 42.5855 339.695 44.0556C339.048 44.5702 337.45 46.305 336.241 49.1277C335.032 51.9503 335.737 56.7725 336.241 58.8307H333.218C333.218 58.3896 333.045 57.1106 332.354 55.5228C331.663 53.9351 326.453 54.1262 323.934 54.4202C325.517 53.0236 328.727 49.3041 328.9 45.5993C329.116 40.9683 328.252 40.9683 327.82 32.3679Z" fill="#F99723"/>
<path d="M325.336 24.8381C322.945 19.7672 327.587 19.8349 330.206 20.5026C329.56 17.9682 327.917 12.7611 326.515 12.2075C330.275 10.1262 334.739 11.648 336.501 12.669C336.524 10.8569 336.342 6.74519 335.422 4.79485C339.072 3.45761 341.968 6.34068 345.304 9.45845C356.602 2.22587 362.367 7.0047 363.904 7.70272C365.133 8.26114 380.41 11.4398 387.895 12.9594C391.036 14.1889 397.183 18.0842 396.643 23.83C395.968 31.0122 382.905 37.0592 370.122 37.417C357.339 37.7749 328.325 31.1768 325.336 24.8381Z" fill="#CA5D22"/>
<path d="M325.239 23.1288C322.985 17.9929 327.623 18.1904 330.224 18.9312C329.646 16.3797 328.144 11.1286 326.757 10.5359C330.571 8.5606 334.993 10.2067 336.727 11.2767C336.799 9.46596 336.727 5.35064 335.86 3.37529C339.544 2.14069 342.362 5.10373 345.613 8.31367C357.1 1.39995 362.735 6.33832 364.252 7.07908C365.466 7.67168 380.652 11.2767 388.094 13.0051C391.2 14.322 397.24 18.388 396.547 24.1165C395.68 31.2771 382.459 36.9562 369.671 36.9562C356.883 36.9562 328.057 29.5487 325.239 23.1288Z" fill="#F9B023"/>
<path d="M341.52 46.9449C340.57 48.3523 340.86 51.4407 341.124 52.809C341.652 51.9619 343.182 49.916 345.082 48.5086C346.982 47.1013 352.47 49.8769 354.976 51.4407V47.5313C353.459 47.01 349.831 45.8112 347.457 45.1856C344.488 44.4038 342.707 45.1856 341.52 46.9449Z" fill="#F9B023"/>
<path d="M377.604 47.6656C378.554 49.073 378.264 52.1614 378 53.5297C377.472 52.6826 375.942 50.6367 374.042 49.2293C372.143 47.822 366.655 50.5976 364.148 52.1614V48.252C365.665 47.7307 369.293 46.5319 371.668 45.9064C374.636 45.1245 376.417 45.9064 377.604 47.6656Z" fill="#9D6445"/>
<path d="M378.31 46.9449C379.26 48.3523 378.969 51.4407 378.706 52.809C378.178 51.9619 376.648 49.916 374.748 48.5086C372.848 47.1013 367.36 49.8769 364.854 51.4407V47.5313C366.371 47.01 369.999 45.8112 372.373 45.1856C375.342 44.4038 377.123 45.1856 378.31 46.9449Z" fill="#F9B023"/>
<path d="M357.093 64.3474V64.3601C357.093 66.3379 358.672 67.9412 360.62 67.9412C362.569 67.9412 364.148 66.3379 364.148 64.3601V54.2285C364.148 53.4221 363.885 52.6779 363.442 52.0793V62.1983C363.442 64.1761 361.863 65.7795 359.915 65.7795C358.761 65.7795 357.736 65.217 357.093 64.3474Z" fill="#9D6445"/>
<path fill-rule="evenodd" clip-rule="evenodd" d="M348.059 60.3658C346.018 60.443 344.059 60.0298 342.869 59.6216L343.096 58.9389C344.218 59.3236 346.09 59.7191 348.033 59.6457C349.978 59.5721 351.941 59.0311 353.311 57.6018L353.82 58.1044C352.271 59.7197 350.097 60.2887 348.059 60.3658Z" fill="#9D6445"/>
<path fill-rule="evenodd" clip-rule="evenodd" d="M371.932 60.7528C373.936 60.8716 375.853 60.2365 377.013 59.6127L376.681 58.9759C375.607 59.553 373.82 60.1429 371.973 60.0335C370.145 59.9251 368.26 59.134 366.919 56.9424L366.316 57.3226C367.797 59.7427 369.91 60.633 371.932 60.7528Z" fill="#9D6445"/>
<path fill-rule="evenodd" clip-rule="evenodd" d="M351.097 73.295C351.676 69.157 354.457 65.2009 355.772 63.7354L356.297 64.2207C355.025 65.6376 352.35 69.4637 351.8 73.3963L351.097 73.295ZM369.088 73.7566C368.538 69.824 365.863 65.9979 364.591 64.581L365.116 64.0957C366.431 65.5612 369.212 69.5173 369.791 73.6553L369.088 73.7566ZM368.593 80.1617C360.828 76.7627 354.045 79.4612 351.656 81.2043L351.242 80.6192C353.791 78.7594 360.836 75.9814 368.874 79.5L368.593 80.1617Z" fill="#9D6445"/>
<path fill-rule="evenodd" clip-rule="evenodd" d="M348.086 59.6447C345.945 59.7256 343.9 59.2948 342.642 58.863L343.324 56.8151C344.376 57.1762 346.163 57.5541 348.006 57.4844C349.859 57.4143 351.61 56.9012 352.802 55.658L354.328 57.1658C352.601 58.9672 350.217 59.5641 348.086 59.6447Z" fill="#F6C09D"/>
<path fill-rule="evenodd" clip-rule="evenodd" d="M372.243 60.0309C374.406 60.159 376.451 59.4787 377.698 58.8082L376.702 56.8977C375.715 57.4283 374.056 57.9729 372.368 57.8728C370.733 57.776 369.076 57.084 367.874 55.1208L366.066 56.2616C367.686 58.9102 370.027 59.8996 372.243 60.0309Z" fill="#F6C09D"/>
<g clip-path="url(#clip6_13_9791)">
<path d="M318.965 125.293C318.965 115.352 327.024 107.293 336.965 107.293H381.881C391.823 107.293 399.881 115.352 399.881 125.293V181.528C399.881 191.469 391.823 199.528 381.881 199.528H336.965C327.024 199.528 318.965 191.469 318.965 181.528V125.293Z" fill="#59A6EA"/>
<path d="M318.965 120.575C318.965 113.24 324.685 107.293 331.742 107.293H387.105C394.161 107.293 399.881 113.24 399.881 120.575V186.246C399.881 193.581 394.161 199.528 387.105 199.528H331.742C324.685 199.528 318.965 193.581 318.965 186.246V120.575Z" fill="#59A6EA"/>
<path d="M359.423 175.916L343.453 107.293H373.619L359.423 175.916Z" fill="#E3E3E3"/>
<path d="M356.584 114.672L354.455 107.293H363.682L361.553 114.672H356.584Z" fill="#2C51BF"/>
<path d="M353.035 148.614L359.423 175.916L365.102 148.614L361.553 114.672H356.584L353.035 148.614Z" fill="#2C51BF"/>
</g>
</g>
<g filter="url(#filter6_d_13_9791)">
<path d="M296.688 111.241V125H318.688V110.775C314.449 113.716 310.044 115.463 307.344 115.463C304.789 115.463 300.709 113.899 296.688 111.241Z" fill="#9E5D56"/>
<path d="M296.688 106.472C300.709 109.13 304.789 110.694 307.344 110.694C310.044 110.694 314.449 108.947 318.688 106.007V110.775C314.449 113.716 310.044 115.463 307.344 115.463C304.789 115.463 300.709 113.899 296.688 111.241V106.472Z" fill="#65353A"/>
<path d="M307.344 39.1626C294.624 39.1626 284.312 49.3803 284.312 61.9845V70.5001C280.516 70.5001 277.438 73.5502 277.438 77.3126C277.438 81.075 280.516 84.1251 284.312 84.1251V87.872C284.312 100.476 300.812 110.694 307.344 110.694C313.875 110.694 330.375 100.476 330.375 87.872V84.1251C334.172 84.1251 337.25 81.075 337.25 77.3126C337.25 73.5502 334.172 70.5001 330.375 70.5001V61.9845C330.375 49.3803 320.064 39.1626 307.344 39.1626Z" fill="#9E5D56"/>
<path d="M304.938 86.1691C304.938 88.0502 306.477 89.575 308.375 89.575C310.273 89.575 311.812 88.05 311.812 86.1688V76.6313C311.812 75.8643 311.557 75.1565 311.125 74.5872C311.125 74.5871 311.125 74.5873 311.125 74.5872V84.125C311.125 86.0062 309.586 87.5313 307.687 87.5313C306.563 87.5313 305.565 86.9963 304.938 86.1691Z" fill="#65353A"/>
<ellipse cx="296.344" cy="76.972" rx="2.40625" ry="2.38437" fill="#30333A"/>
<ellipse cx="319.031" cy="76.972" rx="2.40625" ry="2.38437" fill="#30333A"/>
<path d="M294.701 33.3333C292.752 33.7457 289.706 34.39 285.901 38.4738C282.814 41.7862 280.493 52.5893 279.733 59.9334C277.447 61.8852 275.431 65.2823 276.029 69.4512C273.371 69.4512 269.658 71.2508 269.658 80.5487C267.456 81.1485 263.189 84.2678 263.735 91.946C264.574 103.73 280.459 106.332 290.616 106.943C292.627 107.063 294.652 107.163 296.688 107.24V105.953C290.429 101.82 284.36 95.1035 284.36 87.4375L284.313 84.0555C280.516 84.0555 277.438 81.0085 277.438 77.2499C277.438 73.4913 280.516 70.4444 284.313 70.4444C284.313 67.1524 284.175 67.9493 284.313 64.6596C285.998 64.057 289.795 63.4989 291.531 61.9374C295.431 58.4296 297.849 53.6069 298.063 51.3531L297.93 50.1739C299.74 52.9477 301.653 56.5162 305.625 58.5346C313.463 62.5173 324.795 62.4487 330.031 63.9791C330.362 67.6172 330.375 66.797 330.375 70.4444C334.172 70.4444 337.202 73.4188 337.202 77.1774C337.202 80.936 334.172 84.0555 330.375 84.0555V87.3719C330.375 94.7568 324.699 101.322 318.688 105.488V107.239C320.716 107.162 322.735 107.063 324.739 106.943C334.896 106.332 350.781 103.73 351.62 91.946C352.167 84.2678 349.274 81.1485 347.072 80.5487C347.072 71.2508 341.984 69.4512 339.327 69.4512C339.902 65.4364 338.054 62.1375 335.875 60.1558C335.839 47.4446 331.475 40.0126 326.303 36.8296C318.534 32.0488 303.675 31.435 294.701 33.3333Z" fill="#4C150E"/>
<path d="M299.438 93.5833C301.765 96.3041 308.994 93.5833 317.079 93.5833C308.258 103.378 308.626 105.011 299.438 93.5833Z" fill="#ACACAC" stroke="#ACACAC"/>
<path d="M267.812 137.433C267.812 130.505 273.353 124.889 280.187 124.889H333.812C340.647 124.889 346.187 130.505 346.187 137.433V199.456C346.187 206.384 340.647 212 333.812 212H280.187C273.353 212 267.812 206.384 267.812 199.456V137.433Z" fill="#F3F6F8"/>
<path d="M307.683 139.524C315.656 139.524 322.12 132.971 322.12 124.889H293.245C293.245 132.971 299.709 139.524 307.683 139.524Z" fill="#9E5D56"/>
</g>
</g>
<defs>
<filter id="filter0_d_13_9791" x="19" y="-8" width="99.8096" height="213.615" filterUnits="userSpaceOnUse" color-interpolation-filters="sRGB">
<feFlood flood-opacity="0" result="BackgroundImageFix"/>
<feColorMatrix in="SourceAlpha" type="matrix" values="0 0 0 0 0 0 0 0 0 0 0 0 0 0 0 0 0 0 127 0" result="hardAlpha"/>
<feOffset dy="4"/>
<feGaussianBlur stdDeviation="2"/>
<feComposite in2="hardAlpha" operator="out"/>
<feColorMatrix type="matrix" values="0 0 0 0 0 0 0 0 0 0 0 0 0 0 0 0 0 0 0.25 0"/>
<feBlend mode="normal" in2="BackgroundImageFix" result="effect1_dropShadow_13_9791"/>
<feBlend mode="normal" in="SourceGraphic" in2="effect1_dropShadow_13_9791" result="shape"/>
</filter>
<filter id="filter1_d_13_9791" x="121.463" y="-16" width="98.8531" height="213.615" filterUnits="userSpaceOnUse" color-interpolation-filters="sRGB">
<feFlood flood-opacity="0" result="BackgroundImageFix"/>
<feColorMatrix in="SourceAlpha" type="matrix" values="0 0 0 0 0 0 0 0 0 0 0 0 0 0 0 0 0 0 127 0" result="hardAlpha"/>
<feOffset dy="4"/>
<feGaussianBlur stdDeviation="2"/>
<feComposite in2="hardAlpha" operator="out"/>
<feColorMatrix type="matrix" values="0 0 0 0 0 0 0 0 0 0 0 0 0 0 0 0 0 0 0.25 0"/>
<feBlend mode="normal" in2="BackgroundImageFix" result="effect1_dropShadow_13_9791"/>
<feBlend mode="normal" in="SourceGraphic" in2="effect1_dropShadow_13_9791" result="shape"/>
</filter>
<filter id="filter2_d_13_9791" x="207.273" y="-16" width="99.8096" height="213.615" filterUnits="userSpaceOnUse" color-interpolation-filters="sRGB">
<feFlood flood-opacity="0" result="BackgroundImageFix"/>
<feColorMatrix in="SourceAlpha" type="matrix" values="0 0 0 0 0 0 0 0 0 0 0 0 0 0 0 0 0 0 127 0" result="hardAlpha"/>
<feOffset dy="4"/>
<feGaussianBlur stdDeviation="2"/>
<feComposite in2="hardAlpha" operator="out"/>
<feColorMatrix type="matrix" values="0 0 0 0 0 0 0 0 0 0 0 0 0 0 0 0 0 0 0.25 0"/>
<feBlend mode="normal" in2="BackgroundImageFix" result="effect1_dropShadow_13_9791"/>
<feBlend mode="normal" in="SourceGraphic" in2="effect1_dropShadow_13_9791" result="shape"/>
</filter>
<filter id="filter3_d_13_9791" x="157.064" y="19.385" width="99.8096" height="213.615" filterUnits="userSpaceOnUse" color-interpolation-filters="sRGB">
<feFlood flood-opacity="0" result="BackgroundImageFix"/>
<feColorMatrix in="SourceAlpha" type="matrix" values="0 0 0 0 0 0 0 0 0 0 0 0 0 0 0 0 0 0 127 0" result="hardAlpha"/>
<feOffset dy="4"/>
<feGaussianBlur stdDeviation="2"/>
<feComposite in2="hardAlpha" operator="out"/>
<feColorMatrix type="matrix" values="0 0 0 0 0 0 0 0 0 0 0 0 0 0 0 0 0 0 0.25 0"/>
<feBlend mode="normal" in2="BackgroundImageFix" result="effect1_dropShadow_13_9791"/>
<feBlend mode="normal" in="SourceGraphic" in2="effect1_dropShadow_13_9791" result="shape"/>
</filter>
<filter id="filter4_d_13_9791" x="64.905" y="17.4724" width="98.8533" height="215.528" filterUnits="userSpaceOnUse" color-interpolation-filters="sRGB">
<feFlood flood-opacity="0" result="BackgroundImageFix"/>
<feColorMatrix in="SourceAlpha" type="matrix" values="0 0 0 0 0 0 0 0 0 0 0 0 0 0 0 0 0 0 127 0" result="hardAlpha"/>
<feOffset dy="4"/>
<feGaussianBlur stdDeviation="2"/>
<feComposite in2="hardAlpha" operator="out"/>
<feColorMatrix type="matrix" values="0 0 0 0 0 0 0 0 0 0 0 0 0 0 0 0 0 0 0.25 0"/>
<feBlend mode="normal" in2="BackgroundImageFix" result="effect1_dropShadow_13_9791"/>
<feBlend mode="normal" in="SourceGraphic" in2="effect1_dropShadow_13_9791" result="shape"/>
</filter>
<filter id="filter5_d_13_9791" x="309.997" y="-8" width="98.8531" height="215.528" filterUnits="userSpaceOnUse" color-interpolation-filters="sRGB">
<feFlood flood-opacity="0" result="BackgroundImageFix"/>
<feColorMatrix in="SourceAlpha" type="matrix" values="0 0 0 0 0 0 0 0 0 0 0 0 0 0 0 0 0 0 127 0" result="hardAlpha"/>
<feOffset dy="4"/>
<feGaussianBlur stdDeviation="2"/>
<feComposite in2="hardAlpha" operator="out"/>
<feColorMatrix type="matrix" values="0 0 0 0 0 0 0 0 0 0 0 0 0 0 0 0 0 0 0.25 0"/>
<feBlend mode="normal" in2="BackgroundImageFix" result="effect1_dropShadow_13_9791"/>
<feBlend mode="normal" in="SourceGraphic" in2="effect1_dropShadow_13_9791" result="shape"/>
</filter>
<filter id="filter6_d_13_9791" x="259" y="16" width="96.6875" height="204" filterUnits="userSpaceOnUse" color-interpolation-filters="sRGB">
<feFlood flood-opacity="0" result="BackgroundImageFix"/>
<feColorMatrix in="SourceAlpha" type="matrix" values="0 0 0 0 0 0 0 0 0 0 0 0 0 0 0 0 0 0 127 0" result="hardAlpha"/>
<feOffset dy="4"/>
<feGaussianBlur stdDeviation="2"/>
<feComposite in2="hardAlpha" operator="out"/>
<feColorMatrix type="matrix" values="0 0 0 0 0 0 0 0 0 0 0 0 0 0 0 0 0 0 0.25 0"/>
<feBlend mode="normal" in2="BackgroundImageFix" result="effect1_dropShadow_13_9791"/>
<feBlend mode="normal" in="SourceGraphic" in2="effect1_dropShadow_13_9791" result="shape"/>
</filter>
<clipPath id="clip0_13_9791">
<rect width="429" height="163" fill="white"/>
</clipPath>
<clipPath id="clip1_13_9791">
<rect width="81.7679" height="91.3845" fill="white" transform="translate(28.0208 106.231)"/>
</clipPath>
<clipPath id="clip2_13_9791">
<rect width="80.9161" height="91.3845" fill="white" transform="translate(130.431 98.2307)"/>
</clipPath>
<clipPath id="clip3_13_9791">
<rect width="81.7679" height="91.3845" fill="white" transform="translate(216.294 98.2307)"/>
</clipPath>
<clipPath id="clip4_13_9791">
<rect width="81.7679" height="91.3845" fill="white" transform="translate(166.084 133.616)"/>
</clipPath>
<clipPath id="clip5_13_9791">
<rect width="80.9161" height="92.2346" fill="white" transform="translate(73.8735 132.766)"/>
</clipPath>
<clipPath id="clip6_13_9791">
<rect width="80.9161" height="92.2346" fill="white" transform="translate(318.965 107.293)"/>
</clipPath>
</defs>
</svg>
