<svg width="429" height="163" viewBox="0 0 429 163" fill="none" xmlns="http://www.w3.org/2000/svg">
<g clip-path="url(#clip0_13_9795)">
<path d="M30.7816 9.84036C32.0519 4.0928 37.1559 0 43.0533 0H385.947C391.844 0 396.948 4.0928 398.218 9.84036L428.7 147.757C429.92 153.277 427.31 158.594 422.847 161.247L391.803 163H31.2367L6.83 161.622C1.95858 159.12 -0.980645 153.551 0.30003 147.757L30.7816 9.84036Z" fill="#F3F6F8"/>
<g filter="url(#filter0_d_13_9795)">
<rect x="58.1458" y="89.0962" width="22.9524" height="17.1346" fill="#E2A56B"/>
<path d="M81.0981 98.696C77.7389 100.321 73.9667 101.233 69.9806 101.233H68.5461C64.8412 101.233 61.3212 100.445 58.1458 99.0294V92.6658H81.0981V98.696Z" fill="#9D6445"/>
<path fill-rule="evenodd" clip-rule="evenodd" d="M43.0833 35.3148C43.0833 20.856 54.8045 9.13477 69.2633 9.13477C83.7222 9.13477 95.4434 20.856 95.4434 35.3148V51.9712C99.4047 51.9712 102.616 55.1677 102.616 59.1106C102.616 63.0536 99.4047 66.2501 95.4434 66.2501V70.7695C95.4434 85.2283 83.7222 96.9495 69.2633 96.9495C54.8045 96.9495 43.0833 85.2283 43.0833 70.7695L43.0833 66.2501C39.1219 66.2501 35.9106 63.0536 35.9106 59.1106C35.9106 55.1677 39.1219 51.9712 43.0833 51.9712L43.0833 35.3148Z" fill="#E2A56B"/>
<path d="M66.7529 63.3946C66.7531 65.3659 68.3587 66.9639 70.3392 66.9639C72.3199 66.9639 73.9255 65.3657 73.9255 63.3942V53.399C73.9255 52.5953 73.6587 51.8535 73.2083 51.2569C73.2083 51.2568 73.2083 51.257 73.2083 51.2569V61.2524C73.2083 63.2239 71.6026 64.8221 69.622 64.8221C68.4488 64.8221 67.4072 64.2614 66.7529 63.3946Z" fill="#CA5D22"/>
<path d="M48.748 -0.287905C52.3584 -3.21975 57.6069 -0.46242 59.7798 1.28272C62.287 3.3769 68.4047 7.56524 72.8175 7.56524C78.3334 7.56524 92.3739 2.85335 98.8927 7.56524C105.411 12.2771 101.901 21.1774 100.898 25.3657C99.8956 29.5541 104.409 32.6953 105.411 37.9308C106.414 43.1662 96.8869 51.0193 94.3796 54.6842C95.3825 47.3545 93.3768 31.1247 91.371 29.5541C89.3652 27.9834 82.8464 33.2189 75.8261 33.7424C68.8059 34.266 57.7742 21.282 48.748 26.9363C44.7365 29.4494 43.3993 47.5291 43.2321 56.2548C43.065 55.0332 42.2294 49.9723 40.7249 47.8781C37.9509 44.0167 29.693 38.9778 30.1945 33.7424C30.7743 27.6891 35.7104 31.6482 35.2089 25.3657C34.7075 19.0832 35.2089 17.5126 38.2176 15.9419C41.2263 14.3713 44.7364 16.989 46.7422 14.3713C48.3468 12.2771 47.4108 10.3575 46.7422 9.65942C45.9064 7.56524 45.1376 2.64394 48.748 -0.287905Z" fill="#4F4C4C"/>
<path d="M60.2976 53.756C60.2976 55.136 59.1736 56.2548 57.7872 56.2548C56.4007 56.2548 55.2768 55.136 55.2768 53.756C55.2768 52.3759 56.4007 51.2572 57.7872 51.2572C59.1736 51.2572 60.2976 52.3759 60.2976 53.756Z" fill="#333333"/>
<path d="M83.9672 53.756C83.9672 55.136 82.8433 56.2548 81.4568 56.2548C80.0703 56.2548 78.9464 55.136 78.9464 53.756C78.9464 52.3759 80.0703 51.2572 81.4568 51.2572C82.8433 51.2572 83.9672 52.3759 83.9672 53.756Z" fill="#333333"/>
<path d="M81.8154 78.3869H69.5737C65.3066 78.3869 61.5055 81.0713 60.0958 85.0802L59.939 85.5263H79.305L81.8154 78.3869Z" fill="#333333"/>
<path d="M63.5253 43.4038H53.366L52.0491 46.9735H62.2083L63.5253 43.4038Z" fill="#333333"/>
<path d="M88.6294 43.4038H78.4702L77.1532 46.9735H87.3125L88.6294 43.4038Z" fill="#333333"/>
<g clip-path="url(#clip1_13_9795)">
<path d="M28.0208 119.286C28.0208 112.076 33.8011 106.231 40.9315 106.231H96.8779C104.008 106.231 109.789 112.076 109.789 119.286V183.835C109.789 191.045 104.008 196.89 96.8779 196.89H40.9315C33.8011 196.89 28.0208 191.045 28.0208 183.835V119.286Z" fill="#FD86B1"/>
<ellipse cx="69.2634" cy="160.989" rx="24.0283" ry="24.2967" fill="white"/>
<path fill-rule="evenodd" clip-rule="evenodd" d="M60.1873 175.998C60.2147 175.998 60.242 175.997 60.2691 175.994C60.7047 175.952 61.0407 175.577 61.0407 175.135C61.0407 174.901 60.9472 174.677 60.7813 174.515L60.1039 173.828L64.4483 169.435L66.4053 171.416C66.5662 171.583 66.7871 171.677 67.0178 171.677L67.025 171.677C67.4936 171.677 67.8789 171.288 67.8789 170.814C67.8789 170.579 67.7842 170.354 67.6167 170.191L66.9394 169.506L78.7197 157.592C79.049 157.258 79.049 156.709 78.7198 156.374L76.7593 154.392L81.2357 149.866C82.1662 149.056 80.8316 147.707 80.0311 148.648L75.5549 153.174L73.5945 151.19C73.2636 150.857 72.721 150.857 72.3899 151.19L60.6077 163.104L59.9288 162.419C59.7694 162.265 59.5574 162.179 59.3371 162.179C58.8674 162.179 58.4809 162.57 58.4809 163.045C58.4809 163.268 58.5664 163.483 58.7191 163.644L60.6796 165.626L56.3318 170.016L55.6542 169.331C55.4922 169.141 55.256 169.032 55.008 169.032C54.5395 169.032 54.154 169.421 54.154 169.895C54.154 170.146 54.262 170.385 54.4498 170.549L59.5766 175.733C59.7364 175.901 59.9568 175.997 60.1873 175.998ZM58.8961 172.608L57.5396 171.237L61.884 166.844L63.2405 168.216L58.8961 172.608ZM61.8157 164.325L65.7347 168.288L67.4177 166.586L65.7274 164.877L66.3314 164.266L68.0218 165.975L69.2298 164.754L67.5395 163.045L68.1435 162.434L69.8338 164.143L71.0419 162.922L69.3515 161.212L69.9556 160.602L71.6459 162.311L72.8539 161.089L71.1636 159.38L71.7676 158.769L73.4579 160.479L74.666 159.257L72.9757 157.548L73.5797 156.937L75.27 158.646L76.9112 156.987L72.9888 153.02L61.8157 164.325Z" fill="#5C5C5C"/>
<path fill-rule="evenodd" clip-rule="evenodd" d="M91.9568 160.989C91.9568 173.662 81.7966 183.936 69.2634 183.936C56.7302 183.936 46.5701 173.662 46.5701 160.989C46.5701 148.316 56.7302 138.042 69.2634 138.042C81.7966 138.042 91.9568 148.316 91.9568 160.989ZM87.3894 160.989C87.3894 150.866 79.2742 142.66 69.2634 142.66C65.0099 142.66 61.0986 144.142 58.0066 146.622L83.8913 171.815C86.0906 168.781 87.3894 165.038 87.3894 160.989ZM69.2634 179.317C59.2527 179.317 51.1374 171.111 51.1374 160.989C51.1374 157.036 52.375 153.375 54.4797 150.381L80.3104 175.521C77.2521 177.902 73.4213 179.317 69.2634 179.317Z" fill="#FD86B1"/>
<path d="M69.6218 121.461C77.9406 121.461 84.6843 114.642 84.6843 106.231H54.5593C54.5593 114.642 61.303 121.461 69.6218 121.461Z" fill="#E2A56B"/>
</g>
</g>
<g filter="url(#filter1_d_13_9795)">
<rect x="160.242" y="81.0962" width="22.7133" height="17.1346" fill="#E2A56B"/>
<path d="M182.956 90.696C179.631 92.3214 175.899 93.2331 171.954 93.2331H170.534C166.868 93.2331 163.385 92.4455 160.242 91.0294V84.6658H182.956V90.696Z" fill="#9D6445"/>
<path fill-rule="evenodd" clip-rule="evenodd" d="M145.337 27.0421C145.337 12.7339 156.936 1.13477 171.244 1.13477C185.552 1.13477 197.151 12.7339 197.151 27.0421L197.151 43.9712C201.071 43.9712 204.249 47.1677 204.249 51.1106C204.249 55.0536 201.071 58.2501 197.151 58.2501L197.151 63.0422C197.151 77.3504 185.552 88.9495 171.244 88.9495C156.936 88.9495 145.337 77.3504 145.337 63.0422L145.337 58.2501C141.417 58.2501 138.239 55.0536 138.239 51.1106C138.239 47.1677 141.417 43.9712 145.337 43.9712L145.337 27.0421Z" fill="#E2A56B"/>
<path d="M168.76 55.3946C168.76 57.3659 170.349 58.9639 172.309 58.9639C174.269 58.9639 175.858 57.3657 175.858 55.3942V45.399C175.858 44.5953 175.594 43.8535 175.148 43.2569C175.148 43.2568 175.148 43.257 175.148 43.2569V53.2524C175.148 55.2239 173.559 56.8221 171.599 56.8221C170.438 56.8221 169.407 56.2614 168.76 55.3946Z" fill="#CA5D22"/>
<path d="M150.942 -8.28791C154.515 -11.2197 159.709 -8.46242 161.859 -6.71728C164.34 -4.6231 170.394 -0.434757 174.761 -0.434757C180.22 -0.434757 194.114 -5.14665 200.565 -0.434757C207.016 4.27713 203.542 13.1774 202.55 17.3657C201.557 21.5541 206.023 24.6953 207.016 29.9308C208.008 35.1662 198.58 43.0193 196.099 46.6842C197.091 39.3545 195.106 23.1247 193.121 21.5541C191.137 19.9834 184.686 25.2189 177.739 25.7424C170.791 26.266 159.875 13.282 150.942 18.9363C146.973 21.4494 145.649 39.5291 145.484 48.2548C145.319 47.0332 144.492 41.9723 143.003 39.8781C140.258 36.0167 132.086 30.9778 132.582 25.7424C133.156 19.6891 138.041 23.6482 137.544 17.3657C137.048 11.0832 137.544 9.51257 140.522 7.94194C143.499 6.37131 146.973 8.98903 148.958 6.37131C150.545 4.27713 149.619 2.35747 148.958 1.65942C148.13 -0.434756 147.37 -5.35606 150.942 -8.28791Z" fill="#4F4C4C"/>
<path d="M162.372 45.756C162.372 47.136 161.26 48.2548 159.888 48.2548C158.516 48.2548 157.403 47.136 157.403 45.756C157.403 44.3759 158.516 43.2572 159.888 43.2572C161.26 43.2572 162.372 44.3759 162.372 45.756Z" fill="#333333"/>
<path d="M185.795 45.756C185.795 47.136 184.683 48.2548 183.311 48.2548C181.939 48.2548 180.826 47.136 180.826 45.756C180.826 44.3759 181.939 43.2572 183.311 43.2572C184.683 43.2572 185.795 44.3759 185.795 45.756Z" fill="#333333"/>
<path d="M183.666 70.3869H171.551C167.329 70.3869 163.567 73.0713 162.172 77.0802L162.017 77.5263H181.181L183.666 70.3869Z" fill="#333333"/>
<path d="M165.566 35.4038H155.512L154.209 38.9735H164.263L165.566 35.4038Z" fill="#333333"/>
<path d="M190.409 35.4038H180.355L179.052 38.9735H189.105L190.409 35.4038Z" fill="#333333"/>
<g clip-path="url(#clip2_13_9795)">
<path d="M130.431 111.286C130.431 104.076 136.151 98.2307 143.207 98.2307H198.571C205.627 98.2307 211.347 104.076 211.347 111.286V175.835C211.347 183.045 205.627 188.89 198.571 188.89H143.207C136.151 188.89 130.431 183.045 130.431 175.835V111.286Z" fill="#EEC750"/>
<ellipse cx="171.244" cy="152.989" rx="23.778" ry="24.2967" fill="white"/>
<path fill-rule="evenodd" clip-rule="evenodd" d="M162.263 167.998C162.29 167.998 162.317 167.997 162.344 167.994C162.775 167.952 163.107 167.577 163.107 167.135C163.107 166.901 163.015 166.677 162.85 166.515L162.18 165.828L166.479 161.435L168.416 163.416C168.575 163.583 168.794 163.677 169.022 163.677L169.029 163.677C169.493 163.677 169.874 163.288 169.874 162.814C169.874 162.579 169.78 162.354 169.615 162.191L168.944 161.506L180.602 149.592C180.928 149.258 180.928 148.709 180.602 148.374L178.662 146.392L183.092 141.866C184.013 141.056 182.692 139.707 181.9 140.648L177.47 145.174L175.53 143.19C175.203 142.857 174.666 142.857 174.338 143.19L162.679 155.104L162.007 154.419C161.849 154.265 161.639 154.179 161.421 154.179C160.957 154.179 160.574 154.57 160.574 155.045C160.574 155.268 160.659 155.483 160.81 155.644L162.75 157.626L158.447 162.016L157.777 161.331C157.616 161.141 157.383 161.032 157.137 161.032C156.674 161.032 156.292 161.421 156.292 161.895C156.292 162.146 156.399 162.385 156.585 162.549L161.658 167.733C161.817 167.901 162.035 167.997 162.263 167.998ZM160.985 164.608L159.643 163.237L163.942 158.844L165.284 160.216L160.985 164.608ZM163.874 156.325L167.752 160.288L169.418 158.586L167.745 156.877L168.343 156.266L170.016 157.975L171.211 156.754L169.538 155.045L170.136 154.434L171.809 156.143L173.004 154.922L171.331 153.212L171.929 152.602L173.602 154.311L174.797 153.089L173.125 151.38L173.722 150.769L175.395 152.479L176.591 151.257L174.918 149.548L175.516 148.937L177.188 150.646L178.812 148.987L174.931 145.02L163.874 156.325Z" fill="#5C5C5C"/>
<path fill-rule="evenodd" clip-rule="evenodd" d="M193.701 152.989C193.701 165.662 183.647 175.936 171.244 175.936C158.841 175.936 148.787 165.662 148.787 152.989C148.787 140.316 158.841 130.042 171.244 130.042C183.647 130.042 193.701 140.316 193.701 152.989ZM189.181 152.989C189.181 142.866 181.151 134.66 171.244 134.66C167.035 134.66 163.164 136.142 160.105 138.622L185.72 163.815C187.896 160.781 189.181 157.038 189.181 152.989ZM171.244 171.317C161.338 171.317 153.307 163.111 153.307 152.989C153.307 149.036 154.532 145.375 156.614 142.381L182.176 167.521C179.15 169.902 175.359 171.317 171.244 171.317Z" fill="#C64875"/>
<path d="M171.599 113.461C179.831 113.461 186.505 106.642 186.505 98.2307H156.693C156.693 106.642 163.367 113.461 171.599 113.461Z" fill="#E2A56B"/>
</g>
</g>
<g filter="url(#filter2_d_13_9795)">
<rect x="246.419" y="81.0962" width="22.9524" height="17.1346" fill="#E2A56B"/>
<path d="M269.372 90.696C266.012 92.3214 262.24 93.2331 258.254 93.2331H256.819C253.115 93.2331 249.595 92.4455 246.419 91.0294V84.6658H269.372V90.696Z" fill="#9D6445"/>
<path fill-rule="evenodd" clip-rule="evenodd" d="M231.357 27.3148C231.357 12.856 243.078 1.13477 257.537 1.13477C271.996 1.13477 283.717 12.856 283.717 27.3148V43.9712C287.678 43.9712 290.889 47.1677 290.889 51.1106C290.889 55.0536 287.678 58.2501 283.717 58.2501V62.7695C283.717 77.2283 271.996 88.9495 257.537 88.9495C243.078 88.9495 231.357 77.2283 231.357 62.7695L231.357 58.2501C227.395 58.2501 224.184 55.0536 224.184 51.1106C224.184 47.1677 227.395 43.9712 231.357 43.9712L231.357 27.3148Z" fill="#E2A56B"/>
<path d="M255.026 55.3946C255.027 57.3659 256.632 58.9639 258.613 58.9639C260.593 58.9639 262.199 57.3657 262.199 55.3942V45.399C262.199 44.5953 261.932 43.8535 261.482 43.2569C261.482 43.2568 261.482 43.257 261.482 43.2569V53.2524C261.482 55.2239 259.876 56.8221 257.895 56.8221C256.722 56.8221 255.681 56.2614 255.026 55.3946Z" fill="#CA5D22"/>
<path d="M237.021 -8.28791C240.632 -11.2197 245.88 -8.46242 248.053 -6.71728C250.56 -4.6231 256.678 -0.434757 261.091 -0.434757C266.607 -0.434757 280.647 -5.14665 287.166 -0.434757C293.685 4.27713 290.175 13.1774 289.172 17.3657C288.169 21.5541 292.682 24.6953 293.685 29.9308C294.688 35.1662 285.16 43.0193 282.653 46.6842C283.656 39.3545 281.65 23.1247 279.644 21.5541C277.639 19.9834 271.12 25.2189 264.1 25.7424C257.079 26.266 246.048 13.282 237.021 18.9363C233.01 21.4494 231.673 39.5291 231.506 48.2548C231.338 47.0332 230.503 41.9723 228.998 39.8781C226.224 36.0167 217.966 30.9778 218.468 25.7424C219.048 19.6891 223.984 23.6482 223.482 17.3657C222.981 11.0832 223.482 9.51257 226.491 7.94194C229.5 6.37131 233.01 8.98903 235.016 6.37131C236.62 4.27713 235.684 2.35747 235.016 1.65942C234.18 -0.434756 233.411 -5.35606 237.021 -8.28791Z" fill="#4F4C4C"/>
<path d="M248.571 45.756C248.571 47.136 247.447 48.2548 246.061 48.2548C244.674 48.2548 243.55 47.136 243.55 45.756C243.55 44.3759 244.674 43.2572 246.061 43.2572C247.447 43.2572 248.571 44.3759 248.571 45.756Z" fill="#333333"/>
<path d="M272.241 45.756C272.241 47.136 271.117 48.2548 269.73 48.2548C268.344 48.2548 267.22 47.136 267.22 45.756C267.22 44.3759 268.344 43.2572 269.73 43.2572C271.117 43.2572 272.241 44.3759 272.241 45.756Z" fill="#333333"/>
<path d="M270.089 70.3869H257.847C253.58 70.3869 249.779 73.0713 248.369 77.0802L248.212 77.5263H267.578L270.089 70.3869Z" fill="#333333"/>
<path d="M251.799 35.4038H241.639L240.323 38.9735H250.482L251.799 35.4038Z" fill="#333333"/>
<path d="M276.903 35.4038H266.744L265.427 38.9735H275.586L276.903 35.4038Z" fill="#333333"/>
<g clip-path="url(#clip3_13_9795)">
<path d="M216.294 111.286C216.294 104.076 222.075 98.2307 229.205 98.2307H285.151C292.282 98.2307 298.062 104.076 298.062 111.286V175.835C298.062 183.045 292.282 188.89 285.151 188.89H229.205C222.075 188.89 216.294 183.045 216.294 175.835V111.286Z" fill="#65C3C9"/>
<ellipse cx="257.537" cy="152.989" rx="24.0283" ry="24.2967" fill="white"/>
<path fill-rule="evenodd" clip-rule="evenodd" d="M248.461 167.998C248.488 167.998 248.515 167.997 248.543 167.994C248.978 167.952 249.314 167.577 249.314 167.135C249.314 166.901 249.221 166.677 249.055 166.515L248.377 165.828L252.722 161.435L254.679 163.416C254.84 163.583 255.06 163.677 255.291 163.677L255.298 163.677C255.767 163.677 256.152 163.288 256.152 162.814C256.152 162.579 256.058 162.354 255.89 162.191L255.213 161.506L266.993 149.592C267.322 149.258 267.322 148.709 266.993 148.374L265.033 146.392L269.509 141.866C270.44 141.056 269.105 139.707 268.305 140.648L263.828 145.174L261.868 143.19C261.537 142.857 260.994 142.857 260.663 143.19L248.881 155.104L248.202 154.419C248.043 154.265 247.831 154.179 247.611 154.179C247.141 154.179 246.754 154.57 246.754 155.045C246.754 155.268 246.84 155.483 246.993 155.644L248.953 157.626L244.605 162.016L243.928 161.331C243.766 161.141 243.529 161.032 243.281 161.032C242.813 161.032 242.427 161.421 242.427 161.895C242.427 162.146 242.535 162.385 242.723 162.549L247.85 167.733C248.01 167.901 248.23 167.997 248.461 167.998ZM247.17 164.608L245.813 163.237L250.157 158.844L251.514 160.216L247.17 164.608ZM250.089 156.325L254.008 160.288L255.691 158.586L254.001 156.877L254.605 156.266L256.295 157.975L257.503 156.754L255.813 155.045L256.417 154.434L258.107 156.143L259.315 154.922L257.625 153.212L258.229 152.602L259.919 154.311L261.127 153.089L259.437 151.38L260.041 150.769L261.731 152.479L262.939 151.257L261.249 149.548L261.853 148.937L263.543 150.646L265.185 148.987L261.262 145.02L250.089 156.325Z" fill="#5C5C5C"/>
<path fill-rule="evenodd" clip-rule="evenodd" d="M280.23 152.989C280.23 165.662 270.07 175.936 257.537 175.936C245.004 175.936 234.844 165.662 234.844 152.989C234.844 140.316 245.004 130.042 257.537 130.042C270.07 130.042 280.23 140.316 280.23 152.989ZM275.663 152.989C275.663 142.866 267.548 134.66 257.537 134.66C253.283 134.66 249.372 136.142 246.28 138.622L272.165 163.815C274.364 160.781 275.663 157.038 275.663 152.989ZM257.537 171.317C247.526 171.317 239.411 163.111 239.411 152.989C239.411 149.036 240.648 145.375 242.753 142.381L268.584 167.521C265.526 169.902 261.695 171.317 257.537 171.317Z" fill="#C64875"/>
<path d="M257.895 113.461C266.214 113.461 272.958 106.642 272.958 98.2307H242.833C242.833 106.642 249.576 113.461 257.895 113.461Z" fill="#E2A56B"/>
</g>
</g>
<g filter="url(#filter3_d_13_9795)">
<rect x="196.209" y="116.481" width="22.9524" height="17.1346" fill="#E2A56B"/>
<path d="M219.162 126.081C215.803 127.706 212.03 128.618 208.044 128.618H206.61C202.905 128.618 199.385 127.831 196.209 126.414V120.051H219.162V126.081Z" fill="#9D6445"/>
<path fill-rule="evenodd" clip-rule="evenodd" d="M181.147 62.6999C181.147 48.241 192.868 36.5198 207.327 36.5198C221.786 36.5198 233.507 48.241 233.507 62.6998V79.3562C237.468 79.3562 240.68 82.5527 240.68 86.4957C240.68 90.4387 237.468 93.6351 233.507 93.6351V98.1545C233.507 112.613 221.786 124.335 207.327 124.335C192.868 124.335 181.147 112.613 181.147 98.1545L181.147 93.6351C177.186 93.6351 173.974 90.4387 173.974 86.4957C173.974 82.5527 177.186 79.3562 181.147 79.3562L181.147 62.6999Z" fill="#E2A56B"/>
<path d="M204.817 90.7796C204.817 92.7509 206.422 94.3489 208.403 94.3489C210.384 94.3489 211.989 92.7507 211.989 90.7792V80.784C211.989 79.9803 211.722 79.2386 211.272 78.6419C211.272 78.6418 211.272 78.642 211.272 78.6419V88.6374C211.272 90.6089 209.666 92.2071 207.686 92.2071C206.513 92.2071 205.471 91.6464 204.817 90.7796Z" fill="#CA5D22"/>
<path d="M186.812 27.0971C190.422 24.1653 195.671 26.9226 197.844 28.6677C200.351 30.7619 206.468 34.9503 210.881 34.9503C216.397 34.9503 230.438 30.2384 236.956 34.9503C243.475 39.6621 239.965 48.5624 238.962 52.7507C237.959 56.9391 242.472 60.0803 243.475 65.3158C244.478 70.5512 234.951 78.4044 232.443 82.0692C233.446 74.7396 231.44 58.5097 229.435 56.9391C227.429 55.3684 220.91 60.6039 213.89 61.1274C206.87 61.651 195.838 48.667 186.812 54.3214C182.8 56.8344 181.463 74.9141 181.296 83.6398C181.129 82.4182 180.293 77.3573 178.789 75.2631C176.015 71.4017 167.757 66.3629 168.258 61.1274C168.838 55.0741 173.774 59.0332 173.273 52.7507C172.771 46.4682 173.273 44.8976 176.281 43.3269C179.29 41.7563 182.8 44.374 184.806 41.7563C186.411 39.6621 185.474 37.7425 184.806 37.0444C183.97 34.9503 183.201 30.0289 186.812 27.0971Z" fill="#4F4C4C"/>
<path d="M198.361 81.141C198.361 82.521 197.237 83.6398 195.851 83.6398C194.464 83.6398 193.34 82.521 193.34 81.141C193.34 79.7609 194.464 78.6422 195.851 78.6422C197.237 78.6422 198.361 79.7609 198.361 81.141Z" fill="#333333"/>
<path d="M222.031 81.141C222.031 82.521 220.907 83.6398 219.521 83.6398C218.134 83.6398 217.01 82.521 217.01 81.141C217.01 79.7609 218.134 78.6422 219.521 78.6422C220.907 78.6422 222.031 79.7609 222.031 81.141Z" fill="#333333"/>
<path d="M219.879 105.772H207.637C203.37 105.772 199.569 108.456 198.16 112.465L198.003 112.911H217.369L219.879 105.772Z" fill="#333333"/>
<path d="M201.589 70.7888H191.43L190.113 74.3585H200.272L201.589 70.7888Z" fill="#333333"/>
<path d="M226.693 70.7888H216.534L215.217 74.3585H225.376L226.693 70.7888Z" fill="#333333"/>
<g clip-path="url(#clip4_13_9795)">
<path d="M166.084 146.671C166.084 139.461 171.865 133.616 178.995 133.616H234.942C242.072 133.616 247.852 139.461 247.852 146.671V211.22C247.852 218.43 242.072 224.275 234.942 224.275H178.995C171.865 224.275 166.084 218.43 166.084 211.22V146.671Z" fill="#41CA7B"/>
<path d="M207.686 148.846C216.004 148.846 222.748 142.027 222.748 133.616H192.623C192.623 142.027 199.367 148.846 207.686 148.846Z" fill="#E2A56B"/>
</g>
</g>
<g filter="url(#filter4_d_13_9795)">
<rect x="103.685" y="115.472" width="22.7133" height="17.294" fill="#E2A56B"/>
<path d="M126.398 125.161C123.074 126.802 119.341 127.722 115.396 127.722H113.977C110.311 127.722 106.827 126.927 103.685 125.498V119.075H126.398V125.161Z" fill="#9D6445"/>
<path fill-rule="evenodd" clip-rule="evenodd" d="M88.7791 60.674C88.7791 46.3657 100.378 34.7666 114.686 34.7666C128.995 34.7666 140.594 46.3657 140.594 60.674L140.594 78.0016C144.514 78.0016 147.692 81.2277 147.692 85.2074C147.692 89.187 144.514 92.4132 140.594 92.4132L140.594 97.4909C140.594 111.799 128.995 123.398 114.686 123.398C100.378 123.398 88.7791 111.799 88.7791 97.4909L88.7791 92.4132C84.859 92.4132 81.6812 89.187 81.6812 85.2074C81.6812 81.2277 84.859 78.0016 88.7791 78.0016L88.7791 60.674Z" fill="#E2A56B"/>
<path d="M112.202 89.5312C112.202 91.5208 113.791 93.1337 115.751 93.1337C117.711 93.1337 119.3 91.5206 119.3 89.5308V79.4426C119.3 78.6314 119.036 77.8828 118.59 77.2806C118.59 77.2804 118.59 77.2807 118.59 77.2806V87.3691C118.59 89.3589 117.001 90.972 115.041 90.972C113.88 90.972 112.85 90.4061 112.202 89.5312Z" fill="#CA5D22"/>
<path d="M94.3848 25.2563C97.9576 22.2972 103.151 25.0802 105.302 26.8415C107.783 28.9552 113.837 33.1825 118.204 33.1825C123.662 33.1825 137.556 28.4268 144.007 33.1825C150.458 37.9382 146.984 46.9212 145.992 51.1486C145 55.3759 149.466 58.5463 150.458 63.8305C151.45 69.1146 142.022 77.0408 139.541 80.7397C140.534 73.3419 138.549 56.9611 136.564 55.3759C134.579 53.7906 128.128 59.0748 121.181 59.6032C114.234 60.1316 103.317 47.0269 94.3849 52.7338C90.4151 55.2702 89.0918 73.5181 88.9264 82.325C88.761 81.092 87.9341 75.984 86.4453 73.8703C83.7002 69.973 75.5284 64.8873 76.0246 59.6032C76.5983 53.4935 81.483 57.4895 80.9868 51.1486C80.4906 44.8076 80.9868 43.2223 83.9641 41.6371C86.9415 40.0519 90.415 42.6939 92.3999 40.0519C93.9878 37.9382 93.0615 36.0007 92.3999 35.2961C91.5729 33.1825 90.812 28.2154 94.3848 25.2563Z" fill="#4F4C4C"/>
<path d="M105.814 79.8029C105.814 81.1958 104.702 82.325 103.33 82.325C101.958 82.325 100.846 81.1958 100.846 79.8029C100.846 78.4101 101.958 77.2809 103.33 77.2809C104.702 77.2809 105.814 78.4101 105.814 79.8029Z" fill="#333333"/>
<path d="M129.237 79.8029C129.237 81.1958 128.125 82.325 126.753 82.325C125.381 82.325 124.269 81.1958 124.269 79.8029C124.269 78.4101 125.381 77.2809 126.753 77.2809C128.125 77.2809 129.237 78.4101 129.237 79.8029Z" fill="#333333"/>
<path d="M127.108 104.663H114.994C110.771 104.663 107.01 107.372 105.615 111.419L105.459 111.869H124.624L127.108 104.663Z" fill="#333333"/>
<path d="M109.008 69.3545H98.9548L97.6516 72.9574H107.705L109.008 69.3545Z" fill="#333333"/>
<path d="M133.851 69.3545H123.798L122.494 72.9574H132.548L133.851 69.3545Z" fill="#333333"/>
<g clip-path="url(#clip5_13_9795)">
<path d="M73.8735 145.942C73.8735 138.665 79.5936 132.766 86.6498 132.766H142.013C149.07 132.766 154.79 138.665 154.79 145.942V211.092C154.79 218.369 149.07 224.268 142.013 224.268H86.6498C79.5936 224.268 73.8735 218.369 73.8735 211.092V145.942Z" fill="#F5A35A"/>
<path d="M115.041 148.138C123.273 148.138 129.947 141.256 129.947 132.766H100.136C100.136 141.256 106.809 148.138 115.041 148.138Z" fill="#E2A56B"/>
</g>
</g>
<g filter="url(#filter5_d_13_9795)">
<rect x="348.777" y="89.9993" width="22.7133" height="17.294" fill="#E2A56B"/>
<path d="M371.49 99.6886C368.166 101.329 364.433 102.249 360.488 102.249H359.069C355.402 102.249 351.919 101.454 348.777 100.025V93.6023H371.49V99.6886Z" fill="#9D6445"/>
<path fill-rule="evenodd" clip-rule="evenodd" d="M333.871 35.2016C333.871 20.8933 345.47 9.29419 359.778 9.29419C374.086 9.29419 385.686 20.8933 385.686 35.2015L385.686 52.5291C389.606 52.5291 392.783 55.7553 392.783 59.735C392.783 63.7146 389.606 66.9408 385.686 66.9408L385.686 72.0185C385.686 86.3267 374.086 97.9258 359.778 97.9258C345.47 97.9258 333.871 86.3267 333.871 72.0185L333.871 66.9408C329.951 66.9408 326.773 63.7146 326.773 59.735C326.773 55.7553 329.951 52.5291 333.871 52.5291L333.871 35.2016Z" fill="#E2A56B"/>
<path d="M357.294 64.0587C357.294 66.0484 358.883 67.6613 360.843 67.6613C362.803 67.6613 364.392 66.0482 364.392 64.0584V53.9702C364.392 53.159 364.128 52.4104 363.682 51.8081C363.682 51.808 363.682 51.8083 363.682 51.8081V61.8966C363.682 63.8865 362.093 65.4996 360.133 65.4996C358.972 65.4996 357.941 64.9337 357.294 64.0587Z" fill="#CA5D22"/>
<path d="M339.477 -0.216123C343.049 -3.17524 348.243 -0.392261 350.393 1.36912C352.875 3.48277 358.929 7.71008 363.295 7.71008C368.754 7.71008 382.648 2.95435 389.099 7.71008C395.55 12.4658 392.076 21.4488 391.084 25.6761C390.091 29.9034 394.557 33.0739 395.55 38.3581C396.542 43.6422 387.114 51.5684 384.633 55.2673C385.625 47.8695 383.64 31.4887 381.656 29.9034C379.671 28.3182 373.22 33.6023 366.273 34.1308C359.326 34.6592 348.409 21.5544 339.477 27.2614C335.507 29.7978 334.184 48.0456 334.018 56.8525C333.853 55.6196 333.026 50.5116 331.537 48.3979C328.792 44.5006 320.62 39.4149 321.116 34.1308C321.69 28.0211 326.575 32.0171 326.079 25.6761C325.582 19.3352 326.079 17.7499 329.056 16.1647C332.033 14.5795 335.507 17.2215 337.492 14.5795C339.08 12.4658 338.153 10.5283 337.492 9.82373C336.665 7.71008 335.904 2.74299 339.477 -0.216123Z" fill="#4F4C4C"/>
<path d="M350.906 54.3305C350.906 55.7234 349.794 56.8526 348.422 56.8526C347.05 56.8526 345.937 55.7234 345.937 54.3305C345.937 52.9376 347.05 51.8085 348.422 51.8085C349.794 51.8085 350.906 52.9376 350.906 54.3305Z" fill="#333333"/>
<path d="M374.329 54.3305C374.329 55.7234 373.217 56.8526 371.845 56.8526C370.473 56.8526 369.361 55.7234 369.361 54.3305C369.361 52.9376 370.473 51.8085 371.845 51.8085C373.217 51.8085 374.329 52.9376 374.329 54.3305Z" fill="#333333"/>
<path d="M372.2 79.1906H360.086C355.863 79.1906 352.101 81.8999 350.706 85.9461L350.551 86.3964H369.715L372.2 79.1906Z" fill="#333333"/>
<path d="M354.1 43.8821H344.047L342.743 47.485H352.797L354.1 43.8821Z" fill="#333333"/>
<path d="M378.943 43.8821H368.889L367.586 47.485H377.64L378.943 43.8821Z" fill="#333333"/>
<g clip-path="url(#clip6_13_9795)">
<path d="M318.965 120.47C318.965 113.192 324.685 107.293 331.742 107.293H387.105C394.161 107.293 399.881 113.192 399.881 120.47V185.619C399.881 192.896 394.161 198.796 387.105 198.796H331.742C324.685 198.796 318.965 192.896 318.965 185.619V120.47Z" fill="#59A6EA"/>
<ellipse cx="359.778" cy="162.561" rx="23.778" ry="24.5227" fill="white"/>
<path fill-rule="evenodd" clip-rule="evenodd" d="M350.797 177.709C350.824 177.709 350.851 177.708 350.878 177.706C351.309 177.663 351.641 177.285 351.641 176.838C351.641 176.602 351.549 176.376 351.385 176.212L350.714 175.519L355.013 171.086L356.95 173.084C357.109 173.253 357.328 173.348 357.556 173.348H357.563C358.027 173.348 358.408 172.955 358.408 172.477C358.408 172.24 358.315 172.013 358.149 171.848L357.479 171.157L369.136 159.132C369.462 158.795 369.462 158.241 369.136 157.903L367.196 155.902L371.626 151.334C372.547 150.517 371.226 149.155 370.434 150.105L366.004 154.673L364.064 152.671C363.737 152.335 363.2 152.335 362.872 152.671L351.213 164.695L350.541 164.004C350.383 163.849 350.174 163.762 349.956 163.762C349.491 163.762 349.108 164.156 349.108 164.635C349.108 164.861 349.193 165.078 349.344 165.24L351.284 167.241L346.982 171.671L346.311 170.98C346.151 170.788 345.917 170.678 345.672 170.678C345.208 170.678 344.826 171.072 344.826 171.55C344.826 171.803 344.933 172.044 345.119 172.209L350.193 177.442C350.351 177.611 350.569 177.708 350.797 177.709ZM349.519 174.288L348.177 172.904L352.476 168.47L353.818 169.855L349.519 174.288ZM352.408 165.928L356.287 169.928L357.952 168.21L356.279 166.485L356.877 165.869L358.55 167.594L359.745 166.361L358.072 164.636L358.67 164.019L360.343 165.744L361.538 164.511L359.866 162.786L360.463 162.17L362.136 163.895L363.332 162.662L361.659 160.937L362.257 160.32L363.929 162.046L365.125 160.813L363.452 159.088L364.05 158.471L365.722 160.196L367.347 158.521L363.465 154.518L352.408 165.928Z" fill="#5C5C5C"/>
<path fill-rule="evenodd" clip-rule="evenodd" d="M382.235 162.561C382.235 175.352 372.181 185.721 359.778 185.721C347.376 185.721 337.321 175.352 337.321 162.561C337.321 149.77 347.376 139.4 359.778 139.4C372.181 139.4 382.235 149.77 382.235 162.561ZM377.715 162.561C377.715 152.344 369.685 144.062 359.778 144.062C355.569 144.062 351.699 145.557 348.639 148.061L374.254 173.487C376.43 170.426 377.715 166.648 377.715 162.561ZM359.778 181.06C349.872 181.06 341.841 172.777 341.841 162.561C341.841 158.571 343.066 154.876 345.149 151.855L370.71 177.228C367.684 179.631 363.893 181.06 359.778 181.06Z" fill="#C64875"/>
<path d="M360.133 122.666C368.365 122.666 375.039 115.783 375.039 107.293H345.228C345.228 115.783 351.901 122.666 360.133 122.666Z" fill="#E2A56B"/>
</g>
</g>
<g filter="url(#filter6_d_13_9795)">
<path d="M296.688 111.241V125H318.688V110.775C314.449 113.716 310.044 115.463 307.344 115.463C304.789 115.463 300.709 113.899 296.688 111.241Z" fill="#9E5D56"/>
<path d="M296.688 106.472C300.709 109.13 304.789 110.694 307.344 110.694C310.044 110.694 314.449 108.947 318.688 106.007V110.775C314.449 113.716 310.044 115.463 307.344 115.463C304.789 115.463 300.709 113.899 296.688 111.241V106.472Z" fill="#65353A"/>
<path d="M307.344 39.1626C294.624 39.1626 284.312 49.3803 284.312 61.9845V70.5001C280.516 70.5001 277.438 73.5502 277.438 77.3126C277.438 81.075 280.516 84.1251 284.312 84.1251V87.872C284.312 100.476 300.812 110.694 307.344 110.694C313.875 110.694 330.375 100.476 330.375 87.872V84.1251C334.172 84.1251 337.25 81.075 337.25 77.3126C337.25 73.5502 334.172 70.5001 330.375 70.5001V61.9845C330.375 49.3803 320.064 39.1626 307.344 39.1626Z" fill="#9E5D56"/>
<path d="M304.938 86.1691C304.938 88.0502 306.477 89.575 308.375 89.575C310.273 89.575 311.812 88.05 311.812 86.1688V76.6313C311.812 75.8643 311.557 75.1565 311.125 74.5872C311.125 74.5871 311.125 74.5873 311.125 74.5872V84.125C311.125 86.0062 309.586 87.5313 307.687 87.5313C306.563 87.5313 305.565 86.9963 304.938 86.1691Z" fill="#65353A"/>
<ellipse cx="296.344" cy="76.972" rx="2.40625" ry="2.38437" fill="#30333A"/>
<ellipse cx="319.031" cy="76.972" rx="2.40625" ry="2.38437" fill="#30333A"/>
<path d="M294.701 33.3333C292.752 33.7457 289.706 34.39 285.901 38.4738C282.814 41.7862 280.493 52.5893 279.733 59.9334C277.447 61.8852 275.431 65.2823 276.029 69.4512C273.371 69.4512 269.658 71.2508 269.658 80.5487C267.456 81.1485 263.189 84.2678 263.735 91.946C264.574 103.73 280.459 106.332 290.616 106.943C292.627 107.063 294.652 107.163 296.688 107.24V105.953C290.429 101.82 284.36 95.1035 284.36 87.4375L284.313 84.0555C280.516 84.0555 277.438 81.0085 277.438 77.2499C277.438 73.4913 280.516 70.4444 284.313 70.4444C284.313 67.1524 284.175 67.9493 284.313 64.6596C285.998 64.057 289.795 63.4989 291.531 61.9374C295.431 58.4296 297.849 53.6069 298.063 51.3531L297.93 50.1739C299.74 52.9477 301.653 56.5162 305.625 58.5346C313.463 62.5173 324.795 62.4487 330.031 63.9791C330.362 67.6172 330.375 66.797 330.375 70.4444C334.172 70.4444 337.202 73.4188 337.202 77.1774C337.202 80.936 334.172 84.0555 330.375 84.0555V87.3719C330.375 94.7568 324.699 101.322 318.688 105.488V107.239C320.716 107.162 322.735 107.063 324.739 106.943C334.896 106.332 350.781 103.73 351.62 91.946C352.167 84.2678 349.274 81.1485 347.072 80.5487C347.072 71.2508 341.984 69.4512 339.327 69.4512C339.902 65.4364 338.054 62.1375 335.875 60.1558C335.839 47.4446 331.475 40.0126 326.303 36.8296C318.534 32.0488 303.675 31.435 294.701 33.3333Z" fill="#4C150E"/>
<path d="M299.438 93.5833C301.765 96.3041 308.994 93.5833 317.079 93.5833C308.258 103.378 308.626 105.011 299.438 93.5833Z" fill="#ACACAC" stroke="#ACACAC"/>
<path d="M267.812 137.433C267.812 130.505 273.353 124.889 280.187 124.889H333.812C340.647 124.889 346.187 130.505 346.187 137.433V199.456C346.187 206.384 340.647 212 333.812 212H280.187C273.353 212 267.812 206.384 267.812 199.456V137.433Z" fill="#F3F6F8"/>
<path d="M307.683 139.524C315.656 139.524 322.12 132.971 322.12 124.889H293.245C293.245 132.971 299.709 139.524 307.683 139.524Z" fill="#9E5D56"/>
</g>
</g>
<defs>
<filter id="filter0_d_13_9795" x="19" y="-8" width="99.8096" height="213.615" filterUnits="userSpaceOnUse" color-interpolation-filters="sRGB">
<feFlood flood-opacity="0" result="BackgroundImageFix"/>
<feColorMatrix in="SourceAlpha" type="matrix" values="0 0 0 0 0 0 0 0 0 0 0 0 0 0 0 0 0 0 127 0" result="hardAlpha"/>
<feOffset dy="4"/>
<feGaussianBlur stdDeviation="2"/>
<feComposite in2="hardAlpha" operator="out"/>
<feColorMatrix type="matrix" values="0 0 0 0 0 0 0 0 0 0 0 0 0 0 0 0 0 0 0.25 0"/>
<feBlend mode="normal" in2="BackgroundImageFix" result="effect1_dropShadow_13_9795"/>
<feBlend mode="normal" in="SourceGraphic" in2="effect1_dropShadow_13_9795" result="shape"/>
</filter>
<filter id="filter1_d_13_9795" x="121.463" y="-16" width="98.8533" height="213.615" filterUnits="userSpaceOnUse" color-interpolation-filters="sRGB">
<feFlood flood-opacity="0" result="BackgroundImageFix"/>
<feColorMatrix in="SourceAlpha" type="matrix" values="0 0 0 0 0 0 0 0 0 0 0 0 0 0 0 0 0 0 127 0" result="hardAlpha"/>
<feOffset dy="4"/>
<feGaussianBlur stdDeviation="2"/>
<feComposite in2="hardAlpha" operator="out"/>
<feColorMatrix type="matrix" values="0 0 0 0 0 0 0 0 0 0 0 0 0 0 0 0 0 0 0.25 0"/>
<feBlend mode="normal" in2="BackgroundImageFix" result="effect1_dropShadow_13_9795"/>
<feBlend mode="normal" in="SourceGraphic" in2="effect1_dropShadow_13_9795" result="shape"/>
</filter>
<filter id="filter2_d_13_9795" x="207.273" y="-16" width="99.8096" height="213.615" filterUnits="userSpaceOnUse" color-interpolation-filters="sRGB">
<feFlood flood-opacity="0" result="BackgroundImageFix"/>
<feColorMatrix in="SourceAlpha" type="matrix" values="0 0 0 0 0 0 0 0 0 0 0 0 0 0 0 0 0 0 127 0" result="hardAlpha"/>
<feOffset dy="4"/>
<feGaussianBlur stdDeviation="2"/>
<feComposite in2="hardAlpha" operator="out"/>
<feColorMatrix type="matrix" values="0 0 0 0 0 0 0 0 0 0 0 0 0 0 0 0 0 0 0.25 0"/>
<feBlend mode="normal" in2="BackgroundImageFix" result="effect1_dropShadow_13_9795"/>
<feBlend mode="normal" in="SourceGraphic" in2="effect1_dropShadow_13_9795" result="shape"/>
</filter>
<filter id="filter3_d_13_9795" x="157.064" y="19.385" width="99.8096" height="213.615" filterUnits="userSpaceOnUse" color-interpolation-filters="sRGB">
<feFlood flood-opacity="0" result="BackgroundImageFix"/>
<feColorMatrix in="SourceAlpha" type="matrix" values="0 0 0 0 0 0 0 0 0 0 0 0 0 0 0 0 0 0 127 0" result="hardAlpha"/>
<feOffset dy="4"/>
<feGaussianBlur stdDeviation="2"/>
<feComposite in2="hardAlpha" operator="out"/>
<feColorMatrix type="matrix" values="0 0 0 0 0 0 0 0 0 0 0 0 0 0 0 0 0 0 0.25 0"/>
<feBlend mode="normal" in2="BackgroundImageFix" result="effect1_dropShadow_13_9795"/>
<feBlend mode="normal" in="SourceGraphic" in2="effect1_dropShadow_13_9795" result="shape"/>
</filter>
<filter id="filter4_d_13_9795" x="64.905" y="17.4724" width="98.8533" height="215.528" filterUnits="userSpaceOnUse" color-interpolation-filters="sRGB">
<feFlood flood-opacity="0" result="BackgroundImageFix"/>
<feColorMatrix in="SourceAlpha" type="matrix" values="0 0 0 0 0 0 0 0 0 0 0 0 0 0 0 0 0 0 127 0" result="hardAlpha"/>
<feOffset dy="4"/>
<feGaussianBlur stdDeviation="2"/>
<feComposite in2="hardAlpha" operator="out"/>
<feColorMatrix type="matrix" values="0 0 0 0 0 0 0 0 0 0 0 0 0 0 0 0 0 0 0.25 0"/>
<feBlend mode="normal" in2="BackgroundImageFix" result="effect1_dropShadow_13_9795"/>
<feBlend mode="normal" in="SourceGraphic" in2="effect1_dropShadow_13_9795" result="shape"/>
</filter>
<filter id="filter5_d_13_9795" x="309.997" y="-8" width="98.8533" height="215.528" filterUnits="userSpaceOnUse" color-interpolation-filters="sRGB">
<feFlood flood-opacity="0" result="BackgroundImageFix"/>
<feColorMatrix in="SourceAlpha" type="matrix" values="0 0 0 0 0 0 0 0 0 0 0 0 0 0 0 0 0 0 127 0" result="hardAlpha"/>
<feOffset dy="4"/>
<feGaussianBlur stdDeviation="2"/>
<feComposite in2="hardAlpha" operator="out"/>
<feColorMatrix type="matrix" values="0 0 0 0 0 0 0 0 0 0 0 0 0 0 0 0 0 0 0.25 0"/>
<feBlend mode="normal" in2="BackgroundImageFix" result="effect1_dropShadow_13_9795"/>
<feBlend mode="normal" in="SourceGraphic" in2="effect1_dropShadow_13_9795" result="shape"/>
</filter>
<filter id="filter6_d_13_9795" x="259" y="16" width="96.6875" height="204" filterUnits="userSpaceOnUse" color-interpolation-filters="sRGB">
<feFlood flood-opacity="0" result="BackgroundImageFix"/>
<feColorMatrix in="SourceAlpha" type="matrix" values="0 0 0 0 0 0 0 0 0 0 0 0 0 0 0 0 0 0 127 0" result="hardAlpha"/>
<feOffset dy="4"/>
<feGaussianBlur stdDeviation="2"/>
<feComposite in2="hardAlpha" operator="out"/>
<feColorMatrix type="matrix" values="0 0 0 0 0 0 0 0 0 0 0 0 0 0 0 0 0 0 0.25 0"/>
<feBlend mode="normal" in2="BackgroundImageFix" result="effect1_dropShadow_13_9795"/>
<feBlend mode="normal" in="SourceGraphic" in2="effect1_dropShadow_13_9795" result="shape"/>
</filter>
<clipPath id="clip0_13_9795">
<rect width="429" height="163" fill="white"/>
</clipPath>
<clipPath id="clip1_13_9795">
<rect width="81.7679" height="90.6592" fill="white" transform="translate(28.0208 106.231)"/>
</clipPath>
<clipPath id="clip2_13_9795">
<rect width="80.9161" height="90.6592" fill="white" transform="translate(130.431 98.2307)"/>
</clipPath>
<clipPath id="clip3_13_9795">
<rect width="81.7679" height="90.6592" fill="white" transform="translate(216.294 98.2307)"/>
</clipPath>
<clipPath id="clip4_13_9795">
<rect width="81.7679" height="90.6592" fill="white" transform="translate(166.084 133.616)"/>
</clipPath>
<clipPath id="clip5_13_9795">
<rect width="80.9161" height="91.5025" fill="white" transform="translate(73.8735 132.766)"/>
</clipPath>
<clipPath id="clip6_13_9795">
<rect width="80.9161" height="91.5025" fill="white" transform="translate(318.965 107.293)"/>
</clipPath>
</defs>
</svg>
