<svg width="429" height="163" viewBox="0 0 429 163" fill="none" xmlns="http://www.w3.org/2000/svg">
<g clip-path="url(#clip0_13_9798)">
<path d="M30.7816 9.84036C32.0519 4.0928 37.1559 0 43.0533 0H385.947C391.844 0 396.948 4.0928 398.218 9.84036L428.7 147.757C429.92 153.277 427.31 158.594 422.847 161.247L391.803 163H31.2367L6.83 161.622C1.95858 159.12 -0.980645 153.551 0.30003 147.757L30.7816 9.84036Z" fill="#F3F6F8"/>
<g filter="url(#filter0_d_13_9798)">
<path d="M58.1458 91.9519H81.0981V106.231H58.1458V91.9519Z" fill="#E2A56B"/>
<path d="M81.0981 100.433C77.7389 102.058 73.9667 102.97 69.9806 102.97H68.5461C64.8412 102.97 61.3212 102.182 58.1458 100.766V94.4023H81.0981V100.433Z" fill="#9D6445"/>
<path fill-rule="evenodd" clip-rule="evenodd" d="M43.0834 44.1908C43.0834 29.732 54.8046 18.0107 69.2635 18.0107C83.7223 18.0107 95.4435 29.732 95.4435 44.1908V54.7504C98.3432 52.7968 101.592 52.4161 103.577 54.0601C106.193 56.2262 105.627 61.0868 102.312 64.9167C100.299 67.2436 97.7334 68.6546 95.4435 68.9179V72.506C95.4435 86.9649 83.7223 98.6861 69.2635 98.6861C54.8046 98.6861 43.0834 86.9649 43.0834 72.5061V68.973C40.8655 68.6321 38.4246 67.2424 36.4916 65.0089C33.1768 61.1791 32.6106 56.3184 35.2268 54.1524C37.1495 52.5605 40.2559 52.867 43.0834 54.6614V44.1908Z" fill="#E2A56B"/>
<path d="M61.7322 77.9817C64.7872 78.8127 71.6463 79.976 77.5119 77.9817C72.7595 81.3673 68.1875 83.7415 61.7322 77.9817Z" fill="#252C4A"/>
<ellipse cx="57.7873" cy="55.4927" rx="2.51042" ry="2.49879" fill="#252C4A"/>
<ellipse cx="81.4569" cy="55.4927" rx="2.51042" ry="2.49879" fill="#252C4A"/>
<path d="M64.6013 64.8225C64.6015 66.7938 66.4747 68.3918 68.7853 68.3918H70.459C72.7697 68.3918 74.643 66.7936 74.643 64.8221V54.8272C74.643 54.0235 74.3316 53.2817 73.8062 52.6851C73.8062 52.685 73.8062 52.6852 73.8062 52.6851V62.6804C73.8062 64.6518 71.9329 66.25 69.6222 66.25H67.9485C66.5799 66.25 65.3647 65.6893 64.6013 64.8225Z" fill="#9D6445"/>
<path d="M54.9182 50.138C52.3361 50.4235 51.9297 51.9228 52.0492 52.6367H51.6905C51.4514 52.3988 51.2824 50.7472 52.4078 49.067C54.5596 45.8543 58.2655 48.2341 62.4495 48.3531L63.8839 51.2089C61.7322 50.7329 57.5004 49.8524 54.9182 50.138Z" fill="#C4C4C4"/>
<path d="M84.3259 50.138C86.908 50.4235 87.3145 51.9228 87.1949 52.6367H87.5536C87.7927 52.3988 87.9617 50.7472 86.8364 49.067C84.6846 45.8543 80.9786 48.2341 76.7946 48.3531L75.3602 51.2089C77.512 50.7329 81.7438 49.8524 84.3259 50.138Z" fill="#C4C4C4"/>
<path d="M62.4495 57.2773C62.4495 58.2293 60.8715 60.1331 54.5596 60.1331" stroke="#9D6445"/>
<path d="M76.7947 57.2773C76.7947 58.2293 78.3727 60.1331 84.6846 60.1331" stroke="#9D6445"/>
<path d="M45.2543 66.6293H43.4773C42.8678 63.7699 42.5484 51.9034 41.9634 45.8987C41.2321 38.3928 42.9499 34.8005 49.8974 25.1501C56.8448 15.4996 77.709 17.8703 86.1191 23.0083C91.9696 26.5825 98.64 35.8908 99.0057 40.8948C99.2982 44.8979 96.863 63.0479 96.1317 67.6944C95.4004 69.9581 93.9378 67.6944 93.9378 67.6944C93.9378 67.6944 94.2522 53.4046 91.3269 48.4007C88.4017 43.3968 86.5734 34.1037 85.1108 29.0998C59.5149 34.8185 56.9553 28.3849 52.2018 29.0998C53.2987 35.8908 48.9109 47.3284 46.7169 53.4046C44.9618 58.2656 45.0105 64.2464 45.2543 66.6293Z" fill="#4F4F4F"/>
<path d="M44.582 66.6008L43.8007 68.3435C43.1836 65.4449 38.1027 52.7491 39.497 45.1404C40.8751 37.6202 42.1457 34.9327 49.18 25.15C56.2143 15.3674 76.4215 16.372 84.9367 21.5804C90.8603 25.2036 97.373 33.3604 99.0053 40.5138C101.899 53.195 96.184 65.7751 95.4435 70.4853C94.7031 72.78 93.874 67.6806 93.874 67.6806C93.874 67.6806 94.1923 53.195 91.2305 48.1225C88.2687 43.05 86.4176 33.6297 84.9367 28.5572C59.0208 34.3543 56.4292 27.8326 51.6163 28.5572C52.727 35.4413 48.2843 47.0355 46.0629 53.195C44.2858 58.1225 44.3352 64.1853 44.582 66.6008Z" fill="#C4C4C4"/>
<path d="M68.9911 83.1672C51.7063 83.4377 44.845 69.1138 44.1591 61.561C44.1591 63.3647 42.3659 67.9865 43.2697 77.7562C44.3457 89.3862 56.5973 99.3999 68.9911 99.3999C87.9121 99.3999 95.0483 86.8794 95.3984 78.4326C95.7426 70.1283 94.6947 68.3811 94.0089 62.6319C93.4373 69.0574 86.2758 82.8966 68.9911 83.1672Z" fill="#E0E0E0"/>
<path d="M53.8422 75.483C56.4244 72.3416 64.4816 70.1284 69.622 70.1284C74.7624 70.1284 83.537 72.3416 86.1191 75.483C88.7012 78.6243 87.195 79.4097 86.1191 79.7666C83.2501 77.7438 77.6554 75.483 69.622 75.483C61.5886 75.483 56.7113 78.4577 53.8422 80.4806C52.7663 80.1236 51.2601 78.6243 53.8422 75.483Z" fill="#E0E0E0"/>
<path d="M50.1775 72.8738C49.9161 74.6396 49.725 78.8693 51.0517 81.6618" stroke="#9D6445" stroke-linecap="round"/>
<path d="M88.3584 72.8748C88.6161 74.6411 88.7984 78.8712 87.4659 81.6609" stroke="#9D6445" stroke-linecap="round"/>
<g clip-path="url(#clip1_13_9798)">
<path d="M28.0208 119.39C28.0208 112.122 33.8011 106.231 40.9315 106.231H96.8779C104.008 106.231 109.789 112.122 109.789 119.39V184.456C109.789 191.724 104.008 197.615 96.8779 197.615H40.9315C33.8011 197.615 28.0208 191.724 28.0208 184.456V119.39Z" fill="#FD86B1"/>
<path d="M69.6218 121.583C77.9406 121.583 84.6843 114.71 84.6843 106.231H54.5593C54.5593 114.71 61.303 121.583 69.6218 121.583Z" fill="#E2A56B"/>
<path d="M84.6844 126.221L89.0324 139.787L103.103 139.787L91.7196 148.172L96.0675 161.738L84.6844 153.354L73.3013 161.738L77.6493 148.172L66.2662 139.787L80.3365 139.787L84.6844 126.221Z" fill="#F2F2F2"/>
</g>
</g>
<g filter="url(#filter1_d_13_9798)">
<path d="M160.242 83.9519H182.955V98.2307H160.242V83.9519Z" fill="#E2A56B"/>
<path d="M182.955 92.4326C179.631 94.0579 175.898 94.9696 171.954 94.9696H170.534C166.868 94.9696 163.385 94.1821 160.242 92.766V86.4023H182.955V92.4326Z" fill="#9D6445"/>
<path fill-rule="evenodd" clip-rule="evenodd" d="M145.337 35.9181C145.337 21.6099 156.936 10.0107 171.244 10.0107C185.552 10.0107 197.151 21.6099 197.151 35.9181V46.7504C200.021 44.7969 203.235 44.4161 205.2 46.0601C207.789 48.2262 207.229 53.0868 203.949 56.9167C201.956 59.2436 199.417 60.6546 197.151 60.918V64.7788C197.151 79.087 185.552 90.6861 171.244 90.6861C156.936 90.6861 145.337 79.087 145.337 64.7788V60.973C143.142 60.6321 140.726 59.2424 138.814 57.009C135.533 53.1791 134.973 48.3184 137.562 46.1524C139.465 44.5605 142.539 44.867 145.337 46.6615V35.9181Z" fill="#E2A56B"/>
<path d="M163.791 69.9817C166.814 70.8127 173.602 71.976 179.407 69.9817C174.704 73.3673 170.179 75.7415 163.791 69.9817Z" fill="#252C4A"/>
<ellipse cx="159.887" cy="47.4924" rx="2.48427" ry="2.49879" fill="#252C4A"/>
<ellipse cx="183.31" cy="47.4924" rx="2.48427" ry="2.49879" fill="#252C4A"/>
<path d="M166.63 56.8225C166.631 58.7938 168.484 60.3918 170.771 60.3918H172.427C174.714 60.3918 176.567 58.7936 176.567 56.8221V46.8272C176.567 46.0235 176.259 45.2817 175.739 44.6851C175.739 44.685 175.739 44.6852 175.739 44.6851V54.6804C175.739 56.6518 173.886 58.25 171.599 58.25H169.943C168.588 58.25 167.386 57.6893 166.63 56.8225Z" fill="#9D6445"/>
<path d="M157.048 42.138C154.493 42.4235 154.091 43.9228 154.209 44.6368H153.854C153.618 44.3988 153.45 42.7472 154.564 41.067C156.693 37.8543 160.361 40.2341 164.501 40.3531L165.921 43.2089C163.791 42.7329 159.604 41.8524 157.048 42.138Z" fill="#C4C4C4"/>
<path d="M186.15 42.138C188.705 42.4235 189.107 43.9228 188.989 44.6368H189.344C189.58 44.3988 189.748 42.7472 188.634 41.067C186.505 37.8543 182.837 40.2341 178.697 40.3531L177.277 43.2089C179.407 42.7329 183.594 41.8524 186.15 42.138Z" fill="#C4C4C4"/>
<path d="M164.501 49.2773C164.501 50.2293 162.94 52.1331 156.693 52.1331" stroke="#9D6445"/>
<path d="M178.697 49.2773C178.697 50.2293 180.258 52.1331 186.505 52.1331" stroke="#9D6445"/>
<path d="M147.485 58.6293H145.726C145.123 55.7699 144.807 43.9034 144.228 37.8987C143.505 30.3928 145.205 26.8005 152.08 17.1501C158.955 7.49965 179.602 9.87032 187.924 15.0083C193.714 18.5825 200.315 27.8908 200.676 32.8948C200.966 36.8979 198.556 55.0479 197.832 59.6944C197.109 61.9581 195.661 59.6944 195.661 59.6944C195.661 59.6944 195.972 45.4046 193.078 40.4007C190.183 35.3968 188.374 26.1037 186.926 21.0998C161.597 26.8185 159.064 20.3849 154.36 21.0998C155.446 27.8908 151.103 39.3284 148.932 45.4046C147.196 50.2656 147.244 56.2464 147.485 58.6293Z" fill="#4F4F4F"/>
<path d="M146.82 58.6008L146.047 60.3435C145.436 57.4449 140.408 44.7491 141.788 37.1404C143.151 29.6202 144.409 26.9327 151.37 17.15C158.331 7.3674 178.328 8.37202 186.754 13.5804C192.616 17.2036 199.061 25.3604 200.676 32.5138C203.54 45.195 197.884 57.7751 197.151 62.4853C196.419 64.78 195.598 59.6806 195.598 59.6806C195.598 59.6806 195.913 45.195 192.982 40.1225C190.051 35.05 188.22 25.6297 186.754 20.5572C161.108 26.3543 158.544 19.8326 153.781 20.5572C154.88 27.4413 150.483 39.0355 148.285 45.195C146.527 50.1225 146.575 56.1853 146.82 58.6008Z" fill="#C4C4C4"/>
<path d="M170.975 75.1672C153.87 75.4377 147.08 61.1138 146.401 53.561C146.401 55.3647 144.627 59.9865 145.521 69.7562C146.586 81.3862 158.71 91.3999 170.975 91.3999C189.699 91.3999 196.76 78.8794 197.107 70.4326C197.447 62.1283 196.411 60.3811 195.732 54.6319C195.166 61.0574 188.079 74.8966 170.975 75.1672Z" fill="#E0E0E0"/>
<path d="M155.984 67.483C158.539 64.3416 166.512 62.1284 171.599 62.1284C176.686 62.1284 185.369 64.3416 187.924 67.483C190.48 70.6243 188.989 71.4097 187.924 71.7666C185.085 69.7438 179.549 67.483 171.599 67.483C163.649 67.483 158.823 70.4577 155.984 72.4806C154.919 72.1236 153.428 70.6243 155.984 67.483Z" fill="#E0E0E0"/>
<path d="M152.357 64.8738C152.098 66.6396 151.909 70.8693 153.222 73.6618" stroke="#9D6445" stroke-linecap="round"/>
<path d="M190.14 64.8748C190.395 66.6411 190.576 70.8712 189.257 73.6609" stroke="#9D6445" stroke-linecap="round"/>
<g clip-path="url(#clip2_13_9798)">
<path d="M130.431 111.39C130.431 104.122 136.151 98.2307 143.207 98.2307H198.571C205.627 98.2307 211.347 104.122 211.347 111.39V176.456C211.347 183.724 205.627 189.615 198.571 189.615H143.207C136.151 189.615 130.431 183.724 130.431 176.456V111.39Z" fill="#EEC750"/>
<path d="M171.599 113.583C179.831 113.583 186.505 106.71 186.505 98.2307H156.693C156.693 106.71 163.367 113.583 171.599 113.583Z" fill="#E2A56B"/>
<path d="M186.505 118.221L190.807 131.787L204.731 131.787L193.467 140.172L197.769 153.738L186.505 145.354L175.24 153.738L179.543 140.172L168.278 131.787L182.202 131.787L186.505 118.221Z" fill="#F2F2F2"/>
</g>
</g>
<g filter="url(#filter2_d_13_9798)">
<path d="M246.419 83.9519H269.372V98.2307H246.419V83.9519Z" fill="#E2A56B"/>
<path d="M269.372 92.4326C266.012 94.0579 262.24 94.9696 258.254 94.9696H256.819C253.115 94.9696 249.595 94.1821 246.419 92.766V86.4023H269.372V92.4326Z" fill="#9D6445"/>
<path fill-rule="evenodd" clip-rule="evenodd" d="M231.357 36.1908C231.357 21.732 243.078 10.0107 257.537 10.0107C271.996 10.0107 283.717 21.732 283.717 36.1908V46.7504C286.617 44.7969 289.865 44.4161 291.851 46.0601C294.467 48.2262 293.901 53.0868 290.586 56.9167C288.572 59.2436 286.007 60.6546 283.717 60.918V64.506C283.717 78.9649 271.996 90.6861 257.537 90.6861C243.078 90.6861 231.357 78.9649 231.357 64.506V60.973C229.139 60.6321 226.698 59.2424 224.765 57.009C221.45 53.1791 220.884 48.3184 223.5 46.1524C225.423 44.5605 228.529 44.867 231.357 46.6615V36.1908Z" fill="#E2A56B"/>
<path d="M250.006 69.9817C253.061 70.8127 259.92 71.976 265.785 69.9817C261.033 73.3673 256.461 75.7415 250.006 69.9817Z" fill="#252C4A"/>
<ellipse cx="246.061" cy="47.4924" rx="2.51042" ry="2.49879" fill="#252C4A"/>
<ellipse cx="269.73" cy="47.4924" rx="2.51042" ry="2.49879" fill="#252C4A"/>
<path d="M252.875 56.8225C252.875 58.7938 254.748 60.3918 257.059 60.3918H258.732C261.043 60.3918 262.916 58.7936 262.916 56.8221V46.8272C262.916 46.0235 262.605 45.2817 262.08 44.6851C262.08 44.685 262.08 44.6852 262.08 44.6851V54.6804C262.08 56.6518 260.206 58.25 257.896 58.25H256.222C254.853 58.25 253.638 57.6893 252.875 56.8225Z" fill="#9D6445"/>
<path d="M243.192 42.138C240.61 42.4235 240.203 43.9228 240.323 44.6368H239.964C239.725 44.3988 239.556 42.7472 240.681 41.067C242.833 37.8543 246.539 40.2341 250.723 40.3531L252.157 43.2089C250.006 42.7329 245.774 41.8524 243.192 42.138Z" fill="#C4C4C4"/>
<path d="M272.599 42.138C275.181 42.4235 275.588 43.9228 275.468 44.6368H275.827C276.066 44.3988 276.235 42.7472 275.11 41.067C272.958 37.8543 269.252 40.2341 265.068 40.3531L263.634 43.2089C265.785 42.7329 270.017 41.8524 272.599 42.138Z" fill="#C4C4C4"/>
<path d="M250.723 49.2773C250.723 50.2293 249.145 52.1331 242.833 52.1331" stroke="#9D6445"/>
<path d="M265.068 49.2773C265.068 50.2293 266.646 52.1331 272.958 52.1331" stroke="#9D6445"/>
<path d="M233.528 58.6293H231.751C231.141 55.7699 230.822 43.9034 230.237 37.8987C229.506 30.3928 231.223 26.8005 238.171 17.1501C245.118 7.49965 265.982 9.87032 274.393 15.0083C280.243 18.5825 286.913 27.8908 287.279 32.8948C287.572 36.8979 285.136 55.0479 284.405 59.6944C283.674 61.9581 282.211 59.6944 282.211 59.6944C282.211 59.6944 282.526 45.4046 279.6 40.4007C276.675 35.3968 274.847 26.1037 273.384 21.0998C247.788 26.8185 245.229 20.3849 240.475 21.0998C241.572 27.8908 237.184 39.3284 234.99 45.4046C233.235 50.2656 233.284 56.2464 233.528 58.6293Z" fill="#4F4F4F"/>
<path d="M232.855 58.6008L232.074 60.3435C231.457 57.4449 226.376 44.7491 227.77 37.1404C229.149 29.6202 230.419 26.9327 237.453 17.15C244.488 7.3674 264.695 8.37202 273.21 13.5804C279.134 17.2036 285.646 25.3604 287.279 32.5138C290.172 45.195 284.457 57.7751 283.717 62.4853C282.977 64.78 282.147 59.6806 282.147 59.6806C282.147 59.6806 282.466 45.195 279.504 40.1225C276.542 35.05 274.691 25.6297 273.21 20.5572C247.294 26.3543 244.703 19.8326 239.89 20.5572C241 27.4413 236.558 39.0355 234.336 45.195C232.559 50.1225 232.609 56.1853 232.855 58.6008Z" fill="#C4C4C4"/>
<path d="M257.265 75.1672C239.98 75.4377 233.118 61.1138 232.433 53.561C232.433 55.3647 230.639 59.9865 231.543 69.7562C232.619 81.3862 244.871 91.3999 257.265 91.3999C276.186 91.3999 283.322 78.8794 283.672 70.4326C284.016 62.1283 282.968 60.3811 282.282 54.6319C281.711 61.0574 274.549 74.8966 257.265 75.1672Z" fill="#E0E0E0"/>
<path d="M242.116 67.483C244.698 64.3416 252.755 62.1284 257.895 62.1284C263.036 62.1284 271.81 64.3416 274.393 67.483C276.975 70.6243 275.468 71.4097 274.393 71.7666C271.523 69.7438 265.929 67.483 257.895 67.483C249.862 67.483 244.985 70.4577 242.116 72.4806C241.04 72.1236 239.534 70.6243 242.116 67.483Z" fill="#E0E0E0"/>
<path d="M238.451 64.8738C238.19 66.6396 237.998 70.8693 239.325 73.6618" stroke="#9D6445" stroke-linecap="round"/>
<path d="M276.632 64.8748C276.89 66.6411 277.072 70.8712 275.739 73.6609" stroke="#9D6445" stroke-linecap="round"/>
<g clip-path="url(#clip3_13_9798)">
<path d="M216.294 111.39C216.294 104.122 222.075 98.2307 229.205 98.2307H285.151C292.282 98.2307 298.062 104.122 298.062 111.39V176.456C298.062 183.724 292.282 189.615 285.151 189.615H229.205C222.075 189.615 216.294 183.724 216.294 176.456V111.39Z" fill="#65C3C9"/>
<path d="M257.895 113.583C266.214 113.583 272.958 106.71 272.958 98.2307H242.833C242.833 106.71 249.576 113.583 257.895 113.583Z" fill="#E2A56B"/>
<path d="M272.958 118.221L277.306 131.787L291.376 131.787L279.993 140.172L284.341 153.738L272.958 145.354L261.575 153.738L265.923 140.172L254.54 131.787L268.61 131.787L272.958 118.221Z" fill="#F2F2F2"/>
</g>
</g>
<g filter="url(#filter3_d_13_9798)">
<path d="M196.209 119.337H219.162V133.616H196.209V119.337Z" fill="#E2A56B"/>
<path d="M219.162 127.818C215.803 129.443 212.03 130.355 208.044 130.355H206.61C202.905 130.355 199.385 129.567 196.209 128.151V121.787H219.162V127.818Z" fill="#9D6445"/>
<path fill-rule="evenodd" clip-rule="evenodd" d="M181.147 71.5758C181.147 57.117 192.868 45.3958 207.327 45.3958C221.786 45.3958 233.507 57.117 233.507 71.5758V82.1355C236.407 80.1819 239.655 79.8011 241.641 81.4451C244.257 83.6112 243.691 88.4718 240.376 92.3017C238.362 94.6286 235.797 96.0396 233.507 96.303V99.8911C233.507 114.35 221.786 126.071 207.327 126.071C192.868 126.071 181.147 114.35 181.147 99.8911V96.358C178.929 96.0171 176.488 94.6275 174.555 92.394C171.241 88.5641 170.674 83.7034 173.291 81.5374C175.213 79.9455 178.32 80.252 181.147 82.0465V71.5758Z" fill="#E2A56B"/>
<path d="M199.796 105.367C202.851 106.198 209.71 107.361 215.576 105.367C210.823 108.752 206.251 111.126 199.796 105.367Z" fill="#252C4A"/>
<ellipse cx="195.851" cy="82.8775" rx="2.51042" ry="2.49879" fill="#252C4A"/>
<ellipse cx="219.521" cy="82.8775" rx="2.51042" ry="2.49879" fill="#252C4A"/>
<path d="M202.665 92.2075C202.665 94.1788 204.538 95.7768 206.849 95.7768H208.523C210.833 95.7768 212.707 94.1786 212.707 92.2072V82.2122C212.707 81.4085 212.395 80.6668 211.87 80.0701C211.87 80.07 211.87 80.0702 211.87 80.0701V90.0654C211.87 92.0368 209.997 93.635 207.686 93.635H206.012C204.644 93.635 203.428 93.0743 202.665 92.2075Z" fill="#9D6445"/>
<path d="M192.982 77.523C190.4 77.8085 189.993 79.3078 190.113 80.0218H189.754C189.515 79.7838 189.346 78.1322 190.471 76.4521C192.623 73.2393 196.329 75.6191 200.513 75.7381L201.948 78.5939C199.796 78.1179 195.564 77.2374 192.982 77.523Z" fill="#C4C4C4"/>
<path d="M222.39 77.523C224.972 77.8085 225.378 79.3078 225.259 80.0218H225.617C225.856 79.7838 226.025 78.1322 224.9 76.4521C222.748 73.2393 219.042 75.6191 214.858 75.7381L213.424 78.5939C215.576 78.1179 219.807 77.2374 222.39 77.523Z" fill="#C4C4C4"/>
<path d="M200.513 84.6624C200.513 85.6143 198.935 87.5181 192.623 87.5181" stroke="#9D6445"/>
<path d="M214.858 84.6624C214.858 85.6143 216.436 87.5181 222.748 87.5181" stroke="#9D6445"/>
<path d="M183.318 94.0143H181.541C180.932 91.1549 180.612 79.2884 180.027 73.2837C179.296 65.7778 181.014 62.1856 187.961 52.5351C194.909 42.8847 215.773 45.2553 224.183 50.3933C230.033 53.9675 236.704 63.2758 237.069 68.2798C237.362 72.2829 234.927 90.4329 234.195 95.0795C233.464 97.3431 232.001 95.0795 232.001 95.0795C232.001 95.0795 232.316 80.7896 229.391 75.7857C226.465 70.7818 224.637 61.4887 223.174 56.4848C197.579 62.2036 195.019 55.7699 190.265 56.4848C191.362 63.2758 186.975 74.7134 184.781 80.7896C183.025 85.6506 183.074 91.6314 183.318 94.0143Z" fill="#4F4F4F"/>
<path d="M182.646 93.9858L181.864 95.7285C181.247 92.8299 176.166 80.1341 177.561 72.5254C178.939 65.0052 180.209 62.3177 187.244 52.5351C194.278 42.7524 214.485 43.757 223 48.9654C228.924 52.5886 235.437 60.7454 237.069 67.8988C239.963 80.58 234.248 93.1601 233.507 97.8703C232.767 100.165 231.938 95.0656 231.938 95.0656C231.938 95.0656 232.256 80.58 229.294 75.5075C226.332 70.435 224.481 61.0147 223 55.9422C197.085 61.7393 194.493 55.2176 189.68 55.9422C190.791 62.8263 186.348 74.4205 184.127 80.58C182.35 85.5075 182.399 91.5704 182.646 93.9858Z" fill="#C4C4C4"/>
<path d="M207.055 110.552C189.77 110.823 182.909 96.4988 182.223 88.946C182.223 90.7497 180.43 95.3715 181.333 105.141C182.409 116.771 194.661 126.785 207.055 126.785C225.976 126.785 233.112 114.264 233.462 105.818C233.806 97.5133 232.758 95.7661 232.073 90.017C231.501 96.4424 224.34 110.282 207.055 110.552Z" fill="#E0E0E0"/>
<path d="M191.906 102.868C194.488 99.7266 202.545 97.5134 207.686 97.5134C212.826 97.5134 221.601 99.7266 224.183 102.868C226.765 106.009 225.259 106.795 224.183 107.152C221.314 105.129 215.719 102.868 207.686 102.868C199.652 102.868 194.775 105.843 191.906 107.866C190.83 107.509 189.324 106.009 191.906 102.868Z" fill="#E0E0E0"/>
<path d="M188.241 100.259C187.98 102.025 187.789 106.254 189.115 109.047" stroke="#9D6445" stroke-linecap="round"/>
<path d="M226.422 100.26C226.68 102.026 226.862 106.256 225.53 109.046" stroke="#9D6445" stroke-linecap="round"/>
<g clip-path="url(#clip4_13_9798)">
<path d="M166.084 146.775C166.084 139.507 171.865 133.616 178.995 133.616H234.942C242.072 133.616 247.852 139.507 247.852 146.775V211.841C247.852 219.109 242.072 225 234.942 225H178.995C171.865 225 166.084 219.109 166.084 211.841V146.775Z" fill="#41CA7B"/>
<path d="M207.686 148.968C216.004 148.968 222.748 142.095 222.748 133.616H192.623C192.623 142.095 199.367 148.968 207.686 148.968Z" fill="#E2A56B"/>
<path d="M222.748 153.606L227.096 167.172L241.166 167.172L229.783 175.557L234.131 189.123L222.748 180.739L211.365 189.123L215.713 175.557L204.33 167.172L218.4 167.172L222.748 153.606Z" fill="#F2F2F2"/>
</g>
</g>
<g filter="url(#filter4_d_13_9798)">
<path d="M103.685 118.354H126.398V132.766H103.685V118.354Z" fill="#E2A56B"/>
<path d="M126.398 126.914C123.074 128.554 119.341 129.474 115.396 129.474H113.977C110.31 129.474 106.827 128.679 103.685 127.25V120.827H126.398V126.914Z" fill="#9D6445"/>
<path fill-rule="evenodd" clip-rule="evenodd" d="M88.7791 69.6322C88.7791 55.324 100.378 43.7249 114.686 43.7249C128.995 43.7249 140.594 55.324 140.594 69.6322V80.8063C143.463 78.8345 146.678 78.4502 148.643 80.1095C151.232 82.2958 150.671 87.2016 147.391 91.0671C145.398 93.4157 142.86 94.8398 140.594 95.1056V99.2433C140.594 113.552 128.995 125.151 114.686 125.151C100.378 125.151 88.7791 113.552 88.7791 99.2433V95.1611C86.5843 94.8171 84.1689 93.4145 82.2559 91.1603C78.9757 87.2948 78.4154 82.3889 81.0043 80.2027C82.907 78.596 85.9811 78.9053 88.7791 80.7165V69.6322Z" fill="#E2A56B"/>
<path d="M107.234 104.254C110.257 105.093 117.045 106.267 122.849 104.254C118.146 107.671 113.622 110.067 107.234 104.254Z" fill="#252C4A"/>
<ellipse cx="103.33" cy="81.5555" rx="2.48427" ry="2.52204" fill="#252C4A"/>
<ellipse cx="126.753" cy="81.5555" rx="2.48427" ry="2.52204" fill="#252C4A"/>
<path d="M110.073 90.9723C110.073 92.9619 111.927 94.5747 114.213 94.5747H115.869C118.156 94.5747 120.01 92.9617 120.01 90.9719V80.884C120.01 80.0728 119.702 79.3242 119.182 78.722C119.182 78.7218 119.182 78.7221 119.182 78.722V88.8102C119.182 90.8 117.328 92.413 115.041 92.413H113.385C112.031 92.413 110.828 91.8472 110.073 90.9723Z" fill="#9D6445"/>
<path d="M100.491 76.1513C97.9355 76.4395 97.5332 77.9527 97.6515 78.6733H97.2966C97.06 78.4331 96.8928 76.7662 98.0064 75.0704C100.136 71.8278 103.803 74.2297 107.944 74.3498L109.363 77.2321C107.234 76.7518 103.046 75.863 100.491 76.1513Z" fill="#C4C4C4"/>
<path d="M129.592 76.1513C132.147 76.4395 132.55 77.9527 132.431 78.6733H132.786C133.023 78.4331 133.19 76.7662 132.076 75.0704C129.947 71.8278 126.28 74.2297 122.139 74.3498L120.72 77.2321C122.849 76.7518 127.037 75.863 129.592 76.1513Z" fill="#C4C4C4"/>
<path d="M107.943 83.3569C107.943 84.3177 106.382 86.2393 100.136 86.2393" stroke="#9D6445"/>
<path d="M122.139 83.3569C122.139 84.3177 123.701 86.2393 129.947 86.2393" stroke="#9D6445"/>
<path d="M90.9274 92.7957H89.1689C88.5658 89.9097 88.2497 77.9328 87.6708 71.8723C86.9471 64.2965 88.647 60.6709 95.5221 50.9306C102.397 41.1904 123.044 43.5831 131.367 48.7689C137.156 52.3764 143.757 61.7713 144.119 66.8218C144.408 70.8622 141.998 89.181 141.275 93.8708C140.551 96.1555 139.104 93.8708 139.104 93.8708C139.104 93.8708 139.415 79.448 136.52 74.3975C133.625 69.347 131.816 59.9675 130.369 54.917C105.039 60.689 102.506 54.1955 97.8025 54.917C98.888 61.7713 94.5458 73.3152 92.3748 79.448C90.6379 84.3542 90.6861 90.3907 90.9274 92.7957Z" fill="#4F4F4F"/>
<path d="M90.2621 92.7671L89.4889 94.526C88.8783 91.6005 83.8503 78.7866 85.2301 71.1071C86.5938 63.5169 87.8512 60.8044 94.8123 50.9308C101.773 41.0571 121.77 42.0711 130.196 47.3279C136.058 50.9848 142.503 59.2175 144.118 66.4374C146.982 79.2366 141.327 91.9338 140.594 96.6877C139.861 99.0038 139.041 93.8569 139.041 93.8569C139.041 93.8569 139.356 79.2366 136.425 74.1169C133.494 68.9973 131.662 59.4893 130.196 54.3696C104.551 60.2206 101.986 53.6382 97.2231 54.3696C98.3222 61.3177 93.9258 73.0198 91.7276 79.2366C89.969 84.21 90.0179 90.3292 90.2621 92.7671Z" fill="#C4C4C4"/>
<path d="M114.417 109.488C97.3123 109.761 90.5225 95.3034 89.8438 87.6804C89.8438 89.5008 88.0692 94.1657 88.9636 104.026C90.0284 115.764 102.152 125.871 114.417 125.871C133.141 125.871 140.203 113.234 140.549 104.709C140.89 96.3274 139.853 94.5639 139.174 88.7613C138.609 95.2465 131.522 109.214 114.417 109.488Z" fill="#E0E0E0"/>
<path d="M99.426 101.732C101.981 98.5612 109.955 96.3274 115.041 96.3274C120.128 96.3274 128.811 98.5612 131.367 101.732C133.922 104.902 132.431 105.695 131.367 106.055C128.528 104.014 122.991 101.732 115.041 101.732C107.092 101.732 102.265 104.734 99.426 106.776C98.3613 106.416 96.8708 104.902 99.426 101.732Z" fill="#E0E0E0"/>
<path d="M95.7993 99.0984C95.5407 100.881 95.3516 105.15 96.6644 107.968" stroke="#9D6445" stroke-linecap="round"/>
<path d="M133.583 99.0994C133.838 100.882 134.018 105.152 132.699 107.967" stroke="#9D6445" stroke-linecap="round"/>
<g clip-path="url(#clip5_13_9798)">
<path d="M73.8735 146.047C73.8735 138.712 79.5936 132.766 86.6498 132.766H142.013C149.07 132.766 154.79 138.712 154.79 146.047V211.718C154.79 219.054 149.07 225 142.013 225H86.6498C79.5936 225 73.8735 219.054 73.8735 211.718V146.047Z" fill="#F5A35A"/>
<path d="M115.041 148.261C123.273 148.261 129.947 141.324 129.947 132.766H100.136C100.136 141.324 106.809 148.261 115.041 148.261Z" fill="#E2A56B"/>
<path d="M129.947 152.942L134.25 166.634H148.173L136.909 175.097L141.212 188.789L129.947 180.327L118.683 188.789L122.985 175.097L111.721 166.634H125.644L129.947 152.942Z" fill="#F2F2F2"/>
</g>
</g>
<g filter="url(#filter5_d_13_9798)">
<path d="M348.776 92.8816H371.49V107.293H348.776V92.8816Z" fill="#E2A56B"/>
<path d="M371.49 101.441C368.165 103.082 364.433 104.002 360.488 104.002H359.068C355.402 104.002 351.919 103.207 348.776 101.778V95.355H371.49V101.441Z" fill="#9D6445"/>
<path fill-rule="evenodd" clip-rule="evenodd" d="M333.871 44.1598C333.871 29.8516 345.47 18.2524 359.778 18.2524C374.087 18.2524 385.686 29.8516 385.686 44.1598V55.3339C388.555 53.3621 391.77 52.9778 393.735 54.6371C396.324 56.8234 395.763 61.7292 392.483 65.5947C390.49 67.9433 387.952 69.3674 385.686 69.6332V73.7709C385.686 88.0791 374.087 99.6783 359.778 99.6783C345.47 99.6783 333.871 88.0792 333.871 73.7709V69.6888C331.676 69.3447 329.261 67.9421 327.348 65.6879C324.068 61.8224 323.507 56.9165 326.096 54.7303C327.999 53.1236 331.073 53.4329 333.871 55.2441V44.1598Z" fill="#E2A56B"/>
<path d="M352.325 78.7815C355.349 79.6202 362.136 80.7944 367.941 78.7815C363.238 82.1986 358.714 84.5948 352.325 78.7815Z" fill="#252C4A"/>
<ellipse cx="348.422" cy="56.0831" rx="2.48427" ry="2.52204" fill="#252C4A"/>
<ellipse cx="371.845" cy="56.0831" rx="2.48427" ry="2.52204" fill="#252C4A"/>
<path d="M355.165 65.4999C355.165 67.4895 357.018 69.1023 359.305 69.1023H360.961C363.248 69.1023 365.102 67.4893 365.102 65.4995V55.4116C365.102 54.6004 364.793 53.8518 364.274 53.2495C364.274 53.2494 364.274 53.2497 364.274 53.2495V63.3378C364.274 65.3276 362.42 66.9406 360.133 66.9406H358.477C357.122 66.9406 355.92 66.3747 355.165 65.4999Z" fill="#9D6445"/>
<path d="M345.583 50.6789C343.027 50.9671 342.625 52.4803 342.743 53.2009H342.388C342.152 52.9607 341.985 51.2938 343.098 49.598C345.228 46.3554 348.895 48.7573 353.035 48.8774L354.455 51.7597C352.325 51.2793 348.138 50.3906 345.583 50.6789Z" fill="#C4C4C4"/>
<path d="M374.684 50.6789C377.239 50.9671 377.641 52.4803 377.523 53.2009H377.878C378.115 52.9607 378.282 51.2938 377.168 49.598C375.039 46.3554 371.371 48.7573 367.231 48.8774L365.812 51.7597C367.941 51.2793 372.129 50.3906 374.684 50.6789Z" fill="#C4C4C4"/>
<path d="M353.035 57.8845C353.035 58.8453 351.474 60.7669 345.228 60.7669" stroke="#9D6445"/>
<path d="M367.231 57.8845C367.231 58.8453 368.793 60.7669 375.039 60.7669" stroke="#9D6445"/>
<path d="M336.019 67.3232H334.261C333.658 64.4373 333.342 52.4604 332.763 46.3998C332.039 38.8241 333.739 35.1985 340.614 25.4582C347.489 15.718 368.136 18.1107 376.458 23.2965C382.248 26.904 388.849 36.2989 389.211 41.3494C389.5 45.3898 387.09 63.7086 386.367 68.3983C385.643 70.6831 384.196 68.3983 384.196 68.3983C384.196 68.3983 384.507 53.9756 381.612 48.9251C378.717 43.8746 376.908 34.4951 375.46 29.4446C350.131 35.2166 347.598 28.7231 342.894 29.4446C343.98 36.2989 339.638 47.8428 337.467 53.9756C335.73 58.8817 335.778 64.9183 336.019 67.3232Z" fill="#4F4F4F"/>
<path d="M335.354 67.2947L334.581 69.0536C333.97 66.128 328.942 53.3142 330.322 45.6347C331.686 38.0445 332.943 35.332 339.904 25.4583C346.865 15.5847 366.862 16.5987 375.288 21.8555C381.15 25.5123 387.595 33.745 389.21 40.965C392.074 53.7642 386.418 66.4613 385.686 71.2153C384.953 73.5314 384.132 68.3845 384.132 68.3845C384.132 68.3845 384.447 53.7642 381.517 48.6445C378.586 43.5248 376.754 34.0169 375.288 28.8972C349.642 34.7482 347.078 28.1658 342.315 28.8972C343.414 35.8453 339.018 47.5474 336.819 53.7642C335.061 58.7375 335.11 64.8568 335.354 67.2947Z" fill="#C4C4C4"/>
<path d="M359.509 84.0151C342.404 84.2882 335.614 69.831 334.936 62.208C334.936 64.0284 333.161 68.6933 334.055 78.5539C335.12 90.292 347.244 100.399 359.509 100.399C378.233 100.399 385.295 87.7619 385.641 79.2365C385.982 70.855 384.945 69.0915 384.266 63.2889C383.7 69.7741 376.614 83.7421 359.509 84.0151Z" fill="#E0E0E0"/>
<path d="M344.518 76.2594C347.073 73.0888 355.046 70.855 360.133 70.855C365.22 70.855 373.903 73.0888 376.458 76.2594C379.014 79.4299 377.523 80.2226 376.458 80.5829C373.619 78.5412 368.083 76.2594 360.133 76.2594C352.184 76.2594 347.357 79.2618 344.518 81.3034C343.453 80.9431 341.963 79.4299 344.518 76.2594Z" fill="#E0E0E0"/>
<path d="M340.891 73.626C340.632 75.4082 340.443 79.6772 341.756 82.4957" stroke="#9D6445" stroke-linecap="round"/>
<path d="M378.674 73.627C378.929 75.4097 379.11 79.6792 377.791 82.4949" stroke="#9D6445" stroke-linecap="round"/>
<g clip-path="url(#clip6_13_9798)">
<path d="M318.965 120.575C318.965 113.24 324.685 107.293 331.742 107.293H387.105C394.161 107.293 399.881 113.24 399.881 120.575V186.246C399.881 193.581 394.161 199.528 387.105 199.528H331.742C324.685 199.528 318.965 193.581 318.965 186.246V120.575Z" fill="#59A6EA"/>
<path d="M360.133 122.789C368.365 122.789 375.039 115.851 375.039 107.293H345.228C345.228 115.851 351.901 122.789 360.133 122.789Z" fill="#E2A56B"/>
<path d="M375.039 127.469L379.342 141.162H393.265L382.001 149.624L386.303 163.317L375.039 154.855L363.774 163.317L368.077 149.624L356.812 141.162H370.736L375.039 127.469Z" fill="#F2F2F2"/>
</g>
</g>
<g filter="url(#filter6_d_13_9798)">
<path d="M296.688 111.241V125H318.688V110.775C314.449 113.716 310.044 115.463 307.344 115.463C304.789 115.463 300.709 113.899 296.688 111.241Z" fill="#9E5D56"/>
<path d="M296.688 106.472C300.709 109.13 304.789 110.694 307.344 110.694C310.044 110.694 314.449 108.947 318.688 106.007V110.775C314.449 113.716 310.044 115.463 307.344 115.463C304.789 115.463 300.709 113.899 296.688 111.241V106.472Z" fill="#65353A"/>
<path d="M307.344 39.1626C294.624 39.1626 284.312 49.3803 284.312 61.9845V70.5001C280.516 70.5001 277.438 73.5502 277.438 77.3126C277.438 81.075 280.516 84.1251 284.312 84.1251V87.872C284.312 100.476 300.812 110.694 307.344 110.694C313.875 110.694 330.375 100.476 330.375 87.872V84.1251C334.172 84.1251 337.25 81.075 337.25 77.3126C337.25 73.5502 334.172 70.5001 330.375 70.5001V61.9845C330.375 49.3803 320.064 39.1626 307.344 39.1626Z" fill="#9E5D56"/>
<path d="M304.938 86.1691C304.938 88.0502 306.477 89.575 308.375 89.575C310.273 89.575 311.812 88.05 311.812 86.1688V76.6313C311.812 75.8643 311.557 75.1565 311.125 74.5872C311.125 74.5871 311.125 74.5873 311.125 74.5872V84.125C311.125 86.0062 309.586 87.5313 307.687 87.5313C306.563 87.5313 305.565 86.9963 304.938 86.1691Z" fill="#65353A"/>
<ellipse cx="296.344" cy="76.972" rx="2.40625" ry="2.38437" fill="#30333A"/>
<ellipse cx="319.031" cy="76.972" rx="2.40625" ry="2.38437" fill="#30333A"/>
<path d="M294.701 33.3333C292.752 33.7457 289.706 34.39 285.901 38.4738C282.814 41.7862 280.493 52.5893 279.733 59.9334C277.447 61.8852 275.431 65.2823 276.029 69.4512C273.371 69.4512 269.658 71.2508 269.658 80.5487C267.456 81.1485 263.189 84.2678 263.735 91.946C264.574 103.73 280.459 106.332 290.616 106.943C292.627 107.063 294.652 107.163 296.688 107.24V105.953C290.429 101.82 284.36 95.1035 284.36 87.4375L284.313 84.0555C280.516 84.0555 277.438 81.0085 277.438 77.2499C277.438 73.4913 280.516 70.4444 284.313 70.4444C284.313 67.1524 284.175 67.9493 284.313 64.6596C285.998 64.057 289.795 63.4989 291.531 61.9374C295.431 58.4296 297.849 53.6069 298.063 51.3531L297.93 50.1739C299.74 52.9477 301.653 56.5162 305.625 58.5346C313.463 62.5173 324.795 62.4487 330.031 63.9791C330.362 67.6172 330.375 66.797 330.375 70.4444C334.172 70.4444 337.202 73.4188 337.202 77.1774C337.202 80.936 334.172 84.0555 330.375 84.0555V87.3719C330.375 94.7568 324.699 101.322 318.688 105.488V107.239C320.716 107.162 322.735 107.063 324.739 106.943C334.896 106.332 350.781 103.73 351.62 91.946C352.167 84.2678 349.274 81.1485 347.072 80.5487C347.072 71.2508 341.984 69.4512 339.327 69.4512C339.902 65.4364 338.054 62.1375 335.875 60.1558C335.839 47.4446 331.475 40.0126 326.303 36.8296C318.534 32.0488 303.675 31.435 294.701 33.3333Z" fill="#4C150E"/>
<path d="M299.438 93.5833C301.765 96.3041 308.994 93.5833 317.079 93.5833C308.258 103.378 308.626 105.011 299.438 93.5833Z" fill="#ACACAC" stroke="#ACACAC"/>
<path d="M267.812 137.433C267.812 130.505 273.353 124.889 280.187 124.889H333.812C340.647 124.889 346.187 130.505 346.187 137.433V199.456C346.187 206.384 340.647 212 333.812 212H280.187C273.353 212 267.812 206.384 267.812 199.456V137.433Z" fill="#F3F6F8"/>
<path d="M307.683 139.524C315.656 139.524 322.12 132.971 322.12 124.889H293.245C293.245 132.971 299.709 139.524 307.683 139.524Z" fill="#9E5D56"/>
</g>
</g>
<defs>
<filter id="filter0_d_13_9798" x="19" y="-8" width="99.8096" height="213.615" filterUnits="userSpaceOnUse" color-interpolation-filters="sRGB">
<feFlood flood-opacity="0" result="BackgroundImageFix"/>
<feColorMatrix in="SourceAlpha" type="matrix" values="0 0 0 0 0 0 0 0 0 0 0 0 0 0 0 0 0 0 127 0" result="hardAlpha"/>
<feOffset dy="4"/>
<feGaussianBlur stdDeviation="2"/>
<feComposite in2="hardAlpha" operator="out"/>
<feColorMatrix type="matrix" values="0 0 0 0 0 0 0 0 0 0 0 0 0 0 0 0 0 0 0.25 0"/>
<feBlend mode="normal" in2="BackgroundImageFix" result="effect1_dropShadow_13_9798"/>
<feBlend mode="normal" in="SourceGraphic" in2="effect1_dropShadow_13_9798" result="shape"/>
</filter>
<filter id="filter1_d_13_9798" x="121.463" y="-16" width="98.8533" height="213.615" filterUnits="userSpaceOnUse" color-interpolation-filters="sRGB">
<feFlood flood-opacity="0" result="BackgroundImageFix"/>
<feColorMatrix in="SourceAlpha" type="matrix" values="0 0 0 0 0 0 0 0 0 0 0 0 0 0 0 0 0 0 127 0" result="hardAlpha"/>
<feOffset dy="4"/>
<feGaussianBlur stdDeviation="2"/>
<feComposite in2="hardAlpha" operator="out"/>
<feColorMatrix type="matrix" values="0 0 0 0 0 0 0 0 0 0 0 0 0 0 0 0 0 0 0.25 0"/>
<feBlend mode="normal" in2="BackgroundImageFix" result="effect1_dropShadow_13_9798"/>
<feBlend mode="normal" in="SourceGraphic" in2="effect1_dropShadow_13_9798" result="shape"/>
</filter>
<filter id="filter2_d_13_9798" x="207.273" y="-16" width="99.8096" height="213.615" filterUnits="userSpaceOnUse" color-interpolation-filters="sRGB">
<feFlood flood-opacity="0" result="BackgroundImageFix"/>
<feColorMatrix in="SourceAlpha" type="matrix" values="0 0 0 0 0 0 0 0 0 0 0 0 0 0 0 0 0 0 127 0" result="hardAlpha"/>
<feOffset dy="4"/>
<feGaussianBlur stdDeviation="2"/>
<feComposite in2="hardAlpha" operator="out"/>
<feColorMatrix type="matrix" values="0 0 0 0 0 0 0 0 0 0 0 0 0 0 0 0 0 0 0.25 0"/>
<feBlend mode="normal" in2="BackgroundImageFix" result="effect1_dropShadow_13_9798"/>
<feBlend mode="normal" in="SourceGraphic" in2="effect1_dropShadow_13_9798" result="shape"/>
</filter>
<filter id="filter3_d_13_9798" x="157.064" y="19.385" width="99.8096" height="213.615" filterUnits="userSpaceOnUse" color-interpolation-filters="sRGB">
<feFlood flood-opacity="0" result="BackgroundImageFix"/>
<feColorMatrix in="SourceAlpha" type="matrix" values="0 0 0 0 0 0 0 0 0 0 0 0 0 0 0 0 0 0 127 0" result="hardAlpha"/>
<feOffset dy="4"/>
<feGaussianBlur stdDeviation="2"/>
<feComposite in2="hardAlpha" operator="out"/>
<feColorMatrix type="matrix" values="0 0 0 0 0 0 0 0 0 0 0 0 0 0 0 0 0 0 0.25 0"/>
<feBlend mode="normal" in2="BackgroundImageFix" result="effect1_dropShadow_13_9798"/>
<feBlend mode="normal" in="SourceGraphic" in2="effect1_dropShadow_13_9798" result="shape"/>
</filter>
<filter id="filter4_d_13_9798" x="64.905" y="17.4724" width="98.8533" height="215.528" filterUnits="userSpaceOnUse" color-interpolation-filters="sRGB">
<feFlood flood-opacity="0" result="BackgroundImageFix"/>
<feColorMatrix in="SourceAlpha" type="matrix" values="0 0 0 0 0 0 0 0 0 0 0 0 0 0 0 0 0 0 127 0" result="hardAlpha"/>
<feOffset dy="4"/>
<feGaussianBlur stdDeviation="2"/>
<feComposite in2="hardAlpha" operator="out"/>
<feColorMatrix type="matrix" values="0 0 0 0 0 0 0 0 0 0 0 0 0 0 0 0 0 0 0.25 0"/>
<feBlend mode="normal" in2="BackgroundImageFix" result="effect1_dropShadow_13_9798"/>
<feBlend mode="normal" in="SourceGraphic" in2="effect1_dropShadow_13_9798" result="shape"/>
</filter>
<filter id="filter5_d_13_9798" x="309.997" y="-8" width="98.8533" height="215.528" filterUnits="userSpaceOnUse" color-interpolation-filters="sRGB">
<feFlood flood-opacity="0" result="BackgroundImageFix"/>
<feColorMatrix in="SourceAlpha" type="matrix" values="0 0 0 0 0 0 0 0 0 0 0 0 0 0 0 0 0 0 127 0" result="hardAlpha"/>
<feOffset dy="4"/>
<feGaussianBlur stdDeviation="2"/>
<feComposite in2="hardAlpha" operator="out"/>
<feColorMatrix type="matrix" values="0 0 0 0 0 0 0 0 0 0 0 0 0 0 0 0 0 0 0.25 0"/>
<feBlend mode="normal" in2="BackgroundImageFix" result="effect1_dropShadow_13_9798"/>
<feBlend mode="normal" in="SourceGraphic" in2="effect1_dropShadow_13_9798" result="shape"/>
</filter>
<filter id="filter6_d_13_9798" x="259" y="16" width="96.6875" height="204" filterUnits="userSpaceOnUse" color-interpolation-filters="sRGB">
<feFlood flood-opacity="0" result="BackgroundImageFix"/>
<feColorMatrix in="SourceAlpha" type="matrix" values="0 0 0 0 0 0 0 0 0 0 0 0 0 0 0 0 0 0 127 0" result="hardAlpha"/>
<feOffset dy="4"/>
<feGaussianBlur stdDeviation="2"/>
<feComposite in2="hardAlpha" operator="out"/>
<feColorMatrix type="matrix" values="0 0 0 0 0 0 0 0 0 0 0 0 0 0 0 0 0 0 0.25 0"/>
<feBlend mode="normal" in2="BackgroundImageFix" result="effect1_dropShadow_13_9798"/>
<feBlend mode="normal" in="SourceGraphic" in2="effect1_dropShadow_13_9798" result="shape"/>
</filter>
<clipPath id="clip0_13_9798">
<rect width="429" height="163" fill="white"/>
</clipPath>
<clipPath id="clip1_13_9798">
<rect width="81.7679" height="91.3845" fill="white" transform="translate(28.0208 106.231)"/>
</clipPath>
<clipPath id="clip2_13_9798">
<rect width="80.9161" height="91.3845" fill="white" transform="translate(130.431 98.2307)"/>
</clipPath>
<clipPath id="clip3_13_9798">
<rect width="81.7679" height="91.3845" fill="white" transform="translate(216.294 98.2307)"/>
</clipPath>
<clipPath id="clip4_13_9798">
<rect width="81.7679" height="91.3845" fill="white" transform="translate(166.084 133.616)"/>
</clipPath>
<clipPath id="clip5_13_9798">
<rect width="80.9161" height="92.2346" fill="white" transform="translate(73.8735 132.766)"/>
</clipPath>
<clipPath id="clip6_13_9798">
<rect width="80.9161" height="92.2346" fill="white" transform="translate(318.965 107.293)"/>
</clipPath>
</defs>
</svg>
