<svg width="429" height="163" viewBox="0 0 429 163" fill="none" xmlns="http://www.w3.org/2000/svg">
<g clip-path="url(#clip0_13_9792)">
<path d="M30.7816 9.84036C32.0519 4.0928 37.1559 0 43.0533 0H385.947C391.844 0 396.948 4.0928 398.218 9.84036L428.7 147.757C429.92 153.277 427.31 158.594 422.847 161.247L391.803 163H31.2367L6.83 161.622C1.95858 159.12 -0.980645 153.551 0.30003 147.757L30.7816 9.84036Z" fill="#F3F6F8"/>
<g filter="url(#filter0_d_13_9792)">
<rect x="58.1459" y="89.0959" width="22.9524" height="17.1346" fill="#F6C09D"/>
<path d="M81.0983 97.9822C77.739 99.6075 73.9668 100.519 69.9807 100.519H68.5462C64.8413 100.519 61.3213 99.7316 58.1459 98.3155L58.1459 91.9519H81.0983V97.9822Z" fill="#D88E8D"/>
<path d="M42.7593 34.7573C42.7593 20.7597 54.1594 9.41235 68.2221 9.41235H69.6566C83.7193 9.41235 95.1194 20.7597 95.1194 34.7573V52.2488C99.0807 52.2488 102.292 55.4453 102.292 59.3882C102.292 63.3312 99.0807 66.5277 95.1194 66.5277V71.8822C95.1194 85.8798 83.7193 97.2271 69.6566 97.2271H68.2221C54.1594 97.2271 42.7593 85.8798 42.7593 71.8822V66.5277C38.798 66.5277 35.5867 63.3312 35.5867 59.3882C35.5867 55.4453 38.798 52.2488 42.7593 52.2488V34.7573Z" fill="#F6C09D"/>
<ellipse cx="57.4632" cy="54.7476" rx="2.51042" ry="2.49879" fill="#4C150E"/>
<ellipse cx="81.1329" cy="54.7476" rx="2.51042" ry="2.49879" fill="#4C150E"/>
<path d="M66.429 64.386C66.4291 66.3574 68.0347 67.9554 70.0153 67.9554C71.9959 67.9554 73.6016 66.3572 73.6016 64.3857V54.3905C73.6016 53.5867 73.3347 52.845 72.8843 52.2483C72.8843 52.2482 72.8843 52.2484 72.8843 52.2483V62.2438C72.8843 64.2153 71.2787 65.8136 69.298 65.8136C68.1249 65.8136 67.0833 65.2529 66.429 64.386Z" fill="#D88E8D"/>
<path d="M42.7593 54.3906C42.7593 54.3906 36.6626 49.036 35.5867 45.4663C34.5108 41.8966 35.9453 32.2584 36.3039 29.0457C36.6626 25.8329 40.6075 14.0529 43.8352 10.4832C47.0629 6.91348 55.3114 4.05771 55.3114 4.05771C55.3114 4.05771 85.795 2.62983 88.6641 4.05771C91.5331 5.48559 91.8917 9.0553 91.8917 9.0553C91.8917 9.0553 97.6298 21.9062 98.3471 25.4759C99.0644 29.0457 99.423 42.2535 98.3471 45.4663C97.2712 48.6791 95.1194 54.3906 95.1194 54.3906C95.1194 54.3906 95.4781 42.2536 95.1194 39.0408C94.7608 35.8281 92.609 30.1166 91.8917 28.3317C91.1745 26.5468 86.1536 21.5493 86.1536 21.5493C86.1536 21.5493 61.7667 16.1947 55.3114 16.9087C48.856 17.6226 47.0629 22.9772 45.987 25.4759C44.9111 27.9747 42.7593 35.4711 42.7593 39.0408V54.3906Z" fill="#41030A"/>
<path d="M85.795 47.2512C83.2846 47.2512 77.9052 49.75 77.9052 49.75H85.4364H89.3813H91.1745C91.1745 49.75 87.2296 47.2512 85.795 47.2512Z" fill="#41030A"/>
<path d="M58.1804 47.2512C56.0286 47.2512 50.6492 49.75 50.6492 49.75H58.1804H62.1254H63.9185C63.9185 49.75 60.3322 47.2512 58.1804 47.2512Z" fill="#41030A"/>
<path d="M73.243 78.3076H65.7117L59.615 81.1634H79.3397L73.243 78.3076Z" fill="#41030A"/>
<g clip-path="url(#clip1_13_9792)">
<path d="M28.0209 119.39C28.0209 112.122 33.8012 106.231 40.9316 106.231H96.878C104.008 106.231 109.789 112.122 109.789 119.39V184.456C109.789 191.724 104.008 197.615 96.878 197.615H40.9316C33.8012 197.615 28.0209 191.724 28.0209 184.456V119.39Z" fill="#FD86B1"/>
<path d="M69.6172 121.583C77.936 121.583 84.6797 114.71 84.6797 106.231H54.5547C54.5547 114.71 61.2984 121.583 69.6172 121.583Z" fill="#F6C09D"/>
</g>
</g>
<g filter="url(#filter1_d_13_9792)">
<rect x="160.242" y="81.0959" width="22.7133" height="17.1346" fill="#F6C09D"/>
<path d="M182.956 89.9822C179.631 91.6075 175.899 92.5192 171.954 92.5192H170.534C166.868 92.5192 163.385 91.7316 160.242 90.3155L160.242 83.9519H182.956V89.9822Z" fill="#D88E8D"/>
<path d="M145.016 26.7573C145.016 12.7597 156.298 1.41235 170.214 1.41235H171.633C185.55 1.41235 196.831 12.7597 196.831 26.7573V44.2488C200.751 44.2488 203.929 47.4453 203.929 51.3882C203.929 55.3312 200.751 58.5277 196.831 58.5277V63.8822C196.831 77.8798 185.55 89.2271 171.633 89.2271H170.214C156.298 89.2271 145.016 77.8798 145.016 63.8822V58.5277C141.096 58.5277 137.918 55.3312 137.918 51.3882C137.918 47.4453 141.096 44.2488 145.016 44.2488V26.7573Z" fill="#F6C09D"/>
<ellipse cx="159.567" cy="46.7476" rx="2.48427" ry="2.49879" fill="#4C150E"/>
<ellipse cx="182.99" cy="46.7476" rx="2.48427" ry="2.49879" fill="#4C150E"/>
<path d="M168.439 56.386C168.44 58.3574 170.028 59.9554 171.988 59.9554C173.948 59.9554 175.537 58.3572 175.537 56.3857V46.3905C175.537 45.5867 175.273 44.845 174.827 44.2483C174.827 44.2482 174.827 44.2484 174.827 44.2483V54.2438C174.827 56.2153 173.239 57.8136 171.278 57.8136C170.118 57.8136 169.087 57.2529 168.439 56.386Z" fill="#D88E8D"/>
<path d="M145.016 46.3906C145.016 46.3906 138.983 41.036 137.918 37.4663C136.854 33.8966 138.273 24.2584 138.628 21.0457C138.983 17.8329 142.887 6.05289 146.081 2.48318C149.275 -1.08652 157.438 -3.94229 157.438 -3.94229C157.438 -3.94229 187.604 -5.37017 190.443 -3.94229C193.282 -2.51441 193.637 1.0553 193.637 1.0553C193.637 1.0553 199.315 13.9062 200.025 17.4759C200.735 21.0457 201.09 34.2535 200.025 37.4663C198.96 40.6791 196.831 46.3906 196.831 46.3906C196.831 46.3906 197.186 34.2536 196.831 31.0408C196.476 27.8281 194.347 22.1166 193.637 20.3317C192.927 18.5468 187.958 13.5493 187.958 13.5493C187.958 13.5493 163.826 8.19471 157.438 8.90865C151.049 9.62259 149.275 14.9772 148.21 17.4759C147.146 19.9747 145.016 27.4711 145.016 31.0408V46.3906Z" fill="#41030A"/>
<path d="M187.604 39.2512C185.119 39.2512 179.796 41.75 179.796 41.75H187.249H191.153H192.927C192.927 41.75 189.023 39.2512 187.604 39.2512Z" fill="#41030A"/>
<path d="M160.277 39.2512C158.147 39.2512 152.824 41.75 152.824 41.75H160.277H164.181H165.955C165.955 41.75 162.406 39.2512 160.277 39.2512Z" fill="#41030A"/>
<path d="M175.182 70.3076H167.73L161.696 73.1634H181.216L175.182 70.3076Z" fill="#41030A"/>
<g clip-path="url(#clip2_13_9792)">
<path d="M130.431 111.39C130.431 104.122 136.151 98.2307 143.207 98.2307H198.571C205.627 98.2307 211.347 104.122 211.347 111.39V176.456C211.347 183.724 205.627 189.615 198.571 189.615H143.207C136.151 189.615 130.431 183.724 130.431 176.456V111.39Z" fill="#EEC750"/>
<path d="M171.594 113.583C179.826 113.583 186.5 106.71 186.5 98.2307H156.689C156.689 106.71 163.362 113.583 171.594 113.583Z" fill="#F6C09D"/>
</g>
</g>
<g filter="url(#filter2_d_13_9792)">
<rect x="246.419" y="81.0959" width="22.9524" height="17.1346" fill="#F6C09D"/>
<path d="M269.372 89.9822C266.012 91.6075 262.24 92.5192 258.254 92.5192H256.819C253.115 92.5192 249.595 91.7316 246.419 90.3155L246.419 83.9519H269.372V89.9822Z" fill="#D88E8D"/>
<path d="M231.033 26.7573C231.033 12.7597 242.433 1.41235 256.495 1.41235H257.93C271.993 1.41235 283.393 12.7597 283.393 26.7573V44.2488C287.354 44.2488 290.565 47.4453 290.565 51.3882C290.565 55.3312 287.354 58.5277 283.393 58.5277V63.8822C283.393 77.8798 271.993 89.2271 257.93 89.2271H256.495C242.433 89.2271 231.033 77.8798 231.033 63.8822V58.5277C227.071 58.5277 223.86 55.3312 223.86 51.3882C223.86 47.4453 227.071 44.2488 231.033 44.2488V26.7573Z" fill="#F6C09D"/>
<ellipse cx="245.736" cy="46.7476" rx="2.51042" ry="2.49879" fill="#4C150E"/>
<ellipse cx="269.406" cy="46.7476" rx="2.51042" ry="2.49879" fill="#4C150E"/>
<path d="M254.702 56.386C254.702 58.3574 256.308 59.9554 258.289 59.9554C260.269 59.9554 261.875 58.3572 261.875 56.3857V46.3905C261.875 45.5867 261.608 44.845 261.158 44.2483C261.158 44.2482 261.158 44.2484 261.158 44.2483V54.2438C261.158 56.2153 259.552 57.8136 257.571 57.8136C256.398 57.8136 255.357 57.2529 254.702 56.386Z" fill="#D88E8D"/>
<path d="M231.033 46.3906C231.033 46.3906 224.936 41.036 223.86 37.4663C222.784 33.8966 224.219 24.2584 224.577 21.0457C224.936 17.8329 228.881 6.05289 232.109 2.48318C235.336 -1.08652 243.585 -3.94229 243.585 -3.94229C243.585 -3.94229 274.068 -5.37017 276.937 -3.94229C279.806 -2.51441 280.165 1.0553 280.165 1.0553C280.165 1.0553 285.903 13.9062 286.62 17.4759C287.338 21.0457 287.696 34.2535 286.62 37.4663C285.545 40.6791 283.393 46.3906 283.393 46.3906C283.393 46.3906 283.751 34.2536 283.393 31.0408C283.034 27.8281 280.882 22.1166 280.165 20.3317C279.448 18.5468 274.427 13.5493 274.427 13.5493C274.427 13.5493 250.04 8.19471 243.585 8.90865C237.129 9.62259 235.336 14.9772 234.26 17.4759C233.184 19.9747 231.033 27.4711 231.033 31.0408V46.3906Z" fill="#41030A"/>
<path d="M274.068 39.2512C271.558 39.2512 266.178 41.75 266.178 41.75H273.71H277.655H279.448C279.448 41.75 275.503 39.2512 274.068 39.2512Z" fill="#41030A"/>
<path d="M246.454 39.2512C244.302 39.2512 238.922 41.75 238.922 41.75H246.454H250.399H252.192C252.192 41.75 248.606 39.2512 246.454 39.2512Z" fill="#41030A"/>
<path d="M261.516 70.3076H253.985L247.888 73.1634H267.613L261.516 70.3076Z" fill="#41030A"/>
<g clip-path="url(#clip3_13_9792)">
<path d="M216.294 111.39C216.294 104.122 222.074 98.2307 229.205 98.2307H285.151C292.282 98.2307 298.062 104.122 298.062 111.39V176.456C298.062 183.724 292.282 189.615 285.151 189.615H229.205C222.074 189.615 216.294 183.724 216.294 176.456V111.39Z" fill="#65C3C9"/>
<path d="M257.891 113.583C266.209 113.583 272.953 106.71 272.953 98.2307H242.828C242.828 106.71 249.572 113.583 257.891 113.583Z" fill="#F6C09D"/>
</g>
</g>
<g filter="url(#filter3_d_13_9792)">
<rect x="196.21" y="116.481" width="22.9524" height="17.1346" fill="#F6C09D"/>
<path d="M219.162 125.367C215.803 126.993 212.031 127.904 208.044 127.904H206.61C202.905 127.904 199.385 127.117 196.21 125.701L196.21 119.337H219.162V125.367Z" fill="#D88E8D"/>
<path d="M180.823 62.1423C180.823 48.1447 192.223 36.7974 206.286 36.7974H207.72C221.783 36.7974 233.183 48.1447 233.183 62.1423V79.6338C237.144 79.6338 240.356 82.8303 240.356 86.7733C240.356 90.7162 237.144 93.9127 233.183 93.9127V99.2672C233.183 113.265 221.783 124.612 207.72 124.612H206.286C192.223 124.612 180.823 113.265 180.823 99.2672V93.9127C176.862 93.9127 173.65 90.7162 173.65 86.7733C173.65 82.8303 176.862 79.6338 180.823 79.6338V62.1423Z" fill="#F6C09D"/>
<ellipse cx="195.527" cy="82.1326" rx="2.51042" ry="2.49879" fill="#4C150E"/>
<ellipse cx="219.197" cy="82.1326" rx="2.51042" ry="2.49879" fill="#4C150E"/>
<path d="M204.493 91.771C204.493 93.7424 206.098 95.3404 208.079 95.3404C210.06 95.3404 211.665 93.7422 211.665 91.7707V81.7755C211.665 80.9717 211.398 80.23 210.948 79.6333C210.948 79.6332 210.948 79.6335 210.948 79.6333V89.6289C210.948 91.6004 209.342 93.1986 207.362 93.1986C206.189 93.1986 205.147 92.6379 204.493 91.771Z" fill="#D88E8D"/>
<path d="M180.823 81.7756C180.823 81.7756 174.726 76.421 173.65 72.8513C172.575 69.2816 174.009 59.6434 174.368 56.4307C174.726 53.2179 178.671 41.4379 181.899 37.8682C185.127 34.2985 193.375 31.4427 193.375 31.4427C193.375 31.4427 223.859 30.0148 226.728 31.4427C229.597 32.8706 229.955 36.4403 229.955 36.4403C229.955 36.4403 235.694 49.2912 236.411 52.861C237.128 56.4307 237.487 69.6386 236.411 72.8513C235.335 76.0641 233.183 81.7756 233.183 81.7756C233.183 81.7756 233.542 69.6386 233.183 66.4258C232.825 63.2131 230.673 57.5016 229.955 55.7167C229.238 53.9318 224.217 48.9343 224.217 48.9343C224.217 48.9343 199.83 43.5797 193.375 44.2937C186.92 45.0076 185.127 50.3622 184.051 52.861C182.975 55.3598 180.823 62.8561 180.823 66.4258V81.7756Z" fill="#41030A"/>
<path d="M223.859 74.6362C221.348 74.6362 215.969 77.135 215.969 77.135H223.5H227.445H229.238C229.238 77.135 225.293 74.6362 223.859 74.6362Z" fill="#41030A"/>
<path d="M196.244 74.6362C194.092 74.6362 188.713 77.135 188.713 77.135H196.244H200.189H201.982C201.982 77.135 198.396 74.6362 196.244 74.6362Z" fill="#41030A"/>
<path d="M211.307 105.693H203.775L197.679 108.548H217.403L211.307 105.693Z" fill="#41030A"/>
<g clip-path="url(#clip4_13_9792)">
<path d="M166.085 146.775C166.085 139.507 171.865 133.616 178.995 133.616H234.942C242.072 133.616 247.852 139.507 247.852 146.775V211.841C247.852 219.109 242.072 225 234.942 225H178.995C171.865 225 166.085 219.109 166.085 211.841V146.775Z" fill="#41CA7B"/>
<path d="M207.681 148.968C216 148.968 222.743 142.095 222.743 133.616H192.618C192.618 142.095 199.362 148.968 207.681 148.968Z" fill="#F6C09D"/>
</g>
</g>
<g filter="url(#filter4_d_13_9792)">
<rect x="103.685" y="115.472" width="22.7133" height="17.294" fill="#F6C09D"/>
<path d="M126.398 124.44C123.074 126.081 119.341 127.001 115.396 127.001H113.977C110.31 127.001 106.827 126.206 103.685 124.777L103.685 118.354H126.398V124.44Z" fill="#D88E8D"/>
<path d="M88.4585 60.6273C88.4585 46.4995 99.7398 35.0466 113.656 35.0466H115.076C128.992 35.0466 140.273 46.4995 140.273 60.6273V78.2816C144.193 78.2816 147.371 81.5077 147.371 85.4874C147.371 89.4671 144.193 92.6932 140.273 92.6932V98.0976C140.273 112.225 128.992 123.678 115.076 123.678H113.656C99.7398 123.678 88.4585 112.225 88.4585 98.0976V92.6932C84.5384 92.6932 81.3606 89.4671 81.3606 85.4874C81.3606 81.5077 84.5384 78.2816 88.4585 78.2816V60.6273Z" fill="#F6C09D"/>
<ellipse cx="103.009" cy="80.8035" rx="2.48427" ry="2.52204" fill="#4C150E"/>
<ellipse cx="126.432" cy="80.8035" rx="2.48427" ry="2.52204" fill="#4C150E"/>
<path d="M111.882 90.5319C111.882 92.5216 113.471 94.1345 115.431 94.1345C117.391 94.1345 118.979 92.5214 118.979 90.5315V80.4434C118.979 79.6321 118.715 78.8835 118.27 78.2813C118.27 78.2812 118.27 78.2814 118.27 78.2813V88.3698C118.27 90.3596 116.681 91.9727 114.721 91.9727C113.56 91.9727 112.529 91.4068 111.882 90.5319Z" fill="#D88E8D"/>
<path d="M88.4584 80.4433C88.4584 80.4433 82.4252 75.039 81.3605 71.436C80.2959 67.8331 81.7154 58.1052 82.0703 54.8626C82.4252 51.62 86.3291 39.7304 89.5231 36.1275C92.7172 32.5246 100.88 29.6422 100.88 29.6422C100.88 29.6422 131.046 28.2011 133.885 29.6422C136.724 31.0834 137.079 34.6863 137.079 34.6863C137.079 34.6863 142.757 47.6568 143.467 51.2597C144.177 54.8626 144.532 68.1934 143.467 71.436C142.403 74.6787 140.273 80.4433 140.273 80.4433C140.273 80.4433 140.628 68.1934 140.273 64.9508C139.918 61.7081 137.789 55.9435 137.079 54.142C136.369 52.3406 131.401 47.2965 131.401 47.2965C131.401 47.2965 107.268 41.8921 100.88 42.6127C94.4917 43.3333 92.7172 48.7377 91.6525 51.2597C90.5878 53.7817 88.4584 61.3479 88.4584 64.9508V80.4433Z" fill="#41030A"/>
<path d="M131.046 73.2375C128.562 73.2375 123.238 75.7596 123.238 75.7596H130.691H134.595H136.369C136.369 75.7596 132.465 73.2375 131.046 73.2375Z" fill="#41030A"/>
<path d="M103.719 73.2375C101.59 73.2375 96.2661 75.7596 96.2661 75.7596H103.719H107.623H109.397C109.397 75.7596 105.848 73.2375 103.719 73.2375Z" fill="#41030A"/>
<path d="M118.625 104.583H111.172L105.139 107.465H124.658L118.625 104.583Z" fill="#41030A"/>
<g clip-path="url(#clip5_13_9792)">
<path d="M73.8735 146.047C73.8735 138.712 79.5936 132.766 86.6497 132.766H142.013C149.07 132.766 154.79 138.712 154.79 146.047V211.718C154.79 219.054 149.07 225 142.013 225H86.6497C79.5936 225 73.8735 219.054 73.8735 211.718V146.047Z" fill="#F5A35A"/>
<path d="M115.037 148.261C123.269 148.261 129.942 141.324 129.942 132.766H100.131C100.131 141.324 106.804 148.261 115.037 148.261Z" fill="#F6C09D"/>
</g>
</g>
<g filter="url(#filter5_d_13_9792)">
<rect x="348.776" y="89.9993" width="22.7133" height="17.294" fill="#F6C09D"/>
<path d="M371.49 98.9679C368.166 100.608 364.433 101.529 360.488 101.529H359.068C355.402 101.529 351.919 100.734 348.776 99.3044L348.776 92.8816H371.49V98.9679Z" fill="#D88E8D"/>
<path d="M333.55 35.1549C333.55 21.0271 344.832 9.57422 358.748 9.57422H360.167C374.084 9.57422 385.365 21.0271 385.365 35.1549V52.8092C389.285 52.8092 392.463 56.0353 392.463 60.015C392.463 63.9947 389.285 67.2208 385.365 67.2208V72.6252C385.365 86.753 374.084 98.2059 360.167 98.2059H358.748C344.832 98.2059 333.55 86.753 333.55 72.6252V67.2208C329.63 67.2208 326.452 63.9947 326.452 60.015C326.452 56.0353 329.63 52.8092 333.55 52.8092V35.1549Z" fill="#F6C09D"/>
<ellipse cx="348.101" cy="55.3311" rx="2.48427" ry="2.52204" fill="#4C150E"/>
<ellipse cx="371.524" cy="55.3311" rx="2.48427" ry="2.52204" fill="#4C150E"/>
<path d="M356.973 65.0595C356.974 67.0492 358.562 68.662 360.522 68.662C362.482 68.662 364.071 67.049 364.071 65.0591V54.971C364.071 54.1597 363.807 53.4111 363.362 52.8089C363.362 52.8088 363.362 52.809 363.362 52.8089V62.8974C363.362 64.8872 361.773 66.5003 359.813 66.5003C358.652 66.5003 357.621 65.9344 356.973 65.0595Z" fill="#D88E8D"/>
<path d="M333.55 54.9709C333.55 54.9709 327.517 49.5665 326.452 45.9636C325.388 42.3607 326.807 32.6328 327.162 29.3902C327.517 26.1476 331.421 14.258 334.615 10.6551C337.809 7.05215 345.972 4.16981 345.972 4.16981C345.972 4.16981 376.138 2.72865 378.977 4.16981C381.816 5.61098 382.171 9.21389 382.171 9.21389C382.171 9.21389 387.849 22.1844 388.559 25.7873C389.269 29.3902 389.624 42.721 388.559 45.9636C387.494 49.2062 385.365 54.9709 385.365 54.9709C385.365 54.9709 385.72 42.721 385.365 39.4784C385.01 36.2357 382.881 30.4711 382.171 28.6696C381.461 26.8681 376.493 21.8241 376.493 21.8241C376.493 21.8241 352.36 16.4197 345.972 17.1403C339.583 17.8609 337.809 23.2653 336.744 25.7873C335.68 28.3093 333.55 35.8754 333.55 39.4784V54.9709Z" fill="#41030A"/>
<path d="M376.138 47.7651C373.653 47.7651 368.33 50.2872 368.33 50.2872H375.783H379.687H381.461C381.461 50.2872 377.557 47.7651 376.138 47.7651Z" fill="#41030A"/>
<path d="M348.811 47.7651C346.681 47.7651 341.358 50.2872 341.358 50.2872H348.811H352.715H354.489C354.489 50.2872 350.94 47.7651 348.811 47.7651Z" fill="#41030A"/>
<path d="M363.716 79.1104H356.264L350.23 81.9927H369.75L363.716 79.1104Z" fill="#41030A"/>
<g clip-path="url(#clip6_13_9792)">
<path d="M318.965 120.575C318.965 113.24 324.685 107.293 331.742 107.293H387.105C394.161 107.293 399.881 113.24 399.881 120.575V186.246C399.881 193.581 394.161 199.528 387.105 199.528H331.742C324.685 199.528 318.965 193.581 318.965 186.246V120.575Z" fill="#59A6EA"/>
<path d="M360.128 122.789C368.361 122.789 375.034 115.851 375.034 107.293H345.223C345.223 115.851 351.896 122.789 360.128 122.789Z" fill="#F6C09D"/>
</g>
</g>
<g filter="url(#filter6_d_13_9792)">
<path d="M296.688 111.241V125H318.688V110.775C314.449 113.716 310.044 115.463 307.344 115.463C304.789 115.463 300.709 113.899 296.688 111.241Z" fill="#9E5D56"/>
<path d="M296.688 106.472C300.709 109.13 304.789 110.694 307.344 110.694C310.044 110.694 314.449 108.947 318.688 106.007V110.775C314.449 113.716 310.044 115.463 307.344 115.463C304.789 115.463 300.709 113.899 296.688 111.241V106.472Z" fill="#65353A"/>
<path d="M307.344 39.1626C294.624 39.1626 284.312 49.3803 284.312 61.9845V70.5001C280.516 70.5001 277.438 73.5502 277.438 77.3126C277.438 81.075 280.516 84.1251 284.312 84.1251V87.872C284.312 100.476 300.812 110.694 307.344 110.694C313.875 110.694 330.375 100.476 330.375 87.872V84.1251C334.172 84.1251 337.25 81.075 337.25 77.3126C337.25 73.5502 334.172 70.5001 330.375 70.5001V61.9845C330.375 49.3803 320.064 39.1626 307.344 39.1626Z" fill="#9E5D56"/>
<path d="M304.938 86.1691C304.938 88.0502 306.477 89.575 308.375 89.575C310.273 89.575 311.812 88.05 311.812 86.1688V76.6313C311.812 75.8643 311.557 75.1565 311.125 74.5872C311.125 74.5871 311.125 74.5873 311.125 74.5872V84.125C311.125 86.0062 309.586 87.5313 307.687 87.5313C306.563 87.5313 305.565 86.9963 304.938 86.1691Z" fill="#65353A"/>
<ellipse cx="296.344" cy="76.972" rx="2.40625" ry="2.38437" fill="#30333A"/>
<ellipse cx="319.031" cy="76.972" rx="2.40625" ry="2.38437" fill="#30333A"/>
<path d="M294.701 33.3333C292.752 33.7457 289.706 34.39 285.901 38.4738C282.814 41.7862 280.493 52.5893 279.733 59.9334C277.447 61.8852 275.431 65.2823 276.029 69.4512C273.371 69.4512 269.658 71.2508 269.658 80.5487C267.456 81.1485 263.189 84.2678 263.735 91.946C264.574 103.73 280.459 106.332 290.616 106.943C292.627 107.063 294.652 107.163 296.688 107.24V105.953C290.429 101.82 284.36 95.1035 284.36 87.4375L284.313 84.0555C280.516 84.0555 277.438 81.0085 277.438 77.2499C277.438 73.4913 280.516 70.4444 284.313 70.4444C284.313 67.1524 284.175 67.9493 284.313 64.6596C285.998 64.057 289.795 63.4989 291.531 61.9374C295.431 58.4296 297.849 53.6069 298.063 51.3531L297.93 50.1739C299.74 52.9477 301.653 56.5162 305.625 58.5346C313.463 62.5173 324.795 62.4487 330.031 63.9791C330.362 67.6172 330.375 66.797 330.375 70.4444C334.172 70.4444 337.202 73.4188 337.202 77.1774C337.202 80.936 334.172 84.0555 330.375 84.0555V87.3719C330.375 94.7568 324.699 101.322 318.688 105.488V107.239C320.716 107.162 322.735 107.063 324.739 106.943C334.896 106.332 350.781 103.73 351.62 91.946C352.167 84.2678 349.274 81.1485 347.072 80.5487C347.072 71.2508 341.984 69.4512 339.327 69.4512C339.902 65.4364 338.054 62.1375 335.875 60.1558C335.839 47.4446 331.475 40.0126 326.303 36.8296C318.534 32.0488 303.675 31.435 294.701 33.3333Z" fill="#4C150E"/>
<path d="M299.438 93.5833C301.765 96.3041 308.994 93.5833 317.079 93.5833C308.258 103.378 308.626 105.011 299.438 93.5833Z" fill="#ACACAC" stroke="#ACACAC"/>
<path d="M267.812 137.433C267.812 130.505 273.353 124.889 280.187 124.889H333.812C340.647 124.889 346.187 130.505 346.187 137.433V199.456C346.187 206.384 340.647 212 333.812 212H280.187C273.353 212 267.812 206.384 267.812 199.456V137.433Z" fill="#F3F6F8"/>
<path d="M307.683 139.524C315.656 139.524 322.12 132.971 322.12 124.889H293.245C293.245 132.971 299.709 139.524 307.683 139.524Z" fill="#9E5D56"/>
</g>
</g>
<defs>
<filter id="filter0_d_13_9792" x="19" y="-8" width="99.8096" height="213.615" filterUnits="userSpaceOnUse" color-interpolation-filters="sRGB">
<feFlood flood-opacity="0" result="BackgroundImageFix"/>
<feColorMatrix in="SourceAlpha" type="matrix" values="0 0 0 0 0 0 0 0 0 0 0 0 0 0 0 0 0 0 127 0" result="hardAlpha"/>
<feOffset dy="4"/>
<feGaussianBlur stdDeviation="2"/>
<feComposite in2="hardAlpha" operator="out"/>
<feColorMatrix type="matrix" values="0 0 0 0 0 0 0 0 0 0 0 0 0 0 0 0 0 0 0.25 0"/>
<feBlend mode="normal" in2="BackgroundImageFix" result="effect1_dropShadow_13_9792"/>
<feBlend mode="normal" in="SourceGraphic" in2="effect1_dropShadow_13_9792" result="shape"/>
</filter>
<filter id="filter1_d_13_9792" x="121.463" y="-16" width="98.8531" height="213.615" filterUnits="userSpaceOnUse" color-interpolation-filters="sRGB">
<feFlood flood-opacity="0" result="BackgroundImageFix"/>
<feColorMatrix in="SourceAlpha" type="matrix" values="0 0 0 0 0 0 0 0 0 0 0 0 0 0 0 0 0 0 127 0" result="hardAlpha"/>
<feOffset dy="4"/>
<feGaussianBlur stdDeviation="2"/>
<feComposite in2="hardAlpha" operator="out"/>
<feColorMatrix type="matrix" values="0 0 0 0 0 0 0 0 0 0 0 0 0 0 0 0 0 0 0.25 0"/>
<feBlend mode="normal" in2="BackgroundImageFix" result="effect1_dropShadow_13_9792"/>
<feBlend mode="normal" in="SourceGraphic" in2="effect1_dropShadow_13_9792" result="shape"/>
</filter>
<filter id="filter2_d_13_9792" x="207.273" y="-16" width="99.8096" height="213.615" filterUnits="userSpaceOnUse" color-interpolation-filters="sRGB">
<feFlood flood-opacity="0" result="BackgroundImageFix"/>
<feColorMatrix in="SourceAlpha" type="matrix" values="0 0 0 0 0 0 0 0 0 0 0 0 0 0 0 0 0 0 127 0" result="hardAlpha"/>
<feOffset dy="4"/>
<feGaussianBlur stdDeviation="2"/>
<feComposite in2="hardAlpha" operator="out"/>
<feColorMatrix type="matrix" values="0 0 0 0 0 0 0 0 0 0 0 0 0 0 0 0 0 0 0.25 0"/>
<feBlend mode="normal" in2="BackgroundImageFix" result="effect1_dropShadow_13_9792"/>
<feBlend mode="normal" in="SourceGraphic" in2="effect1_dropShadow_13_9792" result="shape"/>
</filter>
<filter id="filter3_d_13_9792" x="157.064" y="19.385" width="99.8096" height="213.615" filterUnits="userSpaceOnUse" color-interpolation-filters="sRGB">
<feFlood flood-opacity="0" result="BackgroundImageFix"/>
<feColorMatrix in="SourceAlpha" type="matrix" values="0 0 0 0 0 0 0 0 0 0 0 0 0 0 0 0 0 0 127 0" result="hardAlpha"/>
<feOffset dy="4"/>
<feGaussianBlur stdDeviation="2"/>
<feComposite in2="hardAlpha" operator="out"/>
<feColorMatrix type="matrix" values="0 0 0 0 0 0 0 0 0 0 0 0 0 0 0 0 0 0 0.25 0"/>
<feBlend mode="normal" in2="BackgroundImageFix" result="effect1_dropShadow_13_9792"/>
<feBlend mode="normal" in="SourceGraphic" in2="effect1_dropShadow_13_9792" result="shape"/>
</filter>
<filter id="filter4_d_13_9792" x="64.905" y="17.4724" width="98.8531" height="215.528" filterUnits="userSpaceOnUse" color-interpolation-filters="sRGB">
<feFlood flood-opacity="0" result="BackgroundImageFix"/>
<feColorMatrix in="SourceAlpha" type="matrix" values="0 0 0 0 0 0 0 0 0 0 0 0 0 0 0 0 0 0 127 0" result="hardAlpha"/>
<feOffset dy="4"/>
<feGaussianBlur stdDeviation="2"/>
<feComposite in2="hardAlpha" operator="out"/>
<feColorMatrix type="matrix" values="0 0 0 0 0 0 0 0 0 0 0 0 0 0 0 0 0 0 0.25 0"/>
<feBlend mode="normal" in2="BackgroundImageFix" result="effect1_dropShadow_13_9792"/>
<feBlend mode="normal" in="SourceGraphic" in2="effect1_dropShadow_13_9792" result="shape"/>
</filter>
<filter id="filter5_d_13_9792" x="309.997" y="-8" width="98.8531" height="215.528" filterUnits="userSpaceOnUse" color-interpolation-filters="sRGB">
<feFlood flood-opacity="0" result="BackgroundImageFix"/>
<feColorMatrix in="SourceAlpha" type="matrix" values="0 0 0 0 0 0 0 0 0 0 0 0 0 0 0 0 0 0 127 0" result="hardAlpha"/>
<feOffset dy="4"/>
<feGaussianBlur stdDeviation="2"/>
<feComposite in2="hardAlpha" operator="out"/>
<feColorMatrix type="matrix" values="0 0 0 0 0 0 0 0 0 0 0 0 0 0 0 0 0 0 0.25 0"/>
<feBlend mode="normal" in2="BackgroundImageFix" result="effect1_dropShadow_13_9792"/>
<feBlend mode="normal" in="SourceGraphic" in2="effect1_dropShadow_13_9792" result="shape"/>
</filter>
<filter id="filter6_d_13_9792" x="259" y="16" width="96.6875" height="204" filterUnits="userSpaceOnUse" color-interpolation-filters="sRGB">
<feFlood flood-opacity="0" result="BackgroundImageFix"/>
<feColorMatrix in="SourceAlpha" type="matrix" values="0 0 0 0 0 0 0 0 0 0 0 0 0 0 0 0 0 0 127 0" result="hardAlpha"/>
<feOffset dy="4"/>
<feGaussianBlur stdDeviation="2"/>
<feComposite in2="hardAlpha" operator="out"/>
<feColorMatrix type="matrix" values="0 0 0 0 0 0 0 0 0 0 0 0 0 0 0 0 0 0 0.25 0"/>
<feBlend mode="normal" in2="BackgroundImageFix" result="effect1_dropShadow_13_9792"/>
<feBlend mode="normal" in="SourceGraphic" in2="effect1_dropShadow_13_9792" result="shape"/>
</filter>
<clipPath id="clip0_13_9792">
<rect width="429" height="163" fill="white"/>
</clipPath>
<clipPath id="clip1_13_9792">
<rect width="81.7679" height="91.3845" fill="white" transform="translate(28.0209 106.231)"/>
</clipPath>
<clipPath id="clip2_13_9792">
<rect width="80.9161" height="91.3845" fill="white" transform="translate(130.431 98.2307)"/>
</clipPath>
<clipPath id="clip3_13_9792">
<rect width="81.7679" height="91.3845" fill="white" transform="translate(216.294 98.2307)"/>
</clipPath>
<clipPath id="clip4_13_9792">
<rect width="81.7679" height="91.3845" fill="white" transform="translate(166.085 133.616)"/>
</clipPath>
<clipPath id="clip5_13_9792">
<rect width="80.9161" height="92.2346" fill="white" transform="translate(73.8735 132.766)"/>
</clipPath>
<clipPath id="clip6_13_9792">
<rect width="80.9161" height="92.2346" fill="white" transform="translate(318.965 107.293)"/>
</clipPath>
</defs>
</svg>
