<svg width="429" height="163" viewBox="0 0 429 163" fill="none" xmlns="http://www.w3.org/2000/svg">
<g clip-path="url(#clip0_13_9796)">
<path d="M30.7816 9.84036C32.0519 4.0928 37.1559 0 43.0533 0H385.947C391.844 0 396.948 4.0928 398.218 9.84036L428.7 147.757C429.92 153.277 427.31 158.594 422.847 161.247L391.803 163H31.2367L6.83 161.622C1.95858 159.12 -0.980645 153.551 0.30003 147.757L30.7816 9.84036Z" fill="#F3F6F8"/>
<g filter="url(#filter0_d_13_9796)">
<path d="M58.1458 89.0959H80.3809V106.231H58.1458V89.0959Z" fill="#C46C4E"/>
<path d="M80.4619 95.6071V86.9543H69.2634H58.0648V96.0951C62.1587 98.8808 66.3125 100.519 68.9134 100.519C71.6628 100.519 76.1473 98.6884 80.4619 95.6071Z" fill="#8B3923"/>
<path d="M68.9134 20.5576C55.9641 20.5576 45.4665 31.2656 45.4665 44.4746L45.4665 53.3989C41.601 53.3989 38.4674 56.5953 38.4674 60.5383C38.4674 64.4813 41.601 67.6777 45.4665 67.6777L45.4665 71.6044C45.4665 84.8134 62.2643 95.5215 68.9134 95.5215C75.5626 95.5215 92.3604 84.8134 92.3604 71.6044V67.6777C96.2259 67.6777 99.3595 64.4813 99.3595 60.5383C99.3595 56.5953 96.2259 53.3989 92.3604 53.3989V44.4746C92.3604 31.2656 81.8628 20.5576 68.9134 20.5576Z" fill="#C46C4E"/>
<ellipse cx="57.7148" cy="60.1814" rx="2.44968" ry="2.49879" fill="#252C4A"/>
<ellipse cx="80.8119" cy="60.1814" rx="2.44968" ry="2.49879" fill="#252C4A"/>
<path d="M66.7356 71.2824V71.3339C66.7356 73.2577 68.3024 74.8172 70.2352 74.8172C72.1679 74.8172 73.7347 73.2577 73.7347 71.3339V61.166C73.7347 60.3816 73.4743 59.6579 73.0348 59.0756V69.1921C73.0348 71.1159 71.468 72.6754 69.5352 72.6754C68.3905 72.6754 67.3741 72.1283 66.7356 71.2824Z" fill="#4C150E"/>
<path d="M78.9464 81.2427H61.0149L62.0289 82.6268C65.655 87.5763 71.0716 88.3643 75.2838 84.555L78.9464 81.2427Z" fill="#4C150E"/>
<path d="M27.3879 68.7525C23.96 61.3519 26.7551 56.7236 31.5803 48.7338C34.1154 44.5359 37.2109 39.4101 40.2588 32.4667C47.3323 16.3523 61.7922 12.5796 68.5039 12.7078H69.7106C76.4142 12.5734 91.189 16.3397 98.268 32.4667C101.316 39.4101 104.411 44.5359 106.946 48.7338C111.772 56.7236 114.567 61.3519 111.139 68.7525C106.956 77.7836 98.1338 82.998 94.2457 84.4763C95.5865 82.8636 98.268 78.9931 98.268 76.4128C93.5525 81.9989 88.9513 85.6386 83.9165 87.82C88.5909 83.5577 92.3604 77.8617 92.3604 71.6045V67.6778C96.2258 67.6778 99.3594 64.4814 99.3594 60.5384C99.3594 56.5954 96.2258 53.399 92.3604 53.399V50.5295C84.2601 50.9029 71.6134 43.5999 60.8507 35.8514C56.8126 43.0474 50.7685 51.9796 45.4665 53.2509V53.399C41.601 53.399 38.4674 56.5954 38.4674 60.5384C38.4674 64.4814 41.601 67.6778 45.4665 67.6778V71.6045C45.4665 77.5519 48.8718 82.9922 53.223 87.1765C48.7227 84.9482 44.5378 81.4818 40.2588 76.4128C40.2588 78.9931 42.9403 82.8636 44.281 84.4763C40.3929 82.998 31.5709 77.7836 27.3879 68.7525Z" fill="#4C150E"/>
<g clip-path="url(#clip1_13_9796)">
<path d="M28.0209 119.39C28.0209 112.122 33.8012 106.231 40.9316 106.231H96.878C104.008 106.231 109.789 112.122 109.789 119.39V184.456C109.789 191.724 104.008 197.615 96.878 197.615H40.9316C33.8012 197.615 28.0209 191.724 28.0209 184.456V119.39Z" fill="#FD86B1"/>
<path d="M69.6221 121.583C77.9409 121.583 84.6846 114.71 84.6846 106.231H54.5596C54.5596 114.71 61.3033 121.583 69.6221 121.583Z" fill="#C46C4E"/>
<path d="M97.5952 130.505C89.1906 134.58 64.3707 139.027 73.931 154.887C73.9651 154.899 73.9995 154.911 74.0339 154.923C76.1895 147.451 78.3434 143.473 97.5952 130.505Z" fill="#219653"/>
<path d="M74.0339 154.923C76.1895 147.451 78.3434 143.473 97.5952 130.505C95.2685 153.186 81.4146 157.513 74.0339 154.923Z" fill="#219653"/>
<path d="M73.931 154.887L73.0745 155.403L73.2573 155.706L73.5901 155.827L73.931 154.887ZM97.5952 130.505L98.59 130.607L98.7731 128.822L97.1589 129.605L97.5952 130.505ZM72.7633 159.956C72.8623 160.499 73.3831 160.859 73.9264 160.76C74.4697 160.661 74.8299 160.14 74.7309 159.597L72.7633 159.956ZM74.7874 154.37C72.5149 150.6 72.375 147.684 73.3383 145.339C74.3297 142.926 76.5761 140.897 79.5373 139.136C82.4829 137.385 86.0002 135.977 89.3533 134.742C92.6556 133.525 95.8713 132.452 98.0316 131.404L97.1589 129.605C95.1168 130.595 92.0783 131.606 88.6618 132.865C85.2961 134.105 81.6301 135.565 78.5152 137.417C75.4159 139.26 72.7245 141.571 71.4884 144.579C70.2242 147.656 70.5669 151.243 73.0745 155.403L74.7874 154.37ZM73.5901 155.827C73.6275 155.84 73.6651 155.854 73.7028 155.867L74.3651 153.98C74.3338 153.969 74.3028 153.958 74.2718 153.946L73.5901 155.827ZM74.9948 155.2C76.0506 151.54 77.0723 148.839 80.1447 145.446C83.2703 141.995 88.5315 137.816 98.1539 131.334L97.0365 129.675C87.4071 136.162 81.9654 140.456 78.6622 144.104C75.3058 147.81 74.1729 150.834 73.0731 154.646L74.9948 155.2ZM74.7309 159.597C74.4663 158.145 74.5653 156.689 74.9948 155.2L73.0731 154.646C72.5671 156.4 72.4378 158.17 72.7633 159.956L74.7309 159.597ZM96.6005 130.403C95.4568 141.552 91.5018 148.016 87.1006 151.398C82.6838 154.791 77.7274 155.159 74.365 153.98L73.7028 155.867C77.7212 157.277 83.3821 156.777 88.3191 152.984C93.2717 149.179 97.407 142.139 98.59 130.607L96.6005 130.403Z" fill="#52803C"/>
</g>
</g>
<g filter="url(#filter1_d_13_9796)">
<path d="M160.242 81.0959H182.246V98.2305H160.242V81.0959Z" fill="#C46C4E"/>
<path d="M182.326 87.6071V78.9543H171.244H160.162V88.0951C164.214 90.8808 168.324 92.5192 170.898 92.5192C173.619 92.5192 178.056 90.6884 182.326 87.6071Z" fill="#8B3923"/>
<path d="M170.898 12.5576C158.083 12.5576 147.695 23.2656 147.695 36.4746L147.695 45.3989C143.87 45.3989 140.769 48.5953 140.769 52.5383C140.769 56.4813 143.87 59.6777 147.695 59.6777L147.695 63.6044C147.695 76.8134 164.318 87.5215 170.898 87.5215C177.478 87.5215 194.101 76.8134 194.101 63.6044V59.6777C197.926 59.6777 201.027 56.4813 201.027 52.5383C201.027 48.5953 197.926 45.3989 194.101 45.3989V36.4746C194.101 23.2656 183.712 12.5576 170.898 12.5576Z" fill="#C46C4E"/>
<ellipse cx="159.816" cy="52.1814" rx="2.42416" ry="2.49879" fill="#252C4A"/>
<ellipse cx="182.672" cy="52.1814" rx="2.42417" ry="2.49879" fill="#252C4A"/>
<path d="M168.743 63.2824V63.3339C168.743 65.2577 170.293 66.8172 172.206 66.8172C174.118 66.8172 175.669 65.2577 175.669 63.3339V53.166C175.669 52.3816 175.411 51.6579 174.976 51.0756V61.1921C174.976 63.1159 173.426 64.6754 171.513 64.6754C170.38 64.6754 169.375 64.1283 168.743 63.2824Z" fill="#4C150E"/>
<path d="M180.826 73.2427H163.082L164.085 74.6268C167.673 79.5763 173.034 80.3643 177.202 76.555L180.826 73.2427Z" fill="#4C150E"/>
<path d="M129.805 60.7525C126.413 53.3519 129.179 48.7236 133.954 40.7338C136.462 36.5359 139.526 31.4101 142.542 24.4667C149.542 8.35227 163.851 4.57955 170.493 4.70778H171.687C178.32 4.57338 192.941 8.33974 199.947 24.4667C202.963 31.4101 206.026 36.5359 208.535 40.7338C213.31 48.7236 216.076 53.3519 212.684 60.7525C208.544 69.7836 199.814 74.998 195.966 76.4763C197.293 74.8636 199.947 70.9931 199.947 68.4128C195.28 73.9989 190.727 77.6386 185.745 79.82C190.37 75.5577 194.101 69.8617 194.101 63.6045V59.6778C197.926 59.6778 201.027 56.4814 201.027 52.5384C201.027 48.5954 197.926 45.399 194.101 45.399V42.5295C186.085 42.9029 173.57 35.5999 162.919 27.8514C158.923 35.0474 152.942 43.9796 147.695 45.2509V45.399C143.87 45.399 140.769 48.5954 140.769 52.5384C140.769 56.4814 143.87 59.6778 147.695 59.6778V63.6045C147.695 69.5519 151.065 74.9922 155.371 79.1765C150.918 76.9482 146.776 73.4818 142.542 68.4128C142.542 70.9931 145.195 74.8636 146.522 76.4763C142.674 74.998 133.944 69.7836 129.805 60.7525Z" fill="#4C150E"/>
<g clip-path="url(#clip2_13_9796)">
<path d="M130.431 111.39C130.431 104.122 136.151 98.2307 143.208 98.2307H198.571C205.627 98.2307 211.347 104.122 211.347 111.39V176.456C211.347 183.724 205.627 189.615 198.571 189.615H143.208C136.151 189.615 130.431 183.724 130.431 176.456V111.39Z" fill="#EEC750"/>
<path d="M171.599 113.583C179.831 113.583 186.505 106.71 186.505 98.2307H156.693C156.693 106.71 163.367 113.583 171.599 113.583Z" fill="#C46C4E"/>
<path d="M199.281 122.505C190.964 126.58 166.403 131.027 175.863 146.887C175.897 146.899 175.931 146.911 175.965 146.923C178.098 139.451 180.23 135.473 199.281 122.505Z" fill="#219653"/>
<path d="M175.965 146.923C178.098 139.451 180.23 135.473 199.281 122.505C196.979 145.186 183.269 149.513 175.965 146.923Z" fill="#219653"/>
<path d="M175.863 146.887L175.004 147.399L175.186 147.703L175.519 147.825L175.863 146.887ZM199.281 122.505L200.276 122.606L200.458 120.814L198.841 121.607L199.281 122.505ZM174.697 151.954C174.795 152.497 175.315 152.858 175.859 152.76C176.402 152.662 176.763 152.142 176.665 151.599L174.697 151.954ZM176.722 146.374C174.473 142.604 174.333 139.684 175.288 137.336C176.269 134.922 178.492 132.893 181.42 131.134C184.334 129.383 187.814 127.976 191.132 126.741C194.399 125.524 197.582 124.451 199.721 123.403L198.841 121.607C196.821 122.597 193.816 123.607 190.434 124.866C187.103 126.107 183.474 127.567 180.39 129.419C177.322 131.263 174.658 133.575 173.435 136.583C172.185 139.656 172.523 143.239 175.004 147.399L176.722 146.374ZM175.519 147.825C175.556 147.839 175.594 147.853 175.631 147.866L176.299 145.981C176.268 145.97 176.238 145.959 176.207 145.948L175.519 147.825ZM176.927 147.198C177.972 143.537 178.983 140.835 182.023 137.442C185.116 133.991 190.322 129.813 199.844 123.331L198.718 121.678C189.189 128.165 183.803 132.459 180.534 136.107C177.212 139.814 176.092 142.837 175.004 146.649L176.927 147.198ZM176.665 151.599C176.403 150.146 176.501 148.688 176.927 147.198L175.004 146.649C174.503 148.402 174.375 150.17 174.697 151.954L176.665 151.599ZM198.286 122.404C197.154 133.556 193.239 140.021 188.885 143.401C184.517 146.792 179.62 147.158 176.299 145.981L175.631 147.866C179.614 149.278 185.223 148.776 190.112 144.981C195.015 141.174 199.105 134.135 200.276 122.606L198.286 122.404Z" fill="#52803C"/>
</g>
</g>
<g filter="url(#filter2_d_13_9796)">
<path d="M246.419 81.0959H268.654V98.2305H246.419V81.0959Z" fill="#C46C4E"/>
<path d="M268.735 87.6071V78.9543H257.537H246.338V88.0951C250.432 90.8808 254.586 92.5192 257.187 92.5192C259.936 92.5192 264.421 90.6884 268.735 87.6071Z" fill="#8B3923"/>
<path d="M257.187 12.5576C244.237 12.5576 233.74 23.2656 233.74 36.4746L233.74 45.3989C229.874 45.3989 226.741 48.5953 226.741 52.5383C226.741 56.4813 229.874 59.6777 233.74 59.6777L233.74 63.6044C233.74 76.8134 250.538 87.5215 257.187 87.5215C263.836 87.5215 280.634 76.8134 280.634 63.6044V59.6777C284.499 59.6777 287.633 56.4813 287.633 52.5383C287.633 48.5953 284.499 45.3989 280.634 45.3989V36.4746C280.634 23.2656 270.136 12.5576 257.187 12.5576Z" fill="#C46C4E"/>
<ellipse cx="245.988" cy="52.1814" rx="2.44968" ry="2.49879" fill="#252C4A"/>
<ellipse cx="269.085" cy="52.1814" rx="2.44968" ry="2.49879" fill="#252C4A"/>
<path d="M255.009 63.2824V63.3339C255.009 65.2577 256.576 66.8172 258.508 66.8172C260.441 66.8172 262.008 65.2577 262.008 63.3339V53.166C262.008 52.3816 261.748 51.6579 261.308 51.0756V61.1921C261.308 63.1159 259.741 64.6754 257.809 64.6754C256.664 64.6754 255.647 64.1283 255.009 63.2824Z" fill="#4C150E"/>
<path d="M267.22 73.2427H249.288L250.302 74.6268C253.928 79.5763 259.345 80.3643 263.557 76.555L267.22 73.2427Z" fill="#4C150E"/>
<path d="M215.661 60.7525C212.233 53.3519 215.028 48.7236 219.854 40.7338C222.389 36.5359 225.484 31.4101 228.532 24.4667C235.606 8.35227 250.066 4.57955 256.777 4.70778H257.984C264.687 4.57338 279.462 8.33974 286.541 24.4667C289.589 31.4101 292.685 36.5359 295.22 40.7338C300.045 48.7236 302.84 53.3519 299.412 60.7525C295.229 69.7836 286.407 74.998 282.519 76.4763C283.86 74.8636 286.541 70.9931 286.541 68.4128C281.826 73.9989 277.225 77.6386 272.19 79.82C276.864 75.5577 280.634 69.8617 280.634 63.6045V59.6778C284.499 59.6778 287.633 56.4814 287.633 52.5384C287.633 48.5954 284.499 45.399 280.634 45.399V42.5295C272.533 42.9029 259.887 35.5999 249.124 27.8514C245.086 35.0474 239.042 43.9796 233.74 45.2509V45.399C229.874 45.399 226.741 48.5954 226.741 52.5384C226.741 56.4814 229.874 59.6778 233.74 59.6778V63.6045C233.74 69.5519 237.145 74.9922 241.496 79.1765C236.996 76.9482 232.811 73.4818 228.532 68.4128C228.532 70.9931 231.214 74.8636 232.554 76.4763C228.666 74.998 219.844 69.7836 215.661 60.7525Z" fill="#4C150E"/>
<g clip-path="url(#clip3_13_9796)">
<path d="M216.294 111.39C216.294 104.122 222.075 98.2307 229.205 98.2307H285.151C292.282 98.2307 298.062 104.122 298.062 111.39V176.456C298.062 183.724 292.282 189.615 285.151 189.615H229.205C222.075 189.615 216.294 183.724 216.294 176.456V111.39Z" fill="#65C3C9"/>
<path d="M257.895 113.583C266.214 113.583 272.958 106.71 272.958 98.2307H242.833C242.833 106.71 249.577 113.583 257.895 113.583Z" fill="#C46C4E"/>
<path d="M285.869 122.505C277.464 126.58 252.644 131.027 262.204 146.887C262.238 146.899 262.273 146.911 262.307 146.923C264.463 139.451 266.617 135.473 285.869 122.505Z" fill="#219653"/>
<path d="M262.307 146.923C264.463 139.451 266.617 135.473 285.869 122.505C283.542 145.186 269.688 149.513 262.307 146.923Z" fill="#219653"/>
<path d="M262.204 146.887L261.348 147.403L261.531 147.706L261.863 147.827L262.204 146.887ZM285.869 122.505L286.863 122.607L287.046 120.822L285.432 121.605L285.869 122.505ZM261.037 151.956C261.136 152.499 261.656 152.859 262.2 152.76C262.743 152.661 263.103 152.14 263.004 151.597L261.037 151.956ZM263.061 146.37C260.788 142.6 260.648 139.684 261.612 137.339C262.603 134.926 264.849 132.897 267.811 131.136C270.756 129.385 274.274 127.977 277.627 126.742C280.929 125.525 284.145 124.452 286.305 123.404L285.432 121.605C283.39 122.595 280.352 123.606 276.935 124.865C273.569 126.105 269.903 127.565 266.789 129.417C263.689 131.26 260.998 133.571 259.762 136.579C258.497 139.656 258.84 143.243 261.348 147.403L263.061 146.37ZM261.863 147.827C261.901 147.84 261.938 147.854 261.976 147.867L262.638 145.98C262.607 145.969 262.576 145.958 262.545 145.946L261.863 147.827ZM263.268 147.2C264.324 143.54 265.346 140.839 268.418 137.446C271.544 133.995 276.805 129.816 286.427 123.334L285.31 121.675C275.68 128.162 270.239 132.456 266.936 136.104C263.579 139.81 262.446 142.834 261.346 146.646L263.268 147.2ZM263.004 151.597C262.74 150.145 262.839 148.689 263.268 147.2L261.346 146.646C260.84 148.4 260.711 150.17 261.037 151.956L263.004 151.597ZM284.874 122.403C283.73 133.552 279.775 140.016 275.374 143.398C270.957 146.791 266.001 147.159 262.638 145.98L261.976 147.867C265.994 149.277 271.655 148.777 276.592 144.984C281.545 141.179 285.68 134.139 286.863 122.607L284.874 122.403Z" fill="#52803C"/>
</g>
</g>
<g filter="url(#filter3_d_13_9796)">
<path d="M196.209 116.481H218.445V133.616H196.209V116.481Z" fill="#C46C4E"/>
<path d="M218.526 122.992V114.339H207.327H196.129V123.48C200.222 126.266 204.376 127.904 206.977 127.904C209.726 127.904 214.211 126.073 218.526 122.992Z" fill="#8B3923"/>
<path d="M206.977 47.9426C194.028 47.9426 183.53 58.6506 183.53 71.8597L183.53 80.7839C179.665 80.7839 176.531 83.9804 176.531 87.9233C176.531 91.8663 179.665 95.0628 183.53 95.0628L183.53 98.9894C183.53 112.198 200.328 122.906 206.977 122.906C213.626 122.906 230.424 112.198 230.424 98.9894V95.0628C234.29 95.0628 237.423 91.8663 237.423 87.9233C237.423 83.9804 234.29 80.7839 230.424 80.7839V71.8597C230.424 58.6506 219.927 47.9426 206.977 47.9426Z" fill="#C46C4E"/>
<ellipse cx="195.779" cy="87.5664" rx="2.44968" ry="2.49879" fill="#252C4A"/>
<ellipse cx="218.876" cy="87.5664" rx="2.44968" ry="2.49879" fill="#252C4A"/>
<path d="M204.799 98.6674V98.7189C204.799 100.643 206.366 102.202 208.299 102.202C210.232 102.202 211.798 100.643 211.798 98.7189V88.551C211.798 87.7667 211.538 87.0429 211.098 86.4606V96.5771C211.098 98.5009 209.532 100.06 207.599 100.06C206.454 100.06 205.438 99.5133 204.799 98.6674Z" fill="#4C150E"/>
<path d="M217.01 108.628H199.079L200.093 110.012C203.719 114.961 209.135 115.749 213.348 111.94L217.01 108.628Z" fill="#4C150E"/>
<path d="M165.452 96.1375C162.024 88.7369 164.819 84.1086 169.644 76.1188C172.179 71.9209 175.275 66.7951 178.322 59.8517C185.396 43.7373 199.856 39.9646 206.568 40.0928H207.774C214.478 39.9584 229.253 43.7248 236.332 59.8517C239.38 66.7951 242.475 71.9209 245.01 76.1188C249.835 84.1086 252.63 88.7369 249.203 96.1375C245.02 105.169 236.198 110.383 232.309 111.861C233.65 110.249 236.332 106.378 236.332 103.798C231.616 109.384 227.015 113.024 221.98 115.205C226.655 110.943 230.424 105.247 230.424 98.9895V95.0628C234.29 95.0628 237.423 91.8664 237.423 87.9234C237.423 83.9804 234.29 80.784 230.424 80.784V77.9145C222.324 78.288 209.677 70.9849 198.914 63.2364C194.876 70.4324 188.832 79.3646 183.53 80.6359V80.784C179.665 80.784 176.531 83.9804 176.531 87.9234C176.531 91.8664 179.665 95.0628 183.53 95.0628V98.9895C183.53 104.937 186.936 110.377 191.287 114.561C186.786 112.333 182.602 108.867 178.322 103.798C178.322 106.378 181.004 110.249 182.345 111.861C178.457 110.383 169.635 105.169 165.452 96.1375Z" fill="#4C150E"/>
<g clip-path="url(#clip4_13_9796)">
<path d="M166.085 146.775C166.085 139.507 171.865 133.616 178.995 133.616H234.942C242.072 133.616 247.852 139.507 247.852 146.775V211.841C247.852 219.109 242.072 225 234.942 225H178.995C171.865 225 166.085 219.109 166.085 211.841V146.775Z" fill="#41CA7B"/>
<path d="M207.686 148.968C216.005 148.968 222.748 142.095 222.748 133.616H192.623C192.623 142.095 199.367 148.968 207.686 148.968Z" fill="#C46C4E"/>
<path d="M235.659 157.89C227.254 161.965 202.434 166.412 211.995 182.272C212.029 182.284 212.063 182.296 212.098 182.308C214.253 174.836 216.407 170.858 235.659 157.89Z" fill="#219653"/>
<path d="M212.098 182.308C214.253 174.836 216.407 170.858 235.659 157.89C233.332 180.571 219.478 184.898 212.098 182.308Z" fill="#219653"/>
<path d="M211.995 182.272L211.138 182.788L211.321 183.091L211.654 183.212L211.995 182.272ZM235.659 157.89L236.654 157.992L236.837 156.207L235.223 156.99L235.659 157.89ZM210.827 187.341C210.926 187.884 211.447 188.244 211.99 188.145C212.533 188.046 212.894 187.525 212.795 186.982L210.827 187.341ZM212.851 181.755C210.579 177.985 210.439 175.069 211.402 172.724C212.393 170.311 214.64 168.282 217.601 166.521C220.547 164.77 224.064 163.362 227.417 162.127C230.719 160.91 233.935 159.837 236.095 158.789L235.223 156.99C233.181 157.98 230.142 158.991 226.726 160.25C223.36 161.49 219.694 162.95 216.579 164.802C213.48 166.645 210.788 168.956 209.552 171.964C208.288 175.041 208.631 178.628 211.138 182.788L212.851 181.755ZM211.654 183.212C211.691 183.225 211.729 183.239 211.767 183.252L212.429 181.365C212.398 181.354 212.366 181.343 212.336 181.331L211.654 183.212ZM213.058 182.585C214.114 178.925 215.136 176.224 218.208 172.831C221.334 169.38 226.595 165.201 236.218 158.719L235.1 157.06C225.471 163.547 220.029 167.841 216.726 171.489C213.37 175.195 212.237 178.219 211.137 182.031L213.058 182.585ZM212.795 186.982C212.53 185.53 212.629 184.074 213.058 182.585L211.137 182.031C210.631 183.785 210.502 185.555 210.827 187.341L212.795 186.982ZM234.664 157.788C233.52 168.937 229.565 175.401 225.164 178.783C220.747 182.176 215.791 182.544 212.429 181.365L211.767 183.252C215.785 184.662 221.446 184.162 226.383 180.369C231.335 176.564 235.471 169.524 236.654 157.992L234.664 157.788Z" fill="#52803C"/>
</g>
</g>
<g filter="url(#filter4_d_13_9796)">
<path d="M103.685 115.472H125.688V132.766H103.685V115.472Z" fill="#C46C4E"/>
<path d="M125.768 122.043V113.31H114.687H103.605V122.536C107.656 125.347 111.766 127.001 114.34 127.001C117.061 127.001 121.499 125.153 125.768 122.043Z" fill="#8B3923"/>
<path d="M114.34 46.2959C101.526 46.2959 91.1375 57.1035 91.1375 70.4354L91.1375 79.4427C87.3123 79.4427 84.2113 82.6689 84.2113 86.6485C84.2113 90.6282 87.3123 93.8544 91.1375 93.8544L91.1375 97.8176C91.1375 111.149 107.76 121.957 114.34 121.957C120.92 121.957 137.543 111.149 137.543 97.8176V93.8544C141.368 93.8544 144.469 90.6282 144.469 86.6485C144.469 82.6689 141.368 79.4427 137.543 79.4427V70.4354C137.543 57.1035 127.155 46.2959 114.34 46.2959Z" fill="#C46C4E"/>
<ellipse cx="103.258" cy="86.2881" rx="2.42416" ry="2.52204" fill="#252C4A"/>
<ellipse cx="126.115" cy="86.2881" rx="2.42417" ry="2.52204" fill="#252C4A"/>
<path d="M112.185 97.4924V97.5443C112.185 99.486 113.736 101.06 115.648 101.06C117.561 101.06 119.111 99.486 119.111 97.5443V87.2818C119.111 86.4902 118.853 85.7597 118.419 85.172V95.3826C118.419 97.3243 116.868 98.8983 114.955 98.8983C113.823 98.8983 112.817 98.3461 112.185 97.4924Z" fill="#4C150E"/>
<path d="M124.269 107.545H106.524L107.527 108.942C111.116 113.938 116.476 114.733 120.644 110.888L124.269 107.545Z" fill="#4C150E"/>
<path d="M73.2472 94.9389C69.855 87.4694 72.621 82.7981 77.3959 74.734C79.9046 70.4971 82.9679 65.3236 85.984 58.3156C92.9838 42.0512 107.293 38.2434 113.935 38.3728H115.129C121.763 38.2372 136.384 42.0386 143.389 58.3156C146.405 65.3236 149.468 70.4971 151.977 74.734C156.752 82.7981 159.518 87.4695 156.126 94.9389C151.986 104.054 143.256 109.317 139.409 110.809C140.735 109.181 143.389 105.275 143.389 102.67C138.723 108.309 134.169 111.982 129.187 114.184C133.813 109.882 137.543 104.133 137.543 97.8174V93.8542C141.368 93.8542 144.469 90.6281 144.469 86.6484C144.469 82.6687 141.368 79.4426 137.543 79.4426V76.5464C129.527 76.9233 117.012 69.5523 106.361 61.7317C102.365 68.9947 96.3842 78.0099 91.1374 79.2931V79.4426C87.3122 79.4426 84.2113 82.6687 84.2113 86.6484C84.2113 90.6281 87.3122 93.8542 91.1374 93.8542V97.8174C91.1374 103.82 94.5074 109.311 98.8131 113.534C94.3598 111.285 90.2185 107.787 85.984 102.67C85.984 105.275 88.6376 109.181 89.9643 110.809C86.1167 109.317 77.3866 104.054 73.2472 94.9389Z" fill="#4C150E"/>
<g clip-path="url(#clip5_13_9796)">
<path d="M73.8735 146.047C73.8735 138.712 79.5936 132.766 86.6498 132.766H142.013C149.07 132.766 154.79 138.712 154.79 146.047V211.718C154.79 219.054 149.07 225 142.013 225H86.6498C79.5936 225 73.8735 219.054 73.8735 211.718V146.047Z" fill="#F5A35A"/>
<path d="M115.041 148.261C123.273 148.261 129.947 141.324 129.947 132.766H100.136C100.136 141.324 106.809 148.261 115.041 148.261Z" fill="#C46C4E"/>
<path d="M142.723 157.265C134.406 161.379 109.845 165.867 119.305 181.874C119.339 181.887 119.373 181.899 119.407 181.911C121.54 174.369 123.672 170.354 142.723 157.265Z" fill="#219653"/>
<path d="M119.407 181.911C121.54 174.369 123.672 170.354 142.723 157.265C140.421 180.158 126.711 184.525 119.407 181.911Z" fill="#219653"/>
<path d="M119.305 181.874L118.445 182.383L118.625 182.689L118.959 182.812L119.305 181.874ZM142.723 157.265L143.718 157.365L143.899 155.568L142.28 156.369L142.723 157.265ZM118.139 186.985C118.236 187.529 118.756 187.891 119.299 187.794C119.843 187.697 120.205 187.177 120.108 186.633L118.139 186.985ZM120.166 181.365C117.916 177.557 117.774 174.604 118.731 172.228C119.714 169.788 121.939 167.74 124.866 165.965C127.78 164.198 131.259 162.778 134.577 161.531C137.843 160.303 141.028 159.22 143.167 158.162L142.28 156.369C140.26 157.368 137.255 158.388 133.873 159.659C130.542 160.911 126.913 162.384 123.829 164.255C120.759 166.116 118.098 168.449 116.876 171.481C115.629 174.576 115.965 178.187 118.445 182.383L120.166 181.365ZM118.959 182.812C118.996 182.826 119.033 182.839 119.07 182.853L119.744 180.97C119.714 180.959 119.683 180.947 119.652 180.936L118.959 182.812ZM120.37 182.183C121.415 178.487 122.427 175.758 125.469 172.332C128.562 168.849 133.768 164.631 143.29 158.09L142.157 156.441C132.627 162.988 127.242 167.323 123.973 171.004C120.653 174.744 119.533 177.794 118.445 181.639L120.37 182.183ZM120.108 186.633C119.845 185.164 119.944 183.689 120.37 182.183L118.445 181.639C117.945 183.406 117.818 185.187 118.139 186.985L120.108 186.633ZM141.728 157.165C140.596 168.426 136.679 174.954 132.324 178.366C127.956 181.788 123.061 182.157 119.744 180.97L119.07 182.853C123.057 184.279 128.669 183.771 133.558 179.94C138.459 176.099 142.548 168.998 143.718 157.365L141.728 157.165Z" fill="#52803C"/>
</g>
</g>
<g filter="url(#filter5_d_13_9796)">
<path d="M348.776 89.9993H370.78V107.293H348.776V89.9993Z" fill="#C46C4E"/>
<path d="M370.86 96.5709V87.8376H359.778H348.696V97.0634C352.748 99.875 356.858 101.529 359.432 101.529C362.153 101.529 366.59 99.6809 370.86 96.5709Z" fill="#8B3923"/>
<path d="M359.432 20.8235C346.617 20.8235 336.229 31.6311 336.229 44.963L336.229 53.9703C332.404 53.9703 329.303 57.1964 329.303 61.1761C329.303 65.1558 332.404 68.3819 336.229 68.3819L336.229 72.3451C336.229 85.677 352.852 96.4847 359.432 96.4847C366.012 96.4847 382.635 85.677 382.635 72.3451V68.3819C386.46 68.3819 389.561 65.1558 389.561 61.1761C389.561 57.1964 386.46 53.9703 382.635 53.9703V44.963C382.635 31.6311 372.246 20.8235 359.432 20.8235Z" fill="#C46C4E"/>
<ellipse cx="348.35" cy="60.8157" rx="2.42416" ry="2.52204" fill="#252C4A"/>
<ellipse cx="371.207" cy="60.8157" rx="2.42417" ry="2.52204" fill="#252C4A"/>
<path d="M357.277 72.02V72.0719C357.277 74.0136 358.827 75.5877 360.74 75.5877C362.653 75.5877 364.203 74.0136 364.203 72.0719V61.8094C364.203 61.0178 363.945 60.2873 363.51 59.6996V69.9102C363.51 71.8518 361.96 73.4259 360.047 73.4259C358.914 73.4259 357.909 72.8737 357.277 72.02Z" fill="#4C150E"/>
<path d="M369.36 82.0729H351.616L352.619 83.4699C356.207 88.4654 361.568 89.2607 365.736 85.416L369.36 82.0729Z" fill="#4C150E"/>
<path d="M318.339 69.4665C314.947 61.997 317.713 57.3257 322.488 49.2616C324.996 45.0246 328.06 39.8512 331.076 32.8432C338.076 16.5788 352.385 12.771 359.027 12.9004H360.221C366.855 12.7648 381.475 16.5662 388.481 32.8432C391.497 39.8512 394.56 45.0247 397.069 49.2616C401.844 57.3257 404.61 61.997 401.218 69.4665C397.078 78.5816 388.348 83.8445 384.5 85.3366C385.827 83.7089 388.481 79.8024 388.481 77.1981C383.814 82.8361 379.261 86.5097 374.279 88.7114C378.905 84.4094 382.635 78.6604 382.635 72.345V68.3818C386.46 68.3818 389.561 65.1556 389.561 61.176C389.561 57.1963 386.46 53.9702 382.635 53.9702V51.074C374.619 51.4509 362.104 44.0799 351.453 36.2593C347.457 43.5223 341.476 52.5375 336.229 53.8207V53.9702C332.404 53.9702 329.303 57.1963 329.303 61.176C329.303 65.1556 332.404 68.3818 336.229 68.3818V72.345C336.229 78.3477 339.599 83.8387 343.905 88.0619C339.452 85.8128 335.31 82.3143 331.076 77.1981C331.076 79.8024 333.729 83.7089 335.056 85.3366C331.209 83.8445 322.478 78.5816 318.339 69.4665Z" fill="#4C150E"/>
<g clip-path="url(#clip6_13_9796)">
<path d="M318.965 120.575C318.965 113.24 324.685 107.293 331.742 107.293H387.105C394.161 107.293 399.881 113.24 399.881 120.575V186.246C399.881 193.581 394.161 199.528 387.105 199.528H331.742C324.685 199.528 318.965 193.581 318.965 186.246V120.575Z" fill="#59A6EA"/>
<path d="M360.133 122.789C368.365 122.789 375.039 115.851 375.039 107.293H345.228C345.228 115.851 351.901 122.789 360.133 122.789Z" fill="#C46C4E"/>
<path d="M387.815 131.793C379.498 135.907 354.937 140.394 364.397 156.402C364.431 156.414 364.465 156.427 364.499 156.439C366.632 148.897 368.764 144.882 387.815 131.793Z" fill="#219653"/>
<path d="M364.499 156.439C366.632 148.897 368.764 144.882 387.815 131.793C385.513 154.685 371.803 159.053 364.499 156.439Z" fill="#219653"/>
<path d="M364.397 156.402L363.536 156.91L363.717 157.216L364.05 157.34L364.397 156.402ZM387.815 131.793L388.81 131.893L388.991 130.096L387.372 130.897L387.815 131.793ZM363.231 161.513C363.328 162.056 363.848 162.418 364.391 162.321C364.935 162.224 365.297 161.705 365.2 161.161L363.231 161.513ZM365.258 155.893C363.008 152.085 362.866 149.132 363.823 146.756C364.806 144.316 367.031 142.268 369.958 140.492C372.872 138.725 376.351 137.305 379.669 136.059C382.935 134.831 386.119 133.747 388.258 132.689L387.372 130.897C385.352 131.896 382.347 132.915 378.965 134.186C375.634 135.438 372.005 136.912 368.921 138.782C365.851 140.644 363.189 142.976 361.968 146.008C360.721 149.104 361.057 152.715 363.536 156.91L365.258 155.893ZM364.05 157.34C364.088 157.353 364.125 157.367 364.162 157.38L364.836 155.497C364.805 155.486 364.775 155.475 364.744 155.464L364.05 157.34ZM365.461 156.711C366.507 153.014 367.519 150.285 370.561 146.86C373.654 143.376 378.86 139.159 388.381 132.617L387.249 130.969C377.719 137.516 372.334 141.85 369.065 145.532C365.745 149.272 364.624 152.321 363.537 156.167L365.461 156.711ZM365.2 161.161C364.937 159.691 365.035 158.217 365.461 156.711L363.537 156.167C363.037 157.934 362.91 159.715 363.231 161.513L365.2 161.161ZM386.82 131.693C385.688 142.953 381.771 149.481 377.416 152.894C373.048 156.316 368.153 156.684 364.836 155.497L364.162 157.38C368.149 158.807 373.761 158.299 378.649 154.468C383.551 150.627 387.64 143.525 388.81 131.893L386.82 131.693Z" fill="#52803C"/>
</g>
</g>
<g filter="url(#filter6_d_13_9796)">
<path d="M296.688 111.241V125H318.688V110.775C314.449 113.716 310.044 115.463 307.344 115.463C304.789 115.463 300.709 113.899 296.688 111.241Z" fill="#9E5D56"/>
<path d="M296.688 106.472C300.709 109.13 304.789 110.694 307.344 110.694C310.044 110.694 314.449 108.947 318.688 106.007V110.775C314.449 113.716 310.044 115.463 307.344 115.463C304.789 115.463 300.709 113.899 296.688 111.241V106.472Z" fill="#65353A"/>
<path d="M307.344 39.1626C294.624 39.1626 284.312 49.3803 284.312 61.9845V70.5001C280.516 70.5001 277.438 73.5502 277.438 77.3126C277.438 81.075 280.516 84.1251 284.312 84.1251V87.872C284.312 100.476 300.812 110.694 307.344 110.694C313.875 110.694 330.375 100.476 330.375 87.872V84.1251C334.172 84.1251 337.25 81.075 337.25 77.3126C337.25 73.5502 334.172 70.5001 330.375 70.5001V61.9845C330.375 49.3803 320.064 39.1626 307.344 39.1626Z" fill="#9E5D56"/>
<path d="M304.938 86.1691C304.938 88.0502 306.477 89.575 308.375 89.575C310.273 89.575 311.812 88.05 311.812 86.1688V76.6313C311.812 75.8643 311.557 75.1565 311.125 74.5872C311.125 74.5871 311.125 74.5873 311.125 74.5872V84.125C311.125 86.0062 309.586 87.5313 307.687 87.5313C306.563 87.5313 305.565 86.9963 304.938 86.1691Z" fill="#65353A"/>
<ellipse cx="296.344" cy="76.972" rx="2.40625" ry="2.38437" fill="#30333A"/>
<ellipse cx="319.031" cy="76.972" rx="2.40625" ry="2.38437" fill="#30333A"/>
<path d="M294.701 33.3333C292.752 33.7457 289.706 34.39 285.901 38.4738C282.814 41.7862 280.493 52.5893 279.733 59.9334C277.447 61.8852 275.431 65.2823 276.029 69.4512C273.371 69.4512 269.658 71.2508 269.658 80.5487C267.456 81.1485 263.189 84.2678 263.735 91.946C264.574 103.73 280.459 106.332 290.616 106.943C292.627 107.063 294.652 107.163 296.688 107.24V105.953C290.429 101.82 284.36 95.1035 284.36 87.4375L284.313 84.0555C280.516 84.0555 277.438 81.0085 277.438 77.2499C277.438 73.4913 280.516 70.4444 284.313 70.4444C284.313 67.1524 284.175 67.9493 284.313 64.6596C285.998 64.057 289.795 63.4989 291.531 61.9374C295.431 58.4296 297.849 53.6069 298.063 51.3531L297.93 50.1739C299.74 52.9477 301.653 56.5162 305.625 58.5346C313.463 62.5173 324.795 62.4487 330.031 63.9791C330.362 67.6172 330.375 66.797 330.375 70.4444C334.172 70.4444 337.202 73.4188 337.202 77.1774C337.202 80.936 334.172 84.0555 330.375 84.0555V87.3719C330.375 94.7568 324.699 101.322 318.688 105.488V107.239C320.716 107.162 322.735 107.063 324.739 106.943C334.896 106.332 350.781 103.73 351.62 91.946C352.167 84.2678 349.274 81.1485 347.072 80.5487C347.072 71.2508 341.984 69.4512 339.327 69.4512C339.902 65.4364 338.054 62.1375 335.875 60.1558C335.839 47.4446 331.475 40.0126 326.303 36.8296C318.534 32.0488 303.675 31.435 294.701 33.3333Z" fill="#4C150E"/>
<path d="M299.438 93.5833C301.765 96.3041 308.994 93.5833 317.079 93.5833C308.258 103.378 308.626 105.011 299.438 93.5833Z" fill="#ACACAC" stroke="#ACACAC"/>
<path d="M267.812 137.433C267.812 130.505 273.353 124.889 280.187 124.889H333.812C340.647 124.889 346.187 130.505 346.187 137.433V199.456C346.187 206.384 340.647 212 333.812 212H280.187C273.353 212 267.812 206.384 267.812 199.456V137.433Z" fill="#F3F6F8"/>
<path d="M307.683 139.524C315.656 139.524 322.12 132.971 322.12 124.889H293.245C293.245 132.971 299.709 139.524 307.683 139.524Z" fill="#9E5D56"/>
</g>
</g>
<defs>
<filter id="filter0_d_13_9796" x="19" y="-8" width="99.8096" height="213.615" filterUnits="userSpaceOnUse" color-interpolation-filters="sRGB">
<feFlood flood-opacity="0" result="BackgroundImageFix"/>
<feColorMatrix in="SourceAlpha" type="matrix" values="0 0 0 0 0 0 0 0 0 0 0 0 0 0 0 0 0 0 127 0" result="hardAlpha"/>
<feOffset dy="4"/>
<feGaussianBlur stdDeviation="2"/>
<feComposite in2="hardAlpha" operator="out"/>
<feColorMatrix type="matrix" values="0 0 0 0 0 0 0 0 0 0 0 0 0 0 0 0 0 0 0.25 0"/>
<feBlend mode="normal" in2="BackgroundImageFix" result="effect1_dropShadow_13_9796"/>
<feBlend mode="normal" in="SourceGraphic" in2="effect1_dropShadow_13_9796" result="shape"/>
</filter>
<filter id="filter1_d_13_9796" x="121.463" y="-16" width="98.8531" height="213.615" filterUnits="userSpaceOnUse" color-interpolation-filters="sRGB">
<feFlood flood-opacity="0" result="BackgroundImageFix"/>
<feColorMatrix in="SourceAlpha" type="matrix" values="0 0 0 0 0 0 0 0 0 0 0 0 0 0 0 0 0 0 127 0" result="hardAlpha"/>
<feOffset dy="4"/>
<feGaussianBlur stdDeviation="2"/>
<feComposite in2="hardAlpha" operator="out"/>
<feColorMatrix type="matrix" values="0 0 0 0 0 0 0 0 0 0 0 0 0 0 0 0 0 0 0.25 0"/>
<feBlend mode="normal" in2="BackgroundImageFix" result="effect1_dropShadow_13_9796"/>
<feBlend mode="normal" in="SourceGraphic" in2="effect1_dropShadow_13_9796" result="shape"/>
</filter>
<filter id="filter2_d_13_9796" x="207.273" y="-16" width="99.8096" height="213.615" filterUnits="userSpaceOnUse" color-interpolation-filters="sRGB">
<feFlood flood-opacity="0" result="BackgroundImageFix"/>
<feColorMatrix in="SourceAlpha" type="matrix" values="0 0 0 0 0 0 0 0 0 0 0 0 0 0 0 0 0 0 127 0" result="hardAlpha"/>
<feOffset dy="4"/>
<feGaussianBlur stdDeviation="2"/>
<feComposite in2="hardAlpha" operator="out"/>
<feColorMatrix type="matrix" values="0 0 0 0 0 0 0 0 0 0 0 0 0 0 0 0 0 0 0.25 0"/>
<feBlend mode="normal" in2="BackgroundImageFix" result="effect1_dropShadow_13_9796"/>
<feBlend mode="normal" in="SourceGraphic" in2="effect1_dropShadow_13_9796" result="shape"/>
</filter>
<filter id="filter3_d_13_9796" x="157.064" y="19.385" width="99.8096" height="213.615" filterUnits="userSpaceOnUse" color-interpolation-filters="sRGB">
<feFlood flood-opacity="0" result="BackgroundImageFix"/>
<feColorMatrix in="SourceAlpha" type="matrix" values="0 0 0 0 0 0 0 0 0 0 0 0 0 0 0 0 0 0 127 0" result="hardAlpha"/>
<feOffset dy="4"/>
<feGaussianBlur stdDeviation="2"/>
<feComposite in2="hardAlpha" operator="out"/>
<feColorMatrix type="matrix" values="0 0 0 0 0 0 0 0 0 0 0 0 0 0 0 0 0 0 0.25 0"/>
<feBlend mode="normal" in2="BackgroundImageFix" result="effect1_dropShadow_13_9796"/>
<feBlend mode="normal" in="SourceGraphic" in2="effect1_dropShadow_13_9796" result="shape"/>
</filter>
<filter id="filter4_d_13_9796" x="64.905" y="17.4724" width="98.8531" height="215.528" filterUnits="userSpaceOnUse" color-interpolation-filters="sRGB">
<feFlood flood-opacity="0" result="BackgroundImageFix"/>
<feColorMatrix in="SourceAlpha" type="matrix" values="0 0 0 0 0 0 0 0 0 0 0 0 0 0 0 0 0 0 127 0" result="hardAlpha"/>
<feOffset dy="4"/>
<feGaussianBlur stdDeviation="2"/>
<feComposite in2="hardAlpha" operator="out"/>
<feColorMatrix type="matrix" values="0 0 0 0 0 0 0 0 0 0 0 0 0 0 0 0 0 0 0.25 0"/>
<feBlend mode="normal" in2="BackgroundImageFix" result="effect1_dropShadow_13_9796"/>
<feBlend mode="normal" in="SourceGraphic" in2="effect1_dropShadow_13_9796" result="shape"/>
</filter>
<filter id="filter5_d_13_9796" x="309.997" y="-8" width="98.8531" height="215.528" filterUnits="userSpaceOnUse" color-interpolation-filters="sRGB">
<feFlood flood-opacity="0" result="BackgroundImageFix"/>
<feColorMatrix in="SourceAlpha" type="matrix" values="0 0 0 0 0 0 0 0 0 0 0 0 0 0 0 0 0 0 127 0" result="hardAlpha"/>
<feOffset dy="4"/>
<feGaussianBlur stdDeviation="2"/>
<feComposite in2="hardAlpha" operator="out"/>
<feColorMatrix type="matrix" values="0 0 0 0 0 0 0 0 0 0 0 0 0 0 0 0 0 0 0.25 0"/>
<feBlend mode="normal" in2="BackgroundImageFix" result="effect1_dropShadow_13_9796"/>
<feBlend mode="normal" in="SourceGraphic" in2="effect1_dropShadow_13_9796" result="shape"/>
</filter>
<filter id="filter6_d_13_9796" x="259" y="16" width="96.6875" height="204" filterUnits="userSpaceOnUse" color-interpolation-filters="sRGB">
<feFlood flood-opacity="0" result="BackgroundImageFix"/>
<feColorMatrix in="SourceAlpha" type="matrix" values="0 0 0 0 0 0 0 0 0 0 0 0 0 0 0 0 0 0 127 0" result="hardAlpha"/>
<feOffset dy="4"/>
<feGaussianBlur stdDeviation="2"/>
<feComposite in2="hardAlpha" operator="out"/>
<feColorMatrix type="matrix" values="0 0 0 0 0 0 0 0 0 0 0 0 0 0 0 0 0 0 0.25 0"/>
<feBlend mode="normal" in2="BackgroundImageFix" result="effect1_dropShadow_13_9796"/>
<feBlend mode="normal" in="SourceGraphic" in2="effect1_dropShadow_13_9796" result="shape"/>
</filter>
<clipPath id="clip0_13_9796">
<rect width="429" height="163" fill="white"/>
</clipPath>
<clipPath id="clip1_13_9796">
<rect width="81.7679" height="91.3845" fill="white" transform="translate(28.0209 106.231)"/>
</clipPath>
<clipPath id="clip2_13_9796">
<rect width="80.9161" height="91.3845" fill="white" transform="translate(130.431 98.2307)"/>
</clipPath>
<clipPath id="clip3_13_9796">
<rect width="81.7679" height="91.3845" fill="white" transform="translate(216.294 98.2307)"/>
</clipPath>
<clipPath id="clip4_13_9796">
<rect width="81.7679" height="91.3845" fill="white" transform="translate(166.085 133.616)"/>
</clipPath>
<clipPath id="clip5_13_9796">
<rect width="80.9161" height="92.2346" fill="white" transform="translate(73.8735 132.766)"/>
</clipPath>
<clipPath id="clip6_13_9796">
<rect width="80.9161" height="92.2346" fill="white" transform="translate(318.965 107.293)"/>
</clipPath>
</defs>
</svg>
