<svg width="429" height="163" viewBox="0 0 429 163" fill="none" xmlns="http://www.w3.org/2000/svg">
<g clip-path="url(#clip0_13_9794)">
<path d="M30.7816 9.84036C32.0519 4.0928 37.1559 0 43.0533 0H385.947C391.844 0 396.948 4.0928 398.218 9.84036L428.7 147.757C429.92 153.277 427.31 158.594 422.847 161.247L391.803 163H31.2367L6.83 161.622C1.95858 159.12 -0.980645 153.551 0.30003 147.757L30.7816 9.84036Z" fill="#F3F6F8"/>
<g filter="url(#filter0_d_13_9794)">
<rect x="57.4285" y="89.0959" width="22.9524" height="17.1346" fill="#F6C09D"/>
<path d="M80.3809 94.893V86.2402H68.9047H57.4285V95.3809C61.6238 98.1667 65.8806 99.8051 68.546 99.8051C71.3635 99.8051 75.9592 97.9743 80.3809 94.893Z" fill="#D88E8D"/>
<path fill-rule="evenodd" clip-rule="evenodd" d="M68.5461 20.5576C55.2757 20.5576 44.5178 31.2656 44.5178 44.4746L44.5178 53.3989C40.5565 53.3989 37.3452 56.5953 37.3452 60.5383C37.3452 64.4813 40.5565 67.6777 44.5178 67.6777L44.5178 71.6044C44.5178 84.8134 61.7321 95.5214 68.5461 95.5214C75.3601 95.5214 92.5744 84.8134 92.5744 71.6044L92.5744 67.6777C96.5357 67.6777 99.747 64.4813 99.747 60.5383C99.747 56.5953 96.5357 53.3989 92.5744 53.3989L92.5744 44.4746C92.5744 31.2656 81.8166 20.5576 68.5461 20.5576Z" fill="#F6C09D"/>
<ellipse cx="57.07" cy="60.1814" rx="2.51042" ry="2.49879" fill="#4C150E"/>
<ellipse cx="80.7397" cy="60.1814" rx="2.51042" ry="2.49879" fill="#4C150E"/>
<path d="M66.0356 69.8199C66.0358 71.7912 67.6414 73.3892 69.622 73.3892C71.6026 73.3892 73.2083 71.791 73.2083 69.8195V59.8243C73.2083 59.0206 72.9414 58.2788 72.491 57.6822C72.491 57.682 72.491 57.6823 72.491 57.6822V67.6777C72.491 69.6492 70.8854 71.2474 68.9047 71.2474C67.7315 71.2474 66.69 70.6867 66.0356 69.8199Z" fill="#D88E8D"/>
<path d="M58.1612 8.8835C45.0803 11.0272 44.9776 23.5769 46.5863 29.8447C49.1834 27.4468 52.3245 22.3483 61.2903 20.9203C68.4848 19.7745 75.2769 21.2773 80.6564 23.4192C80.3211 15.3471 74.6335 6.18406 58.1612 8.8835Z" fill="#071F2D"/>
<path d="M79.0306 38.6957C74.5115 43.9434 67.8522 49.1818 58.8822 50.1861C42.581 52.0113 43.3167 60.5383 42.5889 60.5383C42.2251 49.511 39.6924 21.2715 66.9943 21.2715C79.3483 21.2715 84.2102 25.9541 85.5221 27.5732C87.0003 27.9658 88.6026 28.6042 90.2834 29.6372C95.2333 32.6791 95.3781 49.9171 93.9221 56.2546C92.8305 53.3394 89.1918 46.9005 83.3699 44.4669C81.1282 43.5298 79.7857 41.3036 79.0306 38.6957Z" fill="#071F2D"/>
<path d="M58.1612 7.45576C45.0803 9.59944 44.9776 22.1491 46.5863 28.4169C49.1834 26.019 52.3245 20.9205 61.2903 19.4926C68.4848 18.3467 75.2769 19.8496 80.6564 21.9915C80.3211 13.9193 74.6335 4.75632 58.1612 7.45576Z" fill="#7B7B7B"/>
<path d="M78.8156 37.5847C74.2346 42.9279 67.484 48.2615 58.3911 49.2841C41.8666 51.1425 42.6124 59.8245 41.8747 59.8245C41.5059 48.5967 38.9385 19.8437 66.6144 19.8438C79.1377 19.8438 84.0662 24.6115 85.396 26.26C86.8944 26.6598 88.5187 27.3098 90.2225 28.3615C95.2402 31.4588 95.387 49.0102 93.911 55.4629C92.8045 52.4947 89.116 45.9387 83.2143 43.4609C80.9419 42.5068 79.581 40.2401 78.8156 37.5847Z" fill="#7B7B7B"/>
<path d="M61.7322 78.3867C64.3621 80.4095 71.0566 83.2415 76.7947 78.3867" stroke="#D88E8D"/>
<path d="M52.4077 64.8218C58.1458 65.6786 61.493 63.275 62.4494 61.9661C61.9712 63.394 60.6562 66.3212 59.2217 66.6068" stroke="#D88E8D"/>
<path d="M86.1191 64.8218C80.381 65.6786 77.0338 63.275 76.0775 61.9661C76.4361 63.156 77.2251 65.5358 77.512 65.5358" stroke="#D88E8D"/>
<g clip-path="url(#clip1_13_9794)">
<path d="M28.0208 119.39C28.0208 112.122 33.8011 106.231 40.9315 106.231H96.8779C104.008 106.231 109.789 112.122 109.789 119.39V184.456C109.789 191.724 104.008 197.615 96.8779 197.615H40.9315C33.8011 197.615 28.0208 191.724 28.0208 184.456V119.39Z" fill="#FD86B1"/>
<path d="M53.8423 106.231C53.8423 106.231 53.8423 106.231 53.8423 106.231C53.8423 114.71 60.586 121.583 68.9048 121.583C77.2236 121.583 83.9673 114.71 83.9673 106.231H53.8423Z" fill="#F6C09D"/>
<path d="M68.9046 121.555C58.6891 120.68 55.1338 110.609 54.2574 106.231C47.8724 111.704 48.9991 118.272 51.6283 121.555C54.2575 124.839 64.3976 129.583 68.9046 121.555Z" fill="white"/>
<path d="M68.9047 121.555C79.1203 120.68 82.6756 110.609 83.5519 106.231C89.9369 111.704 88.8103 118.272 86.1811 121.555C83.5519 124.839 73.4117 129.583 68.9047 121.555Z" fill="white"/>
</g>
</g>
<g filter="url(#filter1_d_13_9794)">
<rect x="159.532" y="81.0959" width="22.7133" height="17.1346" fill="#F6C09D"/>
<path d="M182.246 86.893V78.2402H170.889H159.532V87.3809C163.684 90.1667 167.897 91.8051 170.534 91.8051C173.322 91.8051 177.87 89.9743 182.246 86.893Z" fill="#D88E8D"/>
<path fill-rule="evenodd" clip-rule="evenodd" d="M170.534 12.5576C157.402 12.5576 146.756 23.2656 146.756 36.4746L146.756 45.3989C142.836 45.3989 139.658 48.5953 139.658 52.5383C139.658 56.4813 142.836 59.6777 146.756 59.6777L146.756 63.6044C146.756 76.8134 163.791 87.5214 170.534 87.5214C177.277 87.5214 194.312 76.8134 194.312 63.6044V59.6777C198.232 59.6777 201.41 56.4813 201.41 52.5383C201.41 48.5953 198.232 45.3989 194.312 45.3989V36.4746C194.312 23.2656 183.667 12.5576 170.534 12.5576Z" fill="#F6C09D"/>
<ellipse cx="159.178" cy="52.1814" rx="2.48427" ry="2.49879" fill="#4C150E"/>
<ellipse cx="182.601" cy="52.1814" rx="2.48427" ry="2.49879" fill="#4C150E"/>
<path d="M168.05 61.8199C168.05 63.7912 169.639 65.3892 171.599 65.3892C173.559 65.3892 175.148 63.791 175.148 61.8195V51.8243C175.148 51.0206 174.884 50.2788 174.438 49.6822C174.438 49.682 174.438 49.6823 174.438 49.6822V59.6777C174.438 61.6492 172.849 63.2474 170.889 63.2474C169.728 63.2474 168.698 62.6867 168.05 61.8199Z" fill="#D88E8D"/>
<path d="M160.258 0.883495C147.313 3.02717 147.211 15.5769 148.803 21.8447C151.373 19.4468 154.482 14.3483 163.354 12.9203C170.474 11.7745 177.195 13.2773 182.518 15.4192C182.187 7.34707 176.558 -1.81594 160.258 0.883495Z" fill="#071F2D"/>
<path d="M180.91 30.6957C176.438 35.9434 169.848 41.1818 160.971 42.1861C144.84 44.0113 145.568 52.5383 144.848 52.5383C144.488 41.511 141.981 13.2715 168.999 13.2715C181.224 13.2715 186.035 17.9541 187.334 19.5732C188.796 19.9658 190.382 20.6042 192.045 21.6372C196.944 24.6791 197.087 41.9171 195.646 48.2546C194.566 45.3394 190.965 38.9005 185.204 36.4669C182.985 35.5298 181.657 33.3036 180.91 30.6957Z" fill="#071F2D"/>
<path d="M160.258 -0.544239C147.313 1.59944 147.211 14.1491 148.803 20.4169C151.373 18.019 154.482 12.9205 163.354 11.4926C170.474 10.3467 177.195 11.8496 182.518 13.9915C182.187 5.91934 176.558 -3.24368 160.258 -0.544239Z" fill="#7B7B7B"/>
<path d="M180.697 29.5847C176.164 34.9279 169.483 40.2615 160.485 41.2841C144.133 43.1425 144.871 51.8245 144.141 51.8245C143.776 40.5967 141.235 11.8437 168.623 11.8438C181.016 11.8438 185.893 16.6115 187.209 18.26C188.692 18.6598 190.299 19.3098 191.985 20.3615C196.951 23.4588 197.096 41.0102 195.635 47.4629C194.54 44.4947 190.89 37.9387 185.05 35.4609C182.801 34.5068 181.454 32.2401 180.697 29.5847Z" fill="#7B7B7B"/>
<path d="M163.791 70.3867C166.394 72.4095 173.019 75.2415 178.697 70.3867" stroke="#D88E8D"/>
<path d="M154.564 56.8218C160.242 57.6786 163.555 55.275 164.501 53.9661C164.028 55.394 162.727 58.3212 161.307 58.6068" stroke="#D88E8D"/>
<path d="M187.924 56.8218C182.246 57.6786 178.934 55.275 177.987 53.9661C178.342 55.156 179.123 57.5358 179.407 57.5358" stroke="#D88E8D"/>
<g clip-path="url(#clip2_13_9794)">
<path d="M130.431 111.39C130.431 104.122 136.151 98.2307 143.207 98.2307H198.571C205.627 98.2307 211.347 104.122 211.347 111.39V176.456C211.347 183.724 205.627 189.615 198.571 189.615H143.207C136.151 189.615 130.431 183.724 130.431 176.456V111.39Z" fill="#EEC750"/>
<path d="M155.984 98.2307C155.984 98.2307 155.984 98.2307 155.984 98.2307C155.984 106.71 162.657 113.583 170.889 113.583C179.121 113.583 185.795 106.71 185.795 98.2307H155.984Z" fill="#F6C09D"/>
<path d="M170.889 113.555C160.78 112.68 157.262 102.609 156.395 98.2307C150.076 103.704 151.191 110.272 153.793 113.555C156.395 116.839 166.429 121.583 170.889 113.555Z" fill="white"/>
<path d="M170.889 113.555C180.998 112.68 184.517 102.609 185.384 98.2307C191.702 103.704 190.587 110.272 187.986 113.555C185.384 116.839 175.349 121.583 170.889 113.555Z" fill="white"/>
</g>
</g>
<g filter="url(#filter2_d_13_9794)">
<rect x="245.702" y="81.0959" width="22.9524" height="17.1346" fill="#F6C09D"/>
<path d="M268.654 86.893V78.2402H257.178H245.702V87.3809C249.897 90.1667 254.154 91.8051 256.819 91.8051C259.637 91.8051 264.233 89.9743 268.654 86.893Z" fill="#D88E8D"/>
<path fill-rule="evenodd" clip-rule="evenodd" d="M256.82 12.5576C243.549 12.5576 232.791 23.2656 232.791 36.4746L232.791 45.3989C228.83 45.3989 225.619 48.5953 225.619 52.5383C225.619 56.4813 228.83 59.6777 232.791 59.6777L232.791 63.6044C232.791 76.8134 250.006 87.5214 256.82 87.5214C263.634 87.5214 280.848 76.8134 280.848 63.6044L280.848 59.6777C284.809 59.6777 288.02 56.4813 288.02 52.5383C288.02 48.5953 284.809 45.3989 280.848 45.3989L280.848 36.4746C280.848 23.2656 270.09 12.5576 256.82 12.5576Z" fill="#F6C09D"/>
<ellipse cx="245.343" cy="52.1814" rx="2.51042" ry="2.49879" fill="#4C150E"/>
<ellipse cx="269.013" cy="52.1814" rx="2.51042" ry="2.49879" fill="#4C150E"/>
<path d="M254.309 61.8199C254.309 63.7912 255.915 65.3892 257.895 65.3892C259.876 65.3892 261.482 63.791 261.482 61.8195V51.8243C261.482 51.0206 261.215 50.2788 260.764 49.6822C260.764 49.682 260.764 49.6823 260.764 49.6822V59.6777C260.764 61.6492 259.159 63.2474 257.178 63.2474C256.005 63.2474 254.963 62.6867 254.309 61.8199Z" fill="#D88E8D"/>
<path d="M246.435 0.883495C233.354 3.02717 233.251 15.5769 234.86 21.8447C237.457 19.4468 240.598 14.3483 249.564 12.9203C256.758 11.7745 263.55 13.2773 268.93 15.4192C268.595 7.34707 262.907 -1.81594 246.435 0.883495Z" fill="#071F2D"/>
<path d="M267.304 30.6957C262.785 35.9434 256.126 41.1818 247.156 42.1861C230.854 44.0113 231.59 52.5383 230.862 52.5383C230.499 41.511 227.966 13.2715 255.268 13.2715C267.622 13.2715 272.484 17.9541 273.796 19.5732C275.274 19.9658 276.876 20.6042 278.557 21.6372C283.507 24.6791 283.652 41.9171 282.195 48.2546C281.104 45.3394 277.465 38.9005 271.643 36.4669C269.402 35.5298 268.059 33.3036 267.304 30.6957Z" fill="#071F2D"/>
<path d="M246.435 -0.544239C233.354 1.59944 233.251 14.1491 234.86 20.4169C237.457 18.019 240.598 12.9205 249.564 11.4926C256.758 10.3467 263.55 11.8496 268.93 13.9915C268.595 5.91934 262.907 -3.24368 246.435 -0.544239Z" fill="#7B7B7B"/>
<path d="M267.089 29.5847C262.508 34.9279 255.757 40.2615 246.665 41.2841C230.14 43.1425 230.886 51.8245 230.148 51.8245C229.779 40.5967 227.212 11.8437 254.888 11.8438C267.411 11.8438 272.34 16.6115 273.669 18.26C275.168 18.6598 276.792 19.3098 278.496 20.3615C283.514 23.4588 283.66 41.0102 282.184 47.4629C281.078 44.4947 277.389 37.9387 271.488 35.4609C269.215 34.5068 267.854 32.2401 267.089 29.5847Z" fill="#7B7B7B"/>
<path d="M250.006 70.3867C252.636 72.4095 259.33 75.2415 265.068 70.3867" stroke="#D88E8D"/>
<path d="M240.681 56.8218C246.419 57.6786 249.766 55.275 250.723 53.9661C250.245 55.394 248.93 58.3212 247.495 58.6068" stroke="#D88E8D"/>
<path d="M274.393 56.8218C268.654 57.6786 265.307 55.275 264.351 53.9661C264.71 55.156 265.499 57.5358 265.785 57.5358" stroke="#D88E8D"/>
<g clip-path="url(#clip3_13_9794)">
<path d="M216.294 111.39C216.294 104.122 222.075 98.2307 229.205 98.2307H285.151C292.282 98.2307 298.062 104.122 298.062 111.39V176.456C298.062 183.724 292.282 189.615 285.151 189.615H229.205C222.075 189.615 216.294 183.724 216.294 176.456V111.39Z" fill="#65C3C9"/>
<path d="M242.116 98.2307C242.116 98.2307 242.116 98.2307 242.116 98.2307C242.116 106.71 248.859 113.583 257.178 113.583C265.497 113.583 272.241 106.71 272.241 98.2307H242.116Z" fill="#F6C09D"/>
<path d="M257.178 113.555C246.963 112.68 243.407 102.609 242.531 98.2307C236.146 103.704 237.272 110.272 239.902 113.555C242.531 116.839 252.671 121.583 257.178 113.555Z" fill="white"/>
<path d="M257.178 113.555C267.394 112.68 270.949 102.609 271.825 98.2307C278.21 103.704 277.084 110.272 274.455 113.555C271.825 116.839 261.685 121.583 257.178 113.555Z" fill="white"/>
</g>
</g>
<g filter="url(#filter3_d_13_9794)">
<rect x="195.492" y="116.481" width="22.9524" height="17.1346" fill="#F6C09D"/>
<path d="M218.445 122.278V113.625H206.968H195.492V122.766C199.688 125.552 203.944 127.19 206.61 127.19C209.427 127.19 214.023 125.359 218.445 122.278Z" fill="#D88E8D"/>
<path fill-rule="evenodd" clip-rule="evenodd" d="M206.61 47.9426C193.339 47.9426 182.582 58.6506 182.582 71.8597L182.582 80.7839C178.62 80.7839 175.409 83.9803 175.409 87.9233C175.409 91.8663 178.62 95.0628 182.582 95.0628L182.582 98.9894C182.582 112.198 199.796 122.906 206.61 122.906C213.424 122.906 230.638 112.198 230.638 98.9894L230.638 95.0628C234.599 95.0628 237.811 91.8663 237.811 87.9233C237.811 83.9803 234.599 80.7839 230.638 80.7839L230.638 71.8597C230.638 58.6506 219.88 47.9426 206.61 47.9426Z" fill="#F6C09D"/>
<ellipse cx="195.134" cy="87.5664" rx="2.51042" ry="2.49879" fill="#4C150E"/>
<ellipse cx="218.803" cy="87.5664" rx="2.51042" ry="2.49879" fill="#4C150E"/>
<path d="M204.099 97.2049C204.1 99.1762 205.705 100.774 207.686 100.774C209.666 100.774 211.272 99.176 211.272 97.2045V87.2093C211.272 86.4056 211.005 85.6638 210.555 85.0672C210.555 85.0671 210.555 85.0673 210.555 85.0672V95.0627C210.555 97.0342 208.949 98.6324 206.968 98.6324C205.795 98.6324 204.754 98.0717 204.099 97.2049Z" fill="#D88E8D"/>
<path d="M196.225 36.2685C183.144 38.4122 183.041 50.9619 184.65 57.2297C187.247 54.8318 190.388 49.7333 199.354 48.3053C206.549 47.1595 213.341 48.6623 218.72 50.8042C218.385 42.7321 212.697 33.5691 196.225 36.2685Z" fill="#071F2D"/>
<path d="M217.094 66.0807C212.575 71.3284 205.916 76.5668 196.946 77.5711C180.645 79.3963 181.38 87.9233 180.653 87.9233C180.289 76.896 177.756 48.6565 205.058 48.6565C217.412 48.6565 222.274 53.3391 223.586 54.9582C225.064 55.3508 226.666 55.9892 228.347 57.0222C233.297 60.0642 233.442 77.3021 231.986 83.6396C230.894 80.7244 227.256 74.2855 221.434 71.8519C219.192 70.9148 217.849 68.6886 217.094 66.0807Z" fill="#071F2D"/>
<path d="M196.225 34.8408C183.144 36.9844 183.041 49.5341 184.65 55.8019C187.247 53.404 190.388 48.3055 199.354 46.8776C206.549 45.7317 213.341 47.2346 218.72 49.3765C218.385 41.3043 212.697 32.1413 196.225 34.8408Z" fill="#7B7B7B"/>
<path d="M216.879 64.9697C212.298 70.3129 205.548 75.6465 196.455 76.6691C179.93 78.5275 180.676 87.2095 179.938 87.2095C179.57 75.9817 177.002 47.2287 204.678 47.2288C217.201 47.2288 222.13 51.9965 223.46 53.645C224.958 54.0448 226.582 54.6948 228.286 55.7465C233.304 58.8438 233.451 76.3952 231.975 82.8479C230.868 79.8797 227.18 73.3237 221.278 70.8459C219.006 69.8918 217.645 67.6251 216.879 64.9697Z" fill="#7B7B7B"/>
<path d="M199.796 105.772C202.426 107.795 209.12 110.627 214.858 105.772" stroke="#D88E8D"/>
<path d="M190.471 92.2068C196.21 93.0636 199.557 90.66 200.513 89.3511C200.035 90.779 198.72 93.7062 197.285 93.9918" stroke="#D88E8D"/>
<path d="M224.183 92.2068C218.445 93.0636 215.098 90.66 214.141 89.3511C214.5 90.541 215.289 92.9209 215.576 92.9209" stroke="#D88E8D"/>
<g clip-path="url(#clip4_13_9794)">
<path d="M166.084 146.775C166.084 139.507 171.865 133.616 178.995 133.616H234.942C242.072 133.616 247.852 139.507 247.852 146.775V211.841C247.852 219.109 242.072 225 234.942 225H178.995C171.865 225 166.084 219.109 166.084 211.841V146.775Z" fill="#41CA7B"/>
<path d="M191.906 133.616C191.906 133.616 191.906 133.616 191.906 133.616C191.906 142.095 198.65 148.968 206.969 148.968C215.287 148.968 222.031 142.095 222.031 133.616H191.906Z" fill="#F6C09D"/>
<path d="M206.968 148.94C196.753 148.065 193.197 137.994 192.321 133.616C185.936 139.089 187.063 145.657 189.692 148.94C192.321 152.224 202.461 156.968 206.968 148.94Z" fill="white"/>
<path d="M206.968 148.94C217.184 148.065 220.739 137.994 221.616 133.616C228.001 139.089 226.874 145.657 224.245 148.94C221.616 152.224 211.475 156.968 206.968 148.94Z" fill="white"/>
</g>
</g>
<g filter="url(#filter4_d_13_9794)">
<rect x="102.975" y="115.471" width="22.7133" height="17.294" fill="#F6C09D"/>
<path d="M125.688 121.323V112.589H114.332H102.975V121.815C107.126 124.627 111.339 126.28 113.977 126.28C116.765 126.28 121.313 124.433 125.688 121.323Z" fill="#D88E8D"/>
<path fill-rule="evenodd" clip-rule="evenodd" d="M113.977 46.2957C100.844 46.2957 90.1987 57.1033 90.1987 70.4352L90.1987 79.4425C86.2787 79.4425 83.1008 82.6686 83.1008 86.6483C83.1008 90.6279 86.2787 93.8541 90.1987 93.8541L90.1987 97.8173C90.1987 111.149 107.234 121.957 113.977 121.957C120.72 121.957 137.755 111.149 137.755 97.8173V93.8541C141.675 93.8541 144.853 90.6279 144.853 86.6483C144.853 82.6686 141.675 79.4425 137.755 79.4425V70.4352C137.755 57.1033 127.109 46.2957 113.977 46.2957Z" fill="#F6C09D"/>
<ellipse cx="102.62" cy="86.2879" rx="2.48427" ry="2.52204" fill="#4C150E"/>
<ellipse cx="126.043" cy="86.2879" rx="2.48427" ry="2.52204" fill="#4C150E"/>
<path d="M111.492 96.0163C111.493 98.0059 113.081 99.6188 115.041 99.6188C117.001 99.6188 118.59 98.0057 118.59 96.0159V85.9278C118.59 85.1165 118.326 84.3679 117.881 83.7657C117.881 83.7655 117.881 83.7658 117.881 83.7657V93.8542C117.881 95.844 116.292 97.4571 114.332 97.4571C113.171 97.4571 112.14 96.8912 111.492 96.0163Z" fill="#D88E8D"/>
<path d="M103.7 34.513C90.7552 36.6766 90.6537 49.343 92.2456 55.6691C94.8156 53.2489 97.924 48.103 106.796 46.6618C113.916 45.5053 120.637 47.0221 125.961 49.1839C125.629 41.0367 120.001 31.7884 103.7 34.513Z" fill="#071F2D"/>
<path d="M124.352 64.6024C119.88 69.8989 113.29 75.186 104.414 76.1997C88.2821 78.0419 89.0101 86.6482 88.29 86.6482C87.9299 75.5183 85.4236 47.0161 112.441 47.0161C124.666 47.0161 129.478 51.7423 130.776 53.3764C132.239 53.7727 133.824 54.417 135.488 55.4596C140.386 58.5299 140.529 75.9282 139.088 82.3247C138.008 79.3823 134.407 72.8835 128.646 70.4273C126.428 69.4815 125.099 67.2346 124.352 64.6024Z" fill="#071F2D"/>
<path d="M103.7 33.0718C90.7552 35.2354 90.6537 47.9019 92.2456 54.228C94.8156 51.8078 97.924 46.6618 106.796 45.2206C113.916 44.0641 120.637 45.5809 125.961 47.7428C125.629 39.5955 120.001 30.3473 103.7 33.0718Z" fill="#7B7B7B"/>
<path d="M124.139 63.481C119.606 68.8738 112.926 74.257 103.928 75.2892C87.5753 77.1648 88.3133 85.9276 87.5833 85.9276C87.2183 74.5954 84.6777 45.5749 112.065 45.575C124.458 45.575 129.335 50.3871 130.651 52.0509C132.134 52.4544 133.741 53.1104 135.427 54.172C140.393 57.2981 140.538 75.0127 139.078 81.5255C137.983 78.5296 134.332 71.9127 128.492 69.4118C126.244 68.4488 124.897 66.161 124.139 63.481Z" fill="#7B7B7B"/>
<path d="M107.234 104.663C109.836 106.704 116.461 109.563 122.139 104.663" stroke="#D88E8D"/>
<path d="M98.0063 90.9717C103.685 91.8364 106.997 89.4104 107.943 88.0894C107.47 89.5305 106.169 92.485 104.749 92.7732" stroke="#D88E8D"/>
<path d="M131.367 90.9717C125.688 91.8364 122.376 89.4104 121.43 88.0894C121.785 89.2903 122.565 91.6923 122.849 91.6923" stroke="#D88E8D"/>
<g clip-path="url(#clip5_13_9794)">
<path d="M73.8735 146.047C73.8735 138.712 79.5936 132.766 86.6498 132.766H142.013C149.07 132.766 154.79 138.712 154.79 146.047V211.718C154.79 219.054 149.07 225 142.013 225H86.6498C79.5936 225 73.8735 219.054 73.8735 211.718V146.047Z" fill="#F5A35A"/>
<path d="M99.426 132.766C99.426 132.766 99.426 132.766 99.426 132.766C99.426 141.323 106.099 148.261 114.332 148.261C122.564 148.261 129.237 141.323 129.237 132.766H99.426Z" fill="#F6C09D"/>
<path d="M114.332 148.233C104.222 147.349 100.704 137.185 99.8369 132.766C93.5184 138.29 94.6333 144.918 97.2351 148.233C99.837 151.547 109.871 156.335 114.332 148.233Z" fill="white"/>
<path d="M114.332 148.233C124.441 147.349 127.959 137.185 128.826 132.766C135.145 138.29 134.03 144.918 131.428 148.233C128.826 151.547 118.792 156.335 114.332 148.233Z" fill="white"/>
</g>
</g>
<g filter="url(#filter5_d_13_9794)">
<rect x="348.067" y="89.999" width="22.7133" height="17.294" fill="#F6C09D"/>
<path d="M370.78 95.8502V87.1169H359.423H348.067V96.3427C352.218 99.1543 356.431 100.808 359.068 100.808C361.857 100.808 366.404 98.9602 370.78 95.8502Z" fill="#D88E8D"/>
<path fill-rule="evenodd" clip-rule="evenodd" d="M359.069 20.8232C345.936 20.8232 335.291 31.6309 335.291 44.9628L335.291 53.97C331.37 53.97 328.193 57.1962 328.193 61.1759C328.193 65.1555 331.37 68.3817 335.291 68.3817L335.291 72.3449C335.291 85.6768 352.326 96.4844 359.069 96.4844C365.812 96.4844 382.846 85.6768 382.846 72.3449V68.3817C386.767 68.3817 389.944 65.1555 389.944 61.1759C389.944 57.1962 386.767 53.97 382.846 53.97V44.9628C382.846 31.6309 372.201 20.8232 359.069 20.8232Z" fill="#F6C09D"/>
<ellipse cx="347.712" cy="60.8155" rx="2.48427" ry="2.52204" fill="#4C150E"/>
<ellipse cx="371.135" cy="60.8155" rx="2.48427" ry="2.52204" fill="#4C150E"/>
<path d="M356.584 70.5438C356.584 72.5335 358.173 74.1464 360.133 74.1464C362.093 74.1464 363.682 72.5333 363.682 70.5435V60.4553C363.682 59.6441 363.418 58.8955 362.972 58.2932C362.972 58.2931 362.972 58.2934 362.972 58.2932V68.3818C362.972 70.3716 361.383 71.9847 359.423 71.9847C358.262 71.9847 357.232 71.4188 356.584 70.5438Z" fill="#D88E8D"/>
<path d="M348.792 9.04056C335.847 11.2042 335.745 23.8706 337.337 30.1967C339.907 27.7765 343.016 22.6306 351.888 21.1894C359.008 20.0328 365.729 21.5497 371.053 23.7115C370.721 15.5643 365.092 6.31601 348.792 9.04056Z" fill="#071F2D"/>
<path d="M369.444 39.13C364.972 44.4265 358.382 49.7136 349.505 50.7273C333.374 52.5695 334.102 61.1757 333.382 61.1757C333.022 50.0459 330.515 21.5437 357.533 21.5437C369.758 21.5437 374.57 26.2699 375.868 27.904C377.331 28.3003 378.916 28.9446 380.579 29.9872C385.478 33.0575 385.621 50.4558 384.18 56.8522C383.1 53.9099 379.499 47.4111 373.738 44.9549C371.52 44.0091 370.191 41.7622 369.444 39.13Z" fill="#071F2D"/>
<path d="M348.792 7.59939C335.847 9.76301 335.745 22.4294 337.337 28.7556C339.907 26.3353 343.016 21.1894 351.888 19.7482C359.008 18.5917 365.729 20.1085 371.053 22.2704C370.721 14.1231 365.092 4.87484 348.792 7.59939Z" fill="#7B7B7B"/>
<path d="M369.231 38.0085C364.698 43.4014 358.018 48.7846 349.019 49.8167C332.667 51.6924 333.405 60.4552 332.675 60.4552C332.31 49.123 329.769 20.1025 357.157 20.1025C369.55 20.1026 374.427 24.9147 375.743 26.5785C377.226 26.982 378.833 27.638 380.519 28.6995C385.485 31.8257 385.63 49.5403 384.169 56.0531C383.074 53.0572 379.424 46.4403 373.584 43.9394C371.335 42.9764 369.989 40.6886 369.231 38.0085Z" fill="#7B7B7B"/>
<path d="M352.325 79.1904C354.928 81.2321 361.553 84.0904 367.231 79.1904" stroke="#D88E8D"/>
<path d="M343.098 65.4993C348.776 66.364 352.089 63.938 353.035 62.6169C352.562 64.0581 351.261 67.0126 349.841 67.3008" stroke="#D88E8D"/>
<path d="M376.458 65.4993C370.78 66.364 367.468 63.938 366.521 62.6169C366.876 63.8179 367.657 66.2199 367.941 66.2199" stroke="#D88E8D"/>
<g clip-path="url(#clip6_13_9794)">
<path d="M318.965 120.575C318.965 113.24 324.685 107.293 331.742 107.293H387.105C394.161 107.293 399.881 113.24 399.881 120.575V186.246C399.881 193.581 394.161 199.528 387.105 199.528H331.742C324.685 199.528 318.965 193.581 318.965 186.246V120.575Z" fill="#59A6EA"/>
<path d="M344.518 107.293C344.518 107.293 344.518 107.293 344.518 107.293C344.518 115.851 351.191 122.789 359.423 122.789C367.656 122.789 374.329 115.851 374.329 107.293H344.518Z" fill="#F6C09D"/>
<path d="M359.423 122.76C349.314 121.877 345.796 111.712 344.929 107.293C338.61 112.817 339.725 119.446 342.327 122.76C344.929 126.075 354.963 130.862 359.423 122.76Z" fill="white"/>
<path d="M359.423 122.76C369.532 121.877 373.051 111.712 373.918 107.293C380.236 112.817 379.122 119.446 376.52 122.76C373.918 126.075 363.883 130.862 359.423 122.76Z" fill="white"/>
</g>
</g>
<g filter="url(#filter6_d_13_9794)">
<path d="M296.688 111.241V125H318.688V110.775C314.449 113.716 310.044 115.463 307.344 115.463C304.789 115.463 300.709 113.899 296.688 111.241Z" fill="#9E5D56"/>
<path d="M296.688 106.472C300.709 109.13 304.789 110.694 307.344 110.694C310.044 110.694 314.449 108.947 318.688 106.007V110.775C314.449 113.716 310.044 115.463 307.344 115.463C304.789 115.463 300.709 113.899 296.688 111.241V106.472Z" fill="#65353A"/>
<path d="M307.344 39.1626C294.624 39.1626 284.312 49.3803 284.312 61.9845V70.5001C280.516 70.5001 277.438 73.5502 277.438 77.3126C277.438 81.075 280.516 84.1251 284.312 84.1251V87.872C284.312 100.476 300.812 110.694 307.344 110.694C313.875 110.694 330.375 100.476 330.375 87.872V84.1251C334.172 84.1251 337.25 81.075 337.25 77.3126C337.25 73.5502 334.172 70.5001 330.375 70.5001V61.9845C330.375 49.3803 320.064 39.1626 307.344 39.1626Z" fill="#9E5D56"/>
<path d="M304.938 86.1691C304.938 88.0502 306.477 89.575 308.375 89.575C310.273 89.575 311.812 88.05 311.812 86.1688V76.6313C311.812 75.8643 311.557 75.1565 311.125 74.5872C311.125 74.5871 311.125 74.5873 311.125 74.5872V84.125C311.125 86.0062 309.586 87.5313 307.687 87.5313C306.563 87.5313 305.565 86.9963 304.938 86.1691Z" fill="#65353A"/>
<ellipse cx="296.344" cy="76.972" rx="2.40625" ry="2.38437" fill="#30333A"/>
<ellipse cx="319.031" cy="76.972" rx="2.40625" ry="2.38437" fill="#30333A"/>
<path d="M294.701 33.3333C292.752 33.7457 289.706 34.39 285.901 38.4738C282.814 41.7862 280.493 52.5893 279.733 59.9334C277.447 61.8852 275.431 65.2823 276.029 69.4512C273.371 69.4512 269.658 71.2508 269.658 80.5487C267.456 81.1485 263.189 84.2678 263.735 91.946C264.574 103.73 280.459 106.332 290.616 106.943C292.627 107.063 294.652 107.163 296.688 107.24V105.953C290.429 101.82 284.36 95.1035 284.36 87.4375L284.313 84.0555C280.516 84.0555 277.438 81.0085 277.438 77.2499C277.438 73.4913 280.516 70.4444 284.313 70.4444C284.313 67.1524 284.175 67.9493 284.313 64.6596C285.998 64.057 289.795 63.4989 291.531 61.9374C295.431 58.4296 297.849 53.6069 298.063 51.3531L297.93 50.1739C299.74 52.9477 301.653 56.5162 305.625 58.5346C313.463 62.5173 324.795 62.4487 330.031 63.9791C330.362 67.6172 330.375 66.797 330.375 70.4444C334.172 70.4444 337.202 73.4188 337.202 77.1774C337.202 80.936 334.172 84.0555 330.375 84.0555V87.3719C330.375 94.7568 324.699 101.322 318.688 105.488V107.239C320.716 107.162 322.735 107.063 324.739 106.943C334.896 106.332 350.781 103.73 351.62 91.946C352.167 84.2678 349.274 81.1485 347.072 80.5487C347.072 71.2508 341.984 69.4512 339.327 69.4512C339.902 65.4364 338.054 62.1375 335.875 60.1558C335.839 47.4446 331.475 40.0126 326.303 36.8296C318.534 32.0488 303.675 31.435 294.701 33.3333Z" fill="#4C150E"/>
<path d="M299.438 93.5833C301.765 96.3041 308.994 93.5833 317.079 93.5833C308.258 103.378 308.626 105.011 299.438 93.5833Z" fill="#ACACAC" stroke="#ACACAC"/>
<path d="M267.812 137.433C267.812 130.505 273.353 124.889 280.187 124.889H333.812C340.647 124.889 346.187 130.505 346.187 137.433V199.456C346.187 206.384 340.647 212 333.812 212H280.187C273.353 212 267.812 206.384 267.812 199.456V137.433Z" fill="#F3F6F8"/>
<path d="M307.683 139.524C315.656 139.524 322.12 132.971 322.12 124.889H293.245C293.245 132.971 299.709 139.524 307.683 139.524Z" fill="#9E5D56"/>
</g>
</g>
<defs>
<filter id="filter0_d_13_9794" x="19" y="-8" width="99.8096" height="213.615" filterUnits="userSpaceOnUse" color-interpolation-filters="sRGB">
<feFlood flood-opacity="0" result="BackgroundImageFix"/>
<feColorMatrix in="SourceAlpha" type="matrix" values="0 0 0 0 0 0 0 0 0 0 0 0 0 0 0 0 0 0 127 0" result="hardAlpha"/>
<feOffset dy="4"/>
<feGaussianBlur stdDeviation="2"/>
<feComposite in2="hardAlpha" operator="out"/>
<feColorMatrix type="matrix" values="0 0 0 0 0 0 0 0 0 0 0 0 0 0 0 0 0 0 0.25 0"/>
<feBlend mode="normal" in2="BackgroundImageFix" result="effect1_dropShadow_13_9794"/>
<feBlend mode="normal" in="SourceGraphic" in2="effect1_dropShadow_13_9794" result="shape"/>
</filter>
<filter id="filter1_d_13_9794" x="121.463" y="-16" width="98.8533" height="213.615" filterUnits="userSpaceOnUse" color-interpolation-filters="sRGB">
<feFlood flood-opacity="0" result="BackgroundImageFix"/>
<feColorMatrix in="SourceAlpha" type="matrix" values="0 0 0 0 0 0 0 0 0 0 0 0 0 0 0 0 0 0 127 0" result="hardAlpha"/>
<feOffset dy="4"/>
<feGaussianBlur stdDeviation="2"/>
<feComposite in2="hardAlpha" operator="out"/>
<feColorMatrix type="matrix" values="0 0 0 0 0 0 0 0 0 0 0 0 0 0 0 0 0 0 0.25 0"/>
<feBlend mode="normal" in2="BackgroundImageFix" result="effect1_dropShadow_13_9794"/>
<feBlend mode="normal" in="SourceGraphic" in2="effect1_dropShadow_13_9794" result="shape"/>
</filter>
<filter id="filter2_d_13_9794" x="207.273" y="-16" width="99.8096" height="213.615" filterUnits="userSpaceOnUse" color-interpolation-filters="sRGB">
<feFlood flood-opacity="0" result="BackgroundImageFix"/>
<feColorMatrix in="SourceAlpha" type="matrix" values="0 0 0 0 0 0 0 0 0 0 0 0 0 0 0 0 0 0 127 0" result="hardAlpha"/>
<feOffset dy="4"/>
<feGaussianBlur stdDeviation="2"/>
<feComposite in2="hardAlpha" operator="out"/>
<feColorMatrix type="matrix" values="0 0 0 0 0 0 0 0 0 0 0 0 0 0 0 0 0 0 0.25 0"/>
<feBlend mode="normal" in2="BackgroundImageFix" result="effect1_dropShadow_13_9794"/>
<feBlend mode="normal" in="SourceGraphic" in2="effect1_dropShadow_13_9794" result="shape"/>
</filter>
<filter id="filter3_d_13_9794" x="157.064" y="19.385" width="99.8096" height="213.615" filterUnits="userSpaceOnUse" color-interpolation-filters="sRGB">
<feFlood flood-opacity="0" result="BackgroundImageFix"/>
<feColorMatrix in="SourceAlpha" type="matrix" values="0 0 0 0 0 0 0 0 0 0 0 0 0 0 0 0 0 0 127 0" result="hardAlpha"/>
<feOffset dy="4"/>
<feGaussianBlur stdDeviation="2"/>
<feComposite in2="hardAlpha" operator="out"/>
<feColorMatrix type="matrix" values="0 0 0 0 0 0 0 0 0 0 0 0 0 0 0 0 0 0 0.25 0"/>
<feBlend mode="normal" in2="BackgroundImageFix" result="effect1_dropShadow_13_9794"/>
<feBlend mode="normal" in="SourceGraphic" in2="effect1_dropShadow_13_9794" result="shape"/>
</filter>
<filter id="filter4_d_13_9794" x="64.905" y="17.4724" width="98.8533" height="215.528" filterUnits="userSpaceOnUse" color-interpolation-filters="sRGB">
<feFlood flood-opacity="0" result="BackgroundImageFix"/>
<feColorMatrix in="SourceAlpha" type="matrix" values="0 0 0 0 0 0 0 0 0 0 0 0 0 0 0 0 0 0 127 0" result="hardAlpha"/>
<feOffset dy="4"/>
<feGaussianBlur stdDeviation="2"/>
<feComposite in2="hardAlpha" operator="out"/>
<feColorMatrix type="matrix" values="0 0 0 0 0 0 0 0 0 0 0 0 0 0 0 0 0 0 0.25 0"/>
<feBlend mode="normal" in2="BackgroundImageFix" result="effect1_dropShadow_13_9794"/>
<feBlend mode="normal" in="SourceGraphic" in2="effect1_dropShadow_13_9794" result="shape"/>
</filter>
<filter id="filter5_d_13_9794" x="309.997" y="-8" width="98.8533" height="215.528" filterUnits="userSpaceOnUse" color-interpolation-filters="sRGB">
<feFlood flood-opacity="0" result="BackgroundImageFix"/>
<feColorMatrix in="SourceAlpha" type="matrix" values="0 0 0 0 0 0 0 0 0 0 0 0 0 0 0 0 0 0 127 0" result="hardAlpha"/>
<feOffset dy="4"/>
<feGaussianBlur stdDeviation="2"/>
<feComposite in2="hardAlpha" operator="out"/>
<feColorMatrix type="matrix" values="0 0 0 0 0 0 0 0 0 0 0 0 0 0 0 0 0 0 0.25 0"/>
<feBlend mode="normal" in2="BackgroundImageFix" result="effect1_dropShadow_13_9794"/>
<feBlend mode="normal" in="SourceGraphic" in2="effect1_dropShadow_13_9794" result="shape"/>
</filter>
<filter id="filter6_d_13_9794" x="259" y="16" width="96.6875" height="204" filterUnits="userSpaceOnUse" color-interpolation-filters="sRGB">
<feFlood flood-opacity="0" result="BackgroundImageFix"/>
<feColorMatrix in="SourceAlpha" type="matrix" values="0 0 0 0 0 0 0 0 0 0 0 0 0 0 0 0 0 0 127 0" result="hardAlpha"/>
<feOffset dy="4"/>
<feGaussianBlur stdDeviation="2"/>
<feComposite in2="hardAlpha" operator="out"/>
<feColorMatrix type="matrix" values="0 0 0 0 0 0 0 0 0 0 0 0 0 0 0 0 0 0 0.25 0"/>
<feBlend mode="normal" in2="BackgroundImageFix" result="effect1_dropShadow_13_9794"/>
<feBlend mode="normal" in="SourceGraphic" in2="effect1_dropShadow_13_9794" result="shape"/>
</filter>
<clipPath id="clip0_13_9794">
<rect width="429" height="163" fill="white"/>
</clipPath>
<clipPath id="clip1_13_9794">
<rect width="81.7679" height="91.3844" fill="white" transform="translate(28.0208 106.231)"/>
</clipPath>
<clipPath id="clip2_13_9794">
<rect width="80.9161" height="91.3844" fill="white" transform="translate(130.431 98.2307)"/>
</clipPath>
<clipPath id="clip3_13_9794">
<rect width="81.7679" height="91.3844" fill="white" transform="translate(216.294 98.2307)"/>
</clipPath>
<clipPath id="clip4_13_9794">
<rect width="81.7679" height="91.3844" fill="white" transform="translate(166.084 133.616)"/>
</clipPath>
<clipPath id="clip5_13_9794">
<rect width="80.9161" height="92.2345" fill="white" transform="translate(73.8735 132.766)"/>
</clipPath>
<clipPath id="clip6_13_9794">
<rect width="80.9161" height="92.2345" fill="white" transform="translate(318.965 107.293)"/>
</clipPath>
</defs>
</svg>
