<svg width="429" height="163" viewBox="0 0 429 163" fill="none" xmlns="http://www.w3.org/2000/svg">
<g clip-path="url(#clip0_13_9793)">
<path d="M30.7816 9.84036C32.0519 4.0928 37.1559 0 43.0533 0H385.947C391.844 0 396.948 4.0928 398.218 9.84036L428.7 147.757C429.92 153.277 427.31 158.594 422.847 161.247L391.803 163H31.2367L6.83 161.622C1.95858 159.12 -0.980645 153.551 0.30003 147.757L30.7816 9.84036Z" fill="#F3F6F8"/>
<g filter="url(#filter0_d_13_9793)">
<rect x="58.1458" y="89.0959" width="22.9524" height="17.1346" fill="#F6C09D"/>
<path d="M81.0981 98.696C77.7389 100.321 73.9667 101.233 69.9806 101.233H68.5461C64.8412 101.233 61.3212 100.445 58.1458 99.0294V92.6658H81.0981V98.696Z" fill="#D88E8D"/>
<path fill-rule="evenodd" clip-rule="evenodd" d="M43.0833 35.3146C43.0833 20.8558 54.8045 9.13452 69.2633 9.13452C83.7222 9.13452 95.4434 20.8557 95.4434 35.3146V51.971C99.4047 51.971 102.616 55.1674 102.616 59.1104C102.616 63.0534 99.4047 66.2498 95.4434 66.2498V70.7692C95.4434 85.2281 83.7222 96.9493 69.2633 96.9493C54.8045 96.9493 43.0833 85.2281 43.0833 70.7692L43.0833 66.2498C39.1219 66.2498 35.9106 63.0534 35.9106 59.1104C35.9106 55.1674 39.1219 51.971 43.0833 51.971L43.0833 35.3146Z" fill="#F6C09D"/>
<ellipse cx="57.787" cy="54.47" rx="2.51042" ry="2.4988" fill="#66CDD9"/>
<ellipse cx="81.4567" cy="54.47" rx="2.51042" ry="2.4988" fill="#66CDD9"/>
<path d="M66.7529 64.1084C66.7531 66.0798 68.3587 67.6778 70.3392 67.6778C72.3199 67.6778 73.9255 66.0796 73.9255 64.1081V54.1129C73.9255 53.3091 73.6587 52.5674 73.2083 51.9707C73.2083 51.9706 73.2083 51.9709 73.2083 51.9707V61.9663C73.2083 63.9378 71.6026 65.536 69.622 65.536C68.4488 65.536 67.4072 64.9753 66.7529 64.1084Z" fill="#D88E8D"/>
<path d="M36.3744 46.154C35.1955 41.7501 41.3848 28.5384 43.3005 23.9924C44.4794 22.0036 47.5152 18.2816 50.2267 19.3044C52.9382 20.3273 50.2267 23.9924 48.4583 26.5495C46.1005 31.3228 48.8512 36.6832 50.5213 38.7668C49.8337 39.4297 48.1636 41.2386 46.9846 43.1707C45.8057 45.1027 45.8057 50.7946 45.9531 53.3991H39.7638C39.027 52.452 37.3175 49.6771 36.3744 46.154Z" fill="#7B7B7B"/>
<path d="M53.852 45.6139C51.707 45.1734 50.0826 46.9724 49.5386 47.927C49.966 47.927 51.0075 48.0592 51.7536 48.5879C52.6862 49.2488 52.8084 50.2656 55.0178 51.0111C56.65 51.5619 60.1474 50.4604 61.6629 50.4604C62.8754 50.4604 64.1888 51.4884 64.694 52.0024C64.8494 51.8556 65.1248 51.672 65.3113 50.7908C65.5445 49.6894 59.8798 48.9183 58.5153 48.3676C57.0849 47.7903 56.5334 46.1647 53.852 45.6139Z" fill="#7B7B7B"/>
<path d="M63.295 55.3068C62.479 56.3349 60.3805 58.391 58.5153 58.391C56.1836 58.391 54.3184 58.6112 51.7536 56.2982M49.5386 47.927C50.0826 46.9724 51.707 45.1734 53.852 45.6139C56.5334 46.1647 57.0849 47.7903 58.5153 48.3676C59.8798 48.9183 65.5445 49.6894 65.3113 50.7908C65.1248 51.672 64.8494 51.8556 64.694 52.0024C64.1888 51.4884 62.8754 50.4604 61.6629 50.4604C60.1474 50.4604 56.65 51.5619 55.0178 51.0111C52.8084 50.2656 52.6862 49.2488 51.7536 48.5879C51.0075 48.0592 49.966 47.927 49.5386 47.927Z" stroke="#7B7B7B"/>
<path d="M85.3919 45.6139C87.5369 45.1734 89.1613 46.9724 89.7053 47.927C89.2779 47.927 88.2364 48.0592 87.4903 48.5879C86.5577 49.2488 86.4355 50.2656 84.2261 51.0111C82.5939 51.5619 79.0965 50.4604 77.581 50.4604C76.3685 50.4604 75.0551 51.4884 74.5499 52.0024C74.3945 51.8556 74.1191 51.672 73.9326 50.7908C73.6994 49.6894 79.3641 48.9183 80.7286 48.3676C82.159 47.7903 82.7105 46.1647 85.3919 45.6139Z" fill="#7B7B7B"/>
<path d="M75.9489 55.3068C76.7649 56.3349 78.8634 58.391 80.7286 58.391C83.0602 58.391 84.9255 58.6112 87.4903 56.2982M89.7053 47.927C89.1613 46.9724 87.5369 45.1734 85.3919 45.6139C82.7105 46.1647 82.159 47.7903 80.7286 48.3676C79.3641 48.9183 73.6994 49.6894 73.9326 50.7908C74.1191 51.672 74.3945 51.8556 74.5499 52.0024C75.0551 51.4884 76.3685 50.4604 77.581 50.4604C79.0965 50.4604 82.5939 51.5619 84.2261 51.0111C86.4355 50.2656 86.5577 49.2488 87.4903 48.5879C88.2364 48.0592 89.2779 47.927 89.7053 47.927Z" stroke="#7B7B7B"/>
<path d="M103.896 45.852C105.124 41.2646 98.6771 27.5024 96.6816 22.7671C95.4535 20.6953 92.2913 16.8183 89.4668 17.8837C86.6424 18.9492 89.4668 22.7671 91.3089 25.4307C93.765 30.4028 90.8996 35.9866 89.1599 38.157C89.8762 38.8476 91.6159 40.7319 92.8439 42.7444C94.072 44.7569 94.072 50.686 93.9185 53.399H100.366C101.133 52.4124 102.914 49.5219 103.896 45.852Z" fill="#7B7B7B"/>
<path d="M57.4285 78.387C58.158 77.6995 59.8359 76.2611 60.7113 76.0072C61.8056 75.6899 66.0264 75.5312 66.9644 75.5312C67.9023 75.5312 68.215 76.0072 69.6219 76.0072C71.0289 76.0072 71.3415 75.5312 72.2795 75.5312C73.2174 75.5312 77.4382 75.6899 78.5325 76.0072C79.408 76.2611 81.0859 77.6995 81.8154 78.387" stroke="#7B7B7B"/>
<path d="M69.8565 29.5471C65.3932 30.095 64.5488 23.9319 58.1555 21.8776C53.1415 20.2665 49.3481 25.0488 47.6608 27.3558C47.1053 27.4015 45.4412 26.8902 45.2482 24.4797C45.007 21.4667 48.1433 19.6863 50.194 17.358C52.2447 15.0297 65.8758 11.4689 71.0628 11.195C76.2498 10.921 94.2236 20.508 95.9124 23.658C97.6012 26.808 99.4106 32.971 97.4805 29.5471C95.9432 26.8198 93.3215 27.1701 91.9494 27.3535L91.9316 27.3558C90.283 28.3145 87.7096 28.3145 84.4526 27.3558C80.2717 26.1252 74.3198 28.9993 69.8565 29.5471Z" fill="#555555"/>
<path d="M70.1928 27.7058C65.869 28.2359 65.051 22.2717 58.8575 20.2836C54.0002 18.7244 50.3253 23.3525 48.6907 25.5851C48.1526 25.6293 46.5405 25.1345 46.3535 22.8018C46.1198 19.886 49.1581 15.941 51.1447 13.6878C53.1313 11.4346 64.5916 8.42065 69.622 8.42065C81.5105 8.42065 93.7984 17.2352 95.4344 20.2836C97.0704 23.332 98.8233 31.0192 96.9536 27.7058C95.4642 25.0664 92.9245 25.4054 91.5953 25.5828L91.5781 25.5851C89.981 26.5129 87.488 26.5129 84.3328 25.5851C80.2825 24.3942 74.5166 27.1756 70.1928 27.7058Z" fill="#7B7B7B"/>
<g clip-path="url(#clip1_13_9793)">
<path d="M28.0208 124.231C28.0208 114.29 36.0796 106.231 46.0208 106.231H91.7886C101.73 106.231 109.789 114.29 109.789 124.231V179.615C109.789 189.556 101.73 197.615 91.7886 197.615H46.0208C36.0796 197.615 28.0208 189.556 28.0208 179.615V124.231Z" fill="#FD86B1"/>
<path d="M28.0208 119.39C28.0208 112.122 33.8011 106.231 40.9315 106.231H96.8779C104.008 106.231 109.789 112.122 109.789 119.39V184.456C109.789 191.724 104.008 197.615 96.8779 197.615H40.9315C33.8011 197.615 28.0208 191.724 28.0208 184.456V119.39Z" fill="#FD86B1"/>
<path d="M68.9048 175.683L52.7664 106.231H84.3259L68.9048 175.683Z" fill="#E3E3E3"/>
<path d="M63.8838 106.231L66.0356 113.541L64.6011 139.495H72.4909L71.0564 113.541L73.2082 106.231H63.8838Z" fill="#66CDD9"/>
<path d="M47.3867 106.231H54.5593L90.0638 197.615H82.8912L47.3867 106.231Z" fill="#F2CF21"/>
<path d="M40.9314 106.231H47.3868L82.8912 197.615H76.4359L40.9314 106.231Z" fill="#3C8519"/>
<path d="M54.5593 106.231H61.0147L96.5192 197.615H90.0638L54.5593 106.231Z" fill="#3C8519"/>
</g>
</g>
<g filter="url(#filter1_d_13_9793)">
<rect x="160.242" y="81.0959" width="22.7133" height="17.1346" fill="#F6C09D"/>
<path d="M182.955 90.696C179.631 92.3214 175.898 93.2331 171.954 93.2331H170.534C166.868 93.2331 163.385 92.4455 160.242 91.0294V84.6658H182.955V90.696Z" fill="#D88E8D"/>
<path fill-rule="evenodd" clip-rule="evenodd" d="M145.337 27.0419C145.337 12.7337 156.936 1.13452 171.244 1.13452C185.552 1.13452 197.151 12.7336 197.151 27.0419L197.151 43.971C201.071 43.971 204.249 47.1674 204.249 51.1104C204.249 55.0534 201.071 58.2498 197.151 58.2498L197.151 63.0419C197.151 77.3502 185.552 88.9493 171.244 88.9493C156.936 88.9493 145.337 77.3502 145.337 63.042L145.337 58.2498C141.417 58.2498 138.239 55.0534 138.239 51.1104C138.239 47.1674 141.417 43.971 145.337 43.971L145.337 27.0419Z" fill="#F6C09D"/>
<ellipse cx="159.887" cy="46.47" rx="2.48427" ry="2.4988" fill="#66CDD9"/>
<ellipse cx="183.31" cy="46.47" rx="2.48427" ry="2.4988" fill="#66CDD9"/>
<path d="M168.76 56.1084C168.76 58.0798 170.349 59.6778 172.309 59.6778C174.269 59.6778 175.858 58.0796 175.858 56.1081V46.1129C175.858 45.3091 175.594 44.5674 175.148 43.9707C175.148 43.9706 175.148 43.9709 175.148 43.9707V53.9663C175.148 55.9378 173.559 57.536 171.599 57.536C170.438 57.536 169.407 56.9753 168.76 56.1084Z" fill="#D88E8D"/>
<path d="M138.698 38.154C137.531 33.7501 143.656 20.5384 145.552 15.9924C146.718 14.0036 149.723 10.2816 152.406 11.3044C155.089 12.3273 152.406 15.9924 150.656 18.5495C148.323 23.3228 151.045 28.6832 152.697 30.7668C152.017 31.4297 150.364 33.2386 149.198 35.1707C148.031 37.1027 148.031 42.7946 148.177 45.3991H142.052C141.323 44.452 139.631 41.6771 138.698 38.154Z" fill="#7B7B7B"/>
<path d="M155.993 37.6139C153.871 37.1734 152.263 38.9724 151.725 39.927C152.148 39.927 153.178 40.0592 153.917 40.5879C154.84 41.2488 154.961 42.2656 157.147 43.0111C158.762 43.5619 162.223 42.4604 163.723 42.4604C164.923 42.4604 166.222 43.4884 166.722 44.0024C166.876 43.8556 167.149 43.672 167.333 42.7908C167.564 41.6894 161.958 40.9183 160.608 40.3676C159.193 39.7903 158.647 38.1647 155.993 37.6139Z" fill="#7B7B7B"/>
<path d="M165.338 47.3068C164.53 48.3349 162.454 50.391 160.608 50.391C158.301 50.391 156.455 50.6112 153.917 48.2982M151.725 39.927C152.263 38.9724 153.871 37.1734 155.993 37.6139C158.647 38.1647 159.193 39.7903 160.608 40.3676C161.958 40.9183 167.564 41.6894 167.333 42.7908C167.149 43.672 166.876 43.8556 166.722 44.0024C166.222 43.4884 164.923 42.4604 163.723 42.4604C162.223 42.4604 158.762 43.5619 157.147 43.0111C154.961 42.2656 154.84 41.2488 153.917 40.5879C153.178 40.0592 152.148 39.927 151.725 39.927Z" stroke="#7B7B7B"/>
<path d="M187.205 37.6139C189.327 37.1734 190.935 38.9724 191.473 39.927C191.05 39.927 190.02 40.0592 189.281 40.5879C188.358 41.2488 188.237 42.2656 186.051 43.0111C184.436 43.5619 180.975 42.4604 179.475 42.4604C178.275 42.4604 176.976 43.4884 176.476 44.0024C176.322 43.8556 176.049 43.672 175.865 42.7908C175.634 41.6894 181.24 40.9183 182.59 40.3676C184.005 39.7903 184.551 38.1647 187.205 37.6139Z" fill="#7B7B7B"/>
<path d="M177.86 47.3068C178.668 48.3349 180.744 50.391 182.59 50.391C184.897 50.391 186.743 50.6112 189.281 48.2982M191.473 39.927C190.935 38.9724 189.327 37.1734 187.205 37.6139C184.551 38.1647 184.005 39.7903 182.59 40.3676C181.24 40.9183 175.634 41.6894 175.865 42.7908C176.049 43.672 176.322 43.8556 176.476 44.0024C176.976 43.4884 178.275 42.4604 179.475 42.4604C180.975 42.4604 184.436 43.5619 186.051 43.0111C188.237 42.2656 188.358 41.2488 189.281 40.5879C190.02 40.0592 191.05 39.927 191.473 39.927Z" stroke="#7B7B7B"/>
<path d="M205.516 37.852C206.732 33.2646 200.352 19.5024 198.377 14.7671C197.161 12.6953 194.032 8.81825 191.237 9.88371C188.442 10.9492 191.237 14.7671 193.06 17.4307C195.491 22.4028 192.655 27.9866 190.933 30.157C191.642 30.8476 193.364 32.7319 194.579 34.7444C195.794 36.7569 195.794 42.686 195.642 45.399H202.022C202.782 44.4124 204.544 41.5219 205.516 37.852Z" fill="#7B7B7B"/>
<path d="M159.532 70.387C160.254 69.6995 161.915 68.2611 162.781 68.0072C163.864 67.6899 168.041 67.5312 168.969 67.5312C169.897 67.5312 170.207 68.0072 171.599 68.0072C172.991 68.0072 173.301 67.5312 174.229 67.5312C175.157 67.5312 179.334 67.6899 180.417 68.0072C181.283 68.2611 182.943 69.6995 183.665 70.387" stroke="#7B7B7B"/>
<path d="M171.831 21.5471C167.414 22.095 166.579 15.9319 160.252 13.8776C155.29 12.2665 151.536 17.0488 149.866 19.3558C149.317 19.4015 147.67 18.8902 147.479 16.4797C147.24 13.4667 150.344 11.6863 152.373 9.358C154.403 7.02974 167.892 3.46887 173.025 3.19496C178.158 2.92105 195.944 12.508 197.615 15.658C199.287 18.808 201.077 24.971 199.167 21.5471C197.646 18.8198 195.052 19.1701 193.694 19.3535L193.676 19.3558C192.045 20.3145 189.498 20.3145 186.275 19.3558C182.138 18.1252 176.248 20.9993 171.831 21.5471Z" fill="#555555"/>
<path d="M172.164 19.7058C167.885 20.2359 167.076 14.2717 160.947 12.2836C156.14 10.7244 152.503 15.3525 150.886 17.5851C150.353 17.6293 148.758 17.1345 148.573 14.8018C148.342 11.886 151.348 7.94095 153.314 5.6878C155.28 3.43464 166.621 0.420654 171.599 0.420654C183.364 0.420654 195.524 9.23521 197.143 12.2836C198.761 15.332 200.496 23.0192 198.646 19.7058C197.172 17.0664 194.659 17.4054 193.343 17.5828L193.326 17.5851C191.746 18.5129 189.279 18.5129 186.157 17.5851C182.148 16.3942 176.443 19.1756 172.164 19.7058Z" fill="#7B7B7B"/>
<g clip-path="url(#clip2_13_9793)">
<path d="M130.431 116.231C130.431 106.29 138.49 98.2307 148.431 98.2307H193.347C203.288 98.2307 211.347 106.29 211.347 116.231V171.615C211.347 181.556 203.288 189.615 193.347 189.615H148.431C138.49 189.615 130.431 181.556 130.431 171.615V116.231Z" fill="#EEC750"/>
<path d="M130.431 111.39C130.431 104.122 136.151 98.2307 143.207 98.2307H198.571C205.627 98.2307 211.347 104.122 211.347 111.39V176.456C211.347 183.724 205.627 189.615 198.571 189.615H143.207C136.151 189.615 130.431 183.724 130.431 176.456V111.39Z" fill="#EEC750"/>
<path d="M170.889 167.683L154.919 98.2307H186.15L170.889 167.683Z" fill="#E3E3E3"/>
<path d="M165.921 98.2307L168.05 105.541L166.63 131.495H174.438L173.019 105.541L175.148 98.2307H165.921Z" fill="#66CDD9"/>
<path d="M149.595 98.2307H156.693L191.828 189.615H184.73L149.595 98.2307Z" fill="#F2CF21"/>
<path d="M143.207 98.2307H149.595L184.73 189.615H178.342L143.207 98.2307Z" fill="#3C8519"/>
<path d="M156.693 98.2307H163.081L198.216 189.615H191.828L156.693 98.2307Z" fill="#3C8519"/>
</g>
</g>
<g filter="url(#filter2_d_13_9793)">
<rect x="246.419" y="81.0959" width="22.9524" height="17.1346" fill="#F6C09D"/>
<path d="M269.372 90.696C266.012 92.3214 262.24 93.2331 258.254 93.2331H256.819C253.115 93.2331 249.595 92.4455 246.419 91.0294V84.6658H269.372V90.696Z" fill="#D88E8D"/>
<path fill-rule="evenodd" clip-rule="evenodd" d="M231.357 27.3146C231.357 12.8558 243.078 1.13452 257.537 1.13452C271.996 1.13452 283.717 12.8557 283.717 27.3146V43.971C287.678 43.971 290.889 47.1674 290.889 51.1104C290.889 55.0534 287.678 58.2498 283.717 58.2498V62.7692C283.717 77.2281 271.996 88.9493 257.537 88.9493C243.078 88.9493 231.357 77.2281 231.357 62.7692L231.357 58.2498C227.395 58.2498 224.184 55.0534 224.184 51.1104C224.184 47.1674 227.395 43.971 231.357 43.971L231.357 27.3146Z" fill="#F6C09D"/>
<ellipse cx="246.061" cy="46.47" rx="2.51042" ry="2.4988" fill="#66CDD9"/>
<ellipse cx="269.73" cy="46.47" rx="2.51042" ry="2.4988" fill="#66CDD9"/>
<path d="M255.026 56.1084C255.027 58.0798 256.632 59.6778 258.613 59.6778C260.593 59.6778 262.199 58.0796 262.199 56.1081V46.1129C262.199 45.3091 261.932 44.5674 261.482 43.9707C261.482 43.9706 261.482 43.9709 261.482 43.9707V53.9663C261.482 55.9378 259.876 57.536 257.895 57.536C256.722 57.536 255.681 56.9753 255.026 56.1084Z" fill="#D88E8D"/>
<path d="M224.648 38.154C223.469 33.7501 229.658 20.5384 231.574 15.9924C232.753 14.0036 235.789 10.2816 238.5 11.3044C241.212 12.3273 238.5 15.9924 236.732 18.5495C234.374 23.3228 237.125 28.6832 238.795 30.7668C238.107 31.4297 236.437 33.2386 235.258 35.1707C234.079 37.1027 234.079 42.7946 234.227 45.3991H228.037C227.3 44.452 225.591 41.6771 224.648 38.154Z" fill="#7B7B7B"/>
<path d="M242.125 37.6139C239.98 37.1734 238.356 38.9724 237.812 39.927C238.239 39.927 239.281 40.0592 240.027 40.5879C240.96 41.2488 241.082 42.2656 243.291 43.0111C244.923 43.5619 248.421 42.4604 249.936 42.4604C251.149 42.4604 252.462 43.4884 252.967 44.0024C253.123 43.8556 253.398 43.672 253.585 42.7908C253.818 41.6894 248.153 40.9183 246.789 40.3676C245.358 39.7903 244.807 38.1647 242.125 37.6139Z" fill="#7B7B7B"/>
<path d="M251.568 47.3068C250.752 48.3349 248.654 50.391 246.789 50.391C244.457 50.391 242.592 50.6112 240.027 48.2982M237.812 39.927C238.356 38.9724 239.98 37.1734 242.125 37.6139C244.807 38.1647 245.358 39.7903 246.789 40.3676C248.153 40.9183 253.818 41.6894 253.585 42.7908C253.398 43.672 253.123 43.8556 252.967 44.0024C252.462 43.4884 251.149 42.4604 249.936 42.4604C248.421 42.4604 244.923 43.5619 243.291 43.0111C241.082 42.2656 240.96 41.2488 240.027 40.5879C239.281 40.0592 238.239 39.927 237.812 39.927Z" stroke="#7B7B7B"/>
<path d="M273.665 37.6139C275.81 37.1734 277.435 38.9724 277.979 39.927C277.551 39.927 276.51 40.0592 275.764 40.5879C274.831 41.2488 274.709 42.2656 272.499 43.0111C270.867 43.5619 267.37 42.4604 265.854 42.4604C264.642 42.4604 263.329 43.4884 262.823 44.0024C262.668 43.8556 262.393 43.672 262.206 42.7908C261.973 41.6894 267.638 40.9183 269.002 40.3676C270.432 39.7903 270.984 38.1647 273.665 37.6139Z" fill="#7B7B7B"/>
<path d="M264.222 47.3068C265.038 48.3349 267.137 50.391 269.002 50.391C271.334 50.391 273.199 50.6112 275.764 48.2982M277.979 39.927C277.435 38.9724 275.81 37.1734 273.665 37.6139C270.984 38.1647 270.432 39.7903 269.002 40.3676C267.638 40.9183 261.973 41.6894 262.206 42.7908C262.393 43.672 262.668 43.8556 262.823 44.0024C263.329 43.4884 264.642 42.4604 265.854 42.4604C267.37 42.4604 270.867 43.5619 272.499 43.0111C274.709 42.2656 274.831 41.2488 275.764 40.5879C276.51 40.0592 277.551 39.927 277.979 39.927Z" stroke="#7B7B7B"/>
<path d="M292.17 37.852C293.398 33.2646 286.951 19.5024 284.955 14.7671C283.727 12.6953 280.565 8.81825 277.74 9.88371C274.916 10.9492 277.74 14.7671 279.582 17.4307C282.038 22.4028 279.173 27.9866 277.433 30.157C278.15 30.8476 279.889 32.7319 281.117 34.7444C282.345 36.7569 282.345 42.686 282.192 45.399H288.639C289.407 44.4124 291.187 41.5219 292.17 37.852Z" fill="#7B7B7B"/>
<path d="M245.702 70.387C246.431 69.6995 248.109 68.2611 248.985 68.0072C250.079 67.6899 254.3 67.5312 255.238 67.5312C256.176 67.5312 256.488 68.0072 257.895 68.0072C259.302 68.0072 259.615 67.5312 260.553 67.5312C261.491 67.5312 265.712 67.6899 266.806 68.0072C267.681 68.2611 269.359 69.6995 270.089 70.387" stroke="#7B7B7B"/>
<path d="M258.13 21.5471C253.667 22.095 252.822 15.9319 246.429 13.8776C241.415 12.2665 237.622 17.0488 235.934 19.3558C235.379 19.4015 233.715 18.8902 233.522 16.4797C233.28 13.4667 236.417 11.6863 238.467 9.358C240.518 7.02974 254.149 3.46887 259.336 3.19496C264.523 2.92105 282.497 12.508 284.186 15.658C285.875 18.808 287.684 24.971 285.754 21.5471C284.217 18.8198 281.595 19.1701 280.223 19.3535L280.205 19.3558C278.556 20.3145 275.983 20.3145 272.726 19.3558C268.545 18.1252 262.593 20.9993 258.13 21.5471Z" fill="#555555"/>
<path d="M258.466 19.7058C254.143 20.2359 253.325 14.2717 247.131 12.2836C242.274 10.7244 238.599 15.3525 236.964 17.5851C236.426 17.6293 234.814 17.1345 234.627 14.8018C234.393 11.886 237.432 7.94095 239.418 5.6878C241.405 3.43464 252.865 0.420654 257.896 0.420654C269.784 0.420654 282.072 9.23521 283.708 12.2836C285.344 15.332 287.097 23.0192 285.227 19.7058C283.738 17.0664 281.198 17.4054 279.869 17.5828L279.852 17.5851C278.255 18.5129 275.762 18.5129 272.606 17.5851C268.556 16.3942 262.79 19.1756 258.466 19.7058Z" fill="#7B7B7B"/>
<g clip-path="url(#clip3_13_9793)">
<path d="M216.294 116.231C216.294 106.29 224.353 98.2307 234.294 98.2307H280.062C290.003 98.2307 298.062 106.29 298.062 116.231V171.615C298.062 181.556 290.003 189.615 280.062 189.615H234.294C224.353 189.615 216.294 181.556 216.294 171.615V116.231Z" fill="#65C3C9"/>
<path d="M216.294 111.39C216.294 104.122 222.075 98.2307 229.205 98.2307H285.151C292.282 98.2307 298.062 104.122 298.062 111.39V176.456C298.062 183.724 292.282 189.615 285.151 189.615H229.205C222.075 189.615 216.294 183.724 216.294 176.456V111.39Z" fill="#65C3C9"/>
<path d="M257.178 167.683L241.04 98.2307H272.599L257.178 167.683Z" fill="#E3E3E3"/>
<path d="M252.157 98.2307L254.309 105.541L252.874 131.495H260.764L259.33 105.541L261.482 98.2307H252.157Z" fill="#66CDD9"/>
<path d="M235.66 98.2307H242.833L278.337 189.615H271.165L235.66 98.2307Z" fill="#F2CF21"/>
<path d="M229.205 98.2307H235.66L271.165 189.615H264.709L229.205 98.2307Z" fill="#3C8519"/>
<path d="M242.833 98.2307H249.288L284.793 189.615H278.337L242.833 98.2307Z" fill="#3C8519"/>
</g>
</g>
<g filter="url(#filter3_d_13_9793)">
<rect x="196.209" y="116.481" width="22.9524" height="17.1346" fill="#F6C09D"/>
<path d="M219.162 126.081C215.803 127.706 212.03 128.618 208.044 128.618H206.61C202.905 128.618 199.385 127.831 196.209 126.414V120.051H219.162V126.081Z" fill="#D88E8D"/>
<path fill-rule="evenodd" clip-rule="evenodd" d="M181.147 62.6996C181.147 48.2408 192.868 36.5195 207.327 36.5195C221.786 36.5195 233.507 48.2407 233.507 62.6996V79.356C237.468 79.356 240.68 82.5524 240.68 86.4954C240.68 90.4384 237.468 93.6348 233.507 93.6348V98.1542C233.507 112.613 221.786 124.334 207.327 124.334C192.868 124.334 181.147 112.613 181.147 98.1543L181.147 93.6348C177.186 93.6348 173.974 90.4384 173.974 86.4954C173.974 82.5524 177.186 79.356 181.147 79.356L181.147 62.6996Z" fill="#F6C09D"/>
<ellipse cx="195.851" cy="81.8548" rx="2.51042" ry="2.4988" fill="#66CDD9"/>
<ellipse cx="219.521" cy="81.8548" rx="2.51042" ry="2.4988" fill="#66CDD9"/>
<path d="M204.817 91.4934C204.817 93.4648 206.422 95.0628 208.403 95.0628C210.384 95.0628 211.989 93.4646 211.989 91.4931V81.4979C211.989 80.6941 211.722 79.9524 211.272 79.3557C211.272 79.3556 211.272 79.3559 211.272 79.3557V89.3513C211.272 91.3228 209.666 92.921 207.686 92.921C206.513 92.921 205.471 92.3603 204.817 91.4934Z" fill="#D88E8D"/>
<path d="M174.438 73.539C173.259 69.1351 179.449 55.9234 181.364 51.3774C182.543 49.3886 185.579 45.6666 188.29 46.6894C191.002 47.7123 188.29 51.3774 186.522 53.9345C184.164 58.7078 186.915 64.0682 188.585 66.1518C187.897 66.8147 186.227 68.6237 185.048 70.5557C183.869 72.4877 183.869 78.1796 184.017 80.7841H177.828C177.091 79.837 175.381 77.0621 174.438 73.539Z" fill="#7B7B7B"/>
<path d="M191.916 72.9989C189.771 72.5584 188.146 74.3574 187.602 75.312C188.03 75.312 189.071 75.4442 189.817 75.9729C190.75 76.6338 190.872 77.6506 193.082 78.3961C194.714 78.9469 198.211 77.8454 199.727 77.8454C200.939 77.8454 202.253 78.8734 202.758 79.3875C202.913 79.2406 203.189 79.057 203.375 78.1758C203.608 77.0744 197.943 76.3033 196.579 75.7526C195.149 75.1753 194.597 73.5497 191.916 72.9989Z" fill="#7B7B7B"/>
<path d="M201.359 82.6919C200.543 83.7199 198.444 85.776 196.579 85.776C194.247 85.776 192.382 85.9963 189.817 83.6832M187.602 75.312C188.146 74.3574 189.771 72.5584 191.916 72.9989C194.597 73.5497 195.149 75.1753 196.579 75.7526C197.943 76.3033 203.608 77.0744 203.375 78.1758C203.189 79.057 202.913 79.2406 202.758 79.3875C202.253 78.8734 200.939 77.8454 199.727 77.8454C198.211 77.8454 194.714 78.9469 193.082 78.3961C190.872 77.6506 190.75 76.6338 189.817 75.9729C189.071 75.4442 188.03 75.312 187.602 75.312Z" stroke="#7B7B7B"/>
<path d="M223.456 72.9989C225.601 72.5584 227.225 74.3574 227.769 75.312C227.342 75.312 226.3 75.4442 225.554 75.9729C224.621 76.6338 224.499 77.6506 222.29 78.3961C220.658 78.9469 217.16 77.8454 215.645 77.8454C214.432 77.8454 213.119 78.8734 212.614 79.3875C212.458 79.2406 212.183 79.057 211.996 78.1758C211.763 77.0744 217.428 76.3033 218.792 75.7526C220.223 75.1753 220.774 73.5497 223.456 72.9989Z" fill="#7B7B7B"/>
<path d="M214.013 82.6919C214.829 83.7199 216.927 85.776 218.792 85.776C221.124 85.776 222.989 85.9963 225.554 83.6832M227.769 75.312C227.225 74.3574 225.601 72.5584 223.456 72.9989C220.774 73.5497 220.223 75.1753 218.792 75.7526C217.428 76.3033 211.763 77.0744 211.996 78.1758C212.183 79.057 212.458 79.2406 212.614 79.3875C213.119 78.8734 214.432 77.8454 215.645 77.8454C217.16 77.8454 220.658 78.9469 222.29 78.3961C224.499 77.6506 224.621 76.6338 225.554 75.9729C226.3 75.4442 227.342 75.312 227.769 75.312Z" stroke="#7B7B7B"/>
<path d="M241.96 73.237C243.188 68.6496 236.741 54.8874 234.745 50.1521C233.517 48.0803 230.355 44.2033 227.531 45.2687C224.706 46.3342 227.531 50.1521 229.373 52.8157C231.829 57.7879 228.963 63.3716 227.224 65.542C227.94 66.2326 229.68 68.1169 230.908 70.1294C232.136 72.1419 232.136 78.071 231.982 80.784H238.429C239.197 79.7974 240.978 76.9069 241.96 73.237Z" fill="#7B7B7B"/>
<path d="M195.492 105.772C196.222 105.085 197.9 103.646 198.775 103.392C199.869 103.075 204.09 102.916 205.028 102.916C205.966 102.916 206.279 103.392 207.686 103.392C209.093 103.392 209.405 102.916 210.343 102.916C211.281 102.916 215.502 103.075 216.596 103.392C217.472 103.646 219.15 105.085 219.879 105.772" stroke="#7B7B7B"/>
<path d="M207.92 56.9321C203.457 57.48 202.613 51.3169 196.219 49.2626C191.205 47.6515 187.412 52.4338 185.725 54.7408C185.169 54.7865 183.505 54.2752 183.312 51.8648C183.071 48.8517 186.207 47.0713 188.258 44.743C190.308 42.4148 203.939 38.8539 209.127 38.58C214.314 38.3061 232.287 47.893 233.976 51.043C235.665 54.193 237.474 60.3561 235.544 56.9321C234.007 54.2048 231.385 54.5551 230.013 54.7385L229.995 54.7408C228.347 55.6995 225.773 55.6995 222.516 54.7408C218.335 53.5102 212.384 56.3843 207.92 56.9321Z" fill="#555555"/>
<path d="M208.257 55.0908C203.933 55.6209 203.115 49.6567 196.921 47.6686C192.064 46.1095 188.389 50.7376 186.754 52.9701C186.216 53.0143 184.604 52.5195 184.417 50.1868C184.184 47.271 187.222 43.326 189.208 41.0728C191.195 38.8197 202.655 35.8057 207.686 35.8057C219.574 35.8057 231.862 44.6202 233.498 47.6686C235.134 50.717 236.887 58.4042 235.017 55.0908C233.528 52.4514 230.988 52.7904 229.659 52.9678L229.642 52.9701C228.045 53.8979 225.552 53.8979 222.397 52.9701C218.346 51.7792 212.58 54.5606 208.257 55.0908Z" fill="#7B7B7B"/>
<g clip-path="url(#clip4_13_9793)">
<path d="M166.084 151.616C166.084 141.675 174.143 133.616 184.084 133.616H229.852C239.793 133.616 247.852 141.675 247.852 151.616V207C247.852 216.941 239.793 225 229.852 225H184.084C174.143 225 166.084 216.941 166.084 207V151.616Z" fill="#41CA7B"/>
<path d="M166.084 146.775C166.084 139.507 171.865 133.616 178.995 133.616H234.942C242.072 133.616 247.852 139.507 247.852 146.775V211.841C247.852 219.109 242.072 225 234.942 225H178.995C171.865 225 166.084 219.109 166.084 211.841V146.775Z" fill="#41CA7B"/>
<path d="M206.968 203.068L190.83 133.616H222.39L206.968 203.068Z" fill="#E3E3E3"/>
<path d="M201.948 133.616L204.099 140.926L202.665 166.88H210.555L209.12 140.926L211.272 133.616H201.948Z" fill="#66CDD9"/>
<path d="M185.45 133.616H192.623L228.128 225H220.955L185.45 133.616Z" fill="#F2CF21"/>
<path d="M178.995 133.616H185.45L220.955 225H214.5L178.995 133.616Z" fill="#3C8519"/>
<path d="M192.623 133.616H199.078L234.583 225H228.128L192.623 133.616Z" fill="#3C8519"/>
</g>
</g>
<g filter="url(#filter4_d_13_9793)">
<rect x="103.685" y="115.472" width="22.7133" height="17.294" fill="#F6C09D"/>
<path d="M126.398 125.161C123.074 126.802 119.341 127.722 115.396 127.722H113.977C110.31 127.722 106.827 126.927 103.685 125.498V119.075H126.398V125.161Z" fill="#D88E8D"/>
<path fill-rule="evenodd" clip-rule="evenodd" d="M88.7791 60.674C88.7791 46.3657 100.378 34.7666 114.686 34.7666C128.995 34.7666 140.594 46.3657 140.594 60.674L140.594 78.0016C144.514 78.0016 147.692 81.2277 147.692 85.2074C147.692 89.187 144.514 92.4132 140.594 92.4132L140.594 97.4909C140.594 111.799 128.995 123.398 114.686 123.398C100.378 123.398 88.7791 111.799 88.7791 97.4909L88.7791 92.4132C84.859 92.4132 81.6812 89.187 81.6812 85.2074C81.6812 81.2277 84.859 78.0016 88.7791 78.0016L88.7791 60.674Z" fill="#F6C09D"/>
<ellipse cx="103.33" cy="80.5235" rx="2.48427" ry="2.52204" fill="#66CDD9"/>
<ellipse cx="126.753" cy="80.5235" rx="2.48427" ry="2.52204" fill="#66CDD9"/>
<path d="M112.202 90.2516C112.202 92.2413 113.791 93.8542 115.751 93.8542C117.711 93.8542 119.3 92.2411 119.3 90.2513V80.1631C119.3 79.3519 119.036 78.6032 118.59 78.001C118.59 78.0009 118.59 78.0011 118.59 78.001V88.0895C118.59 90.0794 117.001 91.6924 115.041 91.6924C113.88 91.6924 112.85 91.1265 112.202 90.2516Z" fill="#D88E8D"/>
<path d="M82.1402 72.1302C80.9736 67.6853 87.0984 54.3508 88.9942 49.7625C90.1608 47.7552 93.1649 43.9985 95.8482 45.0309C98.5314 46.0632 95.8482 49.7625 94.0982 52.3434C91.765 57.1611 94.4871 62.5714 96.1398 64.6743C95.4592 65.3434 93.8065 67.1692 92.6399 69.1192C91.4733 71.0692 91.4733 76.814 91.6191 79.4427H85.4943C84.7651 78.4868 83.0735 75.6861 82.1402 72.1302Z" fill="#7B7B7B"/>
<path d="M99.4358 71.585C97.313 71.1403 95.7056 72.9561 95.1672 73.9196C95.5902 73.9196 96.6208 74.053 97.3592 74.5867C98.2821 75.2537 98.403 76.28 100.589 77.0324C102.205 77.5883 105.666 76.4766 107.165 76.4766C108.365 76.4766 109.665 77.5142 110.165 78.033C110.319 77.8847 110.591 77.6995 110.776 76.8101C111.006 75.6984 105.401 74.9202 104.05 74.3643C102.635 73.7817 102.089 72.1409 99.4358 71.585Z" fill="#7B7B7B"/>
<path d="M108.78 81.3681C107.973 82.4057 105.896 84.4809 104.05 84.4809C101.743 84.4809 99.8972 84.7033 97.3592 82.3687M95.1672 73.9196C95.7056 72.9561 97.313 71.1403 99.4358 71.585C102.089 72.1409 102.635 73.7817 104.05 74.3643C105.401 74.9202 111.006 75.6984 110.776 76.8101C110.591 77.6995 110.319 77.8847 110.165 78.033C109.665 77.5142 108.365 76.4766 107.165 76.4766C105.666 76.4766 102.205 77.5883 100.589 77.0324C98.403 76.28 98.2821 75.2537 97.3592 74.5867C96.6208 74.053 95.5902 73.9196 95.1672 73.9196Z" stroke="#7B7B7B"/>
<path d="M130.647 71.585C132.77 71.1403 134.377 72.9561 134.916 73.9196C134.493 73.9196 133.462 74.053 132.724 74.5867C131.801 75.2537 131.68 76.28 129.493 77.0324C127.878 77.5883 124.417 76.4766 122.917 76.4766C121.718 76.4766 120.418 77.5142 119.918 78.033C119.764 77.8847 119.492 77.6995 119.307 76.8101C119.076 75.6984 124.682 74.9202 126.032 74.3643C127.448 73.7817 127.994 72.1409 130.647 71.585Z" fill="#7B7B7B"/>
<path d="M121.302 81.3681C122.11 82.4057 124.187 84.4809 126.032 84.4809C128.34 84.4809 130.186 84.7033 132.724 82.3687M134.916 73.9196C134.377 72.9561 132.77 71.1403 130.647 71.585C127.994 72.1409 127.448 73.7817 126.032 74.3643C124.682 74.9202 119.076 75.6984 119.307 76.8101C119.492 77.6995 119.764 77.8847 119.918 78.033C120.418 77.5142 121.718 76.4766 122.917 76.4766C124.417 76.4766 127.878 77.5883 129.493 77.0324C131.68 76.28 131.801 75.2537 132.724 74.5867C133.462 74.053 134.493 73.9196 134.916 73.9196Z" stroke="#7B7B7B"/>
<path d="M148.959 71.8255C150.174 67.1954 143.794 53.3053 141.819 48.5258C140.604 46.4349 137.475 42.5217 134.68 43.5971C131.884 44.6724 134.68 48.5258 136.502 51.2143C138.933 56.2327 136.097 61.8684 134.376 64.059C135.085 64.756 136.806 66.6578 138.021 68.689C139.237 70.7203 139.237 76.7045 139.085 79.4427H145.465C146.224 78.447 147.986 75.5296 148.959 71.8255Z" fill="#7B7B7B"/>
<path d="M102.975 104.663C103.697 103.969 105.357 102.517 106.224 102.261C107.306 101.941 111.483 101.781 112.411 101.781C113.34 101.781 113.649 102.261 115.041 102.261C116.434 102.261 116.743 101.781 117.671 101.781C118.599 101.781 122.776 101.941 123.859 102.261C124.725 102.517 126.386 103.969 127.108 104.663" stroke="#7B7B7B"/>
<path d="M115.273 55.369C110.857 55.9219 110.021 49.7016 103.694 47.6281C98.7325 46.002 94.9786 50.8289 93.3089 53.1573C92.7592 53.2034 91.1124 52.6874 90.9214 50.2545C90.6827 47.2134 93.7863 45.4164 95.8157 43.0665C97.845 40.7166 111.334 37.1226 116.467 36.8461C121.6 36.5697 139.387 46.2458 141.058 49.4251C142.729 52.6044 144.52 58.8248 142.61 55.369C141.088 52.6164 138.494 52.9699 137.136 53.1549L137.119 53.1573C135.487 54.125 132.941 54.125 129.717 53.1573C125.58 51.9152 119.69 54.8161 115.273 55.369Z" fill="#555555"/>
<path d="M115.606 53.5104C111.327 54.0455 110.518 48.0258 104.389 46.0192C99.5823 44.4455 95.9457 49.1167 94.3281 51.37C93.7956 51.4146 92.2003 50.9152 92.0153 48.5608C91.784 45.6179 94.7907 41.6362 96.7566 39.362C98.7225 37.0879 110.063 34.0459 115.041 34.0459C126.806 34.0459 138.966 42.9424 140.585 46.0192C142.204 49.0959 143.939 56.8547 142.088 53.5104C140.614 50.8465 138.101 51.1887 136.786 51.3677L136.769 51.37C135.188 52.3064 132.721 52.3064 129.599 51.37C125.591 50.168 119.885 52.9753 115.606 53.5104Z" fill="#7B7B7B"/>
<g clip-path="url(#clip5_13_9793)">
<path d="M73.8735 150.766C73.8735 140.824 81.9324 132.766 91.8735 132.766H136.79C146.731 132.766 154.79 140.825 154.79 150.766V207C154.79 216.941 146.731 225 136.79 225H91.8736C81.9324 225 73.8735 216.941 73.8735 207V150.766Z" fill="#F5A35A"/>
<path d="M73.8735 146.047C73.8735 138.712 79.5936 132.766 86.6498 132.766H142.013C149.07 132.766 154.79 138.712 154.79 146.047V211.718C154.79 219.054 149.07 225 142.013 225H86.6498C79.5936 225 73.8735 219.054 73.8735 211.718V146.047Z" fill="#F5A35A"/>
<path d="M114.332 202.864L98.3613 132.766H129.592L114.332 202.864Z" fill="#E3E3E3"/>
<path d="M109.363 132.766L111.492 140.144L110.073 166.339H117.881L116.461 140.144L118.59 132.766H109.363Z" fill="#66CDD9"/>
<path d="M93.0378 132.766H100.136L135.27 225H128.172L93.0378 132.766Z" fill="#F2CF21"/>
<path d="M86.6497 132.766H93.0378L128.172 225H121.784L86.6497 132.766Z" fill="#3C8519"/>
<path d="M100.136 132.766H106.524L141.658 225H135.27L100.136 132.766Z" fill="#3C8519"/>
</g>
</g>
<g filter="url(#filter5_d_13_9793)">
<rect x="348.777" y="89.9993" width="22.7133" height="17.294" fill="#F6C09D"/>
<path d="M371.49 99.6886C368.166 101.329 364.433 102.249 360.488 102.249H359.069C355.402 102.249 351.919 101.454 348.777 100.025V93.6023H371.49V99.6886Z" fill="#D88E8D"/>
<path fill-rule="evenodd" clip-rule="evenodd" d="M333.871 35.2016C333.871 20.8933 345.47 9.29419 359.778 9.29419C374.087 9.29419 385.686 20.8933 385.686 35.2015L385.686 52.5291C389.606 52.5291 392.784 55.7553 392.784 59.735C392.784 63.7146 389.606 66.9408 385.686 66.9408L385.686 72.0185C385.686 86.3267 374.087 97.9258 359.778 97.9258C345.47 97.9258 333.871 86.3267 333.871 72.0185L333.871 66.9408C329.951 66.9408 326.773 63.7146 326.773 59.735C326.773 55.7553 329.951 52.5291 333.871 52.5291L333.871 35.2016Z" fill="#F6C09D"/>
<ellipse cx="348.422" cy="55.0511" rx="2.48427" ry="2.52204" fill="#66CDD9"/>
<ellipse cx="371.845" cy="55.0511" rx="2.48427" ry="2.52204" fill="#66CDD9"/>
<path d="M357.294 64.7792C357.294 66.7689 358.883 68.3818 360.843 68.3818C362.803 68.3818 364.392 66.7687 364.392 64.7789V54.6907C364.392 53.8794 364.128 53.1308 363.682 52.5286C363.682 52.5285 363.682 52.5287 363.682 52.5286V62.6171C363.682 64.6069 362.093 66.22 360.133 66.22C358.972 66.22 357.942 65.6541 357.294 64.7792Z" fill="#D88E8D"/>
<path d="M327.232 46.6578C326.065 42.2129 332.19 28.8783 334.086 24.2901C335.253 22.2828 338.257 18.5261 340.94 19.5585C343.623 20.5908 340.94 24.2901 339.19 26.871C336.857 31.6886 339.579 37.0989 341.232 39.2019C340.551 39.871 338.898 41.6967 337.732 43.6467C336.565 45.5968 336.565 51.3416 336.711 53.9703H330.586C329.857 53.0144 328.165 50.2137 327.232 46.6578Z" fill="#7B7B7B"/>
<path d="M344.528 46.1126C342.405 45.6679 340.797 47.4837 340.259 48.4472C340.682 48.4472 341.713 48.5806 342.451 49.1142C343.374 49.7813 343.495 50.8075 345.681 51.56C347.296 52.1159 350.757 51.0042 352.257 51.0042C353.457 51.0042 354.757 52.0418 355.257 52.5606C355.41 52.4123 355.683 52.227 355.868 51.3377C356.098 50.226 350.493 49.4478 349.142 48.8919C347.727 48.3092 347.181 46.6685 344.528 46.1126Z" fill="#7B7B7B"/>
<path d="M353.872 55.8957C353.065 56.9333 350.988 59.0085 349.142 59.0085C346.835 59.0085 344.989 59.2308 342.451 56.8962M340.259 48.4472C340.797 47.4837 342.405 45.6679 344.528 46.1126C347.181 46.6685 347.727 48.3092 349.142 48.8919C350.493 49.4478 356.098 50.226 355.868 51.3377C355.683 52.227 355.41 52.4123 355.257 52.5606C354.757 52.0418 353.457 51.0042 352.257 51.0042C350.757 51.0042 347.296 52.1159 345.681 51.56C343.495 50.8075 343.374 49.7813 342.451 49.1142C341.713 48.5806 340.682 48.4472 340.259 48.4472Z" stroke="#7B7B7B"/>
<path d="M375.739 46.1126C377.862 45.6679 379.469 47.4837 380.007 48.4472C379.584 48.4472 378.554 48.5806 377.815 49.1142C376.892 49.7813 376.772 50.8075 374.585 51.56C372.97 52.1159 369.509 51.0042 368.009 51.0042C366.809 51.0042 365.51 52.0418 365.01 52.5606C364.856 52.4123 364.583 52.227 364.399 51.3377C364.168 50.226 369.774 49.4478 371.124 48.8919C372.54 48.3092 373.085 46.6685 375.739 46.1126Z" fill="#7B7B7B"/>
<path d="M366.394 55.8957C367.202 56.9333 369.278 59.0085 371.124 59.0085C373.431 59.0085 375.277 59.2308 377.815 56.8962M380.007 48.4472C379.469 47.4837 377.862 45.6679 375.739 46.1126C373.085 46.6685 372.54 48.3092 371.124 48.8919C369.774 49.4478 364.168 50.226 364.399 51.3377C364.583 52.227 364.856 52.4123 365.01 52.5606C365.51 52.0418 366.809 51.0042 368.009 51.0042C369.509 51.0042 372.97 52.1159 374.585 51.56C376.772 50.8075 376.892 49.7813 377.815 49.1142C378.554 48.5806 379.584 48.4472 380.007 48.4472Z" stroke="#7B7B7B"/>
<path d="M394.05 46.3531C395.266 41.723 388.886 27.8329 386.911 23.0534C385.696 20.9624 382.566 17.0493 379.771 18.1247C376.976 19.2 379.771 23.0534 381.594 25.7419C384.025 30.7602 381.189 36.396 379.468 38.5865C380.176 39.2835 381.898 41.1854 383.113 43.2166C384.329 45.2479 384.329 51.2321 384.177 53.9703H390.557C391.316 52.9746 393.078 50.0571 394.05 46.3531Z" fill="#7B7B7B"/>
<path d="M348.067 79.1907C348.789 78.4968 350.449 77.0449 351.315 76.7887C352.398 76.4685 356.575 76.3083 357.503 76.3083C358.432 76.3083 358.741 76.7887 360.133 76.7887C361.525 76.7887 361.835 76.3083 362.763 76.3083C363.691 76.3083 367.868 76.4685 368.951 76.7887C369.817 77.0449 371.478 78.4968 372.2 79.1907" stroke="#7B7B7B"/>
<path d="M360.365 29.8966C355.949 30.4495 355.113 24.2292 348.786 22.1557C343.824 20.5296 340.071 25.3565 338.401 27.6849C337.851 27.731 336.204 27.2149 336.013 24.7821C335.775 21.741 338.878 19.944 340.908 17.5941C342.937 15.2442 356.426 11.6502 361.559 11.3737C366.692 11.0973 384.479 20.7734 386.15 23.9527C387.821 27.132 389.612 33.3524 387.702 29.8966C386.18 27.1439 383.586 27.4975 382.228 27.6825L382.21 27.6849C380.579 28.6525 378.032 28.6525 374.809 27.6849C370.672 26.4428 364.782 29.3437 360.365 29.8966Z" fill="#555555"/>
<path d="M360.698 28.038C356.419 28.5731 355.61 22.5533 349.481 20.5468C344.674 18.9731 341.038 23.6443 339.42 25.8976C338.887 25.9422 337.292 25.4428 337.107 23.0884C336.876 20.1455 339.883 16.1637 341.848 13.8896C343.814 11.6155 355.155 8.57349 360.133 8.57349C371.898 8.57349 384.058 17.47 385.677 20.5468C387.296 23.6235 389.03 31.3823 387.18 28.038C385.706 25.3741 383.193 25.7162 381.878 25.8953L381.861 25.8976C380.28 26.834 377.813 26.834 374.691 25.8976C370.683 24.6956 364.977 27.5029 360.698 28.038Z" fill="#7B7B7B"/>
<g clip-path="url(#clip6_13_9793)">
<path d="M318.965 125.293C318.965 115.352 327.024 107.293 336.965 107.293H381.881C391.823 107.293 399.881 115.352 399.881 125.293V181.528C399.881 191.469 391.823 199.528 381.881 199.528H336.965C327.024 199.528 318.965 191.469 318.965 181.528V125.293Z" fill="#59A6EA"/>
<path d="M318.965 120.575C318.965 113.24 324.685 107.293 331.742 107.293H387.105C394.161 107.293 399.881 113.24 399.881 120.575V186.246C399.881 193.581 394.161 199.528 387.105 199.528H331.742C324.685 199.528 318.965 193.581 318.965 186.246V120.575Z" fill="#59A6EA"/>
<path d="M359.423 177.391L343.453 107.293H374.684L359.423 177.391Z" fill="#E3E3E3"/>
<path d="M354.455 107.293L356.584 114.672L355.165 140.867H362.972L361.553 114.672L363.682 107.293H354.455Z" fill="#66CDD9"/>
<path d="M338.13 107.293H345.228L380.362 199.528H373.264L338.13 107.293Z" fill="#F2CF21"/>
<path d="M331.742 107.293H338.13L373.264 199.528H366.876L331.742 107.293Z" fill="#3C8519"/>
<path d="M345.228 107.293H351.616L386.75 199.528H380.362L345.228 107.293Z" fill="#3C8519"/>
</g>
</g>
<g filter="url(#filter6_d_13_9793)">
<path d="M296.688 111.241V125H318.688V110.775C314.449 113.716 310.044 115.463 307.344 115.463C304.789 115.463 300.709 113.899 296.688 111.241Z" fill="#9E5D56"/>
<path d="M296.688 106.472C300.709 109.13 304.789 110.694 307.344 110.694C310.044 110.694 314.449 108.947 318.688 106.007V110.775C314.449 113.716 310.044 115.463 307.344 115.463C304.789 115.463 300.709 113.899 296.688 111.241V106.472Z" fill="#65353A"/>
<path d="M307.344 39.1626C294.624 39.1626 284.312 49.3803 284.312 61.9845V70.5001C280.516 70.5001 277.438 73.5502 277.438 77.3126C277.438 81.075 280.516 84.1251 284.312 84.1251V87.872C284.312 100.476 300.812 110.694 307.344 110.694C313.875 110.694 330.375 100.476 330.375 87.872V84.1251C334.172 84.1251 337.25 81.075 337.25 77.3126C337.25 73.5502 334.172 70.5001 330.375 70.5001V61.9845C330.375 49.3803 320.064 39.1626 307.344 39.1626Z" fill="#9E5D56"/>
<path d="M304.938 86.1691C304.938 88.0502 306.477 89.575 308.375 89.575C310.273 89.575 311.812 88.05 311.812 86.1688V76.6313C311.812 75.8643 311.557 75.1565 311.125 74.5872C311.125 74.5871 311.125 74.5873 311.125 74.5872V84.125C311.125 86.0062 309.586 87.5313 307.687 87.5313C306.563 87.5313 305.565 86.9963 304.938 86.1691Z" fill="#65353A"/>
<ellipse cx="296.344" cy="76.972" rx="2.40625" ry="2.38437" fill="#30333A"/>
<ellipse cx="319.031" cy="76.972" rx="2.40625" ry="2.38437" fill="#30333A"/>
<path d="M294.701 33.3333C292.752 33.7457 289.706 34.39 285.901 38.4738C282.814 41.7862 280.493 52.5893 279.733 59.9334C277.447 61.8852 275.431 65.2823 276.029 69.4512C273.371 69.4512 269.658 71.2508 269.658 80.5487C267.456 81.1485 263.189 84.2678 263.735 91.946C264.574 103.73 280.459 106.332 290.616 106.943C292.627 107.063 294.652 107.163 296.688 107.24V105.953C290.429 101.82 284.36 95.1035 284.36 87.4375L284.313 84.0555C280.516 84.0555 277.438 81.0085 277.438 77.2499C277.438 73.4913 280.516 70.4444 284.313 70.4444C284.313 67.1524 284.175 67.9493 284.313 64.6596C285.998 64.057 289.795 63.4989 291.531 61.9374C295.431 58.4296 297.849 53.6069 298.063 51.3531L297.93 50.1739C299.74 52.9477 301.653 56.5162 305.625 58.5346C313.463 62.5173 324.795 62.4487 330.031 63.9791C330.362 67.6172 330.375 66.797 330.375 70.4444C334.172 70.4444 337.202 73.4188 337.202 77.1774C337.202 80.936 334.172 84.0555 330.375 84.0555V87.3719C330.375 94.7568 324.699 101.322 318.688 105.488V107.239C320.716 107.162 322.735 107.063 324.739 106.943C334.896 106.332 350.781 103.73 351.62 91.946C352.167 84.2678 349.274 81.1485 347.072 80.5487C347.072 71.2508 341.984 69.4512 339.327 69.4512C339.902 65.4364 338.054 62.1375 335.875 60.1558C335.839 47.4446 331.475 40.0126 326.303 36.8296C318.534 32.0488 303.675 31.435 294.701 33.3333Z" fill="#4C150E"/>
<path d="M299.438 93.5833C301.765 96.3041 308.994 93.5833 317.079 93.5833C308.258 103.378 308.626 105.011 299.438 93.5833Z" fill="#ACACAC" stroke="#ACACAC"/>
<path d="M267.812 137.433C267.812 130.505 273.353 124.889 280.187 124.889H333.812C340.647 124.889 346.187 130.505 346.187 137.433V199.456C346.187 206.384 340.647 212 333.812 212H280.187C273.353 212 267.812 206.384 267.812 199.456V137.433Z" fill="#F3F6F8"/>
<path d="M307.683 139.524C315.656 139.524 322.12 132.971 322.12 124.889H293.245C293.245 132.971 299.709 139.524 307.683 139.524Z" fill="#9E5D56"/>
</g>
</g>
<defs>
<filter id="filter0_d_13_9793" x="19" y="-8" width="99.8096" height="213.615" filterUnits="userSpaceOnUse" color-interpolation-filters="sRGB">
<feFlood flood-opacity="0" result="BackgroundImageFix"/>
<feColorMatrix in="SourceAlpha" type="matrix" values="0 0 0 0 0 0 0 0 0 0 0 0 0 0 0 0 0 0 127 0" result="hardAlpha"/>
<feOffset dy="4"/>
<feGaussianBlur stdDeviation="2"/>
<feComposite in2="hardAlpha" operator="out"/>
<feColorMatrix type="matrix" values="0 0 0 0 0 0 0 0 0 0 0 0 0 0 0 0 0 0 0.25 0"/>
<feBlend mode="normal" in2="BackgroundImageFix" result="effect1_dropShadow_13_9793"/>
<feBlend mode="normal" in="SourceGraphic" in2="effect1_dropShadow_13_9793" result="shape"/>
</filter>
<filter id="filter1_d_13_9793" x="121.463" y="-16" width="98.8531" height="213.615" filterUnits="userSpaceOnUse" color-interpolation-filters="sRGB">
<feFlood flood-opacity="0" result="BackgroundImageFix"/>
<feColorMatrix in="SourceAlpha" type="matrix" values="0 0 0 0 0 0 0 0 0 0 0 0 0 0 0 0 0 0 127 0" result="hardAlpha"/>
<feOffset dy="4"/>
<feGaussianBlur stdDeviation="2"/>
<feComposite in2="hardAlpha" operator="out"/>
<feColorMatrix type="matrix" values="0 0 0 0 0 0 0 0 0 0 0 0 0 0 0 0 0 0 0.25 0"/>
<feBlend mode="normal" in2="BackgroundImageFix" result="effect1_dropShadow_13_9793"/>
<feBlend mode="normal" in="SourceGraphic" in2="effect1_dropShadow_13_9793" result="shape"/>
</filter>
<filter id="filter2_d_13_9793" x="207.273" y="-16" width="99.8096" height="213.615" filterUnits="userSpaceOnUse" color-interpolation-filters="sRGB">
<feFlood flood-opacity="0" result="BackgroundImageFix"/>
<feColorMatrix in="SourceAlpha" type="matrix" values="0 0 0 0 0 0 0 0 0 0 0 0 0 0 0 0 0 0 127 0" result="hardAlpha"/>
<feOffset dy="4"/>
<feGaussianBlur stdDeviation="2"/>
<feComposite in2="hardAlpha" operator="out"/>
<feColorMatrix type="matrix" values="0 0 0 0 0 0 0 0 0 0 0 0 0 0 0 0 0 0 0.25 0"/>
<feBlend mode="normal" in2="BackgroundImageFix" result="effect1_dropShadow_13_9793"/>
<feBlend mode="normal" in="SourceGraphic" in2="effect1_dropShadow_13_9793" result="shape"/>
</filter>
<filter id="filter3_d_13_9793" x="157.064" y="19.385" width="99.8096" height="213.615" filterUnits="userSpaceOnUse" color-interpolation-filters="sRGB">
<feFlood flood-opacity="0" result="BackgroundImageFix"/>
<feColorMatrix in="SourceAlpha" type="matrix" values="0 0 0 0 0 0 0 0 0 0 0 0 0 0 0 0 0 0 127 0" result="hardAlpha"/>
<feOffset dy="4"/>
<feGaussianBlur stdDeviation="2"/>
<feComposite in2="hardAlpha" operator="out"/>
<feColorMatrix type="matrix" values="0 0 0 0 0 0 0 0 0 0 0 0 0 0 0 0 0 0 0.25 0"/>
<feBlend mode="normal" in2="BackgroundImageFix" result="effect1_dropShadow_13_9793"/>
<feBlend mode="normal" in="SourceGraphic" in2="effect1_dropShadow_13_9793" result="shape"/>
</filter>
<filter id="filter4_d_13_9793" x="64.905" y="17.4724" width="98.8533" height="215.528" filterUnits="userSpaceOnUse" color-interpolation-filters="sRGB">
<feFlood flood-opacity="0" result="BackgroundImageFix"/>
<feColorMatrix in="SourceAlpha" type="matrix" values="0 0 0 0 0 0 0 0 0 0 0 0 0 0 0 0 0 0 127 0" result="hardAlpha"/>
<feOffset dy="4"/>
<feGaussianBlur stdDeviation="2"/>
<feComposite in2="hardAlpha" operator="out"/>
<feColorMatrix type="matrix" values="0 0 0 0 0 0 0 0 0 0 0 0 0 0 0 0 0 0 0.25 0"/>
<feBlend mode="normal" in2="BackgroundImageFix" result="effect1_dropShadow_13_9793"/>
<feBlend mode="normal" in="SourceGraphic" in2="effect1_dropShadow_13_9793" result="shape"/>
</filter>
<filter id="filter5_d_13_9793" x="309.997" y="-8" width="98.8531" height="215.528" filterUnits="userSpaceOnUse" color-interpolation-filters="sRGB">
<feFlood flood-opacity="0" result="BackgroundImageFix"/>
<feColorMatrix in="SourceAlpha" type="matrix" values="0 0 0 0 0 0 0 0 0 0 0 0 0 0 0 0 0 0 127 0" result="hardAlpha"/>
<feOffset dy="4"/>
<feGaussianBlur stdDeviation="2"/>
<feComposite in2="hardAlpha" operator="out"/>
<feColorMatrix type="matrix" values="0 0 0 0 0 0 0 0 0 0 0 0 0 0 0 0 0 0 0.25 0"/>
<feBlend mode="normal" in2="BackgroundImageFix" result="effect1_dropShadow_13_9793"/>
<feBlend mode="normal" in="SourceGraphic" in2="effect1_dropShadow_13_9793" result="shape"/>
</filter>
<filter id="filter6_d_13_9793" x="259" y="16" width="96.6875" height="204" filterUnits="userSpaceOnUse" color-interpolation-filters="sRGB">
<feFlood flood-opacity="0" result="BackgroundImageFix"/>
<feColorMatrix in="SourceAlpha" type="matrix" values="0 0 0 0 0 0 0 0 0 0 0 0 0 0 0 0 0 0 127 0" result="hardAlpha"/>
<feOffset dy="4"/>
<feGaussianBlur stdDeviation="2"/>
<feComposite in2="hardAlpha" operator="out"/>
<feColorMatrix type="matrix" values="0 0 0 0 0 0 0 0 0 0 0 0 0 0 0 0 0 0 0.25 0"/>
<feBlend mode="normal" in2="BackgroundImageFix" result="effect1_dropShadow_13_9793"/>
<feBlend mode="normal" in="SourceGraphic" in2="effect1_dropShadow_13_9793" result="shape"/>
</filter>
<clipPath id="clip0_13_9793">
<rect width="429" height="163" fill="white"/>
</clipPath>
<clipPath id="clip1_13_9793">
<rect width="81.7679" height="91.3845" fill="white" transform="translate(28.0208 106.231)"/>
</clipPath>
<clipPath id="clip2_13_9793">
<rect width="80.9161" height="91.3845" fill="white" transform="translate(130.431 98.2307)"/>
</clipPath>
<clipPath id="clip3_13_9793">
<rect width="81.7679" height="91.3845" fill="white" transform="translate(216.294 98.2307)"/>
</clipPath>
<clipPath id="clip4_13_9793">
<rect width="81.7679" height="91.3845" fill="white" transform="translate(166.084 133.616)"/>
</clipPath>
<clipPath id="clip5_13_9793">
<rect width="80.9161" height="92.2346" fill="white" transform="translate(73.8735 132.766)"/>
</clipPath>
<clipPath id="clip6_13_9793">
<rect width="80.9161" height="92.2346" fill="white" transform="translate(318.965 107.293)"/>
</clipPath>
</defs>
</svg>
