<svg width="23" height="21" viewBox="0 0 23 21" fill="none" xmlns="http://www.w3.org/2000/svg">
<path d="M22.083 2.84332C22.083 1.27892 20.8041 0 19.2397 0H10.7682C9.20376 0 7.92484 1.27892 7.92484 2.84332V5.86297C7.92484 6.34682 8.33932 6.7613 8.82317 6.7613C9.30702 6.7613 9.7215 6.34682 9.7215 5.86297V2.84332C9.7215 2.59723 9.78446 2.42089 9.8745 2.29033C9.96594 2.15775 10.0958 2.05743 10.2506 1.98228C10.567 1.82875 10.9538 1.79666 11.2004 1.79666H18.8075C19.054 1.79666 19.4409 1.82875 19.7573 1.98228C19.9121 2.05743 20.0419 2.15775 20.1333 2.29033C20.2234 2.42089 20.2863 2.59723 20.2863 2.84332V17.971C20.2863 18.2171 20.2234 18.3935 20.1333 18.524C20.0419 18.6566 19.9121 18.7569 19.7573 18.8321C19.4409 18.9856 19.054 19.0177 18.8075 19.0177H11.2004C10.9538 19.0177 10.567 18.9856 10.2506 18.8321C10.0958 18.7569 9.96594 18.6566 9.8745 18.524C9.78446 18.3935 9.7215 18.2171 9.7215 17.971V14.9514C9.7215 14.4675 9.30702 14.0531 8.82317 14.0531C8.33932 14.0531 7.92484 14.4675 7.92484 14.9514V17.971C7.92484 19.5354 9.20376 20.8144 10.7682 20.8144H19.2397C20.8041 20.8144 22.083 19.5354 22.083 17.971V2.84332Z" fill="white"/>
<path d="M5.18872 4.78456L0.369658 9.56597C-0.121767 10.0536 -0.123325 10.8477 0.366184 11.3372L5.05906 16.0301C5.25214 16.2232 5.49985 16.2762 5.71128 16.2762C5.9227 16.2762 6.17041 16.2232 6.3635 16.0301C6.72046 15.6731 6.72046 15.1258 6.3635 14.7689L2.94351 11.3489H13.8802C14.3641 11.3489 14.7786 10.9344 14.7786 10.4505C14.7786 9.96669 14.3641 9.5522 13.8802 9.5522H2.94351L6.44994 6.04577C6.8069 5.68881 6.8069 5.14152 6.44994 4.78456C6.09312 4.42773 5.5457 4.42802 5.18872 4.78456Z" fill="white"/>
</svg>
