<svg width="234" height="234" viewBox="0 0 234 234" fill="none" xmlns="http://www.w3.org/2000/svg">
<g id="logo" clip-path="url(#clip0)">
<circle id="Ellipse 59" cx="117" cy="117" r="117" fill="#F2CF21"/>
<path id="Intersect" d="M203.28 196.025C182.981 218.176 154.264 232.485 122.196 233.887V215.083C122.196 204.558 130.728 196.025 141.254 196.025H203.28Z" fill="#C64875"/>
<path id="Subtract" d="M41.7057 188.765H24.5876C45.9945 216.291 79.4293 234 117 234C119.251 234 121.487 233.936 123.706 233.811V207.823C123.706 197.298 115.173 188.765 104.647 188.765H81.3045V194.059C81.3045 194.059 80.067 203.98 70.786 203.98C61.5051 203.98 41.7057 194.059 41.7057 194.059V188.765Z" fill="#418BCC"/>
<path id="Vector" d="M160.656 196H197.656V163.763C207.767 156.685 217.312 145.531 217.312 132.984V126.625C223.698 126.625 228.875 121.448 228.875 115.062C228.875 108.677 223.698 103.5 217.312 103.5V89.0469C217.312 67.6545 199.971 50.3125 178.578 50.3125C157.186 50.3125 139.844 67.6545 139.844 89.0469V103.5C133.458 103.5 128.281 108.677 128.281 115.062C128.281 121.448 133.458 126.625 139.844 126.625V132.984C139.844 146.009 150.13 157.532 160.656 164.554V196Z" fill="#F6C09D"/>
<g id="Vector_2">
<path d="M160.656 164.554C167.419 169.065 174.281 171.719 178.578 171.719C183.12 171.719 190.528 168.754 197.656 163.763V171.857C190.528 176.847 183.12 179.813 178.578 179.813C174.281 179.813 167.419 177.159 160.656 172.647V164.554Z" fill="#D88E8D"/>
<path d="M174.531 130.094C174.532 133.287 177.12 135.875 180.312 135.875C183.505 135.875 186.094 133.287 186.094 130.094V113.906C186.094 112.605 185.664 111.403 184.938 110.437V126.625C184.938 129.818 182.349 132.406 179.156 132.406C177.265 132.406 175.586 131.498 174.531 130.094Z" fill="#D88E8D"/>
</g>
<g id="Vector_3">
<path d="M164.125 114.484C164.125 116.719 162.313 118.531 160.078 118.531C157.843 118.531 156.031 116.719 156.031 114.484C156.031 112.249 157.843 110.438 160.078 110.438C162.313 110.438 164.125 112.249 164.125 114.484Z" fill="#4C150E"/>
<path d="M202.281 114.484C202.281 116.719 200.47 118.531 198.235 118.531C196 118.531 194.188 116.719 194.188 114.484C194.188 112.249 196 110.438 198.235 110.438C200.47 110.438 202.281 112.249 202.281 114.484Z" fill="#4C150E"/>
<path d="M228.934 151.164C232.228 140.356 234 128.885 234 117C234 95.7841 228.353 75.8872 218.481 58.7302C206.011 41.7378 187.81 37.413 178.727 37.5995H176.766C165.857 37.3861 142.354 43.6643 130.857 70.4804C125.904 82.035 120.872 90.5648 116.752 97.5505C108.909 110.846 104.366 118.548 109.938 130.864C116.737 145.892 131.075 154.57 137.395 157.03C135.216 154.346 130.857 147.905 130.857 143.611C140.785 155.652 150.4 162.258 161.639 165.196C150.78 158.247 139.844 146.414 139.844 132.984V126.625C133.458 126.625 128.281 121.448 128.281 115.062C128.281 108.677 133.458 103.5 139.844 103.5V89.0469C139.844 87.9343 139.891 86.8328 139.983 85.744C141.488 85.6295 143.165 85.3475 144.929 85.0509C148.994 84.3673 153.518 83.6065 157.451 84.6434C158.115 84.8186 158.827 84.4547 159 83.7901L162.885 68.9405L160.602 84.7227C160.529 85.2262 160.784 85.7157 161.25 85.9186C171.673 90.4532 196.661 94.6933 217.313 92.4964V103.5C223.699 103.5 228.875 108.677 228.875 115.062C228.875 121.448 223.699 126.625 217.313 126.625V132.984C217.313 146.046 206.967 157.598 196.409 164.614C206.78 161.428 215.824 154.914 225.143 143.611C225.143 147.905 220.785 154.346 218.605 157.03C221.111 156.055 224.877 154.102 228.934 151.164Z" fill="#4C150E"/>
</g>
<path id="Intersect_2" d="M15.7188 58.3852C25.232 41.9827 38.6155 28.1039 54.6195 17.9987H70.5535C90.1596 17.9987 106.053 33.8925 106.053 53.4987V85.9281C106.987 86.4248 107.771 87.2212 108.245 88.2579L116.461 106.214C117.61 108.725 116.507 111.695 113.998 112.848L111.836 113.841C109.806 114.773 107.477 114.231 106.053 112.659V126.021C101.783 127.032 92.4001 128.225 84.3978 125.867C73.8794 122.767 93.06 146.324 102.96 144.464C103.642 144.336 104.29 144.179 104.903 143.999C101.825 155.784 92.8419 165.183 81.3042 168.844V194.059C81.3042 194.059 80.0667 203.98 70.7858 203.98C61.5048 203.98 41.7054 194.059 41.7054 194.059V169.212C26.719 165.054 15.7188 151.312 15.7188 135.001V58.3852Z" fill="#C46C4E"/>
<g id="Vector_4">
<path d="M165.281 142.812C169.196 147.435 181.353 142.812 194.952 142.812C180.117 159.454 180.735 162.228 165.281 142.812Z" fill="#8B3923"/>
<path d="M41.7059 169.212V176.652C44.7336 177.492 47.924 177.941 51.2192 177.941H70.5539C74.3015 177.941 77.9135 177.36 81.3047 176.284V168.844C77.9135 169.921 74.3015 170.501 70.5539 170.501H51.2192C47.924 170.501 44.7336 170.052 41.7059 169.212Z" fill="#8B3923"/>
<path d="M52.1487 115.195C50.8218 115.682 49.3885 115.948 47.8932 115.948C41.0589 115.948 35.5186 110.397 35.5186 103.549C35.5186 99.1882 37.7655 95.3532 41.1627 93.1429C36.4249 94.8814 33.0437 99.4395 33.0437 104.789C33.0437 111.636 38.584 117.187 45.4183 117.187C47.9002 117.187 50.2115 116.455 52.1487 115.195Z" fill="#8B3923"/>
</g>
<g id="Intersect_3">
<path d="M9.11922 71.636C19.1753 47.7505 36.9323 27.9036 59.2814 15.2044C62.466 15.397 65.6446 15.7166 68.7808 16.032C75.3122 16.6887 81.6593 17.3268 87.4916 16.7613C93.908 16.1392 98.8011 15.1005 102.704 14.2721C110.467 12.6241 114.311 11.8083 118.428 16.7588C124.615 24.198 116.572 56.4345 101.722 61.3939C95.8045 63.3703 88.4127 63.0823 81.3092 62.8055C70.5879 62.3876 60.5232 61.9954 57.1738 69.4529C53.0973 78.5294 58.0356 97.6416 61.7484 108.264C62.2109 109.588 61.2386 110.988 59.8368 110.988H58.6021C57.7477 110.988 56.9876 110.445 56.7103 109.637L50.4515 91.3945C50.3959 91.2325 50.3205 91.0774 50.2218 90.9373C46.4172 85.5405 37.2948 84.419 31.1871 91.1505C27.9644 94.7023 28.0815 104.297 28.1989 113.913C28.3188 123.736 28.439 133.579 24.9998 137.025C20.1806 141.854 13.39 136.354 9.60507 131.874C8.86163 130.994 9.09735 129.625 9.72084 128.656C11.7771 125.461 13.7836 117.732 11.3877 102.929C9.92987 93.9216 8.80476 82.8585 9.11922 71.636Z" fill="#30333A"/>
<path d="M81.923 99.8294C84.315 99.8294 86.2541 97.8865 86.2541 95.4899C86.2541 93.0933 84.315 91.1504 81.923 91.1504C79.531 91.1504 77.5919 93.0933 77.5919 95.4899C77.5919 97.8865 79.531 99.8294 81.923 99.8294Z" fill="#30333A"/>
</g>
</g>
<defs>
<clipPath id="clip0">
<rect width="234" height="234" fill="white"/>
</clipPath>
</defs>
</svg>
