<svg width="200" height="202" viewBox="0 0 200 202" fill="none" xmlns="http://www.w3.org/2000/svg">
<g clip-path="url(#clip0_1091_23003)">
<rect width="200" height="202" rx="100" fill="#6092BD"/>
<g filter="url(#filter0_d_1091_23003)">
<path d="M87.7993 112.839V129.14H113.627V112.287C108.652 115.771 103.48 117.84 100.31 117.84C97.3104 117.84 92.5203 115.988 87.7993 112.839Z" fill="#9E5D56"/>
<path d="M87.7993 107.188C92.5203 110.338 97.3104 112.19 100.31 112.19C103.48 112.19 108.652 110.12 113.627 106.637V112.287C108.652 115.77 103.48 117.84 100.31 117.84C97.3104 117.84 92.5203 115.988 87.7993 112.838V107.188Z" fill="#65353A"/>
<path d="M100.31 27.4414C85.3767 27.4414 73.271 39.5471 73.271 54.4802V64.5693C68.8133 64.5693 65.1997 68.183 65.1997 72.6406C65.1997 77.0983 68.8133 80.7119 73.271 80.7119V85.1511C73.271 100.084 92.6421 112.19 100.31 112.19C107.978 112.19 127.349 100.084 127.349 85.1511V80.7119C131.806 80.7119 135.42 77.0983 135.42 72.6406C135.42 68.183 131.806 64.5693 127.349 64.5693V54.4802C127.349 39.5471 115.243 27.4414 100.31 27.4414Z" fill="#9E5D56"/>
<path d="M97.4849 83.1341C97.4851 85.3628 99.2918 87.1694 101.521 87.1694C103.749 87.1694 105.556 85.3626 105.556 83.1337V71.8339C105.556 70.9252 105.256 70.0867 104.749 69.4121C104.749 69.412 104.749 69.4123 104.749 69.4121V80.7123C104.749 82.9412 102.942 84.748 100.713 84.748C99.3932 84.748 98.2211 84.1141 97.4849 83.1341Z" fill="#65353A"/>
<circle cx="87.3958" cy="72.2371" r="2.82495" fill="#30333A"/>
<circle cx="114.031" cy="72.2371" r="2.82495" fill="#30333A"/>
<path d="M85.5353 20.5178C83.2425 21.006 79.6603 21.7687 75.1845 26.603C71.5541 30.5242 68.8246 43.3127 67.9304 52.0065C65.2416 54.317 62.8707 58.3383 63.5739 63.2735C60.448 63.2735 56.0811 65.4038 56.0811 76.4104C53.4911 77.1205 48.4719 80.813 49.115 89.9023C50.1018 103.852 68.7843 106.932 80.7306 107.655C83.0953 107.798 85.4775 107.915 87.8711 108.007V106.484C80.5098 101.591 73.3728 93.64 73.3728 84.5652L73.3164 80.5616C68.8507 80.5616 65.2305 76.9547 65.2305 72.5054C65.2305 68.056 68.8507 64.4491 73.3164 64.4491C73.3164 60.5522 73.1545 61.4956 73.3164 57.6013C75.2985 56.8878 79.7649 56.2272 81.8066 54.3788C86.3933 50.2263 89.2374 44.5173 89.4883 41.8492L89.3324 40.4534C91.4607 43.737 93.7108 47.9612 98.3828 50.3506C107.601 55.0652 120.929 54.984 127.088 56.7956C127.477 61.1023 127.492 60.1314 127.492 64.4491C131.958 64.4491 135.522 67.9701 135.522 72.4195C135.522 76.8688 131.958 80.5616 127.492 80.5616V84.4875C127.492 93.2297 120.817 101.001 113.746 105.933V108.006C116.132 107.915 118.507 107.797 120.864 107.655C132.81 106.932 151.492 103.852 152.479 89.9023C153.122 80.813 149.72 77.1205 147.13 76.4104C147.13 65.4038 141.146 63.2735 138.02 63.2735C138.698 58.5208 136.524 54.6156 133.961 52.2697C133.918 37.2225 128.786 28.4247 122.703 24.6567C113.566 18.9972 96.0893 18.2707 85.5353 20.5178Z" fill="#4C150E"/>
<path d="M111.32 93.4531H100.008C96.0654 93.4531 92.553 95.8764 91.2504 99.4954L91.1055 99.8981H109.001L111.32 93.4531Z" fill="#333333"/>
<g clip-path="url(#clip1_1091_23003)">
<path d="M53.9101 143.75C53.9101 135.549 60.4265 128.9 68.4648 128.9H131.535C139.573 128.9 146.09 135.549 146.09 143.75V217.171C146.09 225.372 139.573 232.021 131.535 232.021H68.4648C60.4265 232.021 53.9101 225.372 53.9101 217.171V143.75Z" fill="#F2CF21"/>
<path d="M100.803 146.225C110.181 146.225 117.784 138.468 117.784 128.9H83.8226C83.8226 138.468 91.425 146.225 100.803 146.225Z" fill="#9E5D56"/>
</g>
</g>
</g>
<defs>
<filter id="filter0_d_1091_23003" x="48.25" y="0" width="104.309" height="236.021" filterUnits="userSpaceOnUse" color-interpolation-filters="sRGB">
<feFlood flood-opacity="0" result="BackgroundImageFix"/>
<feColorMatrix in="SourceAlpha" type="matrix" values="0 0 0 0 0 0 0 0 0 0 0 0 0 0 0 0 0 0 127 0" result="hardAlpha"/>
<feOffset dy="4"/>
<feComposite in2="hardAlpha" operator="out"/>
<feColorMatrix type="matrix" values="0 0 0 0 0 0 0 0 0 0 0 0 0 0 0 0 0 0 0.1 0"/>
<feBlend mode="normal" in2="BackgroundImageFix" result="effect1_dropShadow_1091_23003"/>
<feBlend mode="normal" in="SourceGraphic" in2="effect1_dropShadow_1091_23003" result="shape"/>
</filter>
<clipPath id="clip0_1091_23003">
<rect width="200" height="202" rx="100" fill="white"/>
</clipPath>
<clipPath id="clip1_1091_23003">
<rect width="92.1797" height="103.12" fill="white" transform="translate(53.9102 128.9)"/>
</clipPath>
</defs>
</svg>
