<svg width="63" height="79" viewBox="0 0 63 79" fill="none" xmlns="http://www.w3.org/2000/svg">
<path d="M21.625 66.375H41.625V79H21.625V66.375Z" fill="#E2A56B"/>
<path d="M41.625 73.8738C38.6978 75.3109 35.4109 76.117 31.9375 76.117H30.6875C27.4592 76.117 24.392 75.4207 21.625 74.1686V68.542H41.625V73.8738Z" fill="#9D6445"/>
<path fill-rule="evenodd" clip-rule="evenodd" d="M8.49992 23.8105C8.49992 11.2115 18.7134 0.998047 31.3124 0.998047C43.9114 0.998047 54.1249 11.2116 54.1249 23.8106V33.4824C56.6516 31.7551 59.4821 31.4184 61.2124 32.872C63.4921 34.7872 62.9987 39.0849 60.1104 42.4712C58.3555 44.5286 56.1203 45.7762 54.1249 46.009V49.5168C54.1249 62.1158 43.9114 72.3293 31.3124 72.3293C18.7134 72.3293 8.49992 62.1158 8.49992 49.5168V46.0576C6.56733 45.7562 4.44041 44.5275 2.75601 42.5527C-0.132346 39.1665 -0.625762 34.8688 1.65394 32.9536C3.32929 31.5461 6.03611 31.8171 8.49992 33.4037V23.8105Z" fill="#E2A56B"/>
<path d="M24.75 54.0229C27.412 54.7577 33.3889 55.7863 38.5 54.0229C34.3588 57.0164 30.375 59.1156 24.75 54.0229Z" fill="#252C4A"/>
<ellipse cx="21.3125" cy="34.1386" rx="2.1875" ry="2.20938" fill="#252C4A"/>
<ellipse cx="41.9375" cy="34.1386" rx="2.1875" ry="2.20938" fill="#252C4A"/>
<path d="M27.25 42.3879C27.2502 44.1308 28.8824 45.5437 30.8958 45.5437H32.3542C34.3677 45.5437 36 44.1307 36 42.3876V33.5503C36 32.8396 35.7287 32.1838 35.2708 31.6563C35.2708 31.6562 35.2708 31.6564 35.2708 31.6563V40.4939C35.2708 42.237 33.6385 43.65 31.625 43.65H30.1667C28.974 43.65 27.9152 43.1543 27.25 42.3879Z" fill="#9D6445"/>
<path d="M18.8126 29.4046C16.5626 29.6571 16.2084 30.9827 16.3126 31.6139H16C15.7917 31.4035 15.6444 29.9433 16.625 28.4577C18.5 25.6171 21.7293 27.7212 25.3751 27.8264L26.625 30.3514C24.75 29.9306 21.0626 29.1521 18.8126 29.4046Z" fill="#C4C4C4"/>
<path d="M44.4374 29.4046C46.6874 29.6571 47.0416 30.9827 46.9374 31.6139H47.25C47.4583 31.4035 47.6056 29.9433 46.625 28.4577C44.75 25.6171 41.5207 27.7212 37.8749 27.8264L36.625 30.3514C38.5 29.9306 42.1874 29.1521 44.4374 29.4046Z" fill="#C4C4C4"/>
<path d="M25.375 35.7168C25.375 36.5585 24 38.2418 18.5 38.2418" stroke="#9D6445"/>
<path d="M37.875 35.7168C37.875 36.5585 39.25 38.2418 44.75 38.2418" stroke="#9D6445"/>
<path d="M10.3915 43.9854H8.84309C8.31206 41.4571 8.03375 30.9651 7.52395 25.6559C6.88671 19.0193 8.38359 15.8432 14.4374 7.31046C20.4912 -1.22224 38.6716 0.873855 45.9999 5.41672C51.0978 8.57697 56.9102 16.8072 57.2288 21.2315C57.4837 24.771 55.3618 40.8188 54.7245 44.9272C54.0873 46.9287 52.8128 44.9272 52.8128 44.9272C52.8128 44.9272 53.0868 32.2924 50.5378 27.8681C47.9888 23.4437 46.3957 15.227 45.1212 10.8027C22.8178 15.8591 20.5874 10.1706 16.4453 10.8027C17.4012 16.8071 13.5778 26.92 11.666 32.2924C10.1366 36.5904 10.1791 41.8785 10.3915 43.9854Z" fill="#4F4F4F"/>
<path d="M9.80582 43.9604L9.125 45.5012C8.58732 42.9383 4.15993 31.713 5.37491 24.9856C6.57576 18.3363 7.68295 15.9602 13.8124 7.31057C19.9419 -1.33902 37.5498 -0.450757 44.9696 4.15434C50.1313 7.35788 55.8063 14.5699 57.2286 20.8948C59.75 32.1072 54.7702 43.2303 54.125 47.3949C53.4798 49.4238 52.7573 44.9151 52.7573 44.9151C52.7573 44.9151 53.0347 32.1072 50.4539 27.6223C47.8731 23.1373 46.2601 14.8081 44.9696 10.3231C22.3874 15.4488 20.1291 9.68238 15.9353 10.3231C16.9031 16.4098 13.0319 26.6612 11.0962 32.1072C9.54774 36.4641 9.59075 41.8247 9.80582 43.9604Z" fill="#C4C4C4"/>
<path d="M31.0751 58.608C16.0137 58.8472 10.035 46.1824 9.43728 39.5044C9.43728 41.0991 7.87467 45.1856 8.66228 53.8238C9.59985 64.1068 20.2755 72.9606 31.0751 72.9606C47.5623 72.9606 53.7806 61.8903 54.0856 54.4218C54.3855 47.0794 53.4724 45.5345 52.8748 40.4513C52.3767 46.1325 46.1365 58.3688 31.0751 58.608Z" fill="#E0E0E0"/>
<path d="M17.8749 51.8135C20.1249 49.036 27.1457 47.0791 31.6249 47.0791C36.1041 47.0791 43.75 49.036 46 51.8135C48.25 54.591 46.9375 55.2853 46 55.601C43.5 53.8124 38.6249 51.8135 31.6249 51.8135C24.6249 51.8135 20.3749 54.4437 17.8749 56.2322C16.9374 55.9166 15.6249 54.591 17.8749 51.8135Z" fill="#E0E0E0"/>
<path d="M14.6814 49.5068C14.4536 51.0681 14.2872 54.8079 15.4432 57.277" stroke="#9D6445" stroke-linecap="round"/>
<path d="M47.9512 49.5073C48.1757 51.0691 48.3346 54.8092 47.1735 57.2758" stroke="#9D6445" stroke-linecap="round"/>
</svg>
