<svg width="115" height="261" viewBox="0 0 115 261" fill="none" xmlns="http://www.w3.org/2000/svg">
<g filter="url(#filter0_d)">
<path d="M43.6406 125.449V143.5H72.1406V124.838C66.6503 128.695 60.9438 130.987 57.4453 130.987C54.1357 130.987 48.85 128.936 43.6406 125.449Z" fill="#9E5D56"/>
<path d="M43.6406 119.193C48.85 122.68 54.1357 124.731 57.4453 124.731C60.9438 124.731 66.6503 122.439 72.1406 118.582V124.838C66.6503 128.696 60.9438 130.988 57.4453 130.988C54.1357 130.988 48.85 128.936 43.6406 125.449V119.193Z" fill="#65353A"/>
<path d="M57.4453 30.8867C40.9674 30.8867 27.6094 44.2916 27.6094 60.8273V71.9992C22.6906 71.9992 18.7031 76.0007 18.7031 80.9367C18.7031 85.8728 22.6906 89.8742 27.6094 89.8742V94.7898C27.6094 111.326 48.9844 124.73 57.4453 124.73C65.9062 124.73 87.2812 111.326 87.2812 94.7898V89.8742C92.2 89.8742 96.1875 85.8728 96.1875 80.9367C96.1875 76.0007 92.2 71.9992 87.2812 71.9992V60.8273C87.2812 44.2916 73.9232 30.8867 57.4453 30.8867Z" fill="#9E5D56"/>
<path d="M54.3281 92.556C54.3284 95.0238 56.322 97.0243 58.7812 97.0243C61.2406 97.0243 63.2344 95.0236 63.2344 92.5556V80.0431C63.2344 79.0368 62.903 78.1083 62.3438 77.3614C62.3438 77.3612 62.3438 77.3615 62.3438 77.3614V89.8743C62.3438 92.3423 60.35 94.3431 57.8906 94.3431C56.4339 94.3431 55.1406 93.6412 54.3281 92.556Z" fill="#65353A"/>
<ellipse cx="43.1953" cy="80.4895" rx="3.11719" ry="3.12812" fill="#30333A"/>
<ellipse cx="72.5859" cy="80.4895" rx="3.11719" ry="3.12812" fill="#30333A"/>
<path d="M41.0679 23.1838C38.5424 23.7234 34.5968 24.5666 29.667 29.9109C25.6683 34.2458 22.6619 48.3836 21.6769 57.9946C18.7153 60.5489 16.104 64.9945 16.8785 70.4503C13.4355 70.4503 8.62558 72.8054 8.62558 84.9732C5.77284 85.7582 0.244438 89.8404 0.952703 99.8886C2.03968 115.31 22.6175 118.715 35.7757 119.514C38.3803 119.672 41.0043 119.802 43.6406 119.904V118.219C35.5326 112.811 27.6715 104.021 27.6715 93.9884L27.6094 89.5625C22.6906 89.5625 18.7031 85.575 18.7031 80.6562C18.7031 75.7375 22.6906 71.75 27.6094 71.75C27.6094 67.4419 27.4311 68.4848 27.6094 64.1797C29.7925 63.391 34.712 62.6607 36.9609 60.6172C42.0129 56.0266 45.1455 49.7153 45.4219 46.7657L45.2502 45.2226C47.5944 48.8526 50.0727 53.5225 55.2188 56.1641C65.3725 61.3761 80.0524 61.2863 86.8359 63.2891C87.2641 68.0501 87.2813 66.9767 87.2813 71.75C92.2001 71.75 96.1254 75.6425 96.1254 80.5613C96.1254 85.4801 92.2001 89.5625 87.2813 89.5625V93.9026C87.2813 103.567 79.9284 112.158 72.1406 117.611V119.903C74.7685 119.801 77.384 119.672 79.9803 119.514C93.1385 118.715 113.716 115.31 114.803 99.8886C115.512 89.8404 111.764 85.7582 108.911 84.9732C108.911 72.8054 102.32 70.4503 98.8775 70.4503C99.6234 65.1962 97.2291 60.879 94.406 58.2856C94.3593 41.6508 88.7064 31.9248 82.0062 27.7593C71.9424 21.5027 52.6926 20.6995 41.0679 23.1838Z" fill="#4C150E"/>
<path d="M47.2031 102.031C50.2186 105.592 59.5825 102.031 70.0574 102.031C58.6302 114.85 59.1064 116.986 47.2031 102.031Z" fill="#ACACAC" stroke="#ACACAC"/>
<g clip-path="url(#clip0)">
<path d="M6.23435 159.416C6.23435 150.35 13.4118 143 22.2656 143H91.7344C100.588 143 107.766 150.35 107.766 159.416V240.584C107.766 249.65 100.588 257 91.7344 257H22.2656C13.4118 257 6.23435 249.65 6.23435 240.584V159.416Z" fill="#F3F6F8"/>
<path d="M57.8845 162.152C68.214 162.152 76.5876 153.577 76.5876 143H39.1814C39.1814 153.577 47.5551 162.152 57.8845 162.152Z" fill="#9E5D56"/>
</g>
<path d="M25.8281 193.766L47.6484 216.477L89.9531 175.953" stroke="#41CA7B" stroke-width="12"/>
</g>
<defs>
<filter id="filter0_d" x="0" y="0.5" width="114.891" height="260.5" filterUnits="userSpaceOnUse" color-interpolation-filters="sRGB">
<feFlood flood-opacity="0" result="BackgroundImageFix"/>
<feColorMatrix in="SourceAlpha" type="matrix" values="0 0 0 0 0 0 0 0 0 0 0 0 0 0 0 0 0 0 127 0" result="hardAlpha"/>
<feOffset dy="4"/>
<feComposite in2="hardAlpha" operator="out"/>
<feColorMatrix type="matrix" values="0 0 0 0 0 0 0 0 0 0 0 0 0 0 0 0 0 0 0.1 0"/>
<feBlend mode="normal" in2="BackgroundImageFix" result="effect1_dropShadow"/>
<feBlend mode="normal" in="SourceGraphic" in2="effect1_dropShadow" result="shape"/>
</filter>
<clipPath id="clip0">
<rect width="101.531" height="114" fill="white" transform="translate(6.23438 143)"/>
</clipPath>
</defs>
</svg>
