<svg width="80" height="101" viewBox="0 0 80 101" fill="none" xmlns="http://www.w3.org/2000/svg">
<path d="M30 91.5312H50V101H30V91.5312Z" fill="#CDCDCD"/>
<rect x="30" y="85.8501" width="20" height="5.68124" fill="#ACACAC"/>
<path d="M25 19.5688C20.5127 19.5688 16.875 23.2429 16.875 27.7751V50.5313C16.6694 50.5107 16.4609 50.5001 16.25 50.5001C12.7982 50.5001 10 53.3263 10 56.8126C10 60.2989 12.7982 63.1251 16.25 63.1251C16.4609 63.1251 16.6694 63.1145 16.875 63.0939V77.6439C16.875 82.176 20.5127 85.8501 25 85.8501H55.625C60.1123 85.8501 63.75 82.176 63.75 77.6439V63.1251C67.2018 63.1251 70 60.2989 70 56.8126C70 53.3263 67.2018 50.5001 63.75 50.5001V27.7751C63.75 23.2429 60.1123 19.5688 55.625 19.5688H25Z" fill="#CDCDCD"/>
</svg>
