<svg width="80" height="101" viewBox="0 0 80 101" fill="none" xmlns="http://www.w3.org/2000/svg">
<path d="M30 91.5312H50V101H30V91.5312Z" fill="#CDCDCD"/>
<rect x="30" y="85.8501" width="20" height="5.68124" fill="#ACACAC"/>
<path d="M25 19.5688C20.5127 19.5688 16.875 23.2429 16.875 27.7751V50.5313C16.6694 50.5107 16.4609 50.5001 16.25 50.5001C12.7982 50.5001 10 53.3263 10 56.8126C10 60.2989 12.7982 63.1251 16.25 63.1251C16.4609 63.1251 16.6694 63.1145 16.875 63.0939V77.6439C16.875 82.176 20.5127 85.8501 25 85.8501H55.625C60.1123 85.8501 63.75 82.176 63.75 77.6439V63.1251C67.2018 63.1251 70 60.2989 70 56.8126C70 53.3263 67.2018 50.5001 63.75 50.5001V27.7751C63.75 23.2429 60.1123 19.5688 55.625 19.5688H25Z" fill="#CDCDCD"/>
<path d="M36.5955 60.1765C36.6387 57.5754 36.9305 55.5208 37.4709 54.0126C38.0113 52.5044 39.1136 50.8323 40.7779 48.9963L45.0251 44.5701C46.8407 42.4936 47.7485 40.2641 47.7485 37.8817C47.7485 35.5866 47.1541 33.7943 45.9653 32.5047C44.7765 31.1932 43.0474 30.5375 40.7779 30.5375C38.5732 30.5375 36.8009 31.1276 35.4608 32.308C34.1207 33.4883 33.4506 35.0729 33.4506 37.062H27.4527C27.4959 33.5211 28.7387 30.6686 31.1812 28.5047C33.6452 26.319 36.8441 25.2261 40.7779 25.2261C44.863 25.2261 48.0403 26.3408 50.3097 28.5703C52.6009 30.7779 53.7464 33.8161 53.7464 37.6849C53.7464 41.51 51.9957 45.2805 48.4942 48.9963L44.9602 52.5372C43.3824 54.3077 42.5935 56.8541 42.5935 60.1765H36.5955ZM36.3361 70.5698C36.3361 69.5862 36.6279 68.7665 37.2115 68.1108C37.8167 67.4332 38.7029 67.0944 39.8701 67.0944C41.0372 67.0944 41.9234 67.4332 42.5286 68.1108C43.1338 68.7665 43.4364 69.5862 43.4364 70.5698C43.4364 71.5534 43.1338 72.373 42.5286 73.0288C41.9234 73.6626 41.0372 73.9796 39.8701 73.9796C38.7029 73.9796 37.8167 73.6626 37.2115 73.0288C36.6279 72.373 36.3361 71.5534 36.3361 70.5698Z" fill="#F2F2F2"/>
</svg>
