<svg width="59" height="89" viewBox="0 0 59 89" fill="none" xmlns="http://www.w3.org/2000/svg">
<path d="M20.125 74H40.125V89H20.125V74Z" fill="#F6C09D"/>
<path d="M40.125 81.5C37.1978 82.9229 33.9109 84.625 30.4375 84.625H29.1875C25.9592 84.625 22.892 82.7397 20.125 81.5V77.125H40.125V81.5Z" fill="#C99281"/>
<path d="M7 26.1875C7 13.9337 16.9337 4 29.1875 4H30.4375C42.6913 4 52.625 13.9337 52.625 26.1875V41.5C56.0768 41.5 58.875 44.2982 58.875 47.75C58.875 51.2018 56.0768 54 52.625 54V58.6875C52.625 64.32 48.8957 68.8373 45.4375 72.75C41.3722 77.3496 37.0588 80.875 30.4375 80.875H29.1875C23.4622 80.875 19.4076 76.9701 15.75 73.375C10.6235 68.336 7 62.6998 7 58.6875V54C3.54822 54 0.75 51.2018 0.75 47.75C0.75 44.2982 3.54822 41.5 7 41.5V26.1875Z" fill="#F6C09D"/>
<path d="M10.8805 44.3125L7.44298 40.875C6.40131 36.6042 1.10765 31.8125 2.1305 20.5625C3.35223 7.12501 9.00552 0.25 29.318 0.25C49.6305 0.25 55.2555 6.1875 57.1305 19.9375C58.3236 28.6875 53.693 36.5 52.443 40.875L49.318 43.6875C49.6305 39.9375 50.2555 30.75 50.2555 26.5C50.2555 13.6875 34.943 17.125 29.318 17.125C23.693 17.125 9.31798 14.3125 8.69298 26.5C8.36654 32.8654 9.83881 41.3958 10.8805 44.3125Z" fill="#4C150E"/>
<path d="M25.8804 6.81229C29.9429 9.93751 29.6304 13.6873 29.0054 17.1246L28.1692 17.0912C27.9781 15.9179 27.6524 14.2807 27.1219 12.0524C26.4708 9.31802 24.3399 7.10001 21.998 5.44754C19.6497 3.79051 17.0411 2.66791 15.3486 2.13898L15.3017 2.28891C15.0528 2.20573 14.8284 2.15166 14.6304 2.12466C17.9637 1.49966 22.7473 4.40208 25.8804 6.81229Z" fill="#663E3E"/>
<path d="M18.3374 4.02088C19.4133 4.54593 20.5547 5.19404 21.6377 5.95821C23.9312 7.57658 25.9149 9.68148 26.5139 12.1971C27.0233 14.3367 27.341 15.921 27.5316 17.0657L25.5059 16.9846C24.9962 13.946 22.9929 11.6422 20.7034 9.99603C18.6465 8.51705 16.3315 7.54805 14.5766 7.03555C17.6511 6.32887 20.1155 6.61369 22.083 7.48255C20.7153 5.99483 19.4503 4.85771 18.3374 4.02088Z" fill="#663E3E"/>
<path d="M13.6584 7.27132L13.6213 7.42894C15.3597 7.83799 18.0234 8.83883 20.3386 10.5035C22.0617 11.7425 23.5715 13.3337 24.3799 15.305C22.3752 12.4576 19.4904 10.7994 16.6804 9.88231C13.9631 8.99547 11.2928 8.79343 9.50481 8.88453C10.9942 8.16315 12.3763 7.63419 13.6584 7.27132Z" fill="#663E3E"/>
<path d="M8.40227 9.44362L8.43174 9.6204C9.94339 9.36846 13.1738 9.3953 16.4865 10.4765C19.6135 11.497 22.7815 13.4453 24.6617 16.9509L21.1929 16.8121C20.8804 15.1454 16.5054 7.43729 4.00537 12.1246C5.56149 11.0599 7.02539 10.1725 8.40227 9.44362Z" fill="#663E3E"/>
<path d="M45.8104 7.37045C34.8678 4.16549 30.1715 12.2102 29.0054 17.1246L29.5381 17.094L29.3339 17.0259C30.2919 14.152 33.9895 8.20722 41.1596 7.439C42.858 7.25703 44.411 7.25308 45.8104 7.37045Z" fill="#663E3E"/>
<path d="M48.8763 8.5009C46.8592 7.99884 44.2939 7.73176 41.2262 8.06045C34.5221 8.77874 30.9759 14.2648 29.9802 17.0685L36.8179 16.675C37.1304 15.0083 42.7554 7.43744 55.2554 12.1248C52.9516 10.5486 50.8291 9.36088 48.8763 8.5009Z" fill="#663E3E"/>
<path d="M22 43.0625C22 44.2706 21.0206 45.25 19.8125 45.25C18.6044 45.25 17.625 44.2706 17.625 43.0625C17.625 41.8544 18.6044 40.875 19.8125 40.875C21.0206 40.875 22 41.8544 22 43.0625Z" fill="#4C150E"/>
<path d="M42.625 43.0625C42.625 44.2706 41.6456 45.25 40.4375 45.25C39.2294 45.25 38.25 44.2706 38.25 43.0625C38.25 41.8544 39.2294 40.875 40.4375 40.875C41.6456 40.875 42.625 41.8544 42.625 43.0625Z" fill="#4C150E"/>
<path d="M42.9375 61.5C33.1875 63.5 22.8333 60.6667 18.875 59C23.7397 65.6716 24.1875 68.375 30.125 68.8911C37.6542 69.5456 37.3853 66.0112 42.9375 61.5Z" fill="#4C150E"/>
<path d="M17 36.3337C14.25 35.8337 12.9375 37.792 12.625 38.8336C12.7292 38.2087 13.217 34.9904 15.75 34.1461C17.625 33.5212 24.1875 35.0837 24.8125 35.3962C25.4449 35.7125 25.0208 37.2712 24.8125 38.2087C24.1875 38.5212 19.75 36.8337 17 36.3337Z" fill="#4C150E"/>
<path d="M43.8958 36.3337C46.6458 35.8337 47.9583 37.792 48.2708 38.8336C48.1667 38.2087 47.6788 34.9904 45.1458 34.1461C43.2708 33.5212 36.7083 35.0837 36.0833 35.3962C35.4509 35.7125 35.875 37.2712 36.0833 38.2087C36.7083 38.5212 41.1458 36.8337 43.8958 36.3337Z" fill="#4C150E"/>
<path d="M18.875 59C22.8333 60.6667 33.1875 63.5 42.9375 61.5C41.0676 63.0193 41.5071 62.2 40.4375 63.375C32.625 67.125 25.125 64.625 21.0625 61.8125C20.2666 60.6435 20.0431 60.602 18.875 59Z" fill="white"/>
<path d="M23.6727 65.7713C25.2617 67.6661 26.8668 68.6079 30.125 68.8911C33.4645 69.1814 35.5403 68.2026 37 67.125C30.7079 67.93 26.375 67.125 23.6727 65.7713Z" fill="white"/>
<path d="M27.625 51.5001C27.6252 53.2259 29.0242 54.6248 30.75 54.6248C32.4759 54.6248 33.875 53.2257 33.875 51.4998V42.7498C33.875 42.0462 33.6425 41.3969 33.25 40.8745V49.6248C33.25 51.3507 31.8509 52.7498 30.125 52.7498C29.1028 52.7498 28.1952 52.259 27.625 51.5001Z" fill="#C99281"/>
<path fill-rule="evenodd" clip-rule="evenodd" d="M13.4966 43.2913C13.0529 43.1195 12.5919 43.0623 12.3125 43.0623L12.3125 42.4373C12.6581 42.4373 13.1971 42.5051 13.7222 42.7084C14.246 42.9112 14.7941 43.2643 15.092 43.8601L15.3778 44.4316L14.7512 44.3063C13.6224 44.0805 13.0214 44.5936 12.885 44.7982L12.365 44.4515C12.5884 44.1163 13.1788 43.6594 14.1039 43.6269C13.9261 43.4876 13.7182 43.3771 13.4966 43.2913ZM46.8403 42.7084C47.3654 42.5051 47.9044 42.4373 48.25 42.4373L48.25 43.0623C47.9706 43.0623 47.5096 43.1195 47.066 43.2913C46.8443 43.3771 46.6364 43.4876 46.4587 43.6269C47.3838 43.6594 47.9741 44.1163 48.1975 44.4515L47.6775 44.7982C47.5411 44.5936 46.9401 44.0805 45.8113 44.3063L45.1847 44.4316L45.4705 43.8601C45.7684 43.2643 46.3166 42.9112 46.8403 42.7084ZM23.6935 46.471C20.327 48.0248 17.7166 46.9171 16.7942 46.11L17.2058 45.6396C17.9501 46.2909 20.298 47.3498 23.4316 45.9036L23.6935 46.471ZM37.131 45.9036C40.2645 47.3498 42.6125 46.2909 43.3567 45.6396L43.7683 46.11C42.8459 46.9171 40.2355 48.0248 36.8691 46.471L37.131 45.9036ZM14.8286 62.2236C13.7926 59.1157 14.8206 56.5933 15.5 55.6873L16 56.0623C15.4295 56.823 14.4575 59.1339 15.4215 62.026L14.8286 62.2236ZM16.6333 57.496C16.8708 57.0704 17.1987 56.7414 17.4375 56.5623L17.8125 57.0623C17.6347 57.1957 17.3688 57.4605 17.1792 57.8005C16.9909 58.138 16.8907 58.5243 16.9907 58.924L16.3843 59.0756C16.2343 58.4754 16.3945 57.9241 16.6333 57.496ZM45.4583 63.8876C46.6671 60.745 45.7595 58.2526 45.4628 57.5604L46.0373 57.3142C46.3656 58.0803 47.333 60.7546 46.0417 64.112L45.4583 63.8876ZM43.4762 60.3523C43.3669 60.2694 43.2887 60.2498 43.25 60.2498V59.6248C43.4717 59.6248 43.68 59.7225 43.8539 59.8544C44.031 59.9887 44.195 60.175 44.3343 60.3951C44.6134 60.8357 44.8125 61.4406 44.8125 62.1248H44.1875C44.1875 61.5591 44.0221 61.0702 43.8063 60.7295C43.6983 60.559 43.5823 60.4328 43.4762 60.3523Z" fill="#C99281"/>
<path fill-rule="evenodd" clip-rule="evenodd" d="M18.9108 58.6894L18.2023 58.6076L18.6225 59.1839C19.4645 60.3387 20.174 61.3745 20.8039 62.3026L20.8049 62.304C20.8228 62.3301 20.8408 62.3567 20.8589 62.3837C21.1896 62.8767 21.5255 63.5635 21.9192 64.3683C21.9698 64.4716 22.0213 64.5771 22.0739 64.6841C22.5303 65.6137 23.0576 66.6572 23.7137 67.6511C25.0263 69.6397 26.8813 71.4696 29.776 71.8102C35.0434 72.4299 37.4491 68.3441 38.5254 66.5162C38.6336 66.3324 38.7283 66.1715 38.8112 66.0405C39.0007 65.8347 39.1928 65.6222 39.3905 65.4034C40.3612 64.3292 41.468 63.1044 43.0753 61.7907C43.093 61.7817 43.1134 61.7695 43.1339 61.7529C43.1808 61.7152 43.2566 61.6292 43.2527 61.4961C43.2493 61.3784 43.1843 61.3047 43.1585 61.2788L43.0395 61.1599L42.8747 61.1937L42.7956 61.2098C42.7338 61.2055 42.612 61.1828 42.4099 61.1303C42.1913 61.0735 41.914 60.9917 41.579 60.8928L41.5582 60.8866C40.8943 60.6905 40.0256 60.4339 39.0171 60.1962C36.9984 59.7202 34.403 59.3154 31.7202 59.619C29.3505 58.8411 26.9918 58.7086 24.8135 58.7192C24.1371 58.7224 23.4827 58.7391 22.8517 58.7552C21.4106 58.792 20.0915 58.8256 18.9108 58.6894ZM21.5706 62.3196L21.3776 62.0349C21.3586 62.0065 21.3396 61.9785 21.3206 61.9509C20.8502 61.2579 20.3337 60.5022 19.7498 59.6804C24.1026 61.2955 33.0952 63.4787 41.8421 62.021C40.6296 63.0992 39.7176 64.1087 38.9198 64.9919C38.7178 65.2154 38.5231 65.431 38.3328 65.6374C37.3388 66.7153 36.4701 67.538 35.276 68.0524C34.0828 68.5664 32.5301 68.7863 30.152 68.5796C27.7575 68.3715 26.3131 67.8062 25.1038 66.7871C23.9263 65.7947 22.9552 64.3622 21.5706 62.3196Z" fill="#C99281"/>
</svg>
