<svg width="55" height="89" viewBox="0 0 55 89" fill="none" xmlns="http://www.w3.org/2000/svg">
<rect x="18" y="73.8501" width="20" height="15.15" fill="#F6C09D"/>
<path d="M38 78.9757V71.3252H28H18V79.4072C21.6557 81.8703 25.3649 83.319 27.6875 83.319C30.1426 83.319 34.1471 81.7002 38 78.9757Z" fill="#D88E8D"/>
<path fill-rule="evenodd" clip-rule="evenodd" d="M27.6875 13.25C16.124 13.25 6.75 22.7178 6.75 34.3969V42.2875C3.29822 42.2875 0.5 45.1137 0.5 48.6C0.5 52.0863 3.29822 54.9125 6.75 54.9125V58.3844C6.75 70.0635 21.75 79.5312 27.6875 79.5312C33.625 79.5312 48.625 70.0635 48.625 58.3844V54.9125C52.0768 54.9125 54.875 52.0863 54.875 48.6C54.875 45.1137 52.0768 42.2875 48.625 42.2875V34.3969C48.625 22.7178 39.251 13.25 27.6875 13.25Z" fill="#F6C09D"/>
<ellipse cx="17.6875" cy="48.2846" rx="2.1875" ry="2.20938" fill="#4C150E"/>
<ellipse cx="38.3125" cy="48.2846" rx="2.1875" ry="2.20938" fill="#4C150E"/>
<path d="M25.5 56.8066C25.5002 58.5496 26.8992 59.9625 28.625 59.9625C30.3509 59.9625 31.75 58.5494 31.75 56.8063V47.9688C31.75 47.2581 31.5174 46.6023 31.125 46.0747C31.125 46.0746 31.125 46.0748 31.125 46.0747V54.9125C31.125 56.6557 29.7259 58.0688 28 58.0688C26.9778 58.0688 26.0701 57.573 25.5 56.8066Z" fill="#D88E8D"/>
<path d="M18.6384 2.92829C7.24006 4.82368 7.15066 15.9198 8.5524 21.4617C10.8154 19.3415 13.5524 14.8335 21.365 13.571C27.6341 12.5578 33.5525 13.8866 38.24 15.7805C37.9479 8.64323 32.9919 0.54151 18.6384 2.92829Z" fill="#071F2D"/>
<path d="M36.8235 29.2874C32.8856 33.9273 27.0829 38.559 19.2667 39.447C5.06235 41.0608 5.70342 48.6001 5.06929 48.6001C4.75223 38.8501 2.54535 13.8813 26.3354 13.8813C37.1003 13.8814 41.3368 18.0216 42.4799 19.4532C43.768 19.8003 45.1641 20.3647 46.6288 21.2781C50.9419 23.9677 51.0681 39.2091 49.7994 44.8126C48.8482 42.235 45.6776 36.5419 40.6046 34.3902C38.6512 33.5616 37.4814 31.5933 36.8235 29.2874Z" fill="#071F2D"/>
<path d="M18.6384 1.66559C7.24006 3.56098 7.15066 14.6571 8.5524 20.199C10.8154 18.0788 13.5524 13.5708 21.365 12.3083C27.6341 11.2951 33.5525 12.6239 38.24 14.5178C37.9479 7.38054 32.9919 -0.721186 18.6384 1.66559Z" fill="#7B7B7B"/>
<path d="M36.6361 28.3048C32.6443 33.0291 26.7621 37.7449 18.8389 38.6491C4.43992 40.2922 5.08977 47.9687 4.44696 47.9687C4.12555 38.0414 1.88844 12.6186 26.0044 12.6187C36.9167 12.6187 41.2113 16.8342 42.37 18.2918C43.6758 18.6453 45.0911 19.2199 46.5757 20.1499C50.948 22.8884 51.0759 38.4069 49.7898 44.1123C48.8256 41.4878 45.6115 35.6912 40.469 33.5004C38.4889 32.6568 37.303 30.6526 36.6361 28.3048Z" fill="#7B7B7B"/>
<path d="M21.75 64.3813C24.0417 66.1699 29.875 68.6739 34.875 64.3813" stroke="#D88E8D"/>
<path d="M13.625 52.3873C18.625 53.1448 21.5417 51.0196 22.375 49.8623C21.9583 51.1248 20.8125 53.713 19.5625 53.9655" stroke="#D88E8D"/>
<path d="M43 52.3873C38 53.1448 35.0833 51.0196 34.25 49.8623C34.5625 50.9144 35.25 53.0186 35.5 53.0186" stroke="#D88E8D"/>
</svg>
