<svg width="66" height="92" viewBox="0 0 66 92" fill="none" xmlns="http://www.w3.org/2000/svg">
<rect x="22.625" y="76.8501" width="20" height="15.15" fill="#E2A56B"/>
<path d="M42.3726 85.5461C39.4265 87.0065 36.1129 87.8265 32.6097 87.8265H31.6348C28.3757 87.8265 25.2808 87.1168 22.4932 85.842V80.2515H42.3726V85.5461Z" fill="#9D6445"/>
<path fill-rule="evenodd" clip-rule="evenodd" d="M9.44719 29.07C9.44719 16.5469 19.5991 6.39502 32.1222 6.39502C44.6452 6.39502 54.7971 16.547 54.7971 29.07L54.7971 44.27C58.2281 44.27 61.0094 47.0962 61.0094 50.5825C61.0094 54.0688 58.2281 56.895 54.7971 56.895L54.7971 61.3638C54.7971 73.8869 44.6452 84.0388 32.1222 84.0388C19.5991 84.0388 9.44719 73.8868 9.44719 61.3638L9.44718 56.895C6.01621 56.895 3.23486 54.0688 3.23486 50.5825C3.23486 47.0962 6.01621 44.27 9.44718 44.27L9.44719 29.07Z" fill="#E2A56B"/>
<ellipse cx="22.1826" cy="45.8485" rx="2.17431" ry="2.20938" fill="#071F2D"/>
<ellipse cx="42.6831" cy="45.8485" rx="2.17431" ry="2.20938" fill="#071F2D"/>
<path d="M16.8566 39.7642C16.0202 40.9971 16.2757 43.7026 16.5081 44.9013C16.9727 44.1592 18.3202 42.367 19.993 41.1341C21.6658 39.9011 26.4983 42.3327 28.7054 43.7026V40.2779C27.3695 39.8212 24.1749 38.771 22.084 38.223C19.4702 37.5381 17.902 38.223 16.8566 39.7642Z" fill="#9D6445"/>
<path d="M51.1659 32.094C50.7096 30.3939 51.9897 28.2947 52.6868 27.4575L57.4398 25.3325C56.8694 27.5863 55.7287 33.0985 55.7287 37.1168C55.7287 42.1395 57.4398 46.1964 55.7287 47.1623C55.4245 46.0805 53.574 46.0676 52.6868 46.1964C52.9403 44.6509 53.4853 41.1736 53.6374 39.6282C53.8275 37.6963 51.7362 34.219 51.1659 32.094Z" fill="#F99723"/>
<path d="M4.17209 26.9945C3.8679 20.9671 8.35469 19.5891 10.6361 19.6535L25.4654 27.574C22.7404 27.7028 16.9101 28.5013 15.3891 30.665C13.8682 32.8287 14.2484 35.9454 14.6286 37.2333C14.0583 37.684 12.6514 39.2037 11.5868 41.6765C10.5221 44.1493 11.1431 48.3736 11.5868 50.1766H8.92509C8.92509 49.7902 8.773 48.6698 8.16462 47.2788C7.55624 45.8879 2.96805 46.0553 0.75 46.3129C2.1442 45.0894 4.97063 41.831 5.12272 38.5856C5.31284 34.5287 4.55233 34.5287 4.17209 26.9945Z" fill="#CA5D22"/>
<path d="M4.17209 26.3631C3.8679 20.3358 8.35469 18.9577 10.6361 19.0221L25.4654 26.9427C22.7404 27.0715 16.9101 27.87 15.3891 30.0336C13.8682 32.1973 14.2484 35.314 14.6286 36.6019C14.0583 37.0527 12.6514 38.5724 11.5868 41.0451C10.5221 43.5179 11.1431 47.7422 11.5868 49.5452H8.92509C8.92509 49.1589 8.773 48.0384 8.16462 46.6475C7.55624 45.2566 2.96805 45.424 0.75 45.6816C2.1442 44.4581 4.97063 41.1997 5.12272 37.9542C5.31284 33.8973 4.55233 33.8973 4.17209 26.3631Z" fill="#F99723"/>
<path d="M1.98455 19.7671C-0.120838 15.3249 3.96644 15.3842 6.27326 15.9691C5.70426 13.7489 4.25754 9.18735 3.02257 8.70241C6.33358 6.87909 10.2643 8.21221 11.8158 9.10668C11.8366 7.51924 11.6758 3.91723 10.866 2.20868C14.0801 1.03722 16.6302 3.56287 19.5676 6.29412C29.5155 -0.0418202 34.5923 4.14457 35.9452 4.75605C37.0276 5.24524 50.4798 8.02987 57.0706 9.36104C59.8362 10.4381 65.2485 13.8506 64.7733 18.884C64.1794 25.1758 52.6762 30.4731 41.4204 30.7866C30.1645 31.1001 4.61628 25.32 1.98455 19.7671Z" fill="#CA5D22"/>
<path d="M1.89933 18.2694C-0.085485 13.7702 3.99866 13.9432 6.28884 14.5922C5.77992 12.357 4.45674 7.75685 3.23531 7.23771C6.59423 5.50725 10.4875 6.9493 12.0143 7.88663C12.0779 6.30037 12.0143 2.69524 11.2509 0.96478C14.4953 -0.116758 16.9764 2.47894 19.8391 5.29094C29.954 -0.765674 34.9161 3.56048 36.252 4.2094C37.3208 4.72854 50.6928 7.88663 57.2453 9.40078C59.9808 10.5544 65.2991 14.1163 64.6884 19.1346C63.925 25.4075 52.2832 30.3826 41.0232 30.3826C29.7632 30.3826 4.38036 23.8934 1.89933 18.2694Z" fill="#F9B023"/>
<path d="M16.2355 39.1333C15.3991 40.3662 15.6546 43.0718 15.887 44.2704C16.3516 43.5284 17.6991 41.7361 19.3719 40.5032C21.0447 39.2703 25.8772 41.7019 28.0843 43.0718V39.647C26.7484 39.1904 23.5539 38.1401 21.4629 37.5922C18.8491 36.9072 17.2809 37.5922 16.2355 39.1333Z" fill="#F9B023"/>
<path d="M48.0092 39.7642C48.8456 40.9971 48.59 43.7026 48.3577 44.9013C47.893 44.1592 46.5455 42.367 44.8727 41.1341C43.2 39.9011 38.3675 42.3327 36.1603 43.7026V40.2779C37.4962 39.8212 40.6908 38.771 42.7818 38.223C45.3955 37.5381 46.9637 38.223 48.0092 39.7642Z" fill="#9D6445"/>
<path d="M48.6303 39.1333C49.4667 40.3662 49.2111 43.0718 48.9788 44.2704C48.5141 43.5284 47.1666 41.7361 45.4938 40.5032C43.821 39.2703 38.9886 41.7019 36.7814 43.0718V39.647C38.1173 39.1904 41.3119 38.1401 43.4029 37.5922C46.0166 36.9072 47.5848 37.5922 48.6303 39.1333Z" fill="#F9B023"/>
<path d="M29.9478 54.378V54.3891C29.9478 56.1217 31.3385 57.5263 33.054 57.5263C34.7694 57.5263 36.1601 56.1217 36.1601 54.3891V45.5135C36.1601 44.8071 35.9289 44.1553 35.5389 43.6309V52.4953C35.5389 54.228 34.1482 55.6326 32.4327 55.6326C31.4166 55.6326 30.5145 55.1398 29.9478 54.378Z" fill="#9D6445"/>
<path fill-rule="evenodd" clip-rule="evenodd" d="M21.9932 50.89C20.1957 50.9576 18.4708 50.5957 17.4231 50.2381L17.6232 49.64C18.6105 49.977 20.2595 50.3235 21.9699 50.2592C23.683 50.1947 25.4109 49.7208 26.6177 48.4687L27.0655 48.909C25.7017 50.324 23.7879 50.8225 21.9932 50.89Z" fill="#9D6445"/>
<path fill-rule="evenodd" clip-rule="evenodd" d="M43.0143 51.2291C44.7792 51.3331 46.4667 50.7767 47.4885 50.2303L47.196 49.6724C46.2506 50.178 44.6766 50.6947 43.0507 50.5989C41.4406 50.504 39.7808 49.8109 38.5999 47.891L38.069 48.2241C39.373 50.3442 41.2334 51.1241 43.0143 51.2291Z" fill="#9D6445"/>
<path fill-rule="evenodd" clip-rule="evenodd" d="M24.6685 62.2163C25.1782 58.5914 27.6268 55.1257 28.7849 53.8419L29.2469 54.267C28.1272 55.5082 25.7717 58.86 25.2873 62.3051L24.6685 62.2163ZM40.5099 62.6207C40.0256 59.1756 37.6701 55.8239 36.5503 54.5826L37.0123 54.1575C38.1705 55.4413 40.6191 58.907 41.1287 62.5319L40.5099 62.6207ZM40.0744 68.2318C33.2368 65.2542 27.2642 67.6181 25.1603 69.1451L24.7956 68.6325C27.0403 67.0033 33.2438 64.5698 40.3218 67.6521L40.0744 68.2318Z" fill="#9D6445"/>
<path fill-rule="evenodd" clip-rule="evenodd" d="M22.0166 50.2586C20.1321 50.3295 18.3312 49.952 17.2231 49.5739L17.8234 47.7798C18.7504 48.0962 20.3235 48.4272 21.9468 48.3661C23.5782 48.3047 25.1203 47.8552 26.17 46.7661L27.5135 48.0871C25.9926 49.6651 23.8929 50.188 22.0166 50.2586Z" fill="#F6C09D"/>
<path fill-rule="evenodd" clip-rule="evenodd" d="M43.2887 50.5967C45.1927 50.709 46.9936 50.113 48.0918 49.5256L47.2144 47.852C46.3454 48.3168 44.8848 48.7939 43.3979 48.7062C41.9587 48.6214 40.4994 48.0152 39.4416 46.2954L37.8489 47.2947C39.276 49.6149 41.337 50.4817 43.2887 50.5967Z" fill="#F6C09D"/>
</svg>
