<svg width="80" height="100" viewBox="0 0 80 100" fill="none" xmlns="http://www.w3.org/2000/svg">
<path d="M30.625 85H50V100H30.625V85Z" fill="#C46C4E"/>
<path d="M50.0706 90.6998V83.125H40.3125H30.5544V91.127C34.1217 93.5657 37.7412 95 40.0076 95C42.4033 95 46.3109 93.3973 50.0706 90.6998Z" fill="#8B3923"/>
<path d="M40.0076 25C28.7239 25 19.5766 34.374 19.5766 45.9375L19.5766 53.75C16.2084 53.75 13.4778 56.5482 13.4778 60C13.4778 63.4518 16.2084 66.25 19.5766 66.25L19.5766 69.6875C19.5766 81.251 34.2137 90.625 40.0076 90.625C45.8014 90.625 60.4385 81.251 60.4385 69.6875V66.25C63.8068 66.25 66.5373 63.4518 66.5373 60C66.5373 56.5482 63.8068 53.75 60.4385 53.75V45.9375C60.4385 34.374 51.2913 25 40.0076 25Z" fill="#C46C4E"/>
<ellipse cx="30.2495" cy="59.6875" rx="2.13458" ry="2.1875" fill="#252C4A"/>
<ellipse cx="50.3755" cy="59.6875" rx="2.13458" ry="2.1875" fill="#252C4A"/>
<path d="M38.1099 69.4056V69.4506C38.1099 71.1347 39.4752 72.5 41.1593 72.5C42.8434 72.5 44.2087 71.1347 44.2087 69.4506V60.5494C44.2087 59.8628 43.9817 59.2291 43.5988 58.7194V67.5756C43.5988 69.2597 42.2335 70.625 40.5494 70.625C39.5519 70.625 38.6662 70.146 38.1099 69.4056Z" fill="#4C150E"/>
<path d="M48.75 78.125H33.125L34.0086 79.3367C37.1683 83.6696 41.8882 84.3594 45.5585 81.0247L48.75 78.125Z" fill="#4C150E"/>
<path d="M3.82347 67.1908C0.836568 60.7121 3.27211 56.6604 7.4766 49.666C9.68564 45.9911 12.383 41.5038 15.0388 35.4254C21.2024 21.3185 33.8024 18.0158 39.6507 18.128H40.7022C46.5435 18.0104 59.4178 21.3075 65.5862 35.4254C68.242 41.5038 70.9393 45.9911 73.1484 49.666C77.3529 56.6604 79.7884 60.7121 76.8015 67.1908C73.1566 75.0968 65.4693 79.6616 62.0814 80.9558C63.2496 79.544 65.5862 76.1557 65.5862 73.8968C61.4773 78.787 57.468 81.9733 53.0808 83.8829C57.154 80.1516 60.4385 75.1652 60.4385 69.6875V66.25C63.8068 66.25 66.5373 63.4518 66.5373 60C66.5373 56.5482 63.8068 53.75 60.4385 53.75V51.238C53.3802 51.5649 42.3603 45.1716 32.982 38.3884C29.4633 44.688 24.1966 52.5074 19.5766 53.6204V53.75C16.2083 53.75 13.4778 56.5482 13.4778 60C13.4778 63.4518 16.2083 66.25 19.5766 66.25V69.6875C19.5766 74.894 22.544 79.6566 26.3354 83.3195C22.414 81.3688 18.7674 78.3344 15.0388 73.8968C15.0388 76.1556 17.3754 79.544 18.5436 80.9557C15.1557 79.6616 7.46844 75.0968 3.82347 67.1908Z" fill="#4C150E"/>
</svg>
